  0
SECTION
  2
HEADER
  9
$ACADVER
  1
AC1027
  9
$ACADMAINTVER
 70
     8
  9
$DWGCODEPAGE
  3
ANSI_1251
  9
$REQUIREDVERSIONS
160
                 0
  9
$INSBASE
 10
0.0
 20
0.0
 30
0.0
  9
$EXTMIN
 10
1.000000000000000E+20
 20
1.000000000000000E+20
 30
1.000000000000000E+20
  9
$EXTMAX
 10
-1.000000000000000E+20
 20
-1.000000000000000E+20
 30
-1.000000000000000E+20
  9
$LIMMIN
 10
0.0
 20
0.0
  9
$LIMMAX
 10
800.0999999999999
 20
566.42
  9
$ORTHOMODE
 70
     0
  9
$REGENMODE
 70
     1
  9
$FILLMODE
 70
     1
  9
$QTEXTMODE
 70
     0
  9
$MIRRTEXT
 70
     1
  9
$LTSCALE
 40
1.0
  9
$ATTMODE
 70
     1
  9
$TEXTSIZE
 40
2.5
  9
$TRACEWID
 40
1.0
  9
$TEXTSTYLE
  7
Standard
  9
$CLAYER
  8
0
  9
$CELTYPE
  6
ByLayer
  9
$CECOLOR
 62
   256
  9
$CELTSCALE
 40
1.0
  9
$DISPSILH
 70
     0
  9
$DIMSCALE
 40
1.0
  9
$DIMASZ
 40
2.5
  9
$DIMEXO
 40
0.625
  9
$DIMDLI
 40
3.75
  9
$DIMRND
 40
0.0
  9
$DIMDLE
 40
0.0
  9
$DIMEXE
 40
1.25
  9
$DIMTP
 40
0.0
  9
$DIMTM
 40
0.0
  9
$DIMTXT
 40
2.5
  9
$DIMCEN
 40
2.5
  9
$DIMTSZ
 40
0.0
  9
$DIMTOL
 70
     0
  9
$DIMLIM
 70
     0
  9
$DIMTIH
 70
     0
  9
$DIMTOH
 70
     0
  9
$DIMSE1
 70
     0
  9
$DIMSE2
 70
     0
  9
$DIMTAD
 70
     1
  9
$DIMZIN
 70
     8
  9
$DIMBLK
  1

  9
$DIMASO
 70
     1
  9
$DIMSHO
 70
     1
  9
$DIMPOST
  1

  9
$DIMAPOST
  1

  9
$DIMALT
 70
     0
  9
$DIMALTD
 70
     3
  9
$DIMALTF
 40
0.03937007874016
  9
$DIMLFAC
 40
1.0
  9
$DIMTOFL
 70
     1
  9
$DIMTVP
 40
0.0
  9
$DIMTIX
 70
     0
  9
$DIMSOXD
 70
     0
  9
$DIMSAH
 70
     0
  9
$DIMBLK1
  1

  9
$DIMBLK2
  1

  9
$DIMSTYLE
  2
ISO-25
  9
$DIMCLRD
 70
     0
  9
$DIMCLRE
 70
     0
  9
$DIMCLRT
 70
     0
  9
$DIMTFAC
 40
1.0
  9
$DIMGAP
 40
0.625
  9
$DIMJUST
 70
     0
  9
$DIMSD1
 70
     0
  9
$DIMSD2
 70
     0
  9
$DIMTOLJ
 70
     0
  9
$DIMTZIN
 70
     8
  9
$DIMALTZ
 70
     0
  9
$DIMALTTZ
 70
     0
  9
$DIMUPT
 70
     0
  9
$DIMDEC
 70
     2
  9
$DIMTDEC
 70
     2
  9
$DIMALTU
 70
     2
  9
$DIMALTTD
 70
     3
  9
$DIMTXSTY
  7
Standard
  9
$DIMAUNIT
 70
     0
  9
$DIMADEC
 70
     0
  9
$DIMALTRND
 40
0.0
  9
$DIMAZIN
 70
     0
  9
$DIMDSEP
 70
    44
  9
$DIMATFIT
 70
     3
  9
$DIMFRAC
 70
     0
  9
$DIMLDRBLK
  1

  9
$DIMLUNIT
 70
     2
  9
$DIMLWD
 70
    -2
  9
$DIMLWE
 70
    -2
  9
$DIMTMOVE
 70
     0
  9
$DIMFXL
 40
1.0
  9
$DIMFXLON
 70
     0
  9
$DIMJOGANG
 40
0.7853981633974483
  9
$DIMTFILL
 70
     0
  9
$DIMTFILLCLR
 70
     0
  9
$DIMARCSYM
 70
     0
  9
$DIMLTYPE
  6

  9
$DIMLTEX1
  6

  9
$DIMLTEX2
  6

  9
$DIMTXTDIRECTION
 70
     0
  9
$LUNITS
 70
     2
  9
$LUPREC
 70
     4
  9
$SKETCHINC
 40
1.0
  9
$FILLETRAD
 40
10.0
  9
$AUNITS
 70
     0
  9
$AUPREC
 70
     0
  9
$MENU
  1
.
  9
$ELEVATION
 40
0.0
  9
$PELEVATION
 40
0.0
  9
$THICKNESS
 40
0.0
  9
$LIMCHECK
 70
     0
  9
$CHAMFERA
 40
0.0
  9
$CHAMFERB
 40
0.0
  9
$CHAMFERC
 40
0.0
  9
$CHAMFERD
 40
0.0
  9
$SKPOLY
 70
     0
  9
$TDCREATE
 40
2458144.377353426
  9
$TDUCREATE
 40
2458144.252353426
  9
$TDUPDATE
 40
2458144.377356412
  9
$TDUUPDATE
 40
2458144.252356412
  9
$TDINDWG
 40
0.0000000116
  9
$TDUSRTIMER
 40
0.0000000116
  9
$USRTIMER
 70
     1
  9
$ANGBASE
 50
0.0
  9
$ANGDIR
 70
     0
  9
$PDMODE
 70
     0
  9
$PDSIZE
 40
0.0
  9
$PLINEWID
 40
0.0
  9
$SPLFRAME
 70
     0
  9
$SPLINETYPE
 70
     6
  9
$SPLINESEGS
 70
     8
  9
$HANDSEED
  5
253
  9
$SURFTAB1
 70
     6
  9
$SURFTAB2
 70
     6
  9
$SURFTYPE
 70
     6
  9
$SURFU
 70
     6
  9
$SURFV
 70
     6
  9
$UCSBASE
  2

  9
$UCSNAME
  2

  9
$UCSORG
 10
0.0
 20
0.0
 30
0.0
  9
$UCSXDIR
 10
1.0
 20
0.0
 30
0.0
  9
$UCSYDIR
 10
0.0
 20
1.0
 30
0.0
  9
$UCSORTHOREF
  2

  9
$UCSORTHOVIEW
 70
     0
  9
$UCSORGTOP
 10
0.0
 20
0.0
 30
0.0
  9
$UCSORGBOTTOM
 10
0.0
 20
0.0
 30
0.0
  9
$UCSORGLEFT
 10
0.0
 20
0.0
 30
0.0
  9
$UCSORGRIGHT
 10
0.0
 20
0.0
 30
0.0
  9
$UCSORGFRONT
 10
0.0
 20
0.0
 30
0.0
  9
$UCSORGBACK
 10
0.0
 20
0.0
 30
0.0
  9
$PUCSBASE
  2

  9
$PUCSNAME
  2

  9
$PUCSORG
 10
0.0
 20
0.0
 30
0.0
  9
$PUCSXDIR
 10
1.0
 20
0.0
 30
0.0
  9
$PUCSYDIR
 10
0.0
 20
1.0
 30
0.0
  9
$PUCSORTHOREF
  2

  9
$PUCSORTHOVIEW
 70
     0
  9
$PUCSORGTOP
 10
0.0
 20
0.0
 30
0.0
  9
$PUCSORGBOTTOM
 10
0.0
 20
0.0
 30
0.0
  9
$PUCSORGLEFT
 10
0.0
 20
0.0
 30
0.0
  9
$PUCSORGRIGHT
 10
0.0
 20
0.0
 30
0.0
  9
$PUCSORGFRONT
 10
0.0
 20
0.0
 30
0.0
  9
$PUCSORGBACK
 10
0.0
 20
0.0
 30
0.0
  9
$USERI1
 70
     0
  9
$USERI2
 70
     0
  9
$USERI3
 70
     0
  9
$USERI4
 70
     0
  9
$USERI5
 70
     0
  9
$USERR1
 40
0.0
  9
$USERR2
 40
0.0
  9
$USERR3
 40
0.0
  9
$USERR4
 40
0.0
  9
$USERR5
 40
0.0
  9
$WORLDVIEW
 70
     1
  9
$SHADEDGE
 70
     3
  9
$SHADEDIF
 70
    70
  9
$TILEMODE
 70
     1
  9
$MAXACTVP
 70
    64
  9
$PINSBASE
 10
0.0
 20
0.0
 30
0.0
  9
$PLIMCHECK
 70
     0
  9
$PEXTMIN
 10
1.000000000000000E+20
 20
1.000000000000000E+20
 30
1.000000000000000E+20
  9
$PEXTMAX
 10
-1.000000000000000E+20
 20
-1.000000000000000E+20
 30
-1.000000000000000E+20
  9
$PLIMMIN
 10
0.0
 20
0.0
  9
$PLIMMAX
 10
420.0
 20
297.0
  9
$UNITMODE
 70
     0
  9
$VISRETAIN
 70
     1
  9
$PLINEGEN
 70
     0
  9
$PSLTSCALE
 70
     1
  9
$TREEDEPTH
 70
  3020
  9
$CMLSTYLE
  2
Standard
  9
$CMLJUST
 70
     0
  9
$CMLSCALE
 40
20.0
  9
$PROXYGRAPHICS
 70
     1
  9
$MEASUREMENT
 70
     1
  9
$CELWEIGHT
370
    -1
  9
$ENDCAPS
280
     0
  9
$JOINSTYLE
280
     0
  9
$LWDISPLAY
290
     0
  9
$INSUNITS
 70
     4
  9
$HYPERLINKBASE
  1

  9
$STYLESHEET
  1

  9
$XEDIT
290
     1
  9
$CEPSNTYPE
380
     0
  9
$PSTYLEMODE
290
     1
  9
$FINGERPRINTGUID
  2
{1044FE61-2529-4019-8A42-7F0967E425E7}
  9
$VERSIONGUID
  2
{FAEB1C32-E019-11D5-929B-00C0DF256EC4}
  9
$EXTNAMES
290
     1
  9
$PSVPSCALE
 40
0.0
  9
$OLESTARTUP
290
     0
  9
$SORTENTS
280
   127
  9
$INDEXCTL
280
     0
  9
$HIDETEXT
280
     1
  9
$XCLIPFRAME
280
     2
  9
$HALOGAP
280
     0
  9
$OBSCOLOR
 70
   257
  9
$OBSLTYPE
280
     0
  9
$INTERSECTIONDISPLAY
280
     0
  9
$INTERSECTIONCOLOR
 70
   257
  9
$DIMASSOC
280
     2
  9
$PROJECTNAME
  1

  9
$CAMERADISPLAY
290
     0
  9
$LENSLENGTH
 40
50.0
  9
$CAMERAHEIGHT
 40
0.0
  9
$STEPSPERSEC
 40
2.0
  9
$STEPSIZE
 40
6.0
  9
$3DDWFPREC
 40
2.0
  9
$PSOLWIDTH
 40
5.0
  9
$PSOLHEIGHT
 40
80.0
  9
$LOFTANG1
 40
1.570796326794897
  9
$LOFTANG2
 40
1.570796326794897
  9
$LOFTMAG1
 40
0.0
  9
$LOFTMAG2
 40
0.0
  9
$LOFTPARAM
 70
     7
  9
$LOFTNORMALS
280
     1
  9
$LATITUDE
 40
37.795
  9
$LONGITUDE
 40
-122.394
  9
$NORTHDIRECTION
 40
0.0
  9
$TIMEZONE
 70
 -8000
  9
$LIGHTGLYPHDISPLAY
280
     1
  9
$TILEMODELIGHTSYNCH
280
     1
  9
$CMATERIAL
347
44
  9
$SOLIDHIST
280
     1
  9
$SHOWHIST
280
     1
  9
$DWFFRAME
280
     2
  9
$DGNFRAME
280
     2
  9
$REALWORLDSCALE
290
     1
  9
$INTERFERECOLOR
 62
   256
  9
$CSHADOW
280
     0
  9
$SHADOWPLANELOCATION
 40
0.0
  0
ENDSEC
  0
SECTION
  2
CLASSES
  0
CLASS
  1
ACDBDICTIONARYWDFLT
  2
AcDbDictionaryWithDefault
  3
ObjectDBX Classes
 90
        0
 91
        4
280
     0
281
     0
  0
CLASS
  1
VISUALSTYLE
  2
AcDbVisualStyle
  3
ObjectDBX Classes
 90
     4095
 91
        4
280
     0
281
     0
  0
CLASS
  1
MATERIAL
  2
AcDbMaterial
  3
ObjectDBX Classes
 90
     1153
 91
        4
280
     0
281
     0
  0
CLASS
  1
SCALE
  2
AcDbScale
  3
ObjectDBX Classes
 90
     1153
 91
        4
280
     0
281
     0
  0
CLASS
  1
SUN
  2
AcDbSun
  3
SCENEOE
 90
     1153
 91
        4
280
     0
281
     0
  0
CLASS
  1
DICTIONARYVAR
  2
AcDbDictionaryVar
  3
ObjectDBX Classes
 90
        0
 91
        4
280
     0
281
     0
  0
ENDSEC
  0
SECTION
  2
TABLES
  0
TABLE
  2
VPORT
  5
8
330
0
100
AcDbSymbolTable
 70
     1
  0
VPORT
  5
29
330
8
100
AcDbSymbolTableRecord
100
AcDbViewportTableRecord
  2
*Active
 70
     0
 10
0.0
 20
0.0
 11
1.0
 21
1.0
 12
344.1869158878504
 22
148.5
 13
0.0
 23
0.0
 14
10.0
 24
10.0
 15
10.0
 25
10.0
 16
0.0
 26
0.0
 36
1.0
 17
0.0
 27
0.0
 37
0.0
 40
297.0
 41
1.972972972850329
 42
50.0
 43
0.0
 44
0.0
 50
0.0
 51
0.0
 71
     0
 72
   100
 73
     1
 74
     3
 75
     0
 76
     0
 77
     0
 78
     0
281
     0
 65
     1
110
0.0
120
0.0
130
0.0
111
1.0
121
0.0
131
0.0
112
0.0
122
1.0
132
0.0
 79
     0
146
0.0
 60
     3
 61
     5
292
     1
282
     1
141
0.0
142
0.0
 63
   250
361
69
  0
ENDTAB
  0
TABLE
  2
LTYPE
  5
5
330
0
100
AcDbSymbolTable
 70
     1
  0
LTYPE
  5
14
330
5
100
AcDbSymbolTableRecord
100
AcDbLinetypeTableRecord
  2
ByBlock
 70
     0
  3

 72
    65
 73
     0
 40
0.0
  0
LTYPE
  5
15
330
5
100
AcDbSymbolTableRecord
100
AcDbLinetypeTableRecord
  2
ByLayer
 70
     0
  3

 72
    65
 73
     0
 40
0.0
  0
LTYPE
  5
16
330
5
100
AcDbSymbolTableRecord
100
AcDbLinetypeTableRecord
  2
Continuous
 70
     0
  3
Solid line
 72
    65
 73
     0
 40
0.0
  0
ENDTAB
  0
TABLE
  2
LAYER
  5
2
330
0
100
AcDbSymbolTable
 70
     2
  0
LAYER
  5
10
330
2
100
AcDbSymbolTableRecord
100
AcDbLayerTableRecord
  2
0
 70
     0
 62
     7
  6
Continuous
370
    -3
390
F
347
46
348
0
  0
LAYER
  5
6A
330
2
100
AcDbSymbolTableRecord
100
AcDbLayerTableRecord
  2
Sheet
 70
     0
 62
   255
  6
Continuous
370
    -3
390
F
347
46
348
0
  0
ENDTAB
  0
TABLE
  2
STYLE
  5
3
330
0
100
AcDbSymbolTable
 70
     1
  0
STYLE
  5
11
330
3
100
AcDbSymbolTableRecord
100
AcDbTextStyleTableRecord
  2
Standard
 70
     0
 40
0.0
 41
1.0
 50
0.0
 71
     0
 42
2.5
  3
txt
  4

  0
ENDTAB
  0
TABLE
  2
VIEW
  5
6
330
0
100
AcDbSymbolTable
 70
     0
  0
ENDTAB
  0
TABLE
  2
UCS
  5
7
330
0
100
AcDbSymbolTable
 70
     0
  0
ENDTAB
  0
TABLE
  2
APPID
  5
9
330
0
100
AcDbSymbolTable
 70
     1
  0
APPID
  5
12
330
9
100
AcDbSymbolTableRecord
100
AcDbRegAppTableRecord
  2
ACAD
 70
     0
  0
ENDTAB
  0
TABLE
  2
DIMSTYLE
  5
A
330
0
100
AcDbSymbolTable
 70
     1
100
AcDbDimStyleTable
  0
DIMSTYLE
105
27
330
A
100
AcDbSymbolTableRecord
100
AcDbDimStyleTableRecord
  2
ISO-25
 70
     0
 41
2.5
 42
0.625
 43
3.75
 44
1.25
 73
     0
 74
     0
 77
     1
 78
     8
140
2.5
141
2.5
143
0.03937007874016
147
0.625
171
     3
172
     1
178
     0
271
     2
272
     2
274
     3
278
    44
283
     0
284
     8
340
11
  0
ENDTAB
  0
TABLE
  2
BLOCK_RECORD
  5
1
330
0
100
AcDbSymbolTable
 70
     1
  0
BLOCK_RECORD
  5
1F
330
1
100
AcDbSymbolTableRecord
100
AcDbBlockTableRecord
  2
*Model_Space
340
22
 70
     0
280
     1
281
     0
  0
BLOCK_RECORD
  5
1B
330
1
100
AcDbSymbolTableRecord
100
AcDbBlockTableRecord
  2
*Paper_Space
340
1E
 70
     0
280
     1
281
     0
  0
BLOCK_RECORD
  5
23
330
1
100
AcDbSymbolTableRecord
100
AcDbBlockTableRecord
  2
*Paper_Space0
340
26
 70
     0
280
     1
281
     0
  0
ENDTAB
  0
ENDSEC
  0
SECTION
  2
BLOCKS
  0
BLOCK
  5
20
330
1F
100
AcDbEntity
  8
0
100
AcDbBlockBegin
  2
*Model_Space
 70
     0
 10
0.0
 20
0.0
 30
0.0
  3
*Model_Space
  1
*Model_Space
  0
ENDBLK
  5
21
330
1F
100
AcDbEntity
  8
0
100
AcDbBlockEnd
  0
BLOCK
  5
1C
330
1B
100
AcDbEntity
 67
     1
  8
0
100
AcDbBlockBegin
  2
*Paper_Space
 70
     0
 10
0.0
 20
0.0
 30
0.0
  3
*Paper_Space
  1
*Paper_Space
  0
ENDBLK
  5
1D
330
1B
100
AcDbEntity
 67
     1
  8
0
100
AcDbBlockEnd
  0
BLOCK
  5
24
330
23
100
AcDbEntity
  8
0
100
AcDbBlockBegin
  2
*Paper_Space0
 70
     0
 10
0.0
 20
0.0
 30
0.0
  3
*Paper_Space0
  1
*Paper_Space0
  0
ENDBLK
  5
25
330
23
100
AcDbEntity
  8
0
100
AcDbBlockEnd
  0
ENDSEC
  0
SECTION
  2
ENTITIES
  0
LWPOLYLINE
  5
6B
330
1F
100
AcDbEntity
  8
Sheet
100
AcDbPolyline
 90
        2
 70
     1
 43
0.508
 10
506.74596898
 20
426.00001414
 42
1.0
 10
507.25396898
 20
426.00001414
 42
1.0
  0
LWPOLYLINE
  5
6C
330
1F
100
AcDbEntity
  8
Sheet
100
AcDbPolyline
 90
        2
 70
     1
 43
0.508
 10
536.74607154
 20
426.00023004
 42
1.0
 10
537.2540715399999
 20
426.00023004
 42
1.0
  0
LWPOLYLINE
  5
6D
330
1F
100
AcDbEntity
  8
Sheet
100
AcDbPolyline
 90
        2
 70
     1
 43
0.508
 10
537.74629052
 20
378.00020412
 42
1.0
 10
538.2542905199999
 20
378.00020412
 42
1.0
  0
LWPOLYLINE
  5
6E
330
1F
100
AcDbEntity
  8
Sheet
100
AcDbPolyline
 90
        2
 70
     1
 43
0.508
 10
537.74629052
 20
392.0002116799999
 42
1.0
 10
538.2542905199999
 20
392.0002116799999
 42
1.0
  0
LWPOLYLINE
  5
6F
330
1F
100
AcDbEntity
  8
Sheet
100
AcDbPolyline
 90
        2
 70
     1
 43
0.508
 10
566.7460725
 20
426.00023004
 42
1.0
 10
567.2540725
 20
426.00023004
 42
1.0
  0
LWPOLYLINE
  5
70
330
1F
100
AcDbEntity
  8
Sheet
100
AcDbPolyline
 90
        2
 70
     1
 43
0.508
 10
570.7463083399999
 20
378.00020412
 42
1.0
 10
571.25430834
 20
378.00020412
 42
1.0
  0
LWPOLYLINE
  5
71
330
1F
100
AcDbEntity
  8
Sheet
100
AcDbPolyline
 90
        2
 70
     1
 43
0.508
 10
603.7460365999999
 20
352.00019008
 42
1.0
 10
604.2540366
 20
352.00019008
 42
1.0
  0
LWPOLYLINE
  5
72
330
1F
100
AcDbEntity
  8
Sheet
100
AcDbPolyline
 90
        2
 70
     1
 43
0.508
 10
603.74632616
 20
364.00019656
 42
1.0
 10
604.25432616
 20
364.00019656
 42
1.0
  0
LWPOLYLINE
  5
73
330
1F
100
AcDbEntity
  8
Sheet
100
AcDbPolyline
 90
        2
 70
     1
 43
0.508
 10
623.74633696
 20
364.00019656
 42
1.0
 10
624.2543369599999
 20
364.00019656
 42
1.0
  0
LWPOLYLINE
  5
74
330
1F
100
AcDbEntity
  8
Sheet
100
AcDbPolyline
 90
        2
 70
     1
 43
0.762
 10
607.8570367599999
 20
352.00000212
 42
1.0
 10
608.61903676
 20
352.00000212
 42
1.0
  0
LWPOLYLINE
  5
75
330
1F
100
AcDbEntity
  8
Sheet
100
AcDbPolyline
 90
        5
 70
     0
 43
0.09906
 10
0.0
 20
566.41995936
 10
800.0788672
 20
566.41995936
 10
800.0788672
 20
0.02117344
 10
0.0
 20
0.02117344
 10
0.0
 20
566.41995936
  0
LWPOLYLINE
  5
76
330
1F
100
AcDbEntity
  8
Sheet
100
AcDbPolyline
 90
        5
 70
     0
 43
0.29972
 10
425.00019648
 20
441.9994208
 10
444.97938944
 20
441.9994208
 10
444.97938944
 20
399.02108664
 10
425.00019648
 20
399.02108664
 10
425.00019648
 20
441.9994208
  0
LWPOLYLINE
  5
77
330
1F
100
AcDbEntity
  8
Sheet
100
AcDbPolyline
 90
        2
 70
     0
 43
0.29972
 10
425.0000136
 20
440.00002932
 10
420.00001344
 20
440.00002932
  0
TEXT
  5
78
330
1F
100
AcDbEntity
  8
Sheet
100
AcDbText
 10
426.7780136
 20
439.2179938
 30
0.0
 40
1.778
  1
VCC
100
AcDbText
  0
TEXT
  5
79
330
1F
100
AcDbEntity
  8
Sheet
100
AcDbText
 10
422.35392034
 20
440.4879938
 30
0.0
 40
1.778
  1
1
100
AcDbText
  0
LWPOLYLINE
  5
7A
330
1F
100
AcDbEntity
  8
Sheet
100
AcDbPolyline
 90
        2
 70
     0
 43
0.29972
 10
425.0000136
 20
437.0000277
 10
420.00001344
 20
437.0000277
  0
TEXT
  5
7B
330
1F
100
AcDbEntity
  8
Sheet
100
AcDbText
 10
426.7780136
 20
436.21799218
 30
0.0
 40
1.778
  1
HIN1
100
AcDbText
  0
TEXT
  5
7C
330
1F
100
AcDbEntity
  8
Sheet
100
AcDbText
 10
422.01510974
 20
437.48799218
 30
0.0
 40
1.778
  1
2
100
AcDbText
  0
LWPOLYLINE
  5
7D
330
1F
100
AcDbEntity
  8
Sheet
100
AcDbPolyline
 90
        2
 70
     0
 43
0.29972
 10
425.0000136
 20
434.00002608
 10
420.00001344
 20
434.00002608
  0
TEXT
  5
7E
330
1F
100
AcDbEntity
  8
Sheet
100
AcDbText
 10
426.7780136
 20
433.21799056
 30
0.0
 40
1.778
  1
HIN2
100
AcDbText
  0
TEXT
  5
7F
330
1F
100
AcDbEntity
  8
Sheet
100
AcDbText
 10
422.01510974
 20
434.48799056
 30
0.0
 40
1.778
  1
3
100
AcDbText
  0
LWPOLYLINE
  5
80
330
1F
100
AcDbEntity
  8
Sheet
100
AcDbPolyline
 90
        2
 70
     0
 43
0.29972
 10
425.0000136
 20
431.00002446
 10
420.00001344
 20
431.00002446
  0
TEXT
  5
81
330
1F
100
AcDbEntity
  8
Sheet
100
AcDbText
 10
426.7780136
 20
430.21798894
 30
0.0
 40
1.778
  1
HIN3
100
AcDbText
  0
TEXT
  5
82
330
1F
100
AcDbEntity
  8
Sheet
100
AcDbText
 10
421.84570444
 20
431.48798894
 30
0.0
 40
1.778
  1
4
100
AcDbText
  0
LWPOLYLINE
  5
83
330
1F
100
AcDbEntity
  8
Sheet
100
AcDbPolyline
 90
        2
 70
     0
 43
0.29972
 10
425.0000136
 20
428.00002284
 10
420.00001344
 20
428.00002284
  0
TEXT
  5
84
330
1F
100
AcDbEntity
  8
Sheet
100
AcDbText
 10
426.7780136
 20
427.21798732
 30
0.0
 40
1.778
  1
LIN1
100
AcDbText
  0
TEXT
  5
85
330
1F
100
AcDbEntity
  8
Sheet
100
AcDbText
 10
422.01510974
 20
428.48798732
 30
0.0
 40
1.778
  1
5
100
AcDbText
  0
LWPOLYLINE
  5
86
330
1F
100
AcDbEntity
  8
Sheet
100
AcDbPolyline
 90
        2
 70
     0
 43
0.29972
 10
425.0000136
 20
425.00002122
 10
420.00001344
 20
425.00002122
  0
TEXT
  5
87
330
1F
100
AcDbEntity
  8
Sheet
100
AcDbText
 10
426.7780136
 20
424.2179857
 30
0.0
 40
1.778
  1
LIN2
100
AcDbText
  0
TEXT
  5
88
330
1F
100
AcDbEntity
  8
Sheet
100
AcDbText
 10
422.01510974
 20
425.4879857
 30
0.0
 40
1.778
  1
6
100
AcDbText
  0
LWPOLYLINE
  5
89
330
1F
100
AcDbEntity
  8
Sheet
100
AcDbPolyline
 90
        2
 70
     0
 43
0.29972
 10
425.0000136
 20
422.0000196
 10
420.00001344
 20
422.0000196
  0
TEXT
  5
8A
330
1F
100
AcDbEntity
  8
Sheet
100
AcDbText
 10
426.7780136
 20
421.21798408
 30
0.0
 40
1.778
  1
LIN3
100
AcDbText
  0
TEXT
  5
8B
330
1F
100
AcDbEntity
  8
Sheet
100
AcDbText
 10
422.03628572
 20
422.48798408
 30
0.0
 40
1.778
  1
7
100
AcDbText
  0
LWPOLYLINE
  5
8C
330
1F
100
AcDbEntity
  8
Sheet
100
AcDbPolyline
 90
        2
 70
     0
 43
0.29972
 10
425.0000136
 20
419.00001798
 10
420.00001344
 20
419.00001798
  0
TEXT
  5
8D
330
1F
100
AcDbEntity
  8
Sheet
100
AcDbText
 10
426.7780136
 20
418.21798246
 30
0.0
 40
1.778
  1
FAULT
100
AcDbText
  0
TEXT
  5
8E
330
1F
100
AcDbEntity
  8
Sheet
100
AcDbText
 10
421.86688042
 20
419.48798246
 30
0.0
 40
1.778
  1
8
100
AcDbText
  0
LWPOLYLINE
  5
8F
330
1F
100
AcDbEntity
  8
Sheet
100
AcDbPolyline
 90
        2
 70
     0
 43
0.29972
 10
425.0000136
 20
416.00001636
 10
420.00001344
 20
416.00001636
  0
TEXT
  5
90
330
1F
100
AcDbEntity
  8
Sheet
100
AcDbText
 10
426.7780136
 20
415.21798084
 30
0.0
 40
1.778
  1
ITRIP
100
AcDbText
  0
TEXT
  5
91
330
1F
100
AcDbEntity
  8
Sheet
100
AcDbText
 10
422.01510974
 20
416.48798084
 30
0.0
 40
1.778
  1
9
100
AcDbText
  0
LWPOLYLINE
  5
92
330
1F
100
AcDbEntity
  8
Sheet
100
AcDbPolyline
 90
        2
 70
     0
 43
0.29972
 10
425.0000136
 20
413.00001474
 10
420.00001344
 20
413.00001474
  0
TEXT
  5
93
330
1F
100
AcDbEntity
  8
Sheet
100
AcDbText
 10
426.7780136
 20
412.21797922
 30
0.0
 40
1.778
  1
EN
100
AcDbText
  0
TEXT
  5
94
330
1F
100
AcDbEntity
  8
Sheet
100
AcDbText
 10
421.2104351999999
 20
413.48797922
 30
0.0
 40
1.778
  1
10
100
AcDbText
  0
LWPOLYLINE
  5
95
330
1F
100
AcDbEntity
  8
Sheet
100
AcDbPolyline
 90
        2
 70
     0
 43
0.29972
 10
425.0000136
 20
410.0000131199999
 10
420.00001344
 20
410.0000131199999
  0
TEXT
  5
96
330
1F
100
AcDbEntity
  8
Sheet
100
AcDbText
 10
426.7780136
 20
409.2179776
 30
0.0
 40
1.778
  1
RCIN
100
AcDbText
  0
TEXT
  5
97
330
1F
100
AcDbEntity
  8
Sheet
100
AcDbText
 10
421.5492458
 20
410.4879776
 30
0.0
 40
1.778
  1
11
100
AcDbText
  0
LWPOLYLINE
  5
98
330
1F
100
AcDbEntity
  8
Sheet
100
AcDbPolyline
 90
        2
 70
     0
 43
0.29972
 10
425.0000136
 20
407.0000115
 10
420.00001344
 20
407.0000115
  0
TEXT
  5
99
330
1F
100
AcDbEntity
  8
Sheet
100
AcDbText
 10
426.7780136
 20
406.21797598
 30
0.0
 40
1.778
  1
VSS
100
AcDbText
  0
TEXT
  5
9A
330
1F
100
AcDbEntity
  8
Sheet
100
AcDbText
 10
421.2104351999999
 20
407.48797598
 30
0.0
 40
1.778
  1
12
100
AcDbText
  0
LWPOLYLINE
  5
9B
330
1F
100
AcDbEntity
  8
Sheet
100
AcDbPolyline
 90
        2
 70
     0
 43
0.29972
 10
425.0000136
 20
404.00000988
 10
420.00001344
 20
404.00000988
  0
TEXT
  5
9C
330
1F
100
AcDbEntity
  8
Sheet
100
AcDbText
 10
426.7780136
 20
403.21797436
 30
0.0
 40
1.778
  1
COM
100
AcDbText
  0
TEXT
  5
9D
330
1F
100
AcDbEntity
  8
Sheet
100
AcDbText
 10
421.2104351999999
 20
404.48797436
 30
0.0
 40
1.778
  1
13
100
AcDbText
  0
LWPOLYLINE
  5
9E
330
1F
100
AcDbEntity
  8
Sheet
100
AcDbPolyline
 90
        2
 70
     0
 43
0.29972
 10
425.0000136
 20
401.00000826
 10
420.00001344
 20
401.00000826
  0
TEXT
  5
9F
330
1F
100
AcDbEntity
  8
Sheet
100
AcDbText
 10
426.7780136
 20
400.21797274
 30
0.0
 40
1.778
  1
LO3
100
AcDbText
  0
TEXT
  5
A0
330
1F
100
AcDbEntity
  8
Sheet
100
AcDbText
 10
421.0410299
 20
401.48797274
 30
0.0
 40
1.778
  1
14
100
AcDbText
  0
LWPOLYLINE
  5
A1
330
1F
100
AcDbEntity
  8
Sheet
100
AcDbPolyline
 90
        2
 70
     0
 43
0.29972
 10
445.00002948
 20
401.00000826
 10
450.00002964
 20
401.00000826
  0
TEXT
  5
A2
330
1F
100
AcDbEntity
  8
Sheet
100
AcDbText
 10
439.87628052
 20
400.21797274
 30
0.0
 40
1.778
  1
LO2
100
AcDbText
  0
TEXT
  5
A3
330
1F
100
AcDbEntity
  8
Sheet
100
AcDbText
 10
447.0320294799999
 20
401.48797274
 30
0.0
 40
1.778
  1
15
100
AcDbText
  0
LWPOLYLINE
  5
A4
330
1F
100
AcDbEntity
  8
Sheet
100
AcDbPolyline
 90
        2
 70
     0
 43
0.29972
 10
445.00002948
 20
404.00000988
 10
450.00002964
 20
404.00000988
  0
TEXT
  5
A5
330
1F
100
AcDbEntity
  8
Sheet
100
AcDbText
 10
440.21509112
 20
403.21797436
 30
0.0
 40
1.778
  1
LO1
100
AcDbText
  0
TEXT
  5
A6
330
1F
100
AcDbEntity
  8
Sheet
100
AcDbText
 10
447.0320294799999
 20
404.48797436
 30
0.0
 40
1.778
  1
16
100
AcDbText
  0
LWPOLYLINE
  5
A7
330
1F
100
AcDbEntity
  8
Sheet
100
AcDbPolyline
 90
        2
 70
     0
 43
0.29972
 10
445.00002948
 20
407.0000115
 10
450.00002964
 20
407.0000115
  0
TEXT
  5
A8
330
1F
100
AcDbEntity
  8
Sheet
100
AcDbText
 10
441.01976566
 20
406.21797598
 30
0.0
 40
1.778
  1
NC
100
AcDbText
  0
TEXT
  5
A9
330
1F
100
AcDbEntity
  8
Sheet
100
AcDbText
 10
447.0320294799999
 20
407.48797598
 30
0.0
 40
1.778
  1
17
100
AcDbText
  0
LWPOLYLINE
  5
AA
330
1F
100
AcDbEntity
  8
Sheet
100
AcDbPolyline
 90
        2
 70
     0
 43
0.29972
 10
445.00002948
 20
410.0000131199999
 10
450.00002964
 20
410.0000131199999
  0
TEXT
  5
AB
330
1F
100
AcDbEntity
  8
Sheet
100
AcDbText
 10
439.5586459
 20
409.2179776
 30
0.0
 40
1.778
  1
VS3
100
AcDbText
  0
TEXT
  5
AC
330
1F
100
AcDbEntity
  8
Sheet
100
AcDbText
 10
447.0320294799999
 20
410.4879776
 30
0.0
 40
1.778
  1
18
100
AcDbText
  0
LWPOLYLINE
  5
AD
330
1F
100
AcDbEntity
  8
Sheet
100
AcDbPolyline
 90
        2
 70
     0
 43
0.29972
 10
445.00002948
 20
413.00001474
 10
450.00002964
 20
413.00001474
  0
TEXT
  5
AE
330
1F
100
AcDbEntity
  8
Sheet
100
AcDbText
 10
439.7280512
 20
412.21797922
 30
0.0
 40
1.778
  1
HO3
100
AcDbText
  0
TEXT
  5
AF
330
1F
100
AcDbEntity
  8
Sheet
100
AcDbText
 10
447.0320294799999
 20
413.48797922
 30
0.0
 40
1.778
  1
19
100
AcDbText
  0
LWPOLYLINE
  5
B0
330
1F
100
AcDbEntity
  8
Sheet
100
AcDbPolyline
 90
        2
 70
     0
 43
0.29972
 10
445.00002948
 20
416.00001636
 10
450.00002964
 20
416.00001636
  0
TEXT
  5
B1
330
1F
100
AcDbEntity
  8
Sheet
100
AcDbText
 10
439.5586459
 20
415.21798084
 30
0.0
 40
1.778
  1
VB3
100
AcDbText
  0
TEXT
  5
B2
330
1F
100
AcDbEntity
  8
Sheet
100
AcDbText
 10
447.0320294799999
 20
416.48798084
 30
0.0
 40
1.778
  1
20
100
AcDbText
  0
LWPOLYLINE
  5
B3
330
1F
100
AcDbEntity
  8
Sheet
100
AcDbPolyline
 90
        2
 70
     0
 43
0.29972
 10
445.00002948
 20
419.00001798
 10
450.00002964
 20
419.00001798
  0
TEXT
  5
B4
330
1F
100
AcDbEntity
  8
Sheet
100
AcDbText
 10
441.01976566
 20
418.21798246
 30
0.0
 40
1.778
  1
NC
100
AcDbText
  0
TEXT
  5
B5
330
1F
100
AcDbEntity
  8
Sheet
100
AcDbText
 10
447.0320294799999
 20
419.48798246
 30
0.0
 40
1.778
  1
21
100
AcDbText
  0
LWPOLYLINE
  5
B6
330
1F
100
AcDbEntity
  8
Sheet
100
AcDbPolyline
 90
        2
 70
     0
 43
0.29972
 10
445.00002948
 20
422.0000196
 10
450.00002964
 20
422.0000196
  0
TEXT
  5
B7
330
1F
100
AcDbEntity
  8
Sheet
100
AcDbText
 10
439.5586459
 20
421.21798408
 30
0.0
 40
1.778
  1
VS2
100
AcDbText
  0
TEXT
  5
B8
330
1F
100
AcDbEntity
  8
Sheet
100
AcDbText
 10
447.0320294799999
 20
422.48798408
 30
0.0
 40
1.778
  1
22
100
AcDbText
  0
LWPOLYLINE
  5
B9
330
1F
100
AcDbEntity
  8
Sheet
100
AcDbPolyline
 90
        2
 70
     0
 43
0.29972
 10
445.00002948
 20
425.00002122
 10
450.00002964
 20
425.00002122
  0
TEXT
  5
BA
330
1F
100
AcDbEntity
  8
Sheet
100
AcDbText
 10
439.7280512
 20
424.2179857
 30
0.0
 40
1.778
  1
HO2
100
AcDbText
  0
TEXT
  5
BB
330
1F
100
AcDbEntity
  8
Sheet
100
AcDbText
 10
447.0320294799999
 20
425.4879857
 30
0.0
 40
1.778
  1
23
100
AcDbText
  0
LWPOLYLINE
  5
BC
330
1F
100
AcDbEntity
  8
Sheet
100
AcDbPolyline
 90
        2
 70
     0
 43
0.29972
 10
445.00002948
 20
428.00002284
 10
450.00002964
 20
428.00002284
  0
TEXT
  5
BD
330
1F
100
AcDbEntity
  8
Sheet
100
AcDbText
 10
439.5586459
 20
427.21798732
 30
0.0
 40
1.778
  1
VB2
100
AcDbText
  0
TEXT
  5
BE
330
1F
100
AcDbEntity
  8
Sheet
100
AcDbText
 10
447.0320294799999
 20
428.48798732
 30
0.0
 40
1.778
  1
24
100
AcDbText
  0
LWPOLYLINE
  5
BF
330
1F
100
AcDbEntity
  8
Sheet
100
AcDbPolyline
 90
        2
 70
     0
 43
0.29972
 10
445.00002948
 20
431.00002446
 10
450.00002964
 20
431.00002446
  0
TEXT
  5
C0
330
1F
100
AcDbEntity
  8
Sheet
100
AcDbText
 10
441.01976566
 20
430.21798894
 30
0.0
 40
1.778
  1
NC
100
AcDbText
  0
TEXT
  5
C1
330
1F
100
AcDbEntity
  8
Sheet
100
AcDbText
 10
447.0320294799999
 20
431.48798894
 30
0.0
 40
1.778
  1
25
100
AcDbText
  0
LWPOLYLINE
  5
C2
330
1F
100
AcDbEntity
  8
Sheet
100
AcDbPolyline
 90
        2
 70
     0
 43
0.29972
 10
445.00002948
 20
434.00002608
 10
450.00002964
 20
434.00002608
  0
TEXT
  5
C3
330
1F
100
AcDbEntity
  8
Sheet
100
AcDbText
 10
439.8974565
 20
433.21799056
 30
0.0
 40
1.778
  1
VS1
100
AcDbText
  0
TEXT
  5
C4
330
1F
100
AcDbEntity
  8
Sheet
100
AcDbText
 10
447.0320294799999
 20
434.48799056
 30
0.0
 40
1.778
  1
26
100
AcDbText
  0
LWPOLYLINE
  5
C5
330
1F
100
AcDbEntity
  8
Sheet
100
AcDbPolyline
 90
        2
 70
     0
 43
0.29972
 10
445.00002948
 20
437.0000277
 10
450.00002964
 20
437.0000277
  0
TEXT
  5
C6
330
1F
100
AcDbEntity
  8
Sheet
100
AcDbText
 10
440.0668618
 20
436.21799218
 30
0.0
 40
1.778
  1
HO1
100
AcDbText
  0
TEXT
  5
C7
330
1F
100
AcDbEntity
  8
Sheet
100
AcDbText
 10
447.0320294799999
 20
437.48799218
 30
0.0
 40
1.778
  1
27
100
AcDbText
  0
LWPOLYLINE
  5
C8
330
1F
100
AcDbEntity
  8
Sheet
100
AcDbPolyline
 90
        2
 70
     0
 43
0.29972
 10
445.00001424
 20
440.00002932
 10
450.0000144
 20
440.00002932
  0
TEXT
  5
C9
330
1F
100
AcDbEntity
  8
Sheet
100
AcDbText
 10
439.89744126
 20
439.2179938
 30
0.0
 40
1.778
  1
VB1
100
AcDbText
  0
TEXT
  5
CA
330
1F
100
AcDbEntity
  8
Sheet
100
AcDbText
 10
447.03201424
 20
440.4879938
 30
0.0
 40
1.778
  1
28
100
AcDbText
  0
TEXT
  5
CB
330
1F
100
AcDbEntity
  8
Sheet
100
AcDbText
 10
425.0000136
 20
442.46681128
 30
0.0
 40
1.524
  1
DA*
100
AcDbText
  0
TEXT
  5
CC
330
1F
100
AcDbEntity
  8
Sheet
100
AcDbText
 10
425.0000136
 20
396.92679314
 30
0.0
 40
1.524
  1
IR21365S
100
AcDbText
  0
LWPOLYLINE
  5
CD
330
1F
100
AcDbEntity
  8
Sheet
100
AcDbPolyline
 90
        2
 70
     0
 43
0.29972
 10
495.50001992
 20
411.00001366
 10
487.0000191399999
 20
411.00001366
  0
LWPOLYLINE
  5
CE
330
1F
100
AcDbEntity
  8
Sheet
100
AcDbPolyline
 90
        2
 70
     0
 43
0.29972
 10
495.50002246
 20
411.0000162
 10
495.50002246
 20
417.0000169
  0
ELLIPSE
  5
CF
330
1F
100
AcDbEntity
  8
Sheet
100
AcDbEllipse
 10
496.98938448
 20
414.01049532
 30
0.0
 11
5.98608912
 21
0.0
 31
0.0
210
0.0
220
0.0
230
1.0
 40
0.9999142879449813
 41
0.0
 42
6.283185307179586
  0
LWPOLYLINE
  5
D0
330
1F
100
AcDbEntity
  8
Sheet
100
AcDbPolyline
 90
        2
 70
     0
 43
0.29972
 10
496.99998644
 20
411.00001366
 10
506.99998676
 20
411.00001366
  0
LWPOLYLINE
  5
D1
330
1F
100
AcDbEntity
  8
Sheet
100
AcDbPolyline
 90
        2
 70
     0
 43
0.29972
 10
497.00003216
 20
410.0000131199999
 10
497.00003216
 20
412.0000142
  0
LWPOLYLINE
  5
D2
330
1F
100
AcDbEntity
  8
Sheet
100
AcDbPolyline
 90
        2
 70
     0
 43
0.29972
 10
497.00003216
 20
413.00001474
 10
497.00003216
 20
415.00001582
  0
LWPOLYLINE
  5
D3
330
1F
100
AcDbEntity
  8
Sheet
100
AcDbPolyline
 90
        2
 70
     0
 43
0.29972
 10
497.00003216
 20
416.00001636
 10
497.00003216
 20
418.00001744
  0
LWPOLYLINE
  5
D4
330
1F
100
AcDbEntity
  8
Sheet
100
AcDbPolyline
 90
        2
 70
     0
 43
0.29972
 10
497.00003724
 20
417.0000169
 10
507.00003756
 20
417.0000169
  0
LWPOLYLINE
  5
D5
330
1F
100
AcDbEntity
  8
Sheet
100
AcDbPolyline
 90
        3
 70
     0
 43
0.29972
 10
501.00003432
 20
411.00001366
 10
501.00003432
 20
414.00001528
 10
497.00003216
 20
414.00001528
  0
LWPOLYLINE
  5
D6
330
1F
100
AcDbEntity
  8
Sheet
100
AcDbPolyline
 90
        2
 70
     0
 43
0.29972
 10
497.00000676
 20
414.00000766
 10
499.00000276
 20
413.50000866
  0
LWPOLYLINE
  5
D7
330
1F
100
AcDbEntity
  8
Sheet
100
AcDbPolyline
 90
        2
 70
     0
 43
0.29972
 10
497.00000676
 20
414.00000766
 10
499.00000276
 20
414.50000666
  0
TEXT
  5
D8
330
1F
100
AcDbEntity
  8
Sheet
100
AcDbText
 10
491.00390496
 20
420.46289542
 30
0.0
 40
1.524
  1
VT*
100
AcDbText
  0
TEXT
  5
D9
330
1F
100
AcDbEntity
  8
Sheet
100
AcDbText
 10
491.00390496
 20
405.93069182
 30
0.0
 40
1.524
  1
MOSFET
100
AcDbText
  0
LWPOLYLINE
  5
DA
330
1F
100
AcDbEntity
  8
Sheet
100
AcDbPolyline
 90
        2
 70
     0
 43
0.29972
 10
495.50000214
 20
435.00001138
 10
487.00000136
 20
435.00001138
  0
LWPOLYLINE
  5
DB
330
1F
100
AcDbEntity
  8
Sheet
100
AcDbPolyline
 90
        2
 70
     0
 43
0.29972
 10
495.50000468
 20
435.00001392
 10
495.50000468
 20
441.00001462
  0
ELLIPSE
  5
DC
330
1F
100
AcDbEntity
  8
Sheet
100
AcDbEllipse
 10
496.98938448
 20
438.01102644
 30
0.0
 11
5.98608912
 21
0.0
 31
0.0
210
0.0
220
0.0
230
1.0
 40
0.9999142879449813
 41
0.0
 42
6.283185307179586
  0
LWPOLYLINE
  5
DD
330
1F
100
AcDbEntity
  8
Sheet
100
AcDbPolyline
 90
        2
 70
     0
 43
0.29972
 10
496.99996866
 20
435.00001138
 10
506.9999689799999
 20
435.00001138
  0
LWPOLYLINE
  5
DE
330
1F
100
AcDbEntity
  8
Sheet
100
AcDbPolyline
 90
        2
 70
     0
 43
0.29972
 10
497.00001438
 20
434.00001084
 10
497.00001438
 20
436.00001192
  0
LWPOLYLINE
  5
DF
330
1F
100
AcDbEntity
  8
Sheet
100
AcDbPolyline
 90
        2
 70
     0
 43
0.29972
 10
497.00001438
 20
437.00001246
 10
497.00001438
 20
439.00001354
  0
LWPOLYLINE
  5
E0
330
1F
100
AcDbEntity
  8
Sheet
100
AcDbPolyline
 90
        2
 70
     0
 43
0.29972
 10
497.00001438
 20
440.00001408
 10
497.00001438
 20
442.00001516
  0
LWPOLYLINE
  5
E1
330
1F
100
AcDbEntity
  8
Sheet
100
AcDbPolyline
 90
        2
 70
     0
 43
0.29972
 10
497.00001946
 20
441.00001462
 10
507.0000197799999
 20
441.00001462
  0
LWPOLYLINE
  5
E2
330
1F
100
AcDbEntity
  8
Sheet
100
AcDbPolyline
 90
        3
 70
     0
 43
0.29972
 10
501.00001654
 20
435.00001138
 10
501.00001654
 20
438.000013
 10
497.00001438
 20
438.000013
  0
LWPOLYLINE
  5
E3
330
1F
100
AcDbEntity
  8
Sheet
100
AcDbPolyline
 90
        2
 70
     0
 43
0.29972
 10
496.99998898
 20
438.0000053799999
 10
498.99998498
 20
437.50000638
  0
LWPOLYLINE
  5
E4
330
1F
100
AcDbEntity
  8
Sheet
100
AcDbPolyline
 90
        2
 70
     0
 43
0.29972
 10
496.99998898
 20
438.0000053799999
 10
498.99998498
 20
438.50000438
  0
TEXT
  5
E5
330
1F
100
AcDbEntity
  8
Sheet
100
AcDbText
 10
491.00388718
 20
444.4628931399999
 30
0.0
 40
1.524
  1
VT*
100
AcDbText
  0
TEXT
  5
E6
330
1F
100
AcDbEntity
  8
Sheet
100
AcDbText
 10
491.00388718
 20
429.93068954
 30
0.0
 40
1.524
  1
MOSFET
100
AcDbText
  0
LWPOLYLINE
  5
E7
330
1F
100
AcDbEntity
  8
Sheet
100
AcDbPolyline
 90
        2
 70
     0
 43
0.29972
 10
525.5000539
 20
411.00001366
 10
517.00005312
 20
411.00001366
  0
LWPOLYLINE
  5
E8
330
1F
100
AcDbEntity
  8
Sheet
100
AcDbPolyline
 90
        2
 70
     0
 43
0.29972
 10
525.50005644
 20
411.0000162
 10
525.50005644
 20
417.0000169
  0
ELLIPSE
  5
E9
330
1F
100
AcDbEntity
  8
Sheet
100
AcDbEllipse
 10
526.98930416
 20
414.01049532
 30
0.0
 11
0.0
 21
5.98557604
 31
0.0
210
0.0
220
0.0
230
1.0
 40
0.9999770849122819
 41
0.0
 42
6.283185307179586
  0
LWPOLYLINE
  5
EA
330
1F
100
AcDbEntity
  8
Sheet
100
AcDbPolyline
 90
        2
 70
     0
 43
0.29972
 10
527.0000204199999
 20
411.00001366
 10
537.00002074
 20
411.00001366
  0
LWPOLYLINE
  5
EB
330
1F
100
AcDbEntity
  8
Sheet
100
AcDbPolyline
 90
        2
 70
     0
 43
0.29972
 10
527.00006614
 20
410.0000131199999
 10
527.00006614
 20
412.0000142
  0
LWPOLYLINE
  5
EC
330
1F
100
AcDbEntity
  8
Sheet
100
AcDbPolyline
 90
        2
 70
     0
 43
0.29972
 10
527.00006614
 20
413.00001474
 10
527.00006614
 20
415.00001582
  0
LWPOLYLINE
  5
ED
330
1F
100
AcDbEntity
  8
Sheet
100
AcDbPolyline
 90
        2
 70
     0
 43
0.29972
 10
527.00006614
 20
416.00001636
 10
527.00006614
 20
418.00001744
  0
LWPOLYLINE
  5
EE
330
1F
100
AcDbEntity
  8
Sheet
100
AcDbPolyline
 90
        2
 70
     0
 43
0.29972
 10
527.00007122
 20
417.0000169
 10
537.00007154
 20
417.0000169
  0
LWPOLYLINE
  5
EF
330
1F
100
AcDbEntity
  8
Sheet
100
AcDbPolyline
 90
        3
 70
     0
 43
0.29972
 10
531.0000683
 20
411.00001366
 10
531.0000683
 20
414.00001528
 10
527.00006614
 20
414.00001528
  0
LWPOLYLINE
  5
F0
330
1F
100
AcDbEntity
  8
Sheet
100
AcDbPolyline
 90
        2
 70
     0
 43
0.29972
 10
527.0000407399999
 20
414.00000766
 10
529.0000367399999
 20
413.50000866
  0
LWPOLYLINE
  5
F1
330
1F
100
AcDbEntity
  8
Sheet
100
AcDbPolyline
 90
        2
 70
     0
 43
0.29972
 10
527.0000407399999
 20
414.00000766
 10
529.0000367399999
 20
414.50000666
  0
TEXT
  5
F2
330
1F
100
AcDbEntity
  8
Sheet
100
AcDbText
 10
521.00393894
 20
420.46289542
 30
0.0
 40
1.524
  1
VT*
100
AcDbText
  0
TEXT
  5
F3
330
1F
100
AcDbEntity
  8
Sheet
100
AcDbText
 10
521.00393894
 20
405.93069182
 30
0.0
 40
1.524
  1
MOSFET
100
AcDbText
  0
LWPOLYLINE
  5
F4
330
1F
100
AcDbEntity
  8
Sheet
100
AcDbPolyline
 90
        2
 70
     0
 43
0.29972
 10
525.5000031
 20
435.00001138
 10
517.00000232
 20
435.00001138
  0
LWPOLYLINE
  5
F5
330
1F
100
AcDbEntity
  8
Sheet
100
AcDbPolyline
 90
        2
 70
     0
 43
0.29972
 10
525.5000056399999
 20
435.00001392
 10
525.5000056399999
 20
441.00001462
  0
ELLIPSE
  5
F6
330
1F
100
AcDbEntity
  8
Sheet
100
AcDbEllipse
 10
526.98930416
 20
438.01102644
 30
0.0
 11
0.0
 21
5.98557604
 31
0.0
210
0.0
220
0.0
230
1.0
 40
0.9999770849122819
 41
0.0
 42
6.283185307179586
  0
LWPOLYLINE
  5
F7
330
1F
100
AcDbEntity
  8
Sheet
100
AcDbPolyline
 90
        2
 70
     0
 43
0.29972
 10
526.99996962
 20
435.00001138
 10
536.9999699399999
 20
435.00001138
  0
LWPOLYLINE
  5
F8
330
1F
100
AcDbEntity
  8
Sheet
100
AcDbPolyline
 90
        2
 70
     0
 43
0.29972
 10
527.00001534
 20
434.00001084
 10
527.00001534
 20
436.00001192
  0
LWPOLYLINE
  5
F9
330
1F
100
AcDbEntity
  8
Sheet
100
AcDbPolyline
 90
        2
 70
     0
 43
0.29972
 10
527.00001534
 20
437.00001246
 10
527.00001534
 20
439.00001354
  0
LWPOLYLINE
  5
FA
330
1F
100
AcDbEntity
  8
Sheet
100
AcDbPolyline
 90
        2
 70
     0
 43
0.29972
 10
527.00001534
 20
440.00001408
 10
527.00001534
 20
442.00001516
  0
LWPOLYLINE
  5
FB
330
1F
100
AcDbEntity
  8
Sheet
100
AcDbPolyline
 90
        2
 70
     0
 43
0.29972
 10
527.0000204199999
 20
441.00001462
 10
537.00002074
 20
441.00001462
  0
LWPOLYLINE
  5
FC
330
1F
100
AcDbEntity
  8
Sheet
100
AcDbPolyline
 90
        3
 70
     0
 43
0.29972
 10
531.0000175
 20
435.00001138
 10
531.0000175
 20
438.000013
 10
527.00001534
 20
438.000013
  0
LWPOLYLINE
  5
FD
330
1F
100
AcDbEntity
  8
Sheet
100
AcDbPolyline
 90
        2
 70
     0
 43
0.29972
 10
526.99998994
 20
438.0000053799999
 10
528.99998594
 20
437.50000638
  0
LWPOLYLINE
  5
FE
330
1F
100
AcDbEntity
  8
Sheet
100
AcDbPolyline
 90
        2
 70
     0
 43
0.29972
 10
526.99998994
 20
438.0000053799999
 10
528.99998594
 20
438.50000438
  0
TEXT
  5
FF
330
1F
100
AcDbEntity
  8
Sheet
100
AcDbText
 10
521.00388814
 20
444.4628931399999
 30
0.0
 40
1.524
  1
VT*
100
AcDbText
  0
TEXT
  5
100
330
1F
100
AcDbEntity
  8
Sheet
100
AcDbText
 10
521.00388814
 20
429.93068954
 30
0.0
 40
1.524
  1
MOSFET
100
AcDbText
  0
LWPOLYLINE
  5
101
330
1F
100
AcDbEntity
  8
Sheet
100
AcDbPolyline
 90
        2
 70
     0
 43
0.29972
 10
555.50005486
 20
411.00001366
 10
547.0000540799999
 20
411.00001366
  0
LWPOLYLINE
  5
102
330
1F
100
AcDbEntity
  8
Sheet
100
AcDbPolyline
 90
        2
 70
     0
 43
0.29972
 10
555.5000574
 20
411.0000162
 10
555.5000574
 20
417.0000169
  0
ELLIPSE
  5
103
330
1F
100
AcDbEntity
  8
Sheet
100
AcDbEllipse
 10
556.9898944
 20
414.01049532
 30
0.0
 11
0.0
 21
5.98557604
 31
0.0
210
0.0
220
0.0
230
1.0
 40
0.9999736900844718
 41
0.0
 42
6.283185307179586
  0
LWPOLYLINE
  5
104
330
1F
100
AcDbEntity
  8
Sheet
100
AcDbPolyline
 90
        2
 70
     0
 43
0.29972
 10
557.00002138
 20
411.00001366
 10
567.0000216999999
 20
411.00001366
  0
LWPOLYLINE
  5
105
330
1F
100
AcDbEntity
  8
Sheet
100
AcDbPolyline
 90
        2
 70
     0
 43
0.29972
 10
557.0000671
 20
410.0000131199999
 10
557.0000671
 20
412.0000142
  0
LWPOLYLINE
  5
106
330
1F
100
AcDbEntity
  8
Sheet
100
AcDbPolyline
 90
        2
 70
     0
 43
0.29972
 10
557.0000671
 20
413.00001474
 10
557.0000671
 20
415.00001582
  0
LWPOLYLINE
  5
107
330
1F
100
AcDbEntity
  8
Sheet
100
AcDbPolyline
 90
        2
 70
     0
 43
0.29972
 10
557.0000671
 20
416.00001636
 10
557.0000671
 20
418.00001744
  0
LWPOLYLINE
  5
108
330
1F
100
AcDbEntity
  8
Sheet
100
AcDbPolyline
 90
        2
 70
     0
 43
0.29972
 10
557.00007218
 20
417.0000169
 10
567.0000725
 20
417.0000169
  0
LWPOLYLINE
  5
109
330
1F
100
AcDbEntity
  8
Sheet
100
AcDbPolyline
 90
        3
 70
     0
 43
0.29972
 10
561.0000692599999
 20
411.00001366
 10
561.0000692599999
 20
414.00001528
 10
557.0000671
 20
414.00001528
  0
LWPOLYLINE
  5
10A
330
1F
100
AcDbEntity
  8
Sheet
100
AcDbPolyline
 90
        2
 70
     0
 43
0.29972
 10
557.0000417
 20
414.00000766
 10
559.0000377
 20
413.50000866
  0
LWPOLYLINE
  5
10B
330
1F
100
AcDbEntity
  8
Sheet
100
AcDbPolyline
 90
        2
 70
     0
 43
0.29972
 10
557.0000417
 20
414.00000766
 10
559.0000377
 20
414.50000666
  0
TEXT
  5
10C
330
1F
100
AcDbEntity
  8
Sheet
100
AcDbText
 10
551.0039399
 20
420.46289542
 30
0.0
 40
1.524
  1
VT*
100
AcDbText
  0
TEXT
  5
10D
330
1F
100
AcDbEntity
  8
Sheet
100
AcDbText
 10
551.0039399
 20
405.93069182
 30
0.0
 40
1.524
  1
MOSFET
100
AcDbText
  0
LWPOLYLINE
  5
10E
330
1F
100
AcDbEntity
  8
Sheet
100
AcDbPolyline
 90
        2
 70
     0
 43
0.29972
 10
555.5000040599999
 20
435.00001138
 10
547.00000328
 20
435.00001138
  0
LWPOLYLINE
  5
10F
330
1F
100
AcDbEntity
  8
Sheet
100
AcDbPolyline
 90
        2
 70
     0
 43
0.29972
 10
555.5000066
 20
435.00001392
 10
555.5000066
 20
441.00001462
  0
ELLIPSE
  5
110
330
1F
100
AcDbEntity
  8
Sheet
100
AcDbEllipse
 10
556.9898944
 20
438.01102644
 30
0.0
 11
0.0
 21
5.98557604
 31
0.0
210
0.0
220
0.0
230
1.0
 40
0.9999736900844718
 41
0.0
 42
6.283185307179586
  0
LWPOLYLINE
  5
111
330
1F
100
AcDbEntity
  8
Sheet
100
AcDbPolyline
 90
        2
 70
     0
 43
0.29972
 10
556.99997058
 20
435.00001138
 10
566.9999709
 20
435.00001138
  0
LWPOLYLINE
  5
112
330
1F
100
AcDbEntity
  8
Sheet
100
AcDbPolyline
 90
        2
 70
     0
 43
0.29972
 10
557.0000163
 20
434.00001084
 10
557.0000163
 20
436.00001192
  0
LWPOLYLINE
  5
113
330
1F
100
AcDbEntity
  8
Sheet
100
AcDbPolyline
 90
        2
 70
     0
 43
0.29972
 10
557.0000163
 20
437.00001246
 10
557.0000163
 20
439.00001354
  0
LWPOLYLINE
  5
114
330
1F
100
AcDbEntity
  8
Sheet
100
AcDbPolyline
 90
        2
 70
     0
 43
0.29972
 10
557.0000163
 20
440.00001408
 10
557.0000163
 20
442.00001516
  0
LWPOLYLINE
  5
115
330
1F
100
AcDbEntity
  8
Sheet
100
AcDbPolyline
 90
        2
 70
     0
 43
0.29972
 10
557.00002138
 20
441.00001462
 10
567.0000216999999
 20
441.00001462
  0
LWPOLYLINE
  5
116
330
1F
100
AcDbEntity
  8
Sheet
100
AcDbPolyline
 90
        3
 70
     0
 43
0.29972
 10
561.00001846
 20
435.00001138
 10
561.00001846
 20
438.000013
 10
557.0000163
 20
438.000013
  0
LWPOLYLINE
  5
117
330
1F
100
AcDbEntity
  8
Sheet
100
AcDbPolyline
 90
        2
 70
     0
 43
0.29972
 10
556.9999909
 20
438.0000053799999
 10
558.9999869
 20
437.50000638
  0
LWPOLYLINE
  5
118
330
1F
100
AcDbEntity
  8
Sheet
100
AcDbPolyline
 90
        2
 70
     0
 43
0.29972
 10
556.9999909
 20
438.0000053799999
 10
558.9999869
 20
438.50000438
  0
TEXT
  5
119
330
1F
100
AcDbEntity
  8
Sheet
100
AcDbText
 10
551.0038890999999
 20
444.4628931399999
 30
0.0
 40
1.524
  1
VT*
100
AcDbText
  0
TEXT
  5
11A
330
1F
100
AcDbEntity
  8
Sheet
100
AcDbText
 10
551.0038890999999
 20
429.93068954
 30
0.0
 40
1.524
  1
MOSFET
100
AcDbText
  0
LWPOLYLINE
  5
11B
330
1F
100
AcDbEntity
  8
Sheet
100
AcDbPolyline
 90
        5
 70
     0
 43
0.29972
 10
334.9997872
 20
441.9994208
 10
354.9790208
 20
441.9994208
 10
354.9790208
 20
429.0210876
 10
334.9997872
 20
429.0210876
 10
334.9997872
 20
441.9994208
  0
LWPOLYLINE
  5
11C
330
1F
100
AcDbEntity
  8
Sheet
100
AcDbPolyline
 90
        2
 70
     0
 43
0.29972
 10
335.00001072
 20
440.00001408
 10
330.00001056
 20
440.00001408
  0
TEXT
  5
11D
330
1F
100
AcDbEntity
  8
Sheet
100
AcDbText
 10
336.77801072
 20
439.2179785599999
 30
0.0
 40
1.778
  1
SW
100
AcDbText
  0
TEXT
  5
11E
330
1F
100
AcDbEntity
  8
Sheet
100
AcDbText
 10
332.35391746
 20
440.48797856
 30
0.0
 40
1.778
  1
1
100
AcDbText
  0
LWPOLYLINE
  5
11F
330
1F
100
AcDbEntity
  8
Sheet
100
AcDbPolyline
 90
        2
 70
     0
 43
0.29972
 10
335.00001072
 20
437.00001246
 10
330.00001056
 20
437.00001246
  0
TEXT
  5
120
330
1F
100
AcDbEntity
  8
Sheet
100
AcDbText
 10
336.77801072
 20
436.21797694
 30
0.0
 40
1.778
  1
BST
100
AcDbText
  0
TEXT
  5
121
330
1F
100
AcDbEntity
  8
Sheet
100
AcDbText
 10
332.01510686
 20
437.48797694
 30
0.0
 40
1.778
  1
2
100
AcDbText
  0
LWPOLYLINE
  5
122
330
1F
100
AcDbEntity
  8
Sheet
100
AcDbPolyline
 90
        2
 70
     0
 43
0.29972
 10
335.00001072
 20
434.00001084
 10
330.00001056
 20
434.00001084
  0
TEXT
  5
123
330
1F
100
AcDbEntity
  8
Sheet
100
AcDbText
 10
336.77801072
 20
433.21797532
 30
0.0
 40
1.778
  1
RCL
100
AcDbText
  0
TEXT
  5
124
330
1F
100
AcDbEntity
  8
Sheet
100
AcDbText
 10
332.01510686
 20
434.48797532
 30
0.0
 40
1.778
  1
3
100
AcDbText
  0
LWPOLYLINE
  5
125
330
1F
100
AcDbEntity
  8
Sheet
100
AcDbPolyline
 90
        2
 70
     0
 43
0.29972
 10
335.00001072
 20
431.00000922
 10
330.00001056
 20
431.00000922
  0
TEXT
  5
126
330
1F
100
AcDbEntity
  8
Sheet
100
AcDbText
 10
336.77801072
 20
430.2179737
 30
0.0
 40
1.778
  1
RTN
100
AcDbText
  0
TEXT
  5
127
330
1F
100
AcDbEntity
  8
Sheet
100
AcDbText
 10
331.84570156
 20
431.4879737
 30
0.0
 40
1.778
  1
4
100
AcDbText
  0
LWPOLYLINE
  5
128
330
1F
100
AcDbEntity
  8
Sheet
100
AcDbPolyline
 90
        2
 70
     0
 43
0.29972
 10
355.0000266
 20
431.00000922
 10
360.00002676
 20
431.00000922
  0
TEXT
  5
129
330
1F
100
AcDbEntity
  8
Sheet
100
AcDbText
 10
350.9985868
 20
430.2179737
 30
0.0
 40
1.778
  1
FB
100
AcDbText
  0
TEXT
  5
12A
330
1F
100
AcDbEntity
  8
Sheet
100
AcDbText
 10
357.0320266
 20
431.4879737
 30
0.0
 40
1.778
  1
5
100
AcDbText
  0
LWPOLYLINE
  5
12B
330
1F
100
AcDbEntity
  8
Sheet
100
AcDbPolyline
 90
        2
 70
     0
 43
0.29972
 10
355.0000266
 20
434.00001084
 10
360.00002676
 20
434.00001084
  0
TEXT
  5
12C
330
1F
100
AcDbEntity
  8
Sheet
100
AcDbText
 10
346.86933674
 20
433.21797532
 30
0.0
 40
1.778
  1
RT/SD
100
AcDbText
  0
TEXT
  5
12D
330
1F
100
AcDbEntity
  8
Sheet
100
AcDbText
 10
357.0320266
 20
434.48797532
 30
0.0
 40
1.778
  1
6
100
AcDbText
  0
LWPOLYLINE
  5
12E
330
1F
100
AcDbEntity
  8
Sheet
100
AcDbPolyline
 90
        2
 70
     0
 43
0.29972
 10
355.0000266
 20
437.00001246
 10
360.00002676
 20
437.00001246
  0
TEXT
  5
12F
330
1F
100
AcDbEntity
  8
Sheet
100
AcDbText
 10
349.72804832
 20
436.21797694
 30
0.0
 40
1.778
  1
VCC
100
AcDbText
  0
TEXT
  5
130
330
1F
100
AcDbEntity
  8
Sheet
100
AcDbText
 10
357.0320266
 20
437.48797694
 30
0.0
 40
1.778
  1
7
100
AcDbText
  0
LWPOLYLINE
  5
131
330
1F
100
AcDbEntity
  8
Sheet
100
AcDbPolyline
 90
        2
 70
     0
 43
0.29972
 10
355.00001136
 20
440.00001408
 10
360.00001152
 20
440.00001408
  0
TEXT
  5
132
330
1F
100
AcDbEntity
  8
Sheet
100
AcDbText
 10
350.19389702
 20
439.2179785599999
 30
0.0
 40
1.778
  1
VIN
100
AcDbText
  0
TEXT
  5
133
330
1F
100
AcDbEntity
  8
Sheet
100
AcDbText
 10
357.03201136
 20
440.48797856
 30
0.0
 40
1.778
  1
8
100
AcDbText
  0
TEXT
  5
134
330
1F
100
AcDbEntity
  8
Sheet
100
AcDbText
 10
335.00000056
 20
442.46680112
 30
0.0
 40
1.524
  1
DA*
100
AcDbText
  0
TEXT
  5
135
330
1F
100
AcDbEntity
  8
Sheet
100
AcDbText
 10
335.00000056
 20
426.9267941
 30
0.0
 40
1.524
  1
DC-DC36-3.3
100
AcDbText
  0
LWPOLYLINE
  5
136
330
1F
100
AcDbEntity
  8
Sheet
100
AcDbPolyline
 90
        5
 70
     0
 43
0.29972
 10
334.9997872
 20
402.00030344
 10
359.97908192
 20
402.00030344
 10
359.97908192
 20
389.02064944
 10
334.9997872
 20
389.02064944
 10
334.9997872
 20
402.00030344
  0
LWPOLYLINE
  5
137
330
1F
100
AcDbEntity
  8
Sheet
100
AcDbPolyline
 90
        2
 70
     0
 43
0.29972
 10
335.00001072
 20
400.0000128
 10
330.00001056
 20
400.0000128
  0
TEXT
  5
138
330
1F
100
AcDbEntity
  8
Sheet
100
AcDbText
 10
336.77801072
 20
399.21797728
 30
0.0
 40
1.778
  1
BOOT
100
AcDbText
  0
TEXT
  5
139
330
1F
100
AcDbEntity
  8
Sheet
100
AcDbText
 10
332.35391746
 20
400.48797728
 30
0.0
 40
1.778
  1
1
100
AcDbText
  0
LWPOLYLINE
  5
13A
330
1F
100
AcDbEntity
  8
Sheet
100
AcDbPolyline
 90
        2
 70
     0
 43
0.29972
 10
335.00001072
 20
397.00001118
 10
330.00001056
 20
397.00001118
  0
TEXT
  5
13B
330
1F
100
AcDbEntity
  8
Sheet
100
AcDbText
 10
336.77801072
 20
396.21797566
 30
0.0
 40
1.778
  1
VIN
100
AcDbText
  0
TEXT
  5
13C
330
1F
100
AcDbEntity
  8
Sheet
100
AcDbText
 10
332.01510686
 20
397.48797566
 30
0.0
 40
1.778
  1
2
100
AcDbText
  0
LWPOLYLINE
  5
13D
330
1F
100
AcDbEntity
  8
Sheet
100
AcDbPolyline
 90
        2
 70
     0
 43
0.29972
 10
335.00001072
 20
394.00000956
 10
330.00001056
 20
394.00000956
  0
TEXT
  5
13E
330
1F
100
AcDbEntity
  8
Sheet
100
AcDbText
 10
336.77801072
 20
393.21797404
 30
0.0
 40
1.778
  1
EN
100
AcDbText
  0
TEXT
  5
13F
330
1F
100
AcDbEntity
  8
Sheet
100
AcDbText
 10
332.01510686
 20
394.48797404
 30
0.0
 40
1.778
  1
3
100
AcDbText
  0
LWPOLYLINE
  5
140
330
1F
100
AcDbEntity
  8
Sheet
100
AcDbPolyline
 90
        2
 70
     0
 43
0.29972
 10
335.00001072
 20
391.00000794
 10
330.00001056
 20
391.00000794
  0
TEXT
  5
141
330
1F
100
AcDbEntity
  8
Sheet
100
AcDbText
 10
336.77801072
 20
390.21797242
 30
0.0
 40
1.778
  1
RT/CLK
100
AcDbText
  0
TEXT
  5
142
330
1F
100
AcDbEntity
  8
Sheet
100
AcDbText
 10
331.84570156
 20
391.48797242
 30
0.0
 40
1.778
  1
4
100
AcDbText
  0
LWPOLYLINE
  5
143
330
1F
100
AcDbEntity
  8
Sheet
100
AcDbPolyline
 90
        2
 70
     0
 43
0.29972
 10
360.0000293
 20
391.00000794
 10
365.00002946
 20
391.00000794
  0
TEXT
  5
144
330
1F
100
AcDbEntity
  8
Sheet
100
AcDbText
 10
350.91643812
 20
390.21797242
 30
0.0
 40
1.778
  1
VSENSE
100
AcDbText
  0
TEXT
  5
145
330
1F
100
AcDbEntity
  8
Sheet
100
AcDbText
 10
362.0320293
 20
391.48797242
 30
0.0
 40
1.778
  1
5
100
AcDbText
  0
LWPOLYLINE
  5
146
330
1F
100
AcDbEntity
  8
Sheet
100
AcDbPolyline
 90
        2
 70
     0
 43
0.29972
 10
360.0000293
 20
394.00000956
 10
365.00002946
 20
394.00000956
  0
TEXT
  5
147
330
1F
100
AcDbEntity
  8
Sheet
100
AcDbText
 10
353.28810724
 20
393.21797404
 30
0.0
 40
1.778
  1
COMP
100
AcDbText
  0
TEXT
  5
148
330
1F
100
AcDbEntity
  8
Sheet
100
AcDbText
 10
362.0320293
 20
394.48797404
 30
0.0
 40
1.778
  1
6
100
AcDbText
  0
LWPOLYLINE
  5
149
330
1F
100
AcDbEntity
  8
Sheet
100
AcDbPolyline
 90
        2
 70
     0
 43
0.29972
 10
360.0000293
 20
397.00001118
 10
365.00002946
 20
397.00001118
  0
TEXT
  5
14A
330
1F
100
AcDbEntity
  8
Sheet
100
AcDbText
 10
354.5798217
 20
396.21797566
 30
0.0
 40
1.778
  1
GND
100
AcDbText
  0
TEXT
  5
14B
330
1F
100
AcDbEntity
  8
Sheet
100
AcDbText
 10
362.0320293
 20
397.48797566
 30
0.0
 40
1.778
  1
7
100
AcDbText
  0
LWPOLYLINE
  5
14C
330
1F
100
AcDbEntity
  8
Sheet
100
AcDbPolyline
 90
        2
 70
     0
 43
0.29972
 10
360.00001152
 20
400.0000128
 10
365.00001168
 20
400.0000128
  0
TEXT
  5
14D
330
1F
100
AcDbEntity
  8
Sheet
100
AcDbText
 10
355.85033986
 20
399.21797728
 30
0.0
 40
1.778
  1
PH
100
AcDbText
  0
TEXT
  5
14E
330
1F
100
AcDbEntity
  8
Sheet
100
AcDbText
 10
362.03201152
 20
400.48797728
 30
0.0
 40
1.778
  1
8
100
AcDbText
  0
TEXT
  5
14F
330
1F
100
AcDbEntity
  8
Sheet
100
AcDbText
 10
335.00001072
 20
402.46679476
 30
0.0
 40
1.524
  1
DA*
100
AcDbText
  0
TEXT
  5
150
330
1F
100
AcDbEntity
  8
Sheet
100
AcDbText
 10
335.00001072
 20
386.92679282
 30
0.0
 40
1.524
  1
TPS54061DRBR
100
AcDbText
  0
LWPOLYLINE
  5
151
330
1F
100
AcDbEntity
  8
Sheet
100
AcDbPolyline
 90
        5
 70
     0
 43
0.29972
 10
365.00035712
 20
342.00029136
 10
384.9782496
 20
342.00029136
 10
384.9782496
 20
293.02116656
 10
365.00035712
 20
293.02116656
 10
365.00035712
 20
342.00029136
  0
LWPOLYLINE
  5
152
330
1F
100
AcDbEntity
  8
Sheet
100
AcDbPolyline
 90
        2
 70
     0
 43
0.29972
 10
365.00001168
 20
340.00002612
 10
360.00001152
 20
340.00002612
  0
TEXT
  5
153
330
1F
100
AcDbEntity
  8
Sheet
100
AcDbText
 10
366.77801168
 20
339.2179906
 30
0.0
 40
1.778
  1
VDD
100
AcDbText
  0
TEXT
  5
154
330
1F
100
AcDbEntity
  8
Sheet
100
AcDbText
 10
362.35391842
 20
340.4879906
 30
0.0
 40
1.778
  1
1
100
AcDbText
  0
LWPOLYLINE
  5
155
330
1F
100
AcDbEntity
  8
Sheet
100
AcDbPolyline
 90
        2
 70
     0
 43
0.29972
 10
365.00001168
 20
337.0000245
 10
360.00001152
 20
337.0000245
  0
TEXT
  5
156
330
1F
100
AcDbEntity
  8
Sheet
100
AcDbText
 10
366.77801168
 20
336.21798898
 30
0.0
 40
1.778
  1
PF0
100
AcDbText
  0
TEXT
  5
157
330
1F
100
AcDbEntity
  8
Sheet
100
AcDbText
 10
362.01510782
 20
337.48798898
 30
0.0
 40
1.778
  1
2
100
AcDbText
  0
LWPOLYLINE
  5
158
330
1F
100
AcDbEntity
  8
Sheet
100
AcDbPolyline
 90
        2
 70
     0
 43
0.29972
 10
365.00001168
 20
334.00002288
 10
360.00001152
 20
334.00002288
  0
TEXT
  5
159
330
1F
100
AcDbEntity
  8
Sheet
100
AcDbText
 10
366.77801168
 20
333.21798736
 30
0.0
 40
1.778
  1
PF1
100
AcDbText
  0
TEXT
  5
15A
330
1F
100
AcDbEntity
  8
Sheet
100
AcDbText
 10
362.01510782
 20
334.48798736
 30
0.0
 40
1.778
  1
3
100
AcDbText
  0
LWPOLYLINE
  5
15B
330
1F
100
AcDbEntity
  8
Sheet
100
AcDbPolyline
 90
        2
 70
     0
 43
0.29972
 10
365.00001168
 20
331.00002126
 10
360.00001152
 20
331.00002126
  0
TEXT
  5
15C
330
1F
100
AcDbEntity
  8
Sheet
100
AcDbText
 10
366.77801168
 20
330.21798574
 30
0.0
 40
1.778
  1
NRST
100
AcDbText
  0
TEXT
  5
15D
330
1F
100
AcDbEntity
  8
Sheet
100
AcDbText
 10
361.84570252
 20
331.48798574
 30
0.0
 40
1.778
  1
4
100
AcDbText
  0
LWPOLYLINE
  5
15E
330
1F
100
AcDbEntity
  8
Sheet
100
AcDbPolyline
 90
        2
 70
     0
 43
0.29972
 10
365.00001168
 20
328.00001964
 10
360.00001152
 20
328.00001964
  0
TEXT
  5
15F
330
1F
100
AcDbEntity
  8
Sheet
100
AcDbText
 10
366.77801168
 20
327.21798412
 30
0.0
 40
1.778
  1
VDDA
100
AcDbText
  0
TEXT
  5
160
330
1F
100
AcDbEntity
  8
Sheet
100
AcDbText
 10
362.01510782
 20
328.48798412
 30
0.0
 40
1.778
  1
5
100
AcDbText
  0
LWPOLYLINE
  5
161
330
1F
100
AcDbEntity
  8
Sheet
100
AcDbPolyline
 90
        2
 70
     0
 43
0.29972
 10
365.00001168
 20
325.00001802
 10
360.00001152
 20
325.00001802
  0
TEXT
  5
162
330
1F
100
AcDbEntity
  8
Sheet
100
AcDbText
 10
366.77801168
 20
324.2179825
 30
0.0
 40
1.778
  1
PA0
100
AcDbText
  0
TEXT
  5
163
330
1F
100
AcDbEntity
  8
Sheet
100
AcDbText
 10
362.01510782
 20
325.4879825
 30
0.0
 40
1.778
  1
6
100
AcDbText
  0
LWPOLYLINE
  5
164
330
1F
100
AcDbEntity
  8
Sheet
100
AcDbPolyline
 90
        2
 70
     0
 43
0.29972
 10
365.00001168
 20
322.0000164
 10
360.00001152
 20
322.0000164
  0
TEXT
  5
165
330
1F
100
AcDbEntity
  8
Sheet
100
AcDbText
 10
366.77801168
 20
321.21798088
 30
0.0
 40
1.778
  1
PA1
100
AcDbText
  0
TEXT
  5
166
330
1F
100
AcDbEntity
  8
Sheet
100
AcDbText
 10
362.0362838
 20
322.48798088
 30
0.0
 40
1.778
  1
7
100
AcDbText
  0
LWPOLYLINE
  5
167
330
1F
100
AcDbEntity
  8
Sheet
100
AcDbPolyline
 90
        2
 70
     0
 43
0.29972
 10
365.00001168
 20
319.00001478
 10
360.00001152
 20
319.00001478
  0
TEXT
  5
168
330
1F
100
AcDbEntity
  8
Sheet
100
AcDbText
 10
366.77801168
 20
318.21797926
 30
0.0
 40
1.778
  1
PA2
100
AcDbText
  0
TEXT
  5
169
330
1F
100
AcDbEntity
  8
Sheet
100
AcDbText
 10
361.8668785
 20
319.48797926
 30
0.0
 40
1.778
  1
8
100
AcDbText
  0
LWPOLYLINE
  5
16A
330
1F
100
AcDbEntity
  8
Sheet
100
AcDbPolyline
 90
        2
 70
     0
 43
0.29972
 10
365.00001168
 20
316.00001316
 10
360.00001152
 20
316.00001316
  0
TEXT
  5
16B
330
1F
100
AcDbEntity
  8
Sheet
100
AcDbText
 10
366.77801168
 20
315.21797764
 30
0.0
 40
1.778
  1
PA3
100
AcDbText
  0
TEXT
  5
16C
330
1F
100
AcDbEntity
  8
Sheet
100
AcDbText
 10
362.01510782
 20
316.48797764
 30
0.0
 40
1.778
  1
9
100
AcDbText
  0
LWPOLYLINE
  5
16D
330
1F
100
AcDbEntity
  8
Sheet
100
AcDbPolyline
 90
        2
 70
     0
 43
0.29972
 10
365.00001168
 20
313.00001154
 10
360.00001152
 20
313.00001154
  0
TEXT
  5
16E
330
1F
100
AcDbEntity
  8
Sheet
100
AcDbText
 10
366.77801168
 20
312.21797602
 30
0.0
 40
1.778
  1
PA4
100
AcDbText
  0
TEXT
  5
16F
330
1F
100
AcDbEntity
  8
Sheet
100
AcDbText
 10
361.21043328
 20
313.48797602
 30
0.0
 40
1.778
  1
10
100
AcDbText
  0
LWPOLYLINE
  5
170
330
1F
100
AcDbEntity
  8
Sheet
100
AcDbPolyline
 90
        2
 70
     0
 43
0.29972
 10
365.00001168
 20
310.00000992
 10
360.00001152
 20
310.00000992
  0
TEXT
  5
171
330
1F
100
AcDbEntity
  8
Sheet
100
AcDbText
 10
366.77801168
 20
309.2179744
 30
0.0
 40
1.778
  1
PA5
100
AcDbText
  0
TEXT
  5
172
330
1F
100
AcDbEntity
  8
Sheet
100
AcDbText
 10
361.54924388
 20
310.4879744
 30
0.0
 40
1.778
  1
11
100
AcDbText
  0
LWPOLYLINE
  5
173
330
1F
100
AcDbEntity
  8
Sheet
100
AcDbPolyline
 90
        2
 70
     0
 43
0.29972
 10
365.00001168
 20
307.0000083
 10
360.00001152
 20
307.0000083
  0
TEXT
  5
174
330
1F
100
AcDbEntity
  8
Sheet
100
AcDbText
 10
366.77801168
 20
306.21797278
 30
0.0
 40
1.778
  1
PA6
100
AcDbText
  0
TEXT
  5
175
330
1F
100
AcDbEntity
  8
Sheet
100
AcDbText
 10
361.21043328
 20
307.48797278
 30
0.0
 40
1.778
  1
12
100
AcDbText
  0
LWPOLYLINE
  5
176
330
1F
100
AcDbEntity
  8
Sheet
100
AcDbPolyline
 90
        2
 70
     0
 43
0.29972
 10
365.00001168
 20
304.00000668
 10
360.00001152
 20
304.00000668
  0
TEXT
  5
177
330
1F
100
AcDbEntity
  8
Sheet
100
AcDbText
 10
366.77801168
 20
303.21797116
 30
0.0
 40
1.778
  1
PA7
100
AcDbText
  0
TEXT
  5
178
330
1F
100
AcDbEntity
  8
Sheet
100
AcDbText
 10
361.21043328
 20
304.48797116
 30
0.0
 40
1.778
  1
13
100
AcDbText
  0
LWPOLYLINE
  5
179
330
1F
100
AcDbEntity
  8
Sheet
100
AcDbPolyline
 90
        2
 70
     0
 43
0.29972
 10
365.00001168
 20
301.00000506
 10
360.00001152
 20
301.00000506
  0
TEXT
  5
17A
330
1F
100
AcDbEntity
  8
Sheet
100
AcDbText
 10
366.77801168
 20
300.21796954
 30
0.0
 40
1.778
  1
PB0
100
AcDbText
  0
TEXT
  5
17B
330
1F
100
AcDbEntity
  8
Sheet
100
AcDbText
 10
361.04102798
 20
301.48796954
 30
0.0
 40
1.778
  1
14
100
AcDbText
  0
LWPOLYLINE
  5
17C
330
1F
100
AcDbEntity
  8
Sheet
100
AcDbPolyline
 90
        2
 70
     0
 43
0.29972
 10
365.00001168
 20
298.00000344
 10
360.00001152
 20
298.00000344
  0
TEXT
  5
17D
330
1F
100
AcDbEntity
  8
Sheet
100
AcDbText
 10
366.77801168
 20
297.21796792
 30
0.0
 40
1.778
  1
PB1
100
AcDbText
  0
TEXT
  5
17E
330
1F
100
AcDbEntity
  8
Sheet
100
AcDbText
 10
361.21043328
 20
298.48796792
 30
0.0
 40
1.778
  1
15
100
AcDbText
  0
LWPOLYLINE
  5
17F
330
1F
100
AcDbEntity
  8
Sheet
100
AcDbPolyline
 90
        2
 70
     0
 43
0.29972
 10
365.00001168
 20
295.00000182
 10
360.00001152
 20
295.00000182
  0
TEXT
  5
180
330
1F
100
AcDbEntity
  8
Sheet
100
AcDbText
 10
366.77801168
 20
294.2179663
 30
0.0
 40
1.778
  1
VSS
100
AcDbText
  0
TEXT
  5
181
330
1F
100
AcDbEntity
  8
Sheet
100
AcDbText
 10
361.21043328
 20
295.4879663
 30
0.0
 40
1.778
  1
16
100
AcDbText
  0
LWPOLYLINE
  5
182
330
1F
100
AcDbEntity
  8
Sheet
100
AcDbPolyline
 90
        2
 70
     0
 43
0.29972
 10
385.00002756
 20
295.00000182
 10
390.00002772
 20
295.00000182
  0
TEXT
  5
183
330
1F
100
AcDbEntity
  8
Sheet
100
AcDbText
 10
379.41041466
 20
294.2179663
 30
0.0
 40
1.778
  1
VDD
100
AcDbText
  0
TEXT
  5
184
330
1F
100
AcDbEntity
  8
Sheet
100
AcDbText
 10
387.03202756
 20
295.4879663
 30
0.0
 40
1.778
  1
17
100
AcDbText
  0
LWPOLYLINE
  5
185
330
1F
100
AcDbEntity
  8
Sheet
100
AcDbPolyline
 90
        2
 70
     0
 43
0.29972
 10
385.00002756
 20
298.00000344
 10
390.00002772
 20
298.00000344
  0
TEXT
  5
186
330
1F
100
AcDbEntity
  8
Sheet
100
AcDbText
 10
379.41041466
 20
297.21796792
 30
0.0
 40
1.778
  1
PA8
100
AcDbText
  0
TEXT
  5
187
330
1F
100
AcDbEntity
  8
Sheet
100
AcDbText
 10
387.03202756
 20
298.48796792
 30
0.0
 40
1.778
  1
18
100
AcDbText
  0
LWPOLYLINE
  5
188
330
1F
100
AcDbEntity
  8
Sheet
100
AcDbPolyline
 90
        2
 70
     0
 43
0.29972
 10
385.00002756
 20
301.00000506
 10
390.00002772
 20
301.00000506
  0
TEXT
  5
189
330
1F
100
AcDbEntity
  8
Sheet
100
AcDbText
 10
379.55864398
 20
300.21796954
 30
0.0
 40
1.778
  1
PA9
100
AcDbText
  0
TEXT
  5
18A
330
1F
100
AcDbEntity
  8
Sheet
100
AcDbText
 10
387.03202756
 20
301.48796954
 30
0.0
 40
1.778
  1
19
100
AcDbText
  0
LWPOLYLINE
  5
18B
330
1F
100
AcDbEntity
  8
Sheet
100
AcDbPolyline
 90
        2
 70
     0
 43
0.29972
 10
385.00002756
 20
304.00000668
 10
390.00002772
 20
304.00000668
  0
TEXT
  5
18C
330
1F
100
AcDbEntity
  8
Sheet
100
AcDbText
 10
378.75396944
 20
303.21797116
 30
0.0
 40
1.778
  1
PA10
100
AcDbText
  0
TEXT
  5
18D
330
1F
100
AcDbEntity
  8
Sheet
100
AcDbText
 10
387.03202756
 20
304.48797116
 30
0.0
 40
1.778
  1
20
100
AcDbText
  0
LWPOLYLINE
  5
18E
330
1F
100
AcDbEntity
  8
Sheet
100
AcDbPolyline
 90
        2
 70
     0
 43
0.29972
 10
385.00002756
 20
307.0000083
 10
390.00002772
 20
307.0000083
  0
TEXT
  5
18F
330
1F
100
AcDbEntity
  8
Sheet
100
AcDbText
 10
379.09278004
 20
306.21797278
 30
0.0
 40
1.778
  1
PA11
100
AcDbText
  0
TEXT
  5
190
330
1F
100
AcDbEntity
  8
Sheet
100
AcDbText
 10
387.03202756
 20
307.48797278
 30
0.0
 40
1.778
  1
21
100
AcDbText
  0
LWPOLYLINE
  5
191
330
1F
100
AcDbEntity
  8
Sheet
100
AcDbPolyline
 90
        2
 70
     0
 43
0.29972
 10
385.00002756
 20
310.00000992
 10
390.00002772
 20
310.00000992
  0
TEXT
  5
192
330
1F
100
AcDbEntity
  8
Sheet
100
AcDbText
 10
378.75396944
 20
309.2179744
 30
0.0
 40
1.778
  1
PA12
100
AcDbText
  0
TEXT
  5
193
330
1F
100
AcDbEntity
  8
Sheet
100
AcDbText
 10
387.03202756
 20
310.4879744
 30
0.0
 40
1.778
  1
22
100
AcDbText
  0
LWPOLYLINE
  5
194
330
1F
100
AcDbEntity
  8
Sheet
100
AcDbPolyline
 90
        2
 70
     0
 43
0.29972
 10
385.00002756
 20
313.00001154
 10
390.00002772
 20
313.00001154
  0
TEXT
  5
195
330
1F
100
AcDbEntity
  8
Sheet
100
AcDbText
 10
378.75396944
 20
312.21797602
 30
0.0
 40
1.778
  1
PA13
100
AcDbText
  0
TEXT
  5
196
330
1F
100
AcDbEntity
  8
Sheet
100
AcDbText
 10
387.03202756
 20
313.48797602
 30
0.0
 40
1.778
  1
23
100
AcDbText
  0
LWPOLYLINE
  5
197
330
1F
100
AcDbEntity
  8
Sheet
100
AcDbPolyline
 90
        2
 70
     0
 43
0.29972
 10
385.00002756
 20
316.00001316
 10
390.00002772
 20
316.00001316
  0
TEXT
  5
198
330
1F
100
AcDbEntity
  8
Sheet
100
AcDbText
 10
378.58456414
 20
315.21797764
 30
0.0
 40
1.778
  1
PA14
100
AcDbText
  0
TEXT
  5
199
330
1F
100
AcDbEntity
  8
Sheet
100
AcDbText
 10
387.03202756
 20
316.48797764
 30
0.0
 40
1.778
  1
24
100
AcDbText
  0
LWPOLYLINE
  5
19A
330
1F
100
AcDbEntity
  8
Sheet
100
AcDbPolyline
 90
        2
 70
     0
 43
0.29972
 10
385.00002756
 20
319.00001478
 10
390.00002772
 20
319.00001478
  0
TEXT
  5
19B
330
1F
100
AcDbEntity
  8
Sheet
100
AcDbText
 10
378.75396944
 20
318.21797926
 30
0.0
 40
1.778
  1
PA15
100
AcDbText
  0
TEXT
  5
19C
330
1F
100
AcDbEntity
  8
Sheet
100
AcDbText
 10
387.03202756
 20
319.48797926
 30
0.0
 40
1.778
  1
25
100
AcDbText
  0
LWPOLYLINE
  5
19D
330
1F
100
AcDbEntity
  8
Sheet
100
AcDbPolyline
 90
        2
 70
     0
 43
0.29972
 10
385.00002756
 20
322.0000164
 10
390.00002772
 20
322.0000164
  0
TEXT
  5
19E
330
1F
100
AcDbEntity
  8
Sheet
100
AcDbText
 10
379.72804928
 20
321.21798088
 30
0.0
 40
1.778
  1
PB3
100
AcDbText
  0
TEXT
  5
19F
330
1F
100
AcDbEntity
  8
Sheet
100
AcDbText
 10
387.03202756
 20
322.48798088
 30
0.0
 40
1.778
  1
26
100
AcDbText
  0
LWPOLYLINE
  5
1A0
330
1F
100
AcDbEntity
  8
Sheet
100
AcDbPolyline
 90
        2
 70
     0
 43
0.29972
 10
385.00002756
 20
325.00001802
 10
390.00002772
 20
325.00001802
  0
TEXT
  5
1A1
330
1F
100
AcDbEntity
  8
Sheet
100
AcDbText
 10
379.55864398
 20
324.2179825
 30
0.0
 40
1.778
  1
PB4
100
AcDbText
  0
TEXT
  5
1A2
330
1F
100
AcDbEntity
  8
Sheet
100
AcDbText
 10
387.03202756
 20
325.4879825
 30
0.0
 40
1.778
  1
27
100
AcDbText
  0
LWPOLYLINE
  5
1A3
330
1F
100
AcDbEntity
  8
Sheet
100
AcDbPolyline
 90
        2
 70
     0
 43
0.29972
 10
385.00002756
 20
328.00001964
 10
390.00002772
 20
328.00001964
  0
TEXT
  5
1A4
330
1F
100
AcDbEntity
  8
Sheet
100
AcDbText
 10
379.72804928
 20
327.21798412
 30
0.0
 40
1.778
  1
PB5
100
AcDbText
  0
TEXT
  5
1A5
330
1F
100
AcDbEntity
  8
Sheet
100
AcDbText
 10
387.03202756
 20
328.48798412
 30
0.0
 40
1.778
  1
28
100
AcDbText
  0
LWPOLYLINE
  5
1A6
330
1F
100
AcDbEntity
  8
Sheet
100
AcDbPolyline
 90
        2
 70
     0
 43
0.29972
 10
385.00002756
 20
331.00002126
 10
390.00002772
 20
331.00002126
  0
TEXT
  5
1A7
330
1F
100
AcDbEntity
  8
Sheet
100
AcDbText
 10
379.72804928
 20
330.21798574
 30
0.0
 40
1.778
  1
PB6
100
AcDbText
  0
TEXT
  5
1A8
330
1F
100
AcDbEntity
  8
Sheet
100
AcDbText
 10
387.03202756
 20
331.48798574
 30
0.0
 40
1.778
  1
29
100
AcDbText
  0
LWPOLYLINE
  5
1A9
330
1F
100
AcDbEntity
  8
Sheet
100
AcDbPolyline
 90
        2
 70
     0
 43
0.29972
 10
385.00002756
 20
334.00002288
 10
390.00002772
 20
334.00002288
  0
TEXT
  5
1AA
330
1F
100
AcDbEntity
  8
Sheet
100
AcDbText
 10
379.74922526
 20
333.21798736
 30
0.0
 40
1.778
  1
PB7
100
AcDbText
  0
TEXT
  5
1AB
330
1F
100
AcDbEntity
  8
Sheet
100
AcDbText
 10
387.03202756
 20
334.48798736
 30
0.0
 40
1.778
  1
30
100
AcDbText
  0
LWPOLYLINE
  5
1AC
330
1F
100
AcDbEntity
  8
Sheet
100
AcDbPolyline
 90
        2
 70
     0
 43
0.29972
 10
385.00002756
 20
337.0000245
 10
390.00002772
 20
337.0000245
  0
TEXT
  5
1AD
330
1F
100
AcDbEntity
  8
Sheet
100
AcDbText
 10
377.18697232
 20
336.21798898
 30
0.0
 40
1.778
  1
BOOT0
100
AcDbText
  0
TEXT
  5
1AE
330
1F
100
AcDbEntity
  8
Sheet
100
AcDbText
 10
387.03202756
 20
337.48798898
 30
0.0
 40
1.778
  1
31
100
AcDbText
  0
LWPOLYLINE
  5
1AF
330
1F
100
AcDbEntity
  8
Sheet
100
AcDbPolyline
 90
        2
 70
     0
 43
0.29972
 10
385.00001232
 20
340.00002612
 10
390.00001248
 20
340.00002612
  0
TEXT
  5
1B0
330
1F
100
AcDbEntity
  8
Sheet
100
AcDbText
 10
379.38922344
 20
339.2179906
 30
0.0
 40
1.778
  1
VSS
100
AcDbText
  0
TEXT
  5
1B1
330
1F
100
AcDbEntity
  8
Sheet
100
AcDbText
 10
387.03201232
 20
340.4879906
 30
0.0
 40
1.778
  1
32
100
AcDbText
  0
TEXT
  5
1B2
330
1F
100
AcDbEntity
  8
Sheet
100
AcDbText
 10
365.00001168
 20
342.46681316
 30
0.0
 40
1.524
  1
DD*
100
AcDbText
  0
TEXT
  5
1B3
330
1F
100
AcDbEntity
  8
Sheet
100
AcDbText
 10
365.00001168
 20
290.9267867
 30
0.0
 40
1.524
  1
STM32F030K6T6TR
100
AcDbText
  0
LWPOLYLINE
  5
1B4
330
1F
100
AcDbEntity
  8
Sheet
100
AcDbPolyline
 90
        2
 70
     0
 43
0.29972
 10
592.0000225
 20
461.00001526
 10
587.00002234
 20
461.00001526
  0
TEXT
  5
1B5
330
1F
100
AcDbEntity
  8
Sheet
100
AcDbText
 10
593.7780225
 20
460.21797974
 30
0.0
 40
1.778
  1
1   
100
AcDbText
  0
LWPOLYLINE
  5
1B6
330
1F
100
AcDbEntity
  8
Sheet
100
AcDbPolyline
 90
        2
 70
     0
 43
0.29972
 10
592.0000225
 20
457.0000131
 10
587.00002234
 20
457.0000131
  0
TEXT
  5
1B7
330
1F
100
AcDbEntity
  8
Sheet
100
AcDbText
 10
593.7780225
 20
456.21797758
 30
0.0
 40
1.778
  1
2   B
100
AcDbText
  0
LWPOLYLINE
  5
1B8
330
1F
100
AcDbEntity
  8
Sheet
100
AcDbPolyline
 90
        2
 70
     0
 43
0.29972
 10
592.0000225
 20
453.00001094
 10
587.00002234
 20
453.00001094
  0
TEXT
  5
1B9
330
1F
100
AcDbEntity
  8
Sheet
100
AcDbText
 10
593.7780225
 20
452.21797542
 30
0.0
 40
1.778
  1
3   C
100
AcDbText
  0
LWPOLYLINE
  5
1BA
330
1F
100
AcDbEntity
  8
Sheet
100
AcDbPolyline
 90
        5
 70
     0
 43
0.29972
 10
592.00002504
 20
463.00001634
 10
592.00002504
 20
451.00000986
 10
596.0000272
 20
451.00000986
 10
596.0000272
 20
463.00001634
 10
592.00002504
 20
463.00001634
  0
LWPOLYLINE
  5
1BB
330
1F
100
AcDbEntity
  8
Sheet
100
AcDbPolyline
 90
        4
 70
     0
 43
0.29972
 10
596.0000272
 20
463.00001634
 10
605.00003206
 20
463.00001634
 10
605.00003206
 20
451.00000986
 10
596.0000272
 20
451.00000986
  0
LWPOLYLINE
  5
1BC
330
1F
100
AcDbEntity
  8
Sheet
100
AcDbPolyline
 90
        2
 70
     0
 43
0.29972
 10
592.00002504
 20
455.00001202
 10
605.00003206
 20
455.00001202
  0
LWPOLYLINE
  5
1BD
330
1F
100
AcDbEntity
  8
Sheet
100
AcDbPolyline
 90
        2
 70
     0
 43
0.29972
 10
592.00002504
 20
459.00001418
 10
605.00003206
 20
459.00001418
  0
TEXT
  5
1BE
330
1F
100
AcDbEntity
  8
Sheet
100
AcDbText
 10
591.74602504
 20
448.67279582
 30
0.0
 40
1.524
  1
XT*
100
AcDbText
  0
LWPOLYLINE
  5
1BF
330
1F
100
AcDbEntity
  8
Sheet
100
AcDbPolyline
 90
        2
 70
     0
 43
0.29972
 10
609.00003676
 20
352.00000212
 10
604.0000365999999
 20
352.00000212
  0
ELLIPSE
  5
1C0
330
1F
100
AcDbEntity
  8
Sheet
100
AcDbEllipse
 10
608.22762784
 20
352.01066504
 30
0.0
 11
0.75171808
 21
0.0
 31
0.0
210
0.0
220
0.0
230
1.0
 40
0.9991755419797805
 41
0.0
 42
6.283185307179586
  0
LWPOLYLINE
  5
1C1
330
1F
100
AcDbEntity
  8
Sheet
100
AcDbPolyline
 90
        2
 70
     0
 43
0.29972
 10
609.00003676
 20
350.00000104
 10
604.0000365999999
 20
350.00000104
  0
LWPOLYLINE
  5
1C2
330
1F
100
AcDbEntity
  8
Sheet
100
AcDbPolyline
 90
        2
 70
     0
 43
0.29972
 10
609.00003676
 20
347.99999996
 10
604.0000365999999
 20
347.99999996
  0
LWPOLYLINE
  5
1C3
330
1F
100
AcDbEntity
  8
Sheet
100
AcDbPolyline
 90
        2
 70
     0
 43
0.29972
 10
608.7460367599999
 20
347.49199996
 10
607.73003676
 20
348.50799996
  0
LWPOLYLINE
  5
1C4
330
1F
100
AcDbEntity
  8
Sheet
100
AcDbPolyline
 90
        2
 70
     0
 43
0.29972
 10
608.7460367599999
 20
348.50799996
 10
607.73003676
 20
347.49199996
  0
TEXT
  5
1C5
330
1F
100
AcDbEntity
  8
Sheet
100
AcDbText
 10
610.77803676
 20
347.21796444
 30
0.0
 40
1.778
  1
U
100
AcDbText
  0
LWPOLYLINE
  5
1C6
330
1F
100
AcDbEntity
  8
Sheet
100
AcDbPolyline
 90
        2
 70
     0
 43
0.29972
 10
609.00003676
 20
345.99999888
 10
604.0000365999999
 20
345.99999888
  0
LWPOLYLINE
  5
1C7
330
1F
100
AcDbEntity
  8
Sheet
100
AcDbPolyline
 90
        2
 70
     0
 43
0.29972
 10
608.7460367599999
 20
345.49199888
 10
607.73003676
 20
346.50799888
  0
LWPOLYLINE
  5
1C8
330
1F
100
AcDbEntity
  8
Sheet
100
AcDbPolyline
 90
        2
 70
     0
 43
0.29972
 10
608.7460367599999
 20
346.50799888
 10
607.73003676
 20
345.49199888
  0
TEXT
  5
1C9
330
1F
100
AcDbEntity
  8
Sheet
100
AcDbText
 10
610.77803676
 20
345.21796336
 30
0.0
 40
1.778
  1
OV
100
AcDbText
  0
LWPOLYLINE
  5
1CA
330
1F
100
AcDbEntity
  8
Sheet
100
AcDbPolyline
 90
        2
 70
     0
 43
0.29972
 10
619.00004724
 20
350.00000104
 10
624.0000474
 20
350.00000104
  0
LWPOLYLINE
  5
1CB
330
1F
100
AcDbEntity
  8
Sheet
100
AcDbPolyline
 90
        5
 70
     0
 43
0.29972
 10
609.0000392999999
 20
356.00000428
 10
609.0000392999999
 20
342.99999726
 10
619.0000447
 20
342.99999726
 10
619.0000447
 20
356.00000428
 10
609.0000392999999
 20
356.00000428
  0
LWPOLYLINE
  5
1CC
330
1F
100
AcDbEntity
  8
Sheet
100
AcDbPolyline
 90
        4
 70
     0
 43
0.29972
 10
613.0000186
 20
354.99999612
 10
613.0000186
 20
353.00000012
 10
614.5000156
 20
353.99999812
 10
613.0000186
 20
354.99999612
  0
TEXT
  5
1CD
330
1F
100
AcDbEntity
  8
Sheet
100
AcDbText
 10
608.7460393
 20
356.72079024
 30
0.0
 40
1.524
  1
DA*
100
AcDbText
  0
TEXT
  5
1CE
330
1F
100
AcDbEntity
  8
Sheet
100
AcDbText
 10
608.7460393
 20
340.67278322
 30
0.0
 40
1.524
  1
LMV321ILT
100
AcDbText
  0
LWPOLYLINE
  5
1CF
330
1F
100
AcDbEntity
  8
Sheet
100
AcDbPolyline
 90
        2
 70
     0
 43
0.29972
 10
585.00031336
 20
352.00019008
 10
580.0003131999999
 20
352.00019008
  0
LWPOLYLINE
  5
1D0
330
1F
100
AcDbEntity
  8
Sheet
100
AcDbPolyline
 90
        5
 70
     0
 43
0.29972
 10
585.0003158999999
 20
350.000189
 10
585.0003158999999
 20
354.00019116
 10
595.0003213
 20
354.00019116
 10
595.0003213
 20
350.000189
 10
585.0003158999999
 20
350.000189
  0
LWPOLYLINE
  5
1D1
330
1F
100
AcDbEntity
  8
Sheet
100
AcDbPolyline
 90
        2
 70
     0
 43
0.29972
 10
595.00032384
 20
352.00019008
 10
600.000324
 20
352.00019008
  0
TEXT
  5
1D2
330
1F
100
AcDbEntity
  8
Sheet
100
AcDbText
 10
589.0003180599999
 20
347.48815186
 30
0.0
 40
1.778
  1
1 
100
AcDbText
  0
TEXT
  5
1D3
330
1F
100
AcDbEntity
  8
Sheet
100
AcDbText
 10
589.0003180599999
 20
354.48815564
 30
0.0
 40
1.778
  1
R*
100
AcDbText
  0
LWPOLYLINE
  5
1D4
330
1F
100
AcDbEntity
  8
Sheet
100
AcDbPolyline
 90
        2
 70
     0
 43
0.29972
 10
609.00032632
 20
364.00019656
 10
604.00032616
 20
364.00019656
  0
ELLIPSE
  5
1D5
330
1F
100
AcDbEntity
  8
Sheet
100
AcDbEllipse
 10
603.9898512
 20
364.01092552
 30
0.0
 11
0.4976368
 21
0.0
 31
0.0
210
0.0
220
0.0
230
1.0
 40
0.9986729277256022
 41
0.0
 42
6.283185307179586
  0
LWPOLYLINE
  5
1D6
330
1F
100
AcDbEntity
  8
Sheet
100
AcDbPolyline
 90
        5
 70
     0
 43
0.29972
 10
609.00032886
 20
362.00019548
 10
609.00032886
 20
366.00019764
 10
619.0003342599999
 20
366.00019764
 10
619.0003342599999
 20
362.00019548
 10
609.00032886
 20
362.00019548
  0
LWPOLYLINE
  5
1D7
330
1F
100
AcDbEntity
  8
Sheet
100
AcDbPolyline
 90
        2
 70
     0
 43
0.29972
 10
619.0003368
 20
364.00019656
 10
624.0003369599999
 20
364.00019656
  0
ELLIPSE
  5
1D8
330
1F
100
AcDbEntity
  8
Sheet
100
AcDbEllipse
 10
623.98958768
 20
364.01092552
 30
0.0
 11
0.0
 21
0.4969764
 31
0.0
210
0.0
220
0.0
230
1.0
 40
0.9999795563733006
 41
0.0
 42
6.283185307179586
  0
TEXT
  5
1D9
330
1F
100
AcDbEntity
  8
Sheet
100
AcDbText
 10
612.00033048
 20
359.48815834
 30
0.0
 40
1.778
  1
220 
100
AcDbText
  0
TEXT
  5
1DA
330
1F
100
AcDbEntity
  8
Sheet
100
AcDbText
 10
613.00033102
 20
366.48816212
 30
0.0
 40
1.778
  1
R*
100
AcDbText
  0
ELLIPSE
  5
1DB
330
1F
100
AcDbEntity
  8
Sheet
100
AcDbEllipse
 10
603.9898512
 20
364.01092552
 30
0.0
 11
0.4976368
 21
0.0
 31
0.0
210
0.0
220
0.0
230
1.0
 40
0.9986729277256022
 41
0.0
 42
6.283185307179586
  0
ELLIPSE
  5
1DC
330
1F
100
AcDbEntity
  8
Sheet
100
AcDbEllipse
 10
623.98958768
 20
364.01092552
 30
0.0
 11
0.0
 21
0.4969764
 31
0.0
210
0.0
220
0.0
230
1.0
 40
0.9999795563733006
 41
0.0
 42
6.283185307179586
  0
ELLIPSE
  5
1DD
330
1F
100
AcDbEntity
  8
Sheet
100
AcDbEllipse
 10
603.9898512
 20
364.01092552
 30
0.0
 11
0.4976368
 21
0.0
 31
0.0
210
0.0
220
0.0
230
1.0
 40
0.9986729277256022
 41
0.0
 42
6.283185307179586
  0
ELLIPSE
  5
1DE
330
1F
100
AcDbEntity
  8
Sheet
100
AcDbEllipse
 10
623.98958768
 20
364.01092552
 30
0.0
 11
0.0
 21
0.4969764
 31
0.0
210
0.0
220
0.0
230
1.0
 40
0.9999795563733006
 41
0.0
 42
6.283185307179586
  0
LWPOLYLINE
  5
1DF
330
1F
100
AcDbEntity
  8
Sheet
100
AcDbPolyline
 90
        2
 70
     0
 43
0.29972
 10
612.25032744
 20
380.0001798
 10
608.00032832
 20
380.0001798
  0
LWPOLYLINE
  5
1E0
330
1F
100
AcDbEntity
  8
Sheet
100
AcDbPolyline
 90
        2
 70
     0
 43
0.29972
 10
613.7503092
 20
380.0001798
 10
618.0003083199999
 20
380.0001798
  0
LWPOLYLINE
  5
1E1
330
1F
100
AcDbEntity
  8
Sheet
100
AcDbPolyline
 90
        2
 70
     0
 43
0.29972
 10
612.25032744
 20
376.00018018
 10
612.25032744
 20
384.00017942
  0
LWPOLYLINE
  5
1E2
330
1F
100
AcDbEntity
  8
Sheet
100
AcDbPolyline
 90
        2
 70
     0
 43
0.29972
 10
613.75032444
 20
376.00018018
 10
613.75032444
 20
384.00017942
  0
TEXT
  5
1E3
330
1F
100
AcDbEntity
  8
Sheet
100
AcDbText
 10
611.0003299399999
 20
373.4881659
 30
0.0
 40
1.778
  1
0.1 
100
AcDbText
  0
TEXT
  5
1E4
330
1F
100
AcDbEntity
  8
Sheet
100
AcDbText
 10
611.99632744
 20
384.7421439
 30
0.0
 40
1.778
  1
*
100
AcDbText
  0
LWPOLYLINE
  5
1E5
330
1F
100
AcDbEntity
  8
Sheet
100
AcDbPolyline
 90
        2
 70
     0
 43
0.29972
 10
585.00031336
 20
342.00018468
 10
580.0003131999999
 20
342.00018468
  0
LWPOLYLINE
  5
1E6
330
1F
100
AcDbEntity
  8
Sheet
100
AcDbPolyline
 90
        5
 70
     0
 43
0.29972
 10
585.0003158999999
 20
340.0001836
 10
585.0003158999999
 20
344.00018576
 10
595.0003213
 20
344.00018576
 10
595.0003213
 20
340.0001836
 10
585.0003158999999
 20
340.0001836
  0
LWPOLYLINE
  5
1E7
330
1F
100
AcDbEntity
  8
Sheet
100
AcDbPolyline
 90
        2
 70
     0
 43
0.29972
 10
595.00032384
 20
342.00018468
 10
600.000324
 20
342.00018468
  0
TEXT
  5
1E8
330
1F
100
AcDbEntity
  8
Sheet
100
AcDbText
 10
589.0003180599999
 20
337.48814646
 30
0.0
 40
1.778
  1
1 
100
AcDbText
  0
TEXT
  5
1E9
330
1F
100
AcDbEntity
  8
Sheet
100
AcDbText
 10
589.0003180599999
 20
344.48815024
 30
0.0
 40
1.778
  1
R*
100
AcDbText
  0
LWPOLYLINE
  5
1EA
330
1F
100
AcDbEntity
  8
Sheet
100
AcDbPolyline
 90
        2
 70
     0
 43
0.29972
 10
543.0002906799999
 20
378.00020412
 10
538.00029052
 20
378.00020412
  0
CIRCLE
  5
1EB
330
1F
100
AcDbEntity
  8
Sheet
100
AcDbCircle
 39
0.09906
 10
537.98939392
 20
378.01035904
 30
0.0
 40
0.4976368
  0
LWPOLYLINE
  5
1EC
330
1F
100
AcDbEntity
  8
Sheet
100
AcDbPolyline
 90
        5
 70
     0
 43
0.29972
 10
543.00029322
 20
376.00020304
 10
543.00029322
 20
380.0002052
 10
553.00029862
 20
380.0002052
 10
553.00029862
 20
376.00020304
 10
543.00029322
 20
376.00020304
  0
LWPOLYLINE
  5
1ED
330
1F
100
AcDbEntity
  8
Sheet
100
AcDbPolyline
 90
        2
 70
     0
 43
0.29972
 10
553.0003011599999
 20
378.00020412
 10
558.00030132
 20
378.00020412
  0
TEXT
  5
1EE
330
1F
100
AcDbEntity
  8
Sheet
100
AcDbText
 10
546.0002948399999
 20
373.4881659
 30
0.0
 40
1.778
  1
0.001
100
AcDbText
  0
TEXT
  5
1EF
330
1F
100
AcDbEntity
  8
Sheet
100
AcDbText
 10
547.00029538
 20
380.48816968
 30
0.0
 40
1.778
  1
R*
100
AcDbText
  0
CIRCLE
  5
1F0
330
1F
100
AcDbEntity
  8
Sheet
100
AcDbCircle
 39
0.09906
 10
537.98939392
 20
378.01035904
 30
0.0
 40
0.4976368
  0
CIRCLE
  5
1F1
330
1F
100
AcDbEntity
  8
Sheet
100
AcDbCircle
 39
0.09906
 10
537.98939392
 20
378.01035904
 30
0.0
 40
0.4976368
  0
LWPOLYLINE
  5
1F2
330
1F
100
AcDbEntity
  8
Sheet
100
AcDbPolyline
 90
        2
 70
     0
 43
0.29972
 10
571.00030834
 20
375.46020412
 10
570.23830834
 20
376.98420412
  0
LWPOLYLINE
  5
1F3
330
1F
100
AcDbEntity
  8
Sheet
100
AcDbPolyline
 90
        2
 70
     0
 43
0.29972
 10
571.00030834
 20
375.46020412
 10
571.76230834
 20
376.98420412
  0
LWPOLYLINE
  5
1F4
330
1F
100
AcDbEntity
  8
Sheet
100
AcDbPolyline
 90
        2
 70
     0
 43
0.29972
 10
570.23830834
 20
376.98420412
 10
571.76230834
 20
376.98420412
  0
LWPOLYLINE
  5
1F5
330
1F
100
AcDbEntity
  8
Sheet
100
AcDbPolyline
 90
        2
 70
     0
 43
0.29972
 10
571.00030834
 20
378.00020412
 10
571.00030834
 20
376.98420412
  0
ELLIPSE
  5
1F6
330
1F
100
AcDbEntity
  8
Sheet
100
AcDbEllipse
 10
570.9896225599999
 20
378.01035904
 30
0.0
 11
0.0
 21
0.4976368
 31
0.0
210
0.0
220
0.0
230
1.0
 40
0.9986525112290731
 41
0.0
 42
6.283185307179586
  0
ELLIPSE
  5
1F7
330
1F
100
AcDbEntity
  8
Sheet
100
AcDbEllipse
 10
570.9896225599999
 20
378.01035904
 30
0.0
 11
0.0
 21
0.4976368
 31
0.0
210
0.0
220
0.0
230
1.0
 40
0.9986525112290731
 41
0.0
 42
6.283185307179586
  0
LWPOLYLINE
  5
1F8
330
1F
100
AcDbEntity
  8
Sheet
100
AcDbPolyline
 90
        2
 70
     0
 43
0.29972
 10
601.00003498
 20
360.54000536
 10
600.23803498
 20
359.01600536
  0
LWPOLYLINE
  5
1F9
330
1F
100
AcDbEntity
  8
Sheet
100
AcDbPolyline
 90
        2
 70
     0
 43
0.29972
 10
601.00003498
 20
360.54000536
 10
601.76203498
 20
359.01600536
  0
TEXT
  5
1FA
330
1F
100
AcDbEntity
  8
Sheet
100
AcDbText
 10
598.4483713
 20
361.02796984
 30
0.0
 40
1.778
  1
+3.3V
100
AcDbText
  0
LWPOLYLINE
  5
1FB
330
1F
100
AcDbEntity
  8
Sheet
100
AcDbPolyline
 90
        2
 70
     0
 43
0.29972
 10
601.00003498
 20
358.00000536
 10
601.00003498
 20
360.54000536
  0
LWPOLYLINE
  5
1FC
330
1F
100
AcDbEntity
  8
Sheet
100
AcDbPolyline
 90
        2
 70
     0
 43
0.29972
 10
604.0000365999999
 20
343.45999888
 10
603.2380366
 20
344.98399888
  0
LWPOLYLINE
  5
1FD
330
1F
100
AcDbEntity
  8
Sheet
100
AcDbPolyline
 90
        2
 70
     0
 43
0.29972
 10
604.0000365999999
 20
343.45999888
 10
604.7620366
 20
344.98399888
  0
LWPOLYLINE
  5
1FE
330
1F
100
AcDbEntity
  8
Sheet
100
AcDbPolyline
 90
        2
 70
     0
 43
0.29972
 10
603.2380366
 20
344.98399888
 10
604.7620366
 20
344.98399888
  0
LWPOLYLINE
  5
1FF
330
1F
100
AcDbEntity
  8
Sheet
100
AcDbPolyline
 90
        2
 70
     0
 43
0.29972
 10
604.0000365999999
 20
345.99999888
 10
604.0000365999999
 20
344.98399888
  0
LWPOLYLINE
  5
200
330
1F
100
AcDbEntity
  8
Sheet
100
AcDbPolyline
 90
        2
 70
     0
 43
0.29972
 10
413.00000966
 20
404.4600115
 10
412.23800966
 20
405.9840115
  0
LWPOLYLINE
  5
201
330
1F
100
AcDbEntity
  8
Sheet
100
AcDbPolyline
 90
        2
 70
     0
 43
0.29972
 10
413.00000966
 20
404.4600115
 10
413.76200966
 20
405.9840115
  0
LWPOLYLINE
  5
202
330
1F
100
AcDbEntity
  8
Sheet
100
AcDbPolyline
 90
        2
 70
     0
 43
0.29972
 10
412.23800966
 20
405.9840115
 10
413.76200966
 20
405.9840115
  0
LWPOLYLINE
  5
203
330
1F
100
AcDbEntity
  8
Sheet
100
AcDbPolyline
 90
        2
 70
     0
 43
0.29972
 10
413.00000966
 20
407.0000115
 10
413.00000966
 20
405.9840115
  0
LWPOLYLINE
  5
204
330
1F
100
AcDbEntity
  8
Sheet
100
AcDbPolyline
 90
        2
 70
     0
 43
0.29972
 10
463.00024748
 20
437.00023598
 10
458.00024732
 20
437.00023598
  0
LWPOLYLINE
  5
205
330
1F
100
AcDbEntity
  8
Sheet
100
AcDbPolyline
 90
        5
 70
     0
 43
0.29972
 10
463.00025002
 20
435.0002349
 10
463.00025002
 20
439.00023706
 10
473.00025542
 20
439.00023706
 10
473.00025542
 20
435.0002349
 10
463.00025002
 20
435.0002349
  0
LWPOLYLINE
  5
206
330
1F
100
AcDbEntity
  8
Sheet
100
AcDbPolyline
 90
        2
 70
     0
 43
0.29972
 10
473.00025796
 20
437.00023598
 10
478.00025812
 20
437.00023598
  0
TEXT
  5
207
330
1F
100
AcDbEntity
  8
Sheet
100
AcDbText
 10
466.00025164
 20
432.48819776
 30
0.0
 40
1.778
  1
100
100
AcDbText
  0
TEXT
  5
208
330
1F
100
AcDbEntity
  8
Sheet
100
AcDbText
 10
467.00025218
 20
440.48820208
 30
0.0
 40
1.778
  1
R*
100
AcDbText
  0
LWPOLYLINE
  5
209
330
1F
100
AcDbEntity
  8
Sheet
100
AcDbPolyline
 90
        2
 70
     0
 43
0.29972
 10
462.00024694
 20
450.000243
 10
457.00024678
 20
450.000243
  0
LWPOLYLINE
  5
20A
330
1F
100
AcDbEntity
  8
Sheet
100
AcDbPolyline
 90
        5
 70
     0
 43
0.29972
 10
462.00024948
 20
448.00024192
 10
462.00024948
 20
452.00024408
 10
472.00025488
 20
452.00024408
 10
472.00025488
 20
448.00024192
 10
462.00024948
 20
448.00024192
  0
LWPOLYLINE
  5
20B
330
1F
100
AcDbEntity
  8
Sheet
100
AcDbPolyline
 90
        2
 70
     0
 43
0.29972
 10
472.00025742
 20
450.000243
 10
477.00025758
 20
450.000243
  0
TEXT
  5
20C
330
1F
100
AcDbEntity
  8
Sheet
100
AcDbText
 10
465.0002511
 20
445.48820478
 30
0.0
 40
1.778
  1
100
100
AcDbText
  0
TEXT
  5
20D
330
1F
100
AcDbEntity
  8
Sheet
100
AcDbText
 10
466.00025164
 20
453.4882090999999
 30
0.0
 40
1.778
  1
R*
100
AcDbText
  0
LWPOLYLINE
  5
20E
330
1F
100
AcDbEntity
  8
Sheet
100
AcDbPolyline
 90
        2
 70
     0
 43
0.29972
 10
462.00024694
 20
463.00025002
 10
457.00024678
 20
463.00025002
  0
LWPOLYLINE
  5
20F
330
1F
100
AcDbEntity
  8
Sheet
100
AcDbPolyline
 90
        5
 70
     0
 43
0.29972
 10
462.00024948
 20
461.0002489399999
 10
462.00024948
 20
465.0002511
 10
472.00025488
 20
465.0002511
 10
472.00025488
 20
461.0002489399999
 10
462.00024948
 20
461.0002489399999
  0
LWPOLYLINE
  5
210
330
1F
100
AcDbEntity
  8
Sheet
100
AcDbPolyline
 90
        2
 70
     0
 43
0.29972
 10
472.00025742
 20
463.00025002
 10
477.00025758
 20
463.00025002
  0
TEXT
  5
211
330
1F
100
AcDbEntity
  8
Sheet
100
AcDbText
 10
465.0002511
 20
458.4882118
 30
0.0
 40
1.778
  1
100
100
AcDbText
  0
TEXT
  5
212
330
1F
100
AcDbEntity
  8
Sheet
100
AcDbText
 10
466.00025164
 20
466.4882161199999
 30
0.0
 40
1.778
  1
R*
100
AcDbText
  0
LWPOLYLINE
  5
213
330
1F
100
AcDbEntity
  8
Sheet
100
AcDbPolyline
 90
        4
 70
     0
 43
0.29972
 10
507.00003756
 20
417.0000169
 10
506.9999689799999
 20
417.0000169
 10
506.9999689799999
 20
426.00001414
 10
506.9999689799999
 20
435.00001138
  0
ELLIPSE
  5
214
330
1F
100
AcDbEntity
  8
Sheet
100
AcDbEllipse
 10
506.989588
 20
426.01076088
 30
0.0
 11
0.49761648
 21
0.0
 31
0.0
210
0.0
220
0.0
230
1.0
 40
0.9987137081955163
 41
0.0
 42
6.283185307179586
  0
ELLIPSE
  5
215
330
1F
100
AcDbEntity
  8
Sheet
100
AcDbEllipse
 10
506.989588
 20
426.01076088
 30
0.0
 11
0.49761648
 21
0.0
 31
0.0
210
0.0
220
0.0
230
1.0
 40
0.9987137081955163
 41
0.0
 42
6.283185307179586
  0
LWPOLYLINE
  5
216
330
1F
100
AcDbEntity
  8
Sheet
100
AcDbPolyline
 90
        4
 70
     0
 43
0.29972
 10
536.9999699399999
 20
435.00001138
 10
537.00007154
 20
435.00001138
 10
537.00007154
 20
426.00023004
 10
537.00007154
 20
417.0000169
  0
ELLIPSE
  5
217
330
1F
100
AcDbEntity
  8
Sheet
100
AcDbEllipse
 10
536.98950768
 20
426.01076088
 30
0.0
 11
0.0
 21
0.4969764
 31
0.0
210
0.0
220
0.0
230
1.0
 40
0.9999795563733006
 41
0.0
 42
6.283185307179586
  0
ELLIPSE
  5
218
330
1F
100
AcDbEntity
  8
Sheet
100
AcDbEllipse
 10
536.98950768
 20
426.01076088
 30
0.0
 11
0.0
 21
0.4969764
 31
0.0
210
0.0
220
0.0
230
1.0
 40
0.9999795563733006
 41
0.0
 42
6.283185307179586
  0
LWPOLYLINE
  5
219
330
1F
100
AcDbEntity
  8
Sheet
100
AcDbPolyline
 90
        4
 70
     0
 43
0.29972
 10
566.9999709
 20
435.00001138
 10
567.0000725
 20
435.00001138
 10
567.0000725
 20
426.00023004
 10
567.0000725
 20
417.0000169
  0
ELLIPSE
  5
21A
330
1F
100
AcDbEntity
  8
Sheet
100
AcDbEllipse
 10
566.98940704
 20
426.01076088
 30
0.0
 11
0.4976368
 21
0.0
 31
0.0
210
0.0
220
0.0
230
1.0
 40
0.9986729277256022
 41
0.0
 42
6.283185307179586
  0
ELLIPSE
  5
21B
330
1F
100
AcDbEntity
  8
Sheet
100
AcDbEllipse
 10
566.98940704
 20
426.01076088
 30
0.0
 11
0.4976368
 21
0.0
 31
0.0
210
0.0
220
0.0
230
1.0
 40
0.9986729277256022
 41
0.0
 42
6.283185307179586
  0
LWPOLYLINE
  5
21C
330
1F
100
AcDbEntity
  8
Sheet
100
AcDbPolyline
 90
        4
 70
     0
 43
0.29972
 10
506.9999689799999
 20
426.00001414
 10
512.00001994
 20
426.00001414
 10
512.00001994
 20
461.00001526
 10
587.00002234
 20
461.00001526
  0
ELLIPSE
  5
21D
330
1F
100
AcDbEntity
  8
Sheet
100
AcDbEllipse
 10
506.989588
 20
426.01076088
 30
0.0
 11
0.49761648
 21
0.0
 31
0.0
210
0.0
220
0.0
230
1.0
 40
0.9987137081955163
 41
0.0
 42
6.283185307179586
  0
ELLIPSE
  5
21E
330
1F
100
AcDbEntity
  8
Sheet
100
AcDbEllipse
 10
506.989588
 20
426.01076088
 30
0.0
 11
0.49761648
 21
0.0
 31
0.0
210
0.0
220
0.0
230
1.0
 40
0.9987137081955163
 41
0.0
 42
6.283185307179586
  0
LWPOLYLINE
  5
21F
330
1F
100
AcDbEntity
  8
Sheet
100
AcDbPolyline
 90
        5
 70
     0
 43
0.29972
 10
537.00007154
 20
426.00023004
 10
542.0002926799999
 20
426.00023004
 10
542.0002926799999
 20
457.00024678
 10
587.00002234
 20
457.00024678
 10
587.00002234
 20
457.0000131
  0
ELLIPSE
  5
220
330
1F
100
AcDbEntity
  8
Sheet
100
AcDbEllipse
 10
536.98950768
 20
426.01076088
 30
0.0
 11
0.0
 21
0.4969764
 31
0.0
210
0.0
220
0.0
230
1.0
 40
0.9999795563733006
 41
0.0
 42
6.283185307179586
  0
ELLIPSE
  5
221
330
1F
100
AcDbEntity
  8
Sheet
100
AcDbEllipse
 10
536.98950768
 20
426.01076088
 30
0.0
 11
0.0
 21
0.4969764
 31
0.0
210
0.0
220
0.0
230
1.0
 40
0.9999795563733006
 41
0.0
 42
6.283185307179586
  0
LWPOLYLINE
  5
222
330
1F
100
AcDbEntity
  8
Sheet
100
AcDbPolyline
 90
        5
 70
     0
 43
0.29972
 10
567.0000725
 20
426.00023004
 10
572.0003088799999
 20
426.00023004
 10
572.0003088799999
 20
453.00024462
 10
587.00002234
 20
453.00024462
 10
587.00002234
 20
453.00001094
  0
ELLIPSE
  5
223
330
1F
100
AcDbEntity
  8
Sheet
100
AcDbEllipse
 10
566.98940704
 20
426.01076088
 30
0.0
 11
0.4976368
 21
0.0
 31
0.0
210
0.0
220
0.0
230
1.0
 40
0.9986729277256022
 41
0.0
 42
6.283185307179586
  0
ELLIPSE
  5
224
330
1F
100
AcDbEntity
  8
Sheet
100
AcDbEllipse
 10
566.98940704
 20
426.01076088
 30
0.0
 11
0.4976368
 21
0.0
 31
0.0
210
0.0
220
0.0
230
1.0
 40
0.9986729277256022
 41
0.0
 42
6.283185307179586
  0
LWPOLYLINE
  5
225
330
1F
100
AcDbEntity
  8
Sheet
100
AcDbPolyline
 90
        4
 70
     0
 43
0.29972
 10
487.0000191399999
 20
411.00001366
 10
480.0002592
 20
411.00001366
 10
480.0002592
 20
404.00000988
 10
450.00002964
 20
404.00000988
  0
LWPOLYLINE
  5
226
330
1F
100
AcDbEntity
  8
Sheet
100
AcDbPolyline
 90
        4
 70
     0
 43
0.29972
 10
517.00005312
 20
411.00001366
 10
513.00027702
 20
411.00001366
 10
513.00027702
 20
401.00000826
 10
450.00002964
 20
401.00000826
  0
LWPOLYLINE
  5
227
330
1F
100
AcDbEntity
  8
Sheet
100
AcDbPolyline
 90
        5
 70
     0
 43
0.29972
 10
420.00001344
 20
401.00000826
 10
420.0002268
 20
401.00000826
 10
420.0002268
 20
394.00021276
 10
547.0000540799999
 20
394.00021276
 10
547.0000540799999
 20
411.00001366
  0
LWPOLYLINE
  5
228
330
1F
100
AcDbEntity
  8
Sheet
100
AcDbPolyline
 90
        3
 70
     0
 43
0.29972
 10
537.00002074
 20
411.00001366
 10
538.00029052
 20
411.00001366
 10
538.00029052
 20
392.0002116799999
  0
CIRCLE
  5
229
330
1F
100
AcDbEntity
  8
Sheet
100
AcDbCircle
 39
0.09906
 10
537.98939392
 20
392.01045296
 30
0.0
 40
0.4976368
  0
CIRCLE
  5
22A
330
1F
100
AcDbEntity
  8
Sheet
100
AcDbCircle
 39
0.09906
 10
537.98939392
 20
392.01045296
 30
0.0
 40
0.4976368
  0
LWPOLYLINE
  5
22B
330
1F
100
AcDbEntity
  8
Sheet
100
AcDbPolyline
 90
        6
 70
     0
 43
0.29972
 10
506.99998676
 20
411.00001366
 10
508.00027432
 20
411.00001366
 10
508.00027432
 20
392.0002116799999
 10
538.00029052
 20
392.0002116799999
 10
567.0000216999999
 20
392.0002116799999
 10
567.0000216999999
 20
411.00001366
  0
CIRCLE
  5
22C
330
1F
100
AcDbEntity
  8
Sheet
100
AcDbCircle
 39
0.09906
 10
537.98939392
 20
392.01045296
 30
0.0
 40
0.4976368
  0
CIRCLE
  5
22D
330
1F
100
AcDbEntity
  8
Sheet
100
AcDbCircle
 39
0.09906
 10
537.98939392
 20
392.01045296
 30
0.0
 40
0.4976368
  0
LWPOLYLINE
  5
22E
330
1F
100
AcDbEntity
  8
Sheet
100
AcDbPolyline
 90
        3
 70
     0
 43
0.29972
 10
600.000324
 20
352.00019008
 10
604.0000365999999
 20
352.00019008
 10
604.0000365999999
 20
352.00000212
  0
ELLIPSE
  5
22F
330
1F
100
AcDbEntity
  8
Sheet
100
AcDbEllipse
 10
603.9898512
 20
352.01066504
 30
0.0
 11
0.4976368
 21
0.0
 31
0.0
210
0.0
220
0.0
230
1.0
 40
0.9986729277256022
 41
0.0
 42
6.283185307179586
  0
ELLIPSE
  5
230
330
1F
100
AcDbEntity
  8
Sheet
100
AcDbEllipse
 10
603.9898512
 20
352.01066504
 30
0.0
 11
0.4976368
 21
0.0
 31
0.0
210
0.0
220
0.0
230
1.0
 40
0.9986729277256022
 41
0.0
 42
6.283185307179586
  0
LWPOLYLINE
  5
231
330
1F
100
AcDbEntity
  8
Sheet
100
AcDbPolyline
 90
        5
 70
     0
 43
0.29972
 10
608.00032832
 20
380.0001798
 10
604.00032616
 20
380.0001798
 10
604.00032616
 20
364.00019656
 10
604.0000365999999
 20
364.00019656
 10
604.0000365999999
 20
352.00019008
  0
ELLIPSE
  5
232
330
1F
100
AcDbEntity
  8
Sheet
100
AcDbEllipse
 10
603.9898512
 20
364.01092552
 30
0.0
 11
0.4976368
 21
0.0
 31
0.0
210
0.0
220
0.0
230
1.0
 40
0.9986729277256022
 41
0.0
 42
6.283185307179586
  0
ELLIPSE
  5
233
330
1F
100
AcDbEntity
  8
Sheet
100
AcDbEllipse
 10
603.9898512
 20
352.01066504
 30
0.0
 11
0.4976368
 21
0.0
 31
0.0
210
0.0
220
0.0
230
1.0
 40
0.9986729277256022
 41
0.0
 42
6.283185307179586
  0
ELLIPSE
  5
234
330
1F
100
AcDbEntity
  8
Sheet
100
AcDbEllipse
 10
603.9898512
 20
364.01092552
 30
0.0
 11
0.4976368
 21
0.0
 31
0.0
210
0.0
220
0.0
230
1.0
 40
0.9986729277256022
 41
0.0
 42
6.283185307179586
  0
ELLIPSE
  5
235
330
1F
100
AcDbEntity
  8
Sheet
100
AcDbEllipse
 10
603.9898512
 20
352.01066504
 30
0.0
 11
0.4976368
 21
0.0
 31
0.0
210
0.0
220
0.0
230
1.0
 40
0.9986729277256022
 41
0.0
 42
6.283185307179586
  0
LWPOLYLINE
  5
236
330
1F
100
AcDbEntity
  8
Sheet
100
AcDbPolyline
 90
        5
 70
     0
 43
0.29972
 10
618.0003083199999
 20
380.0001798
 10
624.0003369599999
 20
380.0001798
 10
624.0003369599999
 20
364.00019656
 10
624.0003369599999
 20
350.00000104
 10
624.0000474
 20
350.00000104
  0
ELLIPSE
  5
237
330
1F
100
AcDbEntity
  8
Sheet
100
AcDbEllipse
 10
623.98958768
 20
364.01092552
 30
0.0
 11
0.0
 21
0.4969764
 31
0.0
210
0.0
220
0.0
230
1.0
 40
0.9999795563733006
 41
0.0
 42
6.283185307179586
  0
ELLIPSE
  5
238
330
1F
100
AcDbEntity
  8
Sheet
100
AcDbEllipse
 10
623.98958768
 20
364.01092552
 30
0.0
 11
0.0
 21
0.4969764
 31
0.0
210
0.0
220
0.0
230
1.0
 40
0.9999795563733006
 41
0.0
 42
6.283185307179586
  0
LWPOLYLINE
  5
239
330
1F
100
AcDbEntity
  8
Sheet
100
AcDbPolyline
 90
        3
 70
     0
 43
0.29972
 10
604.0000365999999
 20
350.00000104
 10
600.000324
 20
350.00000104
 10
600.000324
 20
342.00018468
  0
LWPOLYLINE
  5
23A
330
1F
100
AcDbEntity
  8
Sheet
100
AcDbPolyline
 90
        4
 70
     0
 43
0.29972
 10
558.00030132
 20
378.00020412
 10
571.00030834
 20
378.00020412
 10
580.0003131999999
 20
378.00020412
 10
580.0003131999999
 20
352.00019008
  0
ELLIPSE
  5
23B
330
1F
100
AcDbEntity
  8
Sheet
100
AcDbEllipse
 10
570.9896225599999
 20
378.01035904
 30
0.0
 11
0.0
 21
0.4976368
 31
0.0
210
0.0
220
0.0
230
1.0
 40
0.9986525112290731
 41
0.0
 42
6.283185307179586
  0
ELLIPSE
  5
23C
330
1F
100
AcDbEntity
  8
Sheet
100
AcDbEllipse
 10
570.9896225599999
 20
378.01035904
 30
0.0
 11
0.0
 21
0.4976368
 31
0.0
210
0.0
220
0.0
230
1.0
 40
0.9986525112290731
 41
0.0
 42
6.283185307179586
  0
LWPOLYLINE
  5
23D
330
1F
100
AcDbEntity
  8
Sheet
100
AcDbPolyline
 90
        4
 70
     0
 43
0.29972
 10
538.00029052
 20
392.0002116799999
 10
538.00029052
 20
378.00020412
 10
538.00029052
 20
342.00018468
 10
580.0003131999999
 20
342.00018468
  0
CIRCLE
  5
23E
330
1F
100
AcDbEntity
  8
Sheet
100
AcDbCircle
 39
0.09906
 10
537.98939392
 20
392.01045296
 30
0.0
 40
0.4976368
  0
CIRCLE
  5
23F
330
1F
100
AcDbEntity
  8
Sheet
100
AcDbCircle
 39
0.09906
 10
537.98939392
 20
378.01035904
 30
0.0
 40
0.4976368
  0
CIRCLE
  5
240
330
1F
100
AcDbEntity
  8
Sheet
100
AcDbCircle
 39
0.09906
 10
537.98939392
 20
392.01045296
 30
0.0
 40
0.4976368
  0
CIRCLE
  5
241
330
1F
100
AcDbEntity
  8
Sheet
100
AcDbCircle
 39
0.09906
 10
537.98939392
 20
378.01035904
 30
0.0
 40
0.4976368
  0
LWPOLYLINE
  5
242
330
1F
100
AcDbEntity
  8
Sheet
100
AcDbPolyline
 90
        4
 70
     0
 43
0.29972
 10
604.0000365999999
 20
347.99999996
 10
601.00032454
 20
347.99999996
 10
601.00032454
 20
358.00000536
 10
601.00003498
 20
358.00000536
  0
LWPOLYLINE
  5
243
330
1F
100
AcDbEntity
  8
Sheet
100
AcDbPolyline
 90
        5
 70
     0
 43
0.29972
 10
538.00029052
 20
378.00020412
 10
417.00022518
 20
378.00020412
 10
417.00022518
 20
404.00021816
 10
420.00001344
 20
404.00021816
 10
420.00001344
 20
404.00000988
  0
CIRCLE
  5
244
330
1F
100
AcDbEntity
  8
Sheet
100
AcDbCircle
 39
0.09906
 10
537.98939392
 20
378.01035904
 30
0.0
 40
0.4976368
  0
CIRCLE
  5
245
330
1F
100
AcDbEntity
  8
Sheet
100
AcDbCircle
 39
0.09906
 10
537.98939392
 20
378.01035904
 30
0.0
 40
0.4976368
  0
LWPOLYLINE
  5
246
330
1F
100
AcDbEntity
  8
Sheet
100
AcDbPolyline
 90
        2
 70
     0
 43
0.29972
 10
413.00000966
 20
407.0000115
 10
420.00001344
 20
407.0000115
  0
LWPOLYLINE
  5
247
330
1F
100
AcDbEntity
  8
Sheet
100
AcDbPolyline
 90
        3
 70
     0
 43
0.29972
 10
450.00002964
 20
437.0000277
 10
458.00024732
 20
437.0000277
 10
458.00024732
 20
437.00023598
  0
LWPOLYLINE
  5
248
330
1F
100
AcDbEntity
  8
Sheet
100
AcDbPolyline
 90
        4
 70
     0
 43
0.29972
 10
478.00025812
 20
437.00023598
 10
480.0002592
 20
437.00023598
 10
480.0002592
 20
435.00001138
 10
487.00000136
 20
435.00001138
  0
LWPOLYLINE
  5
249
330
1F
100
AcDbEntity
  8
Sheet
100
AcDbPolyline
 90
        3
 70
     0
 43
0.29972
 10
450.00002964
 20
425.00002122
 10
457.00024678
 20
425.00002122
 10
457.00024678
 20
450.000243
  0
LWPOLYLINE
  5
24A
330
1F
100
AcDbEntity
  8
Sheet
100
AcDbPolyline
 90
        4
 70
     0
 43
0.29972
 10
450.00002964
 20
413.00001474
 10
454.00024516
 20
413.00001474
 10
454.00024516
 20
463.00025002
 10
457.00024678
 20
463.00025002
  0
LWPOLYLINE
  5
24B
330
1F
100
AcDbEntity
  8
Sheet
100
AcDbPolyline
 90
        4
 70
     0
 43
0.29972
 10
477.00025758
 20
450.000243
 10
517.00027918
 20
450.000243
 10
517.00027918
 20
435.00001138
 10
517.00000232
 20
435.00001138
  0
LWPOLYLINE
  5
24C
330
1F
100
AcDbEntity
  8
Sheet
100
AcDbPolyline
 90
        4
 70
     0
 43
0.29972
 10
477.00025758
 20
463.00025002
 10
547.00029538
 20
463.00025002
 10
547.00029538
 20
435.00001138
 10
547.00000328
 20
435.00001138
  0
ENDSEC
  0
SECTION
  2
OBJECTS
  0
DICTIONARY
  5
C
330
0
100
AcDbDictionary
281
     1
  3
ACAD_DETAILVIEWSTYLE
350
251
  3
ACAD_GROUP
350
D
  3
ACAD_LAYOUT
350
1A
  3
ACAD_MATERIAL
350
43
  3
ACAD_MLEADERSTYLE
350
250
  3
ACAD_MLINESTYLE
350
17
  3
ACAD_PLOTSETTINGS
350
19
  3
ACAD_PLOTSTYLENAME
350
E
  3
ACAD_SCALELIST
350
47
  3
ACAD_SECTIONVIEWSTYLE
350
252
  3
ACAD_TABLESTYLE
350
24F
  3
ACAD_VISUALSTYLE
350
2A
  3
AcDbVariableDictionary
350
24D
  0
SUN
  5
69
330
29
100
AcDbSun
 90
        1
290
     0
 63
     7
421
 16777215
 40
1.0
291
     1
 91
  2455826
 92
 54000000
292
     0
 70
     2
 71
   256
280
     1
  0
DICTIONARY
  5
251
102
{ACAD_REACTORS
330
C
102
}
330
C
100
AcDbDictionary
281
     1
  0
DICTIONARY
  5
D
102
{ACAD_REACTORS
330
C
102
}
330
C
100
AcDbDictionary
281
     1
  0
DICTIONARY
  5
1A
102
{ACAD_REACTORS
330
C
102
}
330
C
100
AcDbDictionary
281
     1
  3
Layout1
350
1E
  3
Layout2
350
26
  3
Model
350
22
  0
DICTIONARY
  5
43
102
{ACAD_REACTORS
330
C
102
}
330
C
100
AcDbDictionary
281
     1
  3
ByBlock
350
45
  3
ByLayer
350
44
  3
Global
350
46
  0
DICTIONARY
  5
250
102
{ACAD_REACTORS
330
C
102
}
330
C
100
AcDbDictionary
281
     1
  0
DICTIONARY
  5
17
102
{ACAD_REACTORS
330
C
102
}
330
C
100
AcDbDictionary
281
     1
  3
Standard
350
18
  0
DICTIONARY
  5
19
102
{ACAD_REACTORS
330
C
102
}
330
C
100
AcDbDictionary
281
     1
  0
ACDBDICTIONARYWDFLT
  5
E
102
{ACAD_REACTORS
330
C
102
}
330
C
100
AcDbDictionary
281
     1
  3
Normal
350
F
100
AcDbDictionaryWithDefault
340
F
  0
DICTIONARY
  5
47
102
{ACAD_REACTORS
330
C
102
}
330
C
100
AcDbDictionary
281
     1
  3
A0
350
48
  3
A1
350
49
  3
A2
350
4A
  3
A3
350
4B
  3
A4
350
4C
  3
A5
350
4D
  3
A6
350
4E
  3
A7
350
4F
  3
A8
350
50
  3
A9
350
51
  3
B0
350
52
  3
B1
350
53
  3
B2
350
54
  3
B3
350
55
  3
B4
350
56
  3
B5
350
57
  3
B6
350
58
  3
B7
350
59
  3
B8
350
5A
  3
B9
350
5B
  3
C0
350
5C
  3
C1
350
5D
  3
C2
350
5E
  3
C3
350
5F
  3
C4
350
60
  3
C5
350
61
  3
C6
350
62
  3
C7
350
63
  3
C8
350
64
  3
C9
350
65
  3
D0
350
66
  3
D1
350
67
  3
D2
350
68
  0
DICTIONARY
  5
252
102
{ACAD_REACTORS
330
C
102
}
330
C
100
AcDbDictionary
281
     1
  0
DICTIONARY
  5
24F
102
{ACAD_REACTORS
330
C
102
}
330
C
100
AcDbDictionary
281
     1
  0
DICTIONARY
  5
2A
102
{ACAD_REACTORS
330
C
102
}
330
C
100
AcDbDictionary
281
     1
  3
2dWireframe
350
2F
  3
Basic
350
32
  3
Brighten
350
36
  3
ColorChange
350
3A
  3
Conceptual
350
34
  3
Dim
350
35
  3
EdgeColorOff
350
3D
  3
Facepattern
350
39
  3
Flat
350
2B
  3
FlatWithEdges
350
2C
  3
Gouraud
350
2D
  3
GouraudWithEdges
350
2E
  3
Hidden
350
31
  3
JitterOff
350
3B
  3
Linepattern
350
38
  3
OverhangOff
350
3C
  3
Realistic
350
33
  3
Shaded
350
42
  3
Shaded with edges
350
41
  3
Shades of Gray
350
3E
  3
Sketchy
350
3F
  3
Thicken
350
37
  3
Wireframe
350
30
  3
X-Ray
350
40
  0
DICTIONARY
  5
24D
102
{ACAD_REACTORS
330
C
102
}
330
C
100
AcDbDictionary
281
     1
  3
CANNOSCALE
350
24E
  0
LAYOUT
  5
1E
102
{ACAD_REACTORS
330
1A
102
}
330
1A
100
AcDbPlotSettings
  1

  2
none_device
  4

  6

 40
0.0
 41
0.0
 42
0.0
 43
0.0
 44
0.0
 45
0.0
 46
0.0
 47
0.0
 48
0.0
 49
0.0
140
0.0
141
0.0
142
1.0
143
1.0
 70
   688
 72
     1
 73
     0
 74
     5
  7

 75
    16
 76
     0
 77
     2
 78
   300
147
1.0
148
0.0
149
0.0
100
AcDbLayout
  1
Layout1
 70
     1
 71
     1
 10
0.0
 20
0.0
 11
420.0
 21
297.0
 12
0.0
 22
0.0
 32
0.0
 14
1.000000000000000E+20
 24
1.000000000000000E+20
 34
1.000000000000000E+20
 15
-1.000000000000000E+20
 25
-1.000000000000000E+20
 35
-1.000000000000000E+20
146
0.0
 13
0.0
 23
0.0
 33
0.0
 16
1.0
 26
0.0
 36
0.0
 17
0.0
 27
1.0
 37
0.0
 76
     0
330
1B
  0
LAYOUT
  5
26
102
{ACAD_REACTORS
330
1A
102
}
330
1A
100
AcDbPlotSettings
  1

  2
none_device
  4

  6

 40
0.0
 41
0.0
 42
0.0
 43
0.0
 44
0.0
 45
0.0
 46
0.0
 47
0.0
 48
0.0
 49
0.0
140
0.0
141
0.0
142
1.0
143
1.0
 70
   688
 72
     1
 73
     0
 74
     5
  7

 75
    16
 76
     0
 77
     2
 78
   300
147
1.0
148
0.0
149
0.0
100
AcDbLayout
  1
Layout2
 70
     1
 71
     2
 10
0.0
 20
0.0
 11
0.0
 21
0.0
 12
0.0
 22
0.0
 32
0.0
 14
0.0
 24
0.0
 34
0.0
 15
0.0
 25
0.0
 35
0.0
146
0.0
 13
0.0
 23
0.0
 33
0.0
 16
1.0
 26
0.0
 36
0.0
 17
0.0
 27
1.0
 37
0.0
 76
     0
330
23
  0
LAYOUT
  5
22
102
{ACAD_REACTORS
330
1A
102
}
330
1A
100
AcDbPlotSettings
  1

  2
none_device
  4
Letter_(8.50_x_11.00_Inches)
  6

 40
6.35
 41
6.35
 42
6.35000508
 43
6.35000508
 44
215.9
 45
279.4
 46
0.0
 47
0.0
 48
0.0
 49
0.0
140
0.0
141
0.0
142
1.0
143
1.0
 70
  1712
 72
     1
 73
     0
 74
     0
  7

 75
     0
 76
     0
 77
     2
 78
   300
147
1.0
148
0.0
149
0.0
100
AcDbLayout
  1
Model
 70
     1
 71
     0
 10
0.0
 20
0.0
 11
800.0999999999999
 21
566.42
 12
0.0
 22
0.0
 32
0.0
 14
1.000000000000000E+20
 24
1.000000000000000E+20
 34
1.000000000000000E+20
 15
-1.000000000000000E+20
 25
-1.000000000000000E+20
 35
-1.000000000000000E+20
146
0.0
 13
0.0
 23
0.0
 33
0.0
 16
1.0
 26
0.0
 36
0.0
 17
0.0
 27
1.0
 37
0.0
 76
     0
330
1F
331
29
  0
MATERIAL
  5
45
102
{ACAD_REACTORS
330
43
102
}
330
43
100
AcDbMaterial
  1
ByBlock
 72
     1
 94
      127
  0
MATERIAL
  5
44
102
{ACAD_REACTORS
330
43
102
}
330
43
100
AcDbMaterial
  1
ByLayer
 72
     1
 94
      127
  0
MATERIAL
  5
46
102
{ACAD_REACTORS
330
43
102
}
330
43
100
AcDbMaterial
  1
Global
 72
     1
 94
      127
  0
MLINESTYLE
  5
18
102
{ACAD_REACTORS
330
17
102
}
330
17
100
AcDbMlineStyle
  2
Standard
 70
     0
  3

 62
   256
 51
90.0
 52
90.0
 71
     2
 49
0.5
 62
   256
  6
BYLAYER
 49
-0.5
 62
   256
  6
BYLAYER
  0
ACDBPLACEHOLDER
  5
F
102
{ACAD_REACTORS
330
E
102
}
330
E
  0
SCALE
  5
48
102
{ACAD_REACTORS
330
47
102
}
330
47
100
AcDbScale
 70
     0
300
1:1
140
1.0
141
1.0
290
     1
  0
SCALE
  5
49
102
{ACAD_REACTORS
330
47
102
}
330
47
100
AcDbScale
 70
     0
300
1:2
140
1.0
141
2.0
290
     0
  0
SCALE
  5
4A
102
{ACAD_REACTORS
330
47
102
}
330
47
100
AcDbScale
 70
     0
300
1:4
140
1.0
141
4.0
290
     0
  0
SCALE
  5
4B
102
{ACAD_REACTORS
330
47
102
}
330
47
100
AcDbScale
 70
     0
300
1:5
140
1.0
141
5.0
290
     0
  0
SCALE
  5
4C
102
{ACAD_REACTORS
330
47
102
}
330
47
100
AcDbScale
 70
     0
300
1:8
140
1.0
141
8.0
290
     0
  0
SCALE
  5
4D
102
{ACAD_REACTORS
330
47
102
}
330
47
100
AcDbScale
 70
     0
300
1:10
140
1.0
141
10.0
290
     0
  0
SCALE
  5
4E
102
{ACAD_REACTORS
330
47
102
}
330
47
100
AcDbScale
 70
     0
300
1:16
140
1.0
141
16.0
290
     0
  0
SCALE
  5
4F
102
{ACAD_REACTORS
330
47
102
}
330
47
100
AcDbScale
 70
     0
300
1:20
140
1.0
141
20.0
290
     0
  0
SCALE
  5
50
102
{ACAD_REACTORS
330
47
102
}
330
47
100
AcDbScale
 70
     0
300
1:30
140
1.0
141
30.0
290
     0
  0
SCALE
  5
51
102
{ACAD_REACTORS
330
47
102
}
330
47
100
AcDbScale
 70
     0
300
1:40
140
1.0
141
40.0
290
     0
  0
SCALE
  5
52
102
{ACAD_REACTORS
330
47
102
}
330
47
100
AcDbScale
 70
     0
300
1:50
140
1.0
141
50.0
290
     0
  0
SCALE
  5
53
102
{ACAD_REACTORS
330
47
102
}
330
47
100
AcDbScale
 70
     0
300
1:100
140
1.0
141
100.0
290
     0
  0
SCALE
  5
54
102
{ACAD_REACTORS
330
47
102
}
330
47
100
AcDbScale
 70
     0
300
2:1
140
2.0
141
1.0
290
     0
  0
SCALE
  5
55
102
{ACAD_REACTORS
330
47
102
}
330
47
100
AcDbScale
 70
     0
300
4:1
140
4.0
141
1.0
290
     0
  0
SCALE
  5
56
102
{ACAD_REACTORS
330
47
102
}
330
47
100
AcDbScale
 70
     0
300
8:1
140
8.0
141
1.0
290
     0
  0
SCALE
  5
57
102
{ACAD_REACTORS
330
47
102
}
330
47
100
AcDbScale
 70
     0
300
10:1
140
10.0
141
1.0
290
     0
  0
SCALE
  5
58
102
{ACAD_REACTORS
330
47
102
}
330
47
100
AcDbScale
 70
     0
300
100:1
140
100.0
141
1.0
290
     0
  0
SCALE
  5
59
102
{ACAD_REACTORS
330
47
102
}
330
47
100
AcDbScale
 70
     0
300
1/128" = 1'-0"
140
0.0078125
141
12.0
290
     0
  0
SCALE
  5
5A
102
{ACAD_REACTORS
330
47
102
}
330
47
100
AcDbScale
 70
     0
300
1/64" = 1'-0"
140
0.015625
141
12.0
290
     0
  0
SCALE
  5
5B
102
{ACAD_REACTORS
330
47
102
}
330
47
100
AcDbScale
 70
     0
300
1/32" = 1'-0"
140
0.03125
141
12.0
290
     0
  0
SCALE
  5
5C
102
{ACAD_REACTORS
330
47
102
}
330
47
100
AcDbScale
 70
     0
300
1/16" = 1'-0"
140
0.0625
141
12.0
290
     0
  0
SCALE
  5
5D
102
{ACAD_REACTORS
330
47
102
}
330
47
100
AcDbScale
 70
     0
300
3/32" = 1'-0"
140
0.09375
141
12.0
290
     0
  0
SCALE
  5
5E
102
{ACAD_REACTORS
330
47
102
}
330
47
100
AcDbScale
 70
     0
300
1/8" = 1'-0"
140
0.125
141
12.0
290
     0
  0
SCALE
  5
5F
102
{ACAD_REACTORS
330
47
102
}
330
47
100
AcDbScale
 70
     0
300
3/16" = 1'-0"
140
0.1875
141
12.0
290
     0
  0
SCALE
  5
60
102
{ACAD_REACTORS
330
47
102
}
330
47
100
AcDbScale
 70
     0
300
1/4" = 1'-0"
140
0.25
141
12.0
290
     0
  0
SCALE
  5
61
102
{ACAD_REACTORS
330
47
102
}
330
47
100
AcDbScale
 70
     0
300
3/8" = 1'-0"
140
0.375
141
12.0
290
     0
  0
SCALE
  5
62
102
{ACAD_REACTORS
330
47
102
}
330
47
100
AcDbScale
 70
     0
300
1/2" = 1'-0"
140
0.5
141
12.0
290
     0
  0
SCALE
  5
63
102
{ACAD_REACTORS
330
47
102
}
330
47
100
AcDbScale
 70
     0
300
3/4" = 1'-0"
140
0.75
141
12.0
290
     0
  0
SCALE
  5
64
102
{ACAD_REACTORS
330
47
102
}
330
47
100
AcDbScale
 70
     0
300
1" = 1'-0"
140
1.0
141
12.0
290
     0
  0
SCALE
  5
65
102
{ACAD_REACTORS
330
47
102
}
330
47
100
AcDbScale
 70
     0
300
1-1/2" = 1'-0"
140
1.5
141
12.0
290
     0
  0
SCALE
  5
66
102
{ACAD_REACTORS
330
47
102
}
330
47
100
AcDbScale
 70
     0
300
3" = 1'-0"
140
3.0
141
12.0
290
     0
  0
SCALE
  5
67
102
{ACAD_REACTORS
330
47
102
}
330
47
100
AcDbScale
 70
     0
300
6" = 1'-0"
140
6.0
141
12.0
290
     0
  0
SCALE
  5
68
102
{ACAD_REACTORS
330
47
102
}
330
47
100
AcDbScale
 70
     0
300
1'-0" = 1'-0"
140
12.0
141
12.0
290
     0
  0
VISUALSTYLE
  5
2F
102
{ACAD_REACTORS
330
2A
102
}
330
2A
100
AcDbVisualStyle
  2
2dWireframe
 70
     4
177
     3
291
     0
 70
    58
 90
        0
176
     1
 90
        2
176
     1
 90
        0
176
     1
 90
        0
176
     1
 40
0.6
176
     1
 40
30.0
176
     1
 62
     7
420
 16777215
176
     1
 90
        1
176
     1
 90
        4
176
     1
 62
     7
176
     1
 62
   257
176
     1
 90
        1
176
     1
 90
        1
176
     1
 40
1.0
176
     1
 90
        0
176
     1
 62
   257
176
     1
 40
1.0
176
     1
 90
        1
176
     1
 90
        6
176
     1
 90
        2
176
     1
 62
     7
176
     1
 90
        5
176
     1
 90
        0
176
     1
 90
        0
176
     1
290
     0
176
     1
 90
        1
176
     1
 40
0.0
176
     1
 90
        0
176
     1
290
     1
176
     1
290
     1
176
     1
290
     0
176
     1
290
     0
176
     1
290
     0
176
     1
290
     0
176
     1
290
     0
176
     1
290
     0
176
     1
290
     0
176
     1
 90
       50
176
     1
 40
0.0
176
     1
 40
1.0
176
     1
 90
        0
176
     1
 62
    18
420
        0
176
     1
 90
       50
176
     1
 90
        3
176
     1
 62
     5
420
      255
176
     1
290
     0
176
     1
 90
       50
176
     1
 90
       50
176
     1
 90
       50
176
     1
290
     0
176
     1
 90
       50
176
     1
 62
   256
176
     0
 40
1.0
176
     0
 90
        2
176
     1
  1
strokes_ogs.tif
176
     1
290
     0
176
     1
 40
1.0
176
     1
 40
1.0
176
     1
  0
VISUALSTYLE
  5
32
102
{ACAD_REACTORS
330
2A
102
}
330
2A
100
AcDbVisualStyle
  2
Basic
 70
     7
177
     3
291
     1
 70
    58
 90
        1
176
     1
 90
        0
176
     1
 90
        1
176
     1
 90
        0
176
     1
 40
0.6
176
     1
 40
30.0
176
     1
 62
     7
420
 16777215
176
     1
 90
        0
176
     1
 90
        4
176
     1
 62
     7
176
     1
 62
   257
176
     1
 90
        1
176
     1
 90
        1
176
     1
 40
1.0
176
     1
 90
        8
176
     1
 62
     7
176
     1
 40
1.0
176
     1
 90
        1
176
     1
 90
        6
176
     1
 90
        2
176
     1
 62
     7
176
     1
 90
        5
176
     1
 90
        0
176
     1
 90
        0
176
     1
290
     0
176
     1
 90
        1
176
     1
 40
0.0
176
     1
 90
        0
176
     1
290
     0
176
     1
290
     1
176
     1
290
     1
176
     1
290
     0
176
     1
290
     0
176
     1
290
     0
176
     1
290
     0
176
     1
290
     0
176
     1
290
     0
176
     1
 90
       50
176
     1
 40
0.0
176
     1
 40
1.0
176
     1
 90
        0
176
     1
 62
    18
420
        0
176
     1
 90
       50
176
     1
 90
        3
176
     1
 62
     5
420
      255
176
     1
290
     0
176
     1
 90
       50
176
     1
 90
       50
176
     1
 90
       50
176
     1
290
     0
176
     1
 90
       50
176
     1
 62
   256
176
     0
 40
1.0
176
     0
 90
        2
176
     1
  1
strokes_ogs.tif
176
     1
290
     0
176
     1
 40
1.0
176
     1
 40
1.0
176
     1
  0
VISUALSTYLE
  5
36
102
{ACAD_REACTORS
330
2A
102
}
330
2A
100
AcDbVisualStyle
  2
Brighten
 70
    12
177
     3
291
     1
 70
    58
 90
        2
176
     1
 90
        2
176
     1
 90
        0
176
     1
 90
        0
176
     1
 40
0.6
176
     1
 40
30.0
176
     1
 62
     7
420
 16777215
176
     1
 90
        1
176
     1
 90
        4
176
     1
 62
     7
176
     1
 62
   257
176
     1
 90
        1
176
     1
 90
        1
176
     1
 40
1.0
176
     1
 90
        8
176
     1
 62
     7
176
     1
 40
1.0
176
     1
 90
        1
176
     1
 90
        6
176
     1
 90
        2
176
     1
 62
     7
176
     1
 90
        5
176
     1
 90
        0
176
     1
 90
        0
176
     1
290
     0
176
     1
 90
        1
176
     1
 40
50.0
176
     1
 90
        0
176
     1
290
     0
176
     1
290
     1
176
     1
290
     1
176
     1
290
     0
176
     1
290
     0
176
     1
290
     0
176
     1
290
     0
176
     1
290
     0
176
     1
290
     0
176
     1
 90
       50
176
     1
 40
0.0
176
     1
 40
1.0
176
     1
 90
        0
176
     1
 62
    18
420
        0
176
     1
 90
       50
176
     1
 90
        3
176
     1
 62
     5
420
      255
176
     1
290
     0
176
     1
 90
       50
176
     1
 90
       50
176
     1
 90
       50
176
     1
290
     0
176
     1
 90
       50
176
     1
 62
   256
176
     0
 40
1.0
176
     0
 90
        2
176
     1
  1
strokes_ogs.tif
176
     1
290
     0
176
     1
 40
1.0
176
     1
 40
1.0
176
     1
  0
VISUALSTYLE
  5
3A
102
{ACAD_REACTORS
330
2A
102
}
330
2A
100
AcDbVisualStyle
  2
ColorChange
 70
    16
177
     3
291
     1
 70
    58
 90
        2
176
     1
 90
        2
176
     1
 90
        3
176
     1
 90
        0
176
     1
 40
0.6
176
     1
 40
30.0
176
     1
 62
     8
420
  8421504
176
     1
 90
        1
176
     1
 90
        4
176
     1
 62
     7
176
     1
 62
   257
176
     1
 90
        1
176
     1
 90
        1
176
     1
 40
1.0
176
     1
 90
        8
176
     1
 62
     8
420
  8421504
176
     1
 40
1.0
176
     1
 90
        1
176
     1
 90
        6
176
     1
 90
        2
176
     1
 62
     7
176
     1
 90
        5
176
     1
 90
        0
176
     1
 90
        0
176
     1
290
     0
176
     1
 90
        1
176
     1
 40
0.0
176
     1
 90
        0
176
     1
290
     0
176
     1
290
     1
176
     1
290
     1
176
     1
290
     0
176
     1
290
     0
176
     1
290
     0
176
     1
290
     0
176
     1
290
     0
176
     1
290
     0
176
     1
 90
       50
176
     1
 40
0.0
176
     1
 40
1.0
176
     1
 90
        0
176
     1
 62
    18
420
        0
176
     1
 90
       50
176
     1
 90
        3
176
     1
 62
     5
420
      255
176
     1
290
     0
176
     1
 90
       50
176
     1
 90
       50
176
     1
 90
       50
176
     1
290
     0
176
     1
 90
       50
176
     1
 62
   256
176
     0
 40
1.0
176
     0
 90
        2
176
     1
  1
strokes_ogs.tif
176
     1
290
     0
176
     1
 40
1.0
176
     1
 40
1.0
176
     1
  0
VISUALSTYLE
  5
34
102
{ACAD_REACTORS
330
2A
102
}
330
2A
100
AcDbVisualStyle
  2
Conceptual
 70
     9
177
     3
291
     0
 70
    58
 90
        3
176
     1
 90
        2
176
     1
 90
        0
176
     1
 90
        0
176
     1
 40
0.6
176
     1
 40
30.0
176
     1
 62
     7
420
 16777215
176
     1
 90
        2
176
     1
 90
        2
176
     1
 62
     7
176
     1
 62
   257
176
     1
 90
        1
176
     1
 90
        1
176
     1
 40
179.0
176
     1
 90
        8
176
     1
 62
     7
176
     1
 40
1.0
176
     1
 90
        1
176
     1
 90
        6
176
     1
 90
        2
176
     1
 62
     7
176
     1
 90
        3
176
     1
 90
        0
176
     1
 90
        0
176
     1
290
     0
176
     1
 90
        1
176
     1
 40
0.0
176
     1
 90
        0
176
     1
290
     0
176
     1
290
     1
176
     1
290
     1
176
     1
290
     0
176
     1
290
     0
176
     1
290
     0
176
     1
290
     0
176
     1
290
     0
176
     1
290
     0
176
     1
 90
       50
176
     1
 40
0.0
176
     1
 40
1.0
176
     1
 90
        0
176
     1
 62
    18
420
        0
176
     1
 90
       50
176
     1
 90
        3
176
     1
 62
     5
420
      255
176
     1
290
     0
176
     1
 90
       50
176
     1
 90
       50
176
     1
 90
       50
176
     1
290
     0
176
     1
 90
       50
176
     1
 62
   256
176
     0
 40
1.0
176
     0
 90
        2
176
     1
  1
strokes_ogs.tif
176
     1
290
     0
176
     1
 40
1.0
176
     1
 40
1.0
176
     1
  0
VISUALSTYLE
  5
35
102
{ACAD_REACTORS
330
2A
102
}
330
2A
100
AcDbVisualStyle
  2
Dim
 70
    11
177
     3
291
     1
 70
    58
 90
        2
176
     1
 90
        2
176
     1
 90
        0
176
     1
 90
        0
176
     1
 40
0.6
176
     1
 40
30.0
176
     1
 62
     7
420
 16777215
176
     1
 90
        1
176
     1
 90
        4
176
     1
 62
     7
176
     1
 62
   257
176
     1
 90
        1
176
     1
 90
        1
176
     1
 40
1.0
176
     1
 90
        8
176
     1
 62
     7
176
     1
 40
1.0
176
     1
 90
        1
176
     1
 90
        6
176
     1
 90
        2
176
     1
 62
     7
176
     1
 90
        5
176
     1
 90
        0
176
     1
 90
        0
176
     1
290
     0
176
     1
 90
        1
176
     1
 40
-50.0
176
     1
 90
        0
176
     1
290
     0
176
     1
290
     1
176
     1
290
     1
176
     1
290
     0
176
     1
290
     0
176
     1
290
     0
176
     1
290
     0
176
     1
290
     0
176
     1
290
     0
176
     1
 90
       50
176
     1
 40
0.0
176
     1
 40
1.0
176
     1
 90
        0
176
     1
 62
    18
420
        0
176
     1
 90
       50
176
     1
 90
        3
176
     1
 62
     5
420
      255
176
     1
290
     0
176
     1
 90
       50
176
     1
 90
       50
176
     1
 90
       50
176
     1
290
     0
176
     1
 90
       50
176
     1
 62
   256
176
     0
 40
1.0
176
     0
 90
        2
176
     1
  1
strokes_ogs.tif
176
     1
290
     0
176
     1
 40
1.0
176
     1
 40
1.0
176
     1
  0
VISUALSTYLE
  5
3D
102
{ACAD_REACTORS
330
2A
102
}
330
2A
100
AcDbVisualStyle
  2
EdgeColorOff
 70
    22
177
     3
291
     1
 70
    58
 90
        2
176
     0
 90
        2
176
     0
 90
        0
176
     0
 90
        0
176
     0
 40
0.6
176
     0
 40
30.0
176
     0
 62
     7
420
 16777215
176
     0
 90
        1
176
     0
 90
        4
176
     0
 62
     7
176
     0
 62
   257
176
     0
 90
        1
176
     0
 90
        1
176
     0
 40
1.0
176
     0
 90
        8
176
     2
 62
     7
176
     0
 40
1.0
176
     0
 90
        1
176
     0
 90
        6
176
     0
 90
        2
176
     0
 62
     7
176
     0
 90
        5
176
     0
 90
        0
176
     0
 90
        0
176
     0
290
     0
176
     0
 90
        1
176
     0
 40
0.0
176
     0
 90
        0
176
     0
290
     0
176
     0
290
     1
176
     0
290
     1
176
     0
290
     0
176
     0
290
     0
176
     0
290
     0
176
     0
290
     0
176
     0
290
     0
176
     0
290
     0
176
     0
 90
       50
176
     0
 40
0.0
176
     0
 40
1.0
176
     0
 90
        0
176
     0
 62
    18
420
        0
176
     0
 90
       50
176
     0
 90
        3
176
     0
 62
     5
420
      255
176
     0
290
     0
176
     0
 90
       50
176
     0
 90
       50
176
     0
 90
       50
176
     0
290
     0
176
     0
 90
       50
176
     0
 62
   256
176
     0
 40
1.0
176
     0
 90
        2
176
     0
  1
strokes_ogs.tif
176
     0
290
     0
176
     0
 40
1.0
176
     0
 40
1.0
176
     0
  0
VISUALSTYLE
  5
39
102
{ACAD_REACTORS
330
2A
102
}
330
2A
100
AcDbVisualStyle
  2
Facepattern
 70
    15
177
     3
291
     1
 70
    58
 90
        2
176
     1
 90
        2
176
     1
 90
        0
176
     1
 90
        0
176
     1
 40
0.6
176
     1
 40
30.0
176
     1
 62
     7
420
 16777215
176
     1
 90
        1
176
     1
 90
        4
176
     1
 62
     7
176
     1
 62
   257
176
     1
 90
        1
176
     1
 90
        1
176
     1
 40
1.0
176
     1
 90
        8
176
     1
 62
     7
176
     1
 40
1.0
176
     1
 90
        1
176
     1
 90
        6
176
     1
 90
        2
176
     1
 62
     7
176
     1
 90
        5
176
     1
 90
        0
176
     1
 90
        0
176
     1
290
     0
176
     1
 90
        1
176
     1
 40
0.0
176
     1
 90
        0
176
     1
290
     0
176
     1
290
     1
176
     1
290
     1
176
     1
290
     0
176
     1
290
     0
176
     1
290
     0
176
     1
290
     0
176
     1
290
     0
176
     1
290
     0
176
     1
 90
       50
176
     1
 40
0.0
176
     1
 40
1.0
176
     1
 90
        0
176
     1
 62
    18
420
        0
176
     1
 90
       50
176
     1
 90
        3
176
     1
 62
     5
420
      255
176
     1
290
     0
176
     1
 90
       50
176
     1
 90
       50
176
     1
 90
       50
176
     1
290
     0
176
     1
 90
       50
176
     1
 62
   256
176
     0
 40
1.0
176
     0
 90
        2
176
     1
  1
strokes_ogs.tif
176
     1
290
     0
176
     1
 40
1.0
176
     1
 40
1.0
176
     1
  0
VISUALSTYLE
  5
2B
102
{ACAD_REACTORS
330
2A
102
}
330
2A
100
AcDbVisualStyle
  2
Flat
 70
     0
177
     3
291
     1
 70
    58
 90
        2
176
     1
 90
        1
176
     1
 90
        1
176
     1
 90
        2
176
     1
 40
0.6
176
     1
 40
30.0
176
     1
 62
     7
420
 16777215
176
     1
 90
        0
176
     1
 90
        0
176
     1
 62
     7
176
     1
 62
   257
176
     1
 90
        1
176
     1
 90
        1
176
     1
 40
1.0
176
     1
 90
        8
176
     1
 62
     7
176
     1
 40
1.0
176
     1
 90
        1
176
     1
 90
        6
176
     1
 90
        2
176
     1
 62
     7
176
     1
 90
        5
176
     1
 90
        0
176
     1
 90
        0
176
     1
290
     0
176
     1
 90
       13
176
     1
 40
0.0
176
     1
 90
        0
176
     1
290
     0
176
     1
290
     1
176
     1
290
     1
176
     1
290
     0
176
     1
290
     0
176
     1
290
     0
176
     1
290
     0
176
     1
290
     0
176
     1
290
     0
176
     1
 90
       50
176
     1
 40
0.0
176
     1
 40
1.0
176
     1
 90
        0
176
     1
 62
    18
420
        0
176
     1
 90
       50
176
     1
 90
        3
176
     1
 62
     5
420
      255
176
     1
290
     0
176
     1
 90
       50
176
     1
 90
       50
176
     1
 90
       50
176
     1
290
     0
176
     1
 90
       50
176
     1
 62
   256
176
     0
 40
1.0
176
     0
 90
        2
176
     1
  1
strokes_ogs.tif
176
     1
290
     0
176
     1
 40
1.0
176
     1
 40
1.0
176
     1
  0
VISUALSTYLE
  5
2C
102
{ACAD_REACTORS
330
2A
102
}
330
2A
100
AcDbVisualStyle
  2
FlatWithEdges
 70
     1
177
     3
291
     1
 70
    58
 90
        2
176
     1
 90
        1
176
     1
 90
        1
176
     1
 90
        2
176
     1
 40
0.6
176
     1
 40
30.0
176
     1
 62
     7
420
 16777215
176
     1
 90
        1
176
     1
 90
        0
176
     1
 62
     7
176
     1
 62
   257
176
     1
 90
        1
176
     1
 90
        1
176
     1
 40
1.0
176
     1
 90
        0
176
     1
 62
   257
176
     1
 40
1.0
176
     1
 90
        1
176
     1
 90
        6
176
     1
 90
        2
176
     1
 62
     7
176
     1
 90
        5
176
     1
 90
        0
176
     1
 90
        0
176
     1
290
     0
176
     1
 90
       13
176
     1
 40
0.0
176
     1
 90
        0
176
     1
290
     0
176
     1
290
     1
176
     1
290
     1
176
     1
290
     0
176
     1
290
     0
176
     1
290
     0
176
     1
290
     0
176
     1
290
     0
176
     1
290
     0
176
     1
 90
       50
176
     1
 40
0.0
176
     1
 40
1.0
176
     1
 90
        0
176
     1
 62
    18
420
        0
176
     1
 90
       50
176
     1
 90
        3
176
     1
 62
     5
420
      255
176
     1
290
     0
176
     1
 90
       50
176
     1
 90
       50
176
     1
 90
       50
176
     1
290
     0
176
     1
 90
       50
176
     1
 62
   256
176
     0
 40
1.0
176
     0
 90
        2
176
     1
  1
strokes_ogs.tif
176
     1
290
     0
176
     1
 40
1.0
176
     1
 40
1.0
176
     1
  0
VISUALSTYLE
  5
2D
102
{ACAD_REACTORS
330
2A
102
}
330
2A
100
AcDbVisualStyle
  2
Gouraud
 70
     2
177
     3
291
     1
 70
    58
 90
        2
176
     1
 90
        2
176
     1
 90
        1
176
     1
 90
        2
176
     1
 40
0.6
176
     1
 40
30.0
176
     1
 62
     7
420
 16777215
176
     1
 90
        0
176
     1
 90
        0
176
     1
 62
     7
176
     1
 62
   257
176
     1
 90
        1
176
     1
 90
        1
176
     1
 40
1.0
176
     1
 90
        0
176
     1
 62
     7
176
     1
 40
1.0
176
     1
 90
        1
176
     1
 90
        6
176
     1
 90
        2
176
     1
 62
     7
176
     1
 90
        5
176
     1
 90
        0
176
     1
 90
        0
176
     1
290
     0
176
     1
 90
       13
176
     1
 40
0.0
176
     1
 90
        0
176
     1
290
     0
176
     1
290
     1
176
     1
290
     1
176
     1
290
     0
176
     1
290
     0
176
     1
290
     0
176
     1
290
     0
176
     1
290
     0
176
     1
290
     0
176
     1
 90
       50
176
     1
 40
0.0
176
     1
 40
1.0
176
     1
 90
        0
176
     1
 62
    18
420
        0
176
     1
 90
       50
176
     1
 90
        3
176
     1
 62
     5
420
      255
176
     1
290
     0
176
     1
 90
       50
176
     1
 90
       50
176
     1
 90
       50
176
     1
290
     0
176
     1
 90
       50
176
     1
 62
   256
176
     0
 40
1.0
176
     0
 90
        2
176
     1
  1
strokes_ogs.tif
176
     1
290
     0
176
     1
 40
1.0
176
     1
 40
1.0
176
     1
  0
VISUALSTYLE
  5
2E
102
{ACAD_REACTORS
330
2A
102
}
330
2A
100
AcDbVisualStyle
  2
GouraudWithEdges
 70
     3
177
     3
291
     1
 70
    58
 90
        2
176
     1
 90
        2
176
     1
 90
        1
176
     1
 90
        2
176
     1
 40
0.6
176
     1
 40
30.0
176
     1
 62
     7
420
 16777215
176
     1
 90
        1
176
     1
 90
        0
176
     1
 62
     7
176
     1
 62
   257
176
     1
 90
        1
176
     1
 90
        1
176
     1
 40
1.0
176
     1
 90
        0
176
     1
 62
   257
176
     1
 40
1.0
176
     1
 90
        1
176
     1
 90
        6
176
     1
 90
        2
176
     1
 62
     7
176
     1
 90
        5
176
     1
 90
        0
176
     1
 90
        0
176
     1
290
     0
176
     1
 90
       13
176
     1
 40
0.0
176
     1
 90
        0
176
     1
290
     0
176
     1
290
     1
176
     1
290
     1
176
     1
290
     0
176
     1
290
     0
176
     1
290
     0
176
     1
290
     0
176
     1
290
     0
176
     1
290
     0
176
     1
 90
       50
176
     1
 40
0.0
176
     1
 40
1.0
176
     1
 90
        0
176
     1
 62
    18
420
        0
176
     1
 90
       50
176
     1
 90
        3
176
     1
 62
     5
420
      255
176
     1
290
     0
176
     1
 90
       50
176
     1
 90
       50
176
     1
 90
       50
176
     1
290
     0
176
     1
 90
       50
176
     1
 62
   256
176
     0
 40
1.0
176
     0
 90
        2
176
     1
  1
strokes_ogs.tif
176
     1
290
     0
176
     1
 40
1.0
176
     1
 40
1.0
176
     1
  0
VISUALSTYLE
  5
31
102
{ACAD_REACTORS
330
2A
102
}
330
2A
100
AcDbVisualStyle
  2
Hidden
 70
     6
177
     3
291
     0
 70
    58
 90
        1
176
     1
 90
        2
176
     1
 90
        2
176
     1
 90
        0
176
     1
 40
0.6
176
     1
 40
30.0
176
     1
 62
     7
420
 16777215
176
     1
 90
        2
176
     1
 90
        2
176
     1
 62
     7
176
     1
 62
   257
176
     1
 90
        2
176
     1
 90
        1
176
     1
 40
40.0
176
     1
 90
        0
176
     1
 62
   257
176
     1
 40
1.0
176
     1
 90
        1
176
     1
 90
        6
176
     1
 90
        2
176
     1
 62
     7
176
     1
 90
        3
176
     1
 90
        0
176
     1
 90
        0
176
     1
290
     0
176
     1
 90
        1
176
     1
 40
0.0
176
     1
 90
        0
176
     1
290
     0
176
     1
290
     1
176
     1
290
     1
176
     1
290
     0
176
     1
290
     0
176
     1
290
     0
176
     1
290
     0
176
     1
290
     0
176
     1
290
     0
176
     1
 90
       50
176
     1
 40
0.0
176
     1
 40
1.0
176
     1
 90
        0
176
     1
 62
    18
420
        0
176
     1
 90
       50
176
     1
 90
        3
176
     1
 62
     5
420
      255
176
     1
290
     0
176
     1
 90
       50
176
     1
 90
       50
176
     1
 90
       50
176
     1
290
     0
176
     1
 90
       50
176
     1
 62
   256
176
     0
 40
1.0
176
     0
 90
        2
176
     1
  1
strokes_ogs.tif
176
     1
290
     0
176
     1
 40
1.0
176
     1
 40
1.0
176
     1
  0
VISUALSTYLE
  5
3B
102
{ACAD_REACTORS
330
2A
102
}
330
2A
100
AcDbVisualStyle
  2
JitterOff
 70
    20
177
     3
291
     1
 70
    58
 90
        2
176
     0
 90
        2
176
     0
 90
        0
176
     0
 90
        0
176
     0
 40
0.6
176
     0
 40
30.0
176
     0
 62
     7
420
 16777215
176
     0
 90
        1
176
     0
 90
        4
176
     0
 62
     7
176
     0
 62
   257
176
     0
 90
        1
176
     0
 90
        1
176
     0
 40
1.0
176
     0
 90
       10
176
     2
 62
     7
176
     0
 40
1.0
176
     0
 90
        1
176
     0
 90
        6
176
     0
 90
        2
176
     0
 62
     7
176
     0
 90
        5
176
     0
 90
        0
176
     0
 90
        0
176
     0
290
     0
176
     0
 90
        1
176
     0
 40
0.0
176
     0
 90
        0
176
     0
290
     0
176
     0
290
     1
176
     0
290
     1
176
     0
290
     0
176
     0
290
     0
176
     0
290
     0
176
     0
290
     0
176
     0
290
     0
176
     0
290
     0
176
     0
 90
       50
176
     0
 40
0.0
176
     0
 40
1.0
176
     0
 90
        0
176
     0
 62
    18
420
        0
176
     0
 90
       50
176
     0
 90
        3
176
     0
 62
     5
420
      255
176
     0
290
     0
176
     0
 90
       50
176
     0
 90
       50
176
     0
 90
       50
176
     0
290
     0
176
     0
 90
       50
176
     0
 62
   256
176
     0
 40
1.0
176
     0
 90
        2
176
     0
  1
strokes_ogs.tif
176
     0
290
     0
176
     0
 40
1.0
176
     0
 40
1.0
176
     0
  0
VISUALSTYLE
  5
38
102
{ACAD_REACTORS
330
2A
102
}
330
2A
100
AcDbVisualStyle
  2
Linepattern
 70
    14
177
     3
291
     1
 70
    58
 90
        2
176
     1
 90
        2
176
     1
 90
        0
176
     1
 90
        0
176
     1
 40
0.6
176
     1
 40
30.0
176
     1
 62
     7
420
 16777215
176
     1
 90
        1
176
     1
 90
        4
176
     1
 62
     7
176
     1
 62
   257
176
     1
 90
        7
176
     1
 90
        7
176
     1
 40
1.0
176
     1
 90
        8
176
     1
 62
     7
176
     1
 40
1.0
176
     1
 90
        1
176
     1
 90
        6
176
     1
 90
        2
176
     1
 62
     7
176
     1
 90
        5
176
     1
 90
        0
176
     1
 90
        0
176
     1
290
     0
176
     1
 90
        1
176
     1
 40
0.0
176
     1
 90
        0
176
     1
290
     0
176
     1
290
     1
176
     1
290
     1
176
     1
290
     0
176
     1
290
     0
176
     1
290
     0
176
     1
290
     0
176
     1
290
     0
176
     1
290
     0
176
     1
 90
       50
176
     1
 40
0.0
176
     1
 40
1.0
176
     1
 90
        0
176
     1
 62
    18
420
        0
176
     1
 90
       50
176
     1
 90
        3
176
     1
 62
     5
420
      255
176
     1
290
     0
176
     1
 90
       50
176
     1
 90
       50
176
     1
 90
       50
176
     1
290
     0
176
     1
 90
       50
176
     1
 62
   256
176
     0
 40
1.0
176
     0
 90
        2
176
     1
  1
strokes_ogs.tif
176
     1
290
     0
176
     1
 40
1.0
176
     1
 40
1.0
176
     1
  0
VISUALSTYLE
  5
3C
102
{ACAD_REACTORS
330
2A
102
}
330
2A
100
AcDbVisualStyle
  2
OverhangOff
 70
    21
177
     3
291
     1
 70
    58
 90
        2
176
     0
 90
        2
176
     0
 90
        0
176
     0
 90
        0
176
     0
 40
0.6
176
     0
 40
30.0
176
     0
 62
     7
420
 16777215
176
     0
 90
        1
176
     0
 90
        4
176
     0
 62
     7
176
     0
 62
   257
176
     0
 90
        1
176
     0
 90
        1
176
     0
 40
1.0
176
     0
 90
        9
176
     2
 62
     7
176
     0
 40
1.0
176
     0
 90
        1
176
     0
 90
        6
176
     0
 90
        2
176
     0
 62
     7
176
     0
 90
        5
176
     0
 90
        0
176
     0
 90
        0
176
     0
290
     0
176
     0
 90
        1
176
     0
 40
0.0
176
     0
 90
        0
176
     0
290
     0
176
     0
290
     1
176
     0
290
     1
176
     0
290
     0
176
     0
290
     0
176
     0
290
     0
176
     0
290
     0
176
     0
290
     0
176
     0
290
     0
176
     0
 90
       50
176
     0
 40
0.0
176
     0
 40
1.0
176
     0
 90
        0
176
     0
 62
    18
420
        0
176
     0
 90
       50
176
     0
 90
        3
176
     0
 62
     5
420
      255
176
     0
290
     0
176
     0
 90
       50
176
     0
 90
       50
176
     0
 90
       50
176
     0
290
     0
176
     0
 90
       50
176
     0
 62
   256
176
     0
 40
1.0
176
     0
 90
        2
176
     0
  1
strokes_ogs.tif
176
     0
290
     0
176
     0
 40
1.0
176
     0
 40
1.0
176
     0
  0
VISUALSTYLE
  5
33
102
{ACAD_REACTORS
330
2A
102
}
330
2A
100
AcDbVisualStyle
  2
Realistic
 70
     8
177
     3
291
     0
 70
    58
 90
        2
176
     1
 90
        3
176
     1
 90
        0
176
     1
 90
        2
176
     1
 40
0.6
176
     1
 40
30.0
176
     1
 62
     7
420
 16777215
176
     1
 90
        0
176
     1
 90
        0
176
     1
 62
     7
176
     1
 62
   257
176
     1
 90
        1
176
     1
 90
        1
176
     1
 40
1.0
176
     1
 90
        8
176
     1
 62
   257
176
     1
 40
1.0
176
     1
 90
        1
176
     1
 90
        6
176
     1
 90
        2
176
     1
 62
     7
176
     1
 90
        3
176
     1
 90
        0
176
     1
 90
        0
176
     1
290
     0
176
     1
 90
       13
176
     1
 40
0.0
176
     1
 90
        0
176
     1
290
     0
176
     1
290
     1
176
     1
290
     1
176
     1
290
     0
176
     1
290
     0
176
     1
290
     0
176
     1
290
     0
176
     1
290
     0
176
     1
290
     0
176
     1
 90
       50
176
     1
 40
0.0
176
     1
 40
1.0
176
     1
 90
        0
176
     1
 62
    18
420
        0
176
     1
 90
       50
176
     1
 90
        3
176
     1
 62
     5
420
      255
176
     1
290
     0
176
     1
 90
       50
176
     1
 90
       50
176
     1
 90
       50
176
     1
290
     0
176
     1
 90
       50
176
     1
 62
   256
176
     0
 40
1.0
176
     0
 90
        2
176
     1
  1
strokes_ogs.tif
176
     1
290
     0
176
     1
 40
1.0
176
     1
 40
1.0
176
     1
  0
VISUALSTYLE
  5
42
102
{ACAD_REACTORS
330
2A
102
}
330
2A
100
AcDbVisualStyle
  2
Shaded
 70
    27
177
     3
291
     0
 70
    58
 90
        2
176
     1
 90
        2
176
     1
 90
        1
176
     1
 90
        2
176
     1
 40
0.6
176
     1
 40
30.0
176
     1
 62
     7
420
 16777215
176
     1
 90
        0
176
     1
 90
        4
176
     1
 62
     7
176
     1
 62
   257
176
     1
 90
        1
176
     1
 90
        1
176
     1
 40
1.0
176
     1
 90
        8
176
     1
 62
   257
176
     1
 40
1.0
176
     1
 90
        1
176
     1
 90
        6
176
     1
 90
        2
176
     1
 62
     8
420
  7895160
176
     1
 90
        3
176
     1
 90
        0
176
     1
 90
        0
176
     1
290
     0
176
     1
 90
        5
176
     1
 40
0.0
176
     1
 90
        0
176
     1
290
     0
176
     1
290
     1
176
     1
290
     1
176
     1
290
     0
176
     1
290
     0
176
     1
290
     0
176
     1
290
     0
176
     1
290
     0
176
     1
290
     0
176
     1
 90
       50
176
     1
 40
0.0
176
     1
 40
1.0
176
     1
 90
        0
176
     1
 62
    18
420
        0
176
     1
 90
       50
176
     1
 90
        3
176
     1
 62
     5
420
      255
176
     1
290
     0
176
     1
 90
       50
176
     1
 90
       50
176
     1
 90
       50
176
     1
290
     0
176
     1
 90
       50
176
     1
 62
   256
176
     0
 40
1.0
176
     0
 90
        2
176
     1
  1
strokes_ogs.tif
176
     1
290
     0
176
     1
 40
1.0
176
     1
 40
1.0
176
     1
  0
VISUALSTYLE
  5
41
102
{ACAD_REACTORS
330
2A
102
}
330
2A
100
AcDbVisualStyle
  2
Shaded with edges
 70
    26
177
     3
291
     0
 70
    58
 90
        2
176
     1
 90
        2
176
     1
 90
        1
176
     1
 90
        2
176
     1
 40
0.6
176
     1
 40
30.0
176
     1
 62
     7
420
 16777215
176
     1
 90
        1
176
     1
 90
       10
176
     1
 62
     7
176
     1
 62
   257
176
     1
 90
        2
176
     1
 90
        1
176
     1
 40
1.0
176
     1
 90
        8
176
     1
 62
   257
176
     1
 40
1.0
176
     1
 90
        1
176
     1
 90
        6
176
     1
 90
        2
176
     1
 62
     7
176
     1
 90
        3
176
     1
 90
        0
176
     1
 90
        0
176
     1
290
     0
176
     1
 90
        5
176
     1
 40
0.0
176
     1
 90
        0
176
     1
290
     0
176
     1
290
     1
176
     1
290
     1
176
     1
290
     0
176
     1
290
     0
176
     1
290
     0
176
     1
290
     0
176
     1
290
     0
176
     1
290
     0
176
     1
 90
       50
176
     1
 40
0.0
176
     1
 40
1.0
176
     1
 90
        0
176
     1
 62
    18
420
        0
176
     1
 90
       50
176
     1
 90
        3
176
     1
 62
     5
420
      255
176
     1
290
     0
176
     1
 90
       50
176
     1
 90
       50
176
     1
 90
       50
176
     1
290
     0
176
     1
 90
       50
176
     1
 62
   256
176
     0
 40
1.0
176
     0
 90
        2
176
     1
  1
strokes_ogs.tif
176
     1
290
     0
176
     1
 40
1.0
176
     1
 40
1.0
176
     1
  0
VISUALSTYLE
  5
3E
102
{ACAD_REACTORS
330
2A
102
}
330
2A
100
AcDbVisualStyle
  2
Shades of Gray
 70
    23
177
     3
291
     0
 70
    58
 90
        2
176
     1
 90
        2
176
     1
 90
        3
176
     1
 90
        0
176
     1
 40
0.6
176
     1
 40
30.0
176
     1
 62
     7
420
 16777215
176
     1
 90
        2
176
     1
 90
        2
176
     1
 62
     7
176
     1
 62
     7
176
     1
 90
        1
176
     1
 90
        1
176
     1
 40
40.0
176
     1
 90
        8
176
     1
 62
     7
176
     1
 40
1.0
176
     1
 90
        1
176
     1
 90
        6
176
     1
 90
        2
176
     1
 62
     7
176
     1
 90
        3
176
     1
 90
        0
176
     1
 90
        0
176
     1
290
     0
176
     1
 90
        1
176
     1
 40
0.0
176
     1
 90
        0
176
     1
290
     0
176
     1
290
     1
176
     1
290
     1
176
     1
290
     0
176
     1
290
     0
176
     1
290
     0
176
     1
290
     0
176
     1
290
     0
176
     1
290
     0
176
     1
 90
       50
176
     1
 40
0.0
176
     1
 40
1.0
176
     1
 90
        0
176
     1
 62
    18
420
        0
176
     1
 90
       50
176
     1
 90
        3
176
     1
 62
     5
420
      255
176
     1
290
     0
176
     1
 90
       50
176
     1
 90
       50
176
     1
 90
       50
176
     1
290
     0
176
     1
 90
       50
176
     1
 62
   256
176
     0
 40
1.0
176
     0
 90
        2
176
     1
  1
strokes_ogs.tif
176
     1
290
     0
176
     1
 40
1.0
176
     1
 40
1.0
176
     1
  0
VISUALSTYLE
  5
3F
102
{ACAD_REACTORS
330
2A
102
}
330
2A
100
AcDbVisualStyle
  2
Sketchy
 70
    24
177
     3
291
     0
 70
    58
 90
        1
176
     1
 90
        2
176
     1
 90
        2
176
     1
 90
        0
176
     1
 40
0.6
176
     1
 40
30.0
176
     1
 62
     7
420
 16777215
176
     1
 90
        2
176
     1
 90
        2
176
     1
 62
     7
176
     1
 62
     7
176
     1
 90
        1
176
     1
 90
        1
176
     1
 40
40.0
176
     1
 90
       11
176
     1
 62
     7
176
     1
 40
1.0
176
     1
 90
        1
176
     1
 90
        6
176
     1
 90
        2
176
     1
 62
     7
176
     1
 90
        6
176
     1
 90
        0
176
     1
 90
        0
176
     1
290
     0
176
     1
 90
        1
176
     1
 40
0.0
176
     1
 90
        0
176
     1
290
     0
176
     1
290
     1
176
     1
290
     1
176
     1
290
     0
176
     1
290
     0
176
     1
290
     0
176
     1
290
     0
176
     1
290
     0
176
     1
290
     0
176
     1
 90
       50
176
     1
 40
0.0
176
     1
 40
1.0
176
     1
 90
        0
176
     1
 62
    18
420
        0
176
     1
 90
       50
176
     1
 90
        3
176
     1
 62
     5
420
      255
176
     1
290
     0
176
     1
 90
       50
176
     1
 90
       50
176
     1
 90
       50
176
     1
290
     0
176
     1
 90
       50
176
     1
 62
   256
176
     0
 40
1.0
176
     0
 90
        2
176
     1
  1
strokes_ogs.tif
176
     1
290
     0
176
     1
 40
1.0
176
     1
 40
1.0
176
     1
  0
VISUALSTYLE
  5
37
102
{ACAD_REACTORS
330
2A
102
}
330
2A
100
AcDbVisualStyle
  2
Thicken
 70
    13
177
     3
291
     1
 70
    58
 90
        2
176
     1
 90
        2
176
     1
 90
        0
176
     1
 90
        0
176
     1
 40
0.6
176
     1
 40
30.0
176
     1
 62
     7
420
 16777215
176
     1
 90
        1
176
     1
 90
        4
176
     1
 62
     7
176
     1
 62
   257
176
     1
 90
        1
176
     1
 90
        1
176
     1
 40
1.0
176
     1
 90
       12
176
     1
 62
     7
176
     1
 40
1.0
176
     1
 90
        1
176
     1
 90
        6
176
     1
 90
        2
176
     1
 62
     7
176
     1
 90
        5
176
     1
 90
        0
176
     1
 90
        0
176
     1
290
     0
176
     1
 90
        1
176
     1
 40
0.0
176
     1
 90
        0
176
     1
290
     0
176
     1
290
     1
176
     1
290
     1
176
     1
290
     0
176
     1
290
     0
176
     1
290
     0
176
     1
290
     0
176
     1
290
     0
176
     1
290
     0
176
     1
 90
       50
176
     1
 40
0.0
176
     1
 40
1.0
176
     1
 90
        0
176
     1
 62
    18
420
        0
176
     1
 90
       50
176
     1
 90
        3
176
     1
 62
     5
420
      255
176
     1
290
     0
176
     1
 90
       50
176
     1
 90
       50
176
     1
 90
       50
176
     1
290
     0
176
     1
 90
       50
176
     1
 62
   256
176
     0
 40
1.0
176
     0
 90
        2
176
     1
  1
strokes_ogs.tif
176
     1
290
     0
176
     1
 40
1.0
176
     1
 40
1.0
176
     1
  0
VISUALSTYLE
  5
30
102
{ACAD_REACTORS
330
2A
102
}
330
2A
100
AcDbVisualStyle
  2
Wireframe
 70
     5
177
     3
291
     0
 70
    58
 90
        0
176
     1
 90
        2
176
     1
 90
        0
176
     1
 90
        0
176
     1
 40
0.6
176
     1
 40
30.0
176
     1
 62
     7
420
 16777215
176
     1
 90
        1
176
     1
 90
        4
176
     1
 62
     7
176
     1
 62
   257
176
     1
 90
        1
176
     1
 90
        1
176
     1
 40
1.0
176
     1
 90
        0
176
     1
 62
   257
176
     1
 40
1.0
176
     1
 90
        1
176
     1
 90
        6
176
     1
 90
        2
176
     1
 62
     7
176
     1
 90
        3
176
     1
 90
        0
176
     1
 90
        0
176
     1
290
     0
176
     1
 90
        1
176
     1
 40
0.0
176
     1
 90
        0
176
     1
290
     0
176
     1
290
     1
176
     1
290
     1
176
     1
290
     0
176
     1
290
     0
176
     1
290
     0
176
     1
290
     0
176
     1
290
     0
176
     1
290
     0
176
     1
 90
       50
176
     1
 40
0.0
176
     1
 40
1.0
176
     1
 90
        0
176
     1
 62
    18
420
        0
176
     1
 90
       50
176
     1
 90
        3
176
     1
 62
     5
420
      255
176
     1
290
     0
176
     1
 90
       50
176
     1
 90
       50
176
     1
 90
       50
176
     1
290
     0
176
     1
 90
       50
176
     1
 62
   256
176
     0
 40
1.0
176
     0
 90
        2
176
     1
  1
strokes_ogs.tif
176
     1
290
     0
176
     1
 40
1.0
176
     1
 40
1.0
176
     1
  0
VISUALSTYLE
  5
40
102
{ACAD_REACTORS
330
2A
102
}
330
2A
100
AcDbVisualStyle
  2
X-Ray
 70
    25
177
     3
291
     0
 70
    58
 90
        2
176
     1
 90
        2
176
     1
 90
        1
176
     1
 90
        1
176
     1
 40
0.5
176
     1
 40
30.0
176
     1
 62
     7
420
 16777215
176
     1
 90
        1
176
     1
 90
        0
176
     1
 62
     7
176
     1
 62
   257
176
     1
 90
        1
176
     1
 90
        1
176
     1
 40
1.0
176
     1
 90
        8
176
     1
 62
     7
176
     1
 40
1.0
176
     1
 90
        1
176
     1
 90
        6
176
     1
 90
        2
176
     1
 62
     7
176
     1
 90
        3
176
     1
 90
        0
176
     1
 90
        0
176
     1
290
     0
176
     1
 90
       13
176
     1
 40
0.0
176
     1
 90
        0
176
     1
290
     0
176
     1
290
     1
176
     1
290
     1
176
     1
290
     0
176
     1
290
     0
176
     1
290
     0
176
     1
290
     0
176
     1
290
     0
176
     1
290
     0
176
     1
 90
       50
176
     1
 40
0.0
176
     1
 40
1.0
176
     1
 90
        0
176
     1
 62
    18
420
        0
176
     1
 90
       50
176
     1
 90
        3
176
     1
 62
     5
420
      255
176
     1
290
     0
176
     1
 90
       50
176
     1
 90
       50
176
     1
 90
       50
176
     1
290
     0
176
     1
 90
       50
176
     1
 62
   256
176
     0
 40
1.0
176
     0
 90
        2
176
     1
  1
strokes_ogs.tif
176
     1
290
     0
176
     1
 40
1.0
176
     1
 40
1.0
176
     1
  0
DICTIONARYVAR
  5
24E
102
{ACAD_REACTORS
330
24D
102
}
330
24D
100
DictionaryVariables
280
     0
  1
1:1
  0
ENDSEC
  0
EOF
