G04 Layer_Physical_Order=2*
G04 Layer_Color=16711680*
%FSLAX43Y43*%
%MOMM*%
G71*
G01*
G75*
%ADD12R,0.450X0.500*%
%ADD13R,0.500X0.450*%
%ADD16R,0.540X0.520*%
%ADD17R,0.850X0.750*%
%ADD18R,0.900X1.350*%
%ADD21R,0.750X0.850*%
%ADD22R,3.200X1.050*%
%ADD23R,1.050X3.200*%
%ADD27C,0.254*%
%ADD28C,0.100*%
%ADD29C,0.050*%
%ADD30C,1.524*%
%ADD31R,1.524X1.524*%
%ADD32R,1.524X1.524*%
%ADD33C,2.000*%
%ADD34R,2.000X2.000*%
%ADD35R,2.000X2.000*%
%ADD36C,1.270*%
%ADD37R,0.520X0.540*%
%ADD38R,1.050X1.650*%
%ADD39R,0.750X0.350*%
%ADD40O,1.250X0.550*%
%ADD41O,0.550X1.250*%
%ADD42O,1.150X0.450*%
G36*
X89025Y112899D02*
X89108Y112843D01*
X89206Y112824D01*
X90584D01*
Y112077D01*
X86846D01*
X86288Y112636D01*
X86204Y112691D01*
X86106Y112711D01*
X81917D01*
Y113133D01*
X81545D01*
Y113724D01*
X81575Y113769D01*
X81595Y113867D01*
Y114715D01*
X81688D01*
X81894Y114756D01*
X82069Y114873D01*
X82186Y115048D01*
X82202Y115127D01*
X81338D01*
Y115381D01*
X82202D01*
X82186Y115460D01*
X82069Y115635D01*
X82018Y115670D01*
X82056Y115797D01*
X82338D01*
Y115679D01*
X83038D01*
Y115797D01*
X86127D01*
X89025Y112899D01*
D02*
G37*
G36*
X72686Y121997D02*
X72770Y121942D01*
X72868Y121922D01*
X74005D01*
Y121829D01*
X74036Y121673D01*
X74125Y121541D01*
X74257Y121452D01*
X74413Y121421D01*
X74569Y121452D01*
X74701Y121541D01*
X74737Y121593D01*
X74889D01*
X74925Y121541D01*
X75057Y121452D01*
X75213Y121421D01*
X75369Y121452D01*
X75501Y121541D01*
X75537Y121593D01*
X75689D01*
X75725Y121541D01*
X75857Y121452D01*
X76013Y121421D01*
X76169Y121452D01*
X76301Y121541D01*
X76337Y121593D01*
X76489D01*
X76525Y121541D01*
X76657Y121452D01*
X76813Y121421D01*
X76969Y121452D01*
X77101Y121541D01*
X77137Y121593D01*
X77289D01*
X77325Y121541D01*
X77457Y121452D01*
X77613Y121421D01*
X77769Y121452D01*
X77901Y121541D01*
X77969D01*
X78032Y121448D01*
X78156Y121364D01*
Y121111D01*
X73903D01*
X73819Y121235D01*
X73644Y121352D01*
X73438Y121393D01*
X73215D01*
Y120854D01*
X72961D01*
Y121393D01*
X72738D01*
X72532Y121352D01*
X72357Y121235D01*
X72275Y121114D01*
X71879Y121207D01*
Y121731D01*
X71765D01*
X71750Y121852D01*
X71750D01*
Y122095D01*
X72588D01*
X72686Y121997D01*
D02*
G37*
G36*
X75756Y116248D02*
Y114744D01*
X75632Y114660D01*
X75594D01*
X75419Y114777D01*
X75340Y114793D01*
Y113929D01*
X75086D01*
Y114793D01*
X75007Y114777D01*
X74832Y114660D01*
X74769Y114567D01*
X74701D01*
X74569Y114656D01*
X74413Y114687D01*
X74374Y114679D01*
X74247Y114783D01*
Y115762D01*
X74374Y115812D01*
X74496Y115719D01*
X74681Y115642D01*
X74879Y115616D01*
X75078Y115642D01*
X75262Y115719D01*
X75421Y115841D01*
X75543Y116000D01*
X75620Y116184D01*
X75629Y116256D01*
X75756Y116248D01*
D02*
G37*
G36*
X74753Y113177D02*
X74809Y113133D01*
X74809Y113133D01*
X74809Y113133D01*
Y112581D01*
X75438D01*
Y112454D01*
X75565D01*
Y111775D01*
X76067D01*
Y111890D01*
X76188Y111904D01*
Y111904D01*
X76431D01*
Y105911D01*
X76451Y105813D01*
X76506Y105729D01*
X76654Y105581D01*
X76606Y105464D01*
X67061D01*
X66246Y106278D01*
Y112873D01*
X66399Y113026D01*
X66519Y112966D01*
X66505Y112860D01*
X66536Y112628D01*
X66625Y112413D01*
X66767Y112227D01*
X66953Y112085D01*
X67168Y111996D01*
X67400Y111965D01*
X67632Y111996D01*
X67847Y112085D01*
X68033Y112227D01*
X68175Y112413D01*
X68254Y112603D01*
X73971D01*
X74070Y112623D01*
X74153Y112678D01*
X74595Y113120D01*
X74650Y113203D01*
X74753Y113177D01*
D02*
G37*
G36*
X79713Y114767D02*
X79705Y114724D01*
X79667Y114702D01*
X79567Y114679D01*
X79419Y114777D01*
X79340Y114793D01*
Y113929D01*
X79086D01*
Y114793D01*
X79007Y114777D01*
X78911Y114714D01*
X78813Y114669D01*
X78715Y114714D01*
X78619Y114777D01*
X78540Y114793D01*
Y113929D01*
X78286D01*
Y114793D01*
X78207Y114777D01*
X78032Y114660D01*
X77969Y114567D01*
X77901D01*
X77769Y114656D01*
X77613Y114687D01*
X77457Y114656D01*
X77325Y114567D01*
X77289Y114515D01*
X77137D01*
X77101Y114567D01*
X77094Y114703D01*
X78135Y115745D01*
X78735D01*
X79713Y114767D01*
D02*
G37*
G36*
X110483Y164028D02*
X112561Y163892D01*
X114632Y163665D01*
X116691Y163348D01*
X118734Y162942D01*
X120758Y162447D01*
X122758Y161864D01*
X124730Y161194D01*
X126672Y160439D01*
X128579Y159600D01*
X130447Y158679D01*
X132273Y157677D01*
X134054Y156596D01*
X135786Y155439D01*
X137466Y154207D01*
X139091Y152903D01*
X140657Y151530D01*
X142162Y150089D01*
X143603Y148584D01*
X144976Y147018D01*
X146102Y145615D01*
X146048Y145500D01*
X137413D01*
X132744Y150169D01*
X132661Y150224D01*
X132563Y150244D01*
X127160D01*
X127160Y150244D01*
X127062Y150224D01*
X126978Y150169D01*
X125997Y149187D01*
X125967Y149210D01*
X125694Y149323D01*
X125657Y149328D01*
Y151994D01*
X125637Y152092D01*
X125582Y152175D01*
X124667Y153090D01*
X124584Y153145D01*
X124486Y153165D01*
X121514D01*
X121415Y153145D01*
X121332Y153090D01*
X121332Y153090D01*
X120875Y152632D01*
X120819Y152549D01*
X120799Y152451D01*
Y150855D01*
X120594Y150650D01*
X119182D01*
X118773Y151059D01*
Y152908D01*
X118754Y153006D01*
X118698Y153090D01*
X118615Y153145D01*
X118516Y153165D01*
X115342D01*
X115342Y153165D01*
X115244Y153145D01*
X115160Y153090D01*
X115160Y153090D01*
X114785Y152714D01*
X114755Y152737D01*
X114482Y152850D01*
X114188Y152889D01*
X113894Y152850D01*
X113621Y152737D01*
X113386Y152556D01*
X113205Y152321D01*
X113092Y152048D01*
X113053Y151754D01*
X113092Y151460D01*
X113205Y151187D01*
X113228Y151157D01*
X112175Y150104D01*
X111213D01*
Y149004D01*
X112213D01*
Y149416D01*
X113591Y150794D01*
X113621Y150771D01*
X113894Y150658D01*
X114188Y150619D01*
X114482Y150658D01*
X114755Y150771D01*
X114990Y150952D01*
X115171Y151187D01*
X115284Y151460D01*
X115323Y151754D01*
X115284Y152048D01*
X115171Y152321D01*
X115148Y152351D01*
X115448Y152651D01*
X116123D01*
Y150529D01*
X116558D01*
Y150304D01*
X113563D01*
Y149004D01*
X117013D01*
Y149497D01*
X117052Y149556D01*
X117072Y149654D01*
Y150529D01*
X118373D01*
Y150566D01*
X118490Y150615D01*
X118894Y150212D01*
X118977Y150156D01*
X119075Y150136D01*
X120701D01*
X120799Y150156D01*
X120882Y150212D01*
X121238Y150567D01*
X121294Y150651D01*
X121313Y150749D01*
Y150920D01*
X121440Y150963D01*
X121526Y150852D01*
X121761Y150671D01*
X122034Y150558D01*
X122071Y150553D01*
Y150173D01*
X121509Y149611D01*
X119488D01*
Y149904D01*
X118488D01*
Y148804D01*
X119488D01*
Y149097D01*
X121615D01*
X121735Y148991D01*
Y147102D01*
X123622D01*
X125106Y145617D01*
X125058Y145500D01*
X123056D01*
X123041Y145613D01*
X122965Y145798D01*
X122843Y145957D01*
X122684Y146079D01*
X122499Y146155D01*
X122301Y146182D01*
X122103Y146155D01*
X121918Y146079D01*
X121759Y145957D01*
X121637Y145798D01*
X121561Y145613D01*
X121546Y145500D01*
X114748D01*
X114690Y145609D01*
X114748Y145717D01*
X116595D01*
X116615Y145721D01*
X116636Y145720D01*
X116664Y145731D01*
X116693Y145736D01*
X116711Y145748D01*
X116730Y145755D01*
X116752Y145776D01*
X116777Y145792D01*
X117920Y146935D01*
X117975Y147018D01*
X117995Y147117D01*
Y148804D01*
X118238D01*
Y149904D01*
X117238D01*
Y148804D01*
X117481D01*
Y147223D01*
X116568Y146310D01*
X115162Y147325D01*
X115134Y147338D01*
X115110Y147354D01*
X115089Y147358D01*
X115070Y147367D01*
X115041Y147368D01*
X115011Y147374D01*
X114991Y147370D01*
X114970Y147370D01*
X114942Y147360D01*
X114913Y147354D01*
X114896Y147343D01*
X114876Y147335D01*
X114854Y147315D01*
X114830Y147298D01*
X114229Y146698D01*
X114191Y146714D01*
X113993Y146740D01*
X113795Y146714D01*
X113610Y146638D01*
X113451Y146516D01*
X113329Y146357D01*
X113253Y146172D01*
X113226Y145974D01*
X113253Y145775D01*
X113268Y145737D01*
X113031Y145500D01*
X107674D01*
Y147414D01*
X107763Y147504D01*
X111213D01*
Y148804D01*
X109745D01*
Y149758D01*
X109725Y149857D01*
X109670Y149940D01*
X109365Y150245D01*
Y150629D01*
X110106D01*
Y150190D01*
X110035Y150104D01*
X109963D01*
Y149004D01*
X110963D01*
Y150104D01*
X110717D01*
X110700Y150189D01*
X110645Y150272D01*
X110620Y150297D01*
Y153010D01*
X110600Y153108D01*
X110545Y153191D01*
X110461Y153247D01*
X110363Y153267D01*
X107848D01*
X107750Y153247D01*
X107667Y153191D01*
X107611Y153108D01*
X107591Y153010D01*
Y152354D01*
X107235Y151997D01*
X107179Y151914D01*
X107160Y151816D01*
Y148742D01*
Y145500D01*
X106912D01*
Y148970D01*
X106892Y149068D01*
X106836Y149151D01*
X106252Y149736D01*
X106169Y149791D01*
X106070Y149811D01*
X105913D01*
Y150104D01*
X105670D01*
Y150439D01*
X105910Y150679D01*
X105957Y150749D01*
X106022Y150758D01*
X106295Y150871D01*
X106530Y151052D01*
X106711Y151287D01*
X106824Y151560D01*
X106863Y151854D01*
X106824Y152148D01*
X106711Y152421D01*
X106530Y152656D01*
X106295Y152837D01*
X106022Y152950D01*
X105728Y152989D01*
X105434Y152950D01*
X105161Y152837D01*
X104926Y152656D01*
X104745Y152421D01*
X104632Y152148D01*
X104593Y151854D01*
X104632Y151560D01*
X104745Y151287D01*
X104926Y151052D01*
X105161Y150871D01*
X105207Y150852D01*
X105209Y150842D01*
X105219Y150710D01*
X105176Y150644D01*
X105156Y150546D01*
Y150104D01*
X104913D01*
Y149004D01*
X105913D01*
Y149168D01*
X106040Y149221D01*
X106398Y148863D01*
Y148054D01*
X105463D01*
Y147454D01*
X105706D01*
Y145500D01*
X70752D01*
X70698Y145615D01*
X71824Y147018D01*
X73197Y148584D01*
X74638Y150089D01*
X76143Y151530D01*
X77709Y152903D01*
X79334Y154207D01*
X81014Y155439D01*
X82746Y156596D01*
X84527Y157677D01*
X86353Y158679D01*
X88221Y159600D01*
X90128Y160439D01*
X92070Y161194D01*
X94042Y161864D01*
X96042Y162447D01*
X98066Y162942D01*
X100109Y163348D01*
X102168Y163665D01*
X104239Y163892D01*
X106317Y164028D01*
X108400Y164074D01*
X110483Y164028D01*
D02*
G37*
G36*
X146278Y145396D02*
X146280Y145393D01*
X147512Y143713D01*
X148669Y141981D01*
X149750Y140200D01*
X150752Y138374D01*
X151673Y136506D01*
X152512Y134599D01*
X153267Y132657D01*
X153937Y130685D01*
X154520Y128685D01*
X155015Y126661D01*
X155421Y124618D01*
X155738Y122559D01*
X155965Y120488D01*
X156101Y118410D01*
X156147Y116327D01*
X156101Y114244D01*
X155965Y112166D01*
X155738Y110095D01*
X155421Y108036D01*
X155015Y105993D01*
X154520Y103969D01*
X153937Y101969D01*
X153267Y99997D01*
X152512Y98055D01*
X151673Y96148D01*
X150752Y94280D01*
X149750Y92454D01*
X148669Y90673D01*
X147512Y88941D01*
X146280Y87261D01*
X144976Y85636D01*
X143603Y84070D01*
X142162Y82565D01*
X140657Y81124D01*
X139091Y79751D01*
X137466Y78447D01*
X135786Y77215D01*
X134054Y76058D01*
X132273Y74977D01*
X130447Y73975D01*
X128579Y73054D01*
X126672Y72215D01*
X124730Y71460D01*
X122758Y70790D01*
X120758Y70207D01*
X118734Y69712D01*
X116691Y69306D01*
X114632Y68989D01*
X112561Y68762D01*
X110483Y68626D01*
X108400Y68580D01*
X106317Y68626D01*
X104239Y68762D01*
X102168Y68989D01*
X100109Y69306D01*
X98066Y69712D01*
X96042Y70207D01*
X94042Y70790D01*
X92070Y71460D01*
X90128Y72215D01*
X88221Y73054D01*
X86353Y73975D01*
X84527Y74977D01*
X82746Y76058D01*
X81014Y77215D01*
X79334Y78447D01*
X77709Y79751D01*
X76143Y81124D01*
X74638Y82565D01*
X73197Y84070D01*
X71824Y85636D01*
X70520Y87261D01*
X69288Y88941D01*
X68131Y90673D01*
X67050Y92454D01*
X66048Y94280D01*
X65127Y96148D01*
X64288Y98055D01*
X63533Y99997D01*
X62863Y101969D01*
X62280Y103969D01*
X61785Y105993D01*
X61379Y108036D01*
X61062Y110095D01*
X60835Y112166D01*
X60699Y114244D01*
X60653Y116327D01*
X60699Y118410D01*
X60835Y120488D01*
X61062Y122559D01*
X61379Y124618D01*
X61785Y126661D01*
X62280Y128685D01*
X62863Y130685D01*
X63533Y132657D01*
X64288Y134599D01*
X65127Y136506D01*
X66048Y138374D01*
X67050Y140200D01*
X68131Y141981D01*
X69288Y143713D01*
X70520Y145393D01*
X70522Y145396D01*
X70564Y145406D01*
X70657Y145404D01*
X70685Y145393D01*
X70708Y145372D01*
X70731Y145374D01*
X70752Y145365D01*
X105519D01*
X105568Y145247D01*
X104975Y144654D01*
X104538D01*
Y144054D01*
X105233D01*
Y141287D01*
X105253Y141189D01*
X105286Y141138D01*
X105238Y141011D01*
X104851D01*
X104807Y141002D01*
X104762Y140995D01*
X104758Y140992D01*
X104753Y140991D01*
X104715Y140966D01*
X104676Y140942D01*
X104674Y140938D01*
X104670Y140936D01*
X104644Y140898D01*
X104618Y140861D01*
X104617Y140856D01*
X104614Y140852D01*
X104605Y140808D01*
X104594Y140764D01*
X104595Y140759D01*
X104594Y140754D01*
X104603Y140710D01*
X104610Y140665D01*
X105509Y138243D01*
X104443Y137268D01*
X104389Y137291D01*
X104191Y137317D01*
X103992Y137291D01*
X103808Y137214D01*
X103724Y137150D01*
X103588Y137206D01*
X103585Y137229D01*
X103508Y137414D01*
X103387Y137573D01*
X103228Y137695D01*
X103102Y137747D01*
Y138527D01*
X103204Y138629D01*
X103260Y138713D01*
X103279Y138811D01*
X103260Y138909D01*
X103204Y138993D01*
X103026Y139170D01*
X102943Y139226D01*
X102845Y139246D01*
X77800D01*
X77800Y139246D01*
X77702Y139226D01*
X77619Y139170D01*
X77619Y139170D01*
X71523Y133074D01*
X71467Y132991D01*
X71447Y132893D01*
Y129816D01*
X70817D01*
Y134335D01*
X80175Y143693D01*
X84409D01*
X84410Y143685D01*
X84513Y143438D01*
X84675Y143225D01*
X84888Y143063D01*
X85135Y142960D01*
X85273Y142942D01*
Y143950D01*
Y144958D01*
X85135Y144940D01*
X84888Y144838D01*
X84675Y144675D01*
X84513Y144462D01*
X84410Y144215D01*
X84409Y144207D01*
X80069D01*
X80069Y144207D01*
X79971Y144187D01*
X79887Y144132D01*
X70378Y134623D01*
X70323Y134539D01*
X70303Y134441D01*
Y129816D01*
X69544D01*
Y128927D01*
X70560D01*
Y128800D01*
X70687D01*
Y127784D01*
X71447D01*
Y126289D01*
X71467Y126190D01*
X71523Y126107D01*
X74610Y123020D01*
X74538Y122912D01*
X74413Y122937D01*
X74257Y122906D01*
X74125Y122817D01*
X74036Y122685D01*
X74005Y122529D01*
Y122436D01*
X72974D01*
X72876Y122534D01*
X72793Y122589D01*
X72695Y122609D01*
X71750D01*
Y122852D01*
X70650D01*
Y122609D01*
X67462D01*
X67364Y122589D01*
X67281Y122534D01*
X66189Y121442D01*
X66133Y121358D01*
X66113Y121260D01*
Y117043D01*
X66133Y116945D01*
X66189Y116862D01*
X66392Y116658D01*
X66475Y116603D01*
X66573Y116583D01*
X67940D01*
X68502Y116021D01*
X68450Y115895D01*
X68424Y115696D01*
X68450Y115498D01*
X68526Y115313D01*
X68648Y115154D01*
X68807Y115032D01*
X68992Y114956D01*
X69135Y114937D01*
X69127Y114810D01*
X68353D01*
X68185Y114978D01*
X68264Y115168D01*
X68295Y115400D01*
X68264Y115632D01*
X68175Y115847D01*
X68033Y116033D01*
X67847Y116175D01*
X67632Y116264D01*
X67400Y116295D01*
X67168Y116264D01*
X66953Y116175D01*
X66767Y116033D01*
X66625Y115847D01*
X66536Y115632D01*
X66505Y115400D01*
X66536Y115168D01*
X66625Y114953D01*
X66767Y114767D01*
X66953Y114625D01*
X67133Y114550D01*
X67122Y114419D01*
X67086Y114411D01*
X67002Y114356D01*
X65808Y113161D01*
X65752Y113078D01*
X65732Y112979D01*
Y106172D01*
X65752Y106074D01*
X65808Y105990D01*
X66773Y105025D01*
X66856Y104969D01*
X66954Y104950D01*
X82118D01*
X82217Y104969D01*
X82300Y105025D01*
X82402Y105128D01*
X133471D01*
X133523Y105001D01*
X133645Y104843D01*
X133804Y104721D01*
X133989Y104644D01*
X134187Y104618D01*
X134386Y104644D01*
X134571Y104721D01*
X134729Y104843D01*
X134851Y105001D01*
X134928Y105186D01*
X134954Y105385D01*
X134928Y105583D01*
X134851Y105768D01*
X134729Y105927D01*
X134571Y106048D01*
X134386Y106125D01*
X134187Y106151D01*
X133989Y106125D01*
X133804Y106048D01*
X133645Y105927D01*
X133523Y105768D01*
X133471Y105642D01*
X82296D01*
X82198Y105622D01*
X82114Y105566D01*
X82095Y105547D01*
X82090Y105548D01*
X82048Y105686D01*
X84096Y107733D01*
X84213Y107685D01*
Y107343D01*
X85987D01*
Y109117D01*
X84213D01*
Y108484D01*
X84131Y108467D01*
X84047Y108412D01*
X81703Y106068D01*
X81586Y106117D01*
Y106473D01*
X79554D01*
Y105843D01*
X78698D01*
X78671Y105922D01*
X78665Y105970D01*
X78805Y106153D01*
X78894Y106368D01*
X78925Y106600D01*
X78894Y106832D01*
X78805Y107047D01*
X78663Y107233D01*
X78477Y107375D01*
X78287Y107454D01*
Y109372D01*
X78267Y109471D01*
X78212Y109554D01*
X78020Y109746D01*
Y111904D01*
X78263D01*
Y111904D01*
X78384Y111890D01*
Y111775D01*
X78766D01*
X78776Y111727D01*
X78831Y111644D01*
X79066Y111409D01*
X79150Y111353D01*
X79248Y111333D01*
X80874D01*
X80904Y111339D01*
X81031Y111251D01*
Y109968D01*
X80388Y109325D01*
X80333Y109242D01*
X80313Y109144D01*
Y107616D01*
X79554D01*
Y106727D01*
X81586D01*
Y107616D01*
X80827D01*
Y109037D01*
X81470Y109680D01*
X81525Y109763D01*
X81545Y109862D01*
Y111775D01*
X81917D01*
Y112197D01*
X86000D01*
X86558Y111638D01*
X86642Y111583D01*
X86740Y111563D01*
X90584D01*
Y111027D01*
X85954D01*
X85875Y111217D01*
X85733Y111403D01*
X85547Y111545D01*
X85332Y111634D01*
X85100Y111665D01*
X84868Y111634D01*
X84653Y111545D01*
X84467Y111403D01*
X84325Y111217D01*
X84236Y111002D01*
X84205Y110770D01*
X84236Y110539D01*
X84325Y110323D01*
X84467Y110137D01*
X84653Y109995D01*
X84868Y109906D01*
X85100Y109875D01*
X85332Y109906D01*
X85547Y109995D01*
X85733Y110137D01*
X85875Y110323D01*
X85954Y110513D01*
X92634D01*
X92732Y110533D01*
X92815Y110588D01*
X92871Y110672D01*
X92891Y110770D01*
Y112776D01*
X92891Y112776D01*
X92871Y112874D01*
X92815Y112958D01*
X92511Y113262D01*
X92427Y113318D01*
X92329Y113338D01*
X89313D01*
X86415Y116236D01*
X86331Y116291D01*
X86233Y116311D01*
X83278D01*
X83167Y116350D01*
Y116727D01*
X82688D01*
Y116981D01*
X83167D01*
Y117358D01*
X83278Y117397D01*
X88200D01*
X90815Y114782D01*
X90736Y114592D01*
X90705Y114360D01*
X90736Y114128D01*
X90825Y113913D01*
X90967Y113727D01*
X91153Y113585D01*
X91368Y113496D01*
X91600Y113465D01*
X91832Y113496D01*
X92047Y113585D01*
X92233Y113727D01*
X92375Y113913D01*
X92464Y114128D01*
X92495Y114360D01*
X92464Y114592D01*
X92375Y114807D01*
X92233Y114993D01*
X92047Y115135D01*
X91832Y115224D01*
X91600Y115255D01*
X91368Y115224D01*
X91178Y115145D01*
X88488Y117836D01*
X88404Y117891D01*
X88306Y117911D01*
X81997D01*
X81976Y117942D01*
X81924Y117978D01*
Y118101D01*
X82023Y118197D01*
X89940D01*
X90815Y117322D01*
X90736Y117132D01*
X90705Y116900D01*
X90736Y116668D01*
X90825Y116453D01*
X90967Y116267D01*
X91153Y116125D01*
X91368Y116036D01*
X91600Y116005D01*
X91832Y116036D01*
X92047Y116125D01*
X92233Y116267D01*
X92375Y116453D01*
X92464Y116668D01*
X92495Y116900D01*
X92464Y117132D01*
X92375Y117347D01*
X92233Y117533D01*
X92047Y117675D01*
X91832Y117764D01*
X91600Y117795D01*
X91368Y117764D01*
X91178Y117685D01*
X90228Y118636D01*
X90144Y118691D01*
X90046Y118711D01*
X81997D01*
X81976Y118742D01*
X81924Y118778D01*
Y118901D01*
X82023Y118997D01*
X86360D01*
X86458Y119017D01*
X86542Y119072D01*
X86652Y119183D01*
X90746D01*
X90825Y118993D01*
X90967Y118807D01*
X91153Y118665D01*
X91368Y118576D01*
X91600Y118545D01*
X91832Y118576D01*
X92047Y118665D01*
X92233Y118807D01*
X92375Y118993D01*
X92464Y119208D01*
X92495Y119440D01*
X92464Y119672D01*
X92375Y119887D01*
X92233Y120073D01*
X92047Y120215D01*
X91832Y120304D01*
X91600Y120335D01*
X91368Y120304D01*
X91153Y120215D01*
X90967Y120073D01*
X90825Y119887D01*
X90746Y119697D01*
X86546D01*
X86448Y119677D01*
X86364Y119622D01*
X86254Y119511D01*
X82056D01*
X82018Y119638D01*
X82069Y119673D01*
X82186Y119848D01*
X82202Y119927D01*
X81338D01*
Y120181D01*
X82202D01*
X82186Y120260D01*
X82069Y120435D01*
Y120473D01*
X82186Y120648D01*
X82202Y120727D01*
X81338D01*
Y120854D01*
X81211D01*
Y121393D01*
X80988D01*
X80782Y121352D01*
X80607Y121235D01*
X80523Y121111D01*
X80366D01*
X80366Y121111D01*
X80267Y121091D01*
X80184Y121036D01*
X80035Y120886D01*
X79885Y121036D01*
X79802Y121091D01*
X79703Y121111D01*
X78670D01*
Y121364D01*
X78794Y121448D01*
X78857Y121541D01*
X78925D01*
X79057Y121452D01*
X79213Y121421D01*
X79369Y121452D01*
X79501Y121541D01*
X79537Y121593D01*
X79689D01*
X79725Y121541D01*
X79857Y121452D01*
X80013Y121421D01*
X80169Y121452D01*
X80301Y121541D01*
X80390Y121673D01*
X80421Y121829D01*
Y122529D01*
X80390Y122685D01*
X80301Y122817D01*
X80270Y122838D01*
Y124427D01*
X80250Y124525D01*
X80195Y124609D01*
X76425Y128378D01*
X76504Y128568D01*
X76535Y128800D01*
X76504Y129032D01*
X76415Y129247D01*
X76273Y129433D01*
X76087Y129575D01*
X75872Y129664D01*
X75640Y129695D01*
X75408Y129664D01*
X75193Y129575D01*
X75007Y129433D01*
X74865Y129247D01*
X74776Y129032D01*
X74746Y128803D01*
X74707Y128773D01*
X74632Y128736D01*
X74387Y128982D01*
X74304Y129037D01*
X74205Y129057D01*
X73954D01*
X73875Y129247D01*
X73733Y129433D01*
X73547Y129575D01*
X73332Y129664D01*
X73100Y129695D01*
X72868Y129664D01*
X72653Y129575D01*
X72469Y129434D01*
X72421Y129440D01*
X72342Y129467D01*
Y131644D01*
X78465Y137767D01*
X101087D01*
X101139Y137640D01*
X101261Y137482D01*
X101420Y137360D01*
X101605Y137283D01*
X101803Y137257D01*
X101988Y137281D01*
X102016Y137269D01*
X102098Y137186D01*
X102078Y137031D01*
X102104Y136832D01*
X102181Y136648D01*
X102303Y136489D01*
X102461Y136367D01*
X102646Y136290D01*
X102845Y136264D01*
X103043Y136290D01*
X103228Y136367D01*
X103312Y136431D01*
X103447Y136375D01*
X103450Y136352D01*
X103525Y136172D01*
X102129Y134775D01*
X85476D01*
X85424Y134902D01*
X85302Y135060D01*
X85143Y135182D01*
X84958Y135259D01*
X84760Y135285D01*
X84561Y135259D01*
X84377Y135182D01*
X84218Y135060D01*
X84096Y134902D01*
X84019Y134717D01*
X83993Y134518D01*
X84019Y134320D01*
X84096Y134135D01*
X84218Y133976D01*
X84377Y133855D01*
X84561Y133778D01*
X84760Y133752D01*
X84958Y133778D01*
X85143Y133855D01*
X85302Y133976D01*
X85424Y134135D01*
X85476Y134261D01*
X89736D01*
X89776Y134164D01*
X89778Y134134D01*
X86482Y130838D01*
X86355Y130890D01*
X86157Y130916D01*
X85958Y130890D01*
X85774Y130813D01*
X85615Y130692D01*
X85493Y130533D01*
X85416Y130348D01*
X85390Y130150D01*
X85416Y129951D01*
X85493Y129766D01*
X85585Y129647D01*
X85533Y129520D01*
X85376D01*
X83447Y131449D01*
X83363Y131505D01*
X83265Y131524D01*
X74427D01*
X74375Y131650D01*
X74253Y131809D01*
X74094Y131931D01*
X73909Y132008D01*
X73711Y132034D01*
X73512Y132008D01*
X73328Y131931D01*
X73169Y131809D01*
X73047Y131650D01*
X72970Y131466D01*
X72944Y131267D01*
X72970Y131069D01*
X73047Y130884D01*
X73169Y130725D01*
X73328Y130603D01*
X73512Y130527D01*
X73711Y130501D01*
X73909Y130527D01*
X74094Y130603D01*
X74253Y130725D01*
X74375Y130884D01*
X74427Y131010D01*
X83159D01*
X85088Y129081D01*
X85171Y129025D01*
X85270Y129006D01*
X85270Y129006D01*
X100129D01*
X100227Y129025D01*
X100310Y129081D01*
X107320Y136091D01*
X107447Y136039D01*
X107645Y136012D01*
X107844Y136039D01*
X108028Y136115D01*
X108187Y136237D01*
X108309Y136396D01*
X108386Y136581D01*
X108412Y136779D01*
X108389Y136954D01*
X108440Y137000D01*
X108503Y137027D01*
X108532Y137004D01*
X108717Y136928D01*
X108915Y136901D01*
X109114Y136928D01*
X109298Y137004D01*
X109457Y137126D01*
X109579Y137285D01*
X109656Y137470D01*
X109682Y137668D01*
X109656Y137866D01*
X109579Y138051D01*
X109457Y138210D01*
X109298Y138332D01*
X109114Y138408D01*
X108915Y138435D01*
X108717Y138408D01*
X108532Y138332D01*
X108373Y138210D01*
X108251Y138051D01*
X108199Y137925D01*
X106705D01*
X106607Y137905D01*
X106524Y137850D01*
X105064Y136390D01*
X104944Y136450D01*
X104957Y136550D01*
X104931Y136749D01*
X104893Y136842D01*
X105995Y137992D01*
X106018Y138027D01*
X106043Y138061D01*
X106043Y138062D01*
X106044Y138062D01*
X106045Y138070D01*
X106049Y138076D01*
X106057Y138117D01*
X106067Y138158D01*
X106067Y138159D01*
X106067Y138160D01*
X106066Y138168D01*
X106067Y138175D01*
X106058Y138216D01*
X106052Y138257D01*
X106051Y138258D01*
X106051Y138259D01*
X105259Y140393D01*
X105332Y140497D01*
X108013D01*
Y140454D01*
X109013D01*
Y141054D01*
X108013D01*
Y141011D01*
X106129D01*
X105747Y141393D01*
Y144354D01*
X105727Y144452D01*
X105672Y144536D01*
X105664Y144616D01*
X106145Y145097D01*
X106169Y145134D01*
X106296Y145095D01*
Y143866D01*
X106316Y143767D01*
X106371Y143684D01*
X106644Y143411D01*
X106603Y143291D01*
X106558Y143285D01*
X106373Y143209D01*
X106214Y143087D01*
X106092Y142928D01*
X106016Y142743D01*
X105990Y142545D01*
X106016Y142346D01*
X106092Y142162D01*
X106214Y142003D01*
X106373Y141881D01*
X106558Y141804D01*
X106756Y141778D01*
X106955Y141804D01*
X107139Y141881D01*
X107298Y142003D01*
X107420Y142162D01*
X107435Y142197D01*
X107763D01*
Y141804D01*
X110058D01*
X110107Y141687D01*
X109623Y141202D01*
X109567Y141119D01*
X109547Y141021D01*
Y139395D01*
X109567Y139297D01*
X109623Y139214D01*
X113306Y135531D01*
X113389Y135475D01*
X113487Y135455D01*
X113487Y135455D01*
X123485D01*
X123583Y135475D01*
X123667Y135531D01*
X124403Y136267D01*
X124433Y136244D01*
X124706Y136131D01*
X125000Y136092D01*
X125294Y136131D01*
X125567Y136244D01*
X125597Y136267D01*
X127349Y134515D01*
X127433Y134459D01*
X127531Y134439D01*
X128875D01*
Y132302D01*
X131125D01*
Y134552D01*
X131125Y134552D01*
X131125D01*
X131167Y134664D01*
X131346Y134843D01*
X137846D01*
X137925Y134653D01*
X138067Y134467D01*
X138253Y134325D01*
X138468Y134236D01*
X138700Y134205D01*
X138932Y134236D01*
X139147Y134325D01*
X139333Y134467D01*
X139475Y134653D01*
X139564Y134869D01*
X139595Y135100D01*
X139564Y135332D01*
X139475Y135547D01*
X139333Y135733D01*
X139147Y135875D01*
X138932Y135964D01*
X138700Y135995D01*
X138468Y135964D01*
X138253Y135875D01*
X138067Y135733D01*
X137925Y135547D01*
X137846Y135357D01*
X131239D01*
X131141Y135337D01*
X131058Y135282D01*
X131035Y135259D01*
X130939Y135343D01*
X130983Y135400D01*
X131096Y135673D01*
X131135Y135967D01*
X131096Y136261D01*
X130983Y136534D01*
X130960Y136564D01*
X136239Y141843D01*
X137846D01*
X137925Y141653D01*
X138067Y141467D01*
X138253Y141325D01*
X138468Y141236D01*
X138700Y141205D01*
X138932Y141236D01*
X139147Y141325D01*
X139333Y141467D01*
X139348Y141488D01*
X139468Y141447D01*
Y139732D01*
X139122Y139385D01*
X138932Y139464D01*
X138700Y139495D01*
X138468Y139464D01*
X138253Y139375D01*
X138067Y139233D01*
X137925Y139047D01*
X137836Y138832D01*
X137805Y138600D01*
X137836Y138368D01*
X137925Y138153D01*
X138067Y137967D01*
X138253Y137825D01*
X138468Y137736D01*
X138700Y137705D01*
X138932Y137736D01*
X139147Y137825D01*
X139333Y137967D01*
X139475Y138153D01*
X139564Y138368D01*
X139595Y138600D01*
X139564Y138832D01*
X139485Y139022D01*
X139907Y139444D01*
X139963Y139527D01*
X139982Y139625D01*
Y142824D01*
X139963Y142923D01*
X139907Y143006D01*
X137666Y145247D01*
X137714Y145365D01*
X146048D01*
X146069Y145374D01*
X146092Y145372D01*
X146115Y145393D01*
X146143Y145404D01*
X146236Y145406D01*
X146278Y145396D01*
D02*
G37*
%LPC*%
G36*
X75311Y112327D02*
X74809D01*
Y111775D01*
X75311D01*
Y112327D01*
D02*
G37*
G36*
X104663Y150104D02*
X103663D01*
Y149004D01*
X103906D01*
Y148210D01*
X103750Y148054D01*
X103313D01*
Y148011D01*
X103304D01*
X103206Y147991D01*
X103122Y147936D01*
X102892Y147705D01*
X102836Y147622D01*
X102816Y147523D01*
Y147249D01*
X102690Y147196D01*
X102531Y147075D01*
X102409Y146916D01*
X102333Y146731D01*
X102307Y146533D01*
X102333Y146334D01*
X102409Y146149D01*
X102531Y145991D01*
X102690Y145869D01*
X102875Y145792D01*
X103073Y145766D01*
X103272Y145792D01*
X103456Y145869D01*
X103615Y145991D01*
X103737Y146149D01*
X103814Y146334D01*
X103840Y146533D01*
X103814Y146731D01*
X103737Y146916D01*
X103615Y147075D01*
X103456Y147196D01*
X103330Y147249D01*
Y147417D01*
X103367Y147454D01*
X104313D01*
Y147891D01*
X104345Y147922D01*
X104400Y148006D01*
X104420Y148104D01*
Y149004D01*
X104663D01*
Y150104D01*
D02*
G37*
G36*
X101773Y152979D02*
X99523D01*
Y150729D01*
X100055D01*
X100079Y150707D01*
X100142Y150602D01*
X100131Y150546D01*
Y150154D01*
X98663D01*
Y148854D01*
X102113D01*
Y150154D01*
X100645D01*
Y150439D01*
X100830Y150624D01*
X100885Y150707D01*
X100890Y150729D01*
X101773D01*
Y152979D01*
D02*
G37*
G36*
X98774Y112090D02*
X98447Y112047D01*
X98142Y111921D01*
X97881Y111720D01*
X97680Y111458D01*
X97554Y111154D01*
X97511Y110827D01*
X97554Y110500D01*
X97680Y110196D01*
X97881Y109934D01*
X98142Y109733D01*
X98447Y109607D01*
X98774Y109564D01*
X99101Y109607D01*
X99405Y109733D01*
X99667Y109934D01*
X99867Y110196D01*
X99993Y110500D01*
X100037Y110827D01*
X99993Y111154D01*
X99867Y111458D01*
X99667Y111720D01*
X99405Y111921D01*
X99101Y112047D01*
X98774Y112090D01*
D02*
G37*
G36*
X108400Y124589D02*
X107590Y124549D01*
X106788Y124430D01*
X106002Y124233D01*
X105238Y123960D01*
X104505Y123613D01*
X103810Y123197D01*
X103159Y122714D01*
X102558Y122169D01*
X102013Y121568D01*
X101530Y120917D01*
X101114Y120222D01*
X100767Y119489D01*
X100494Y118725D01*
X100297Y117939D01*
X100178Y117137D01*
X100138Y116327D01*
X100178Y115517D01*
X100297Y114715D01*
X100494Y113929D01*
X100767Y113165D01*
X101114Y112432D01*
X101530Y111737D01*
X102013Y111086D01*
X102558Y110485D01*
X103159Y109940D01*
X103810Y109457D01*
X104505Y109041D01*
X105238Y108694D01*
X106002Y108421D01*
X106788Y108224D01*
X107590Y108105D01*
X108400Y108065D01*
X109210Y108105D01*
X110012Y108224D01*
X110798Y108421D01*
X111562Y108694D01*
X112295Y109041D01*
X112990Y109457D01*
X113641Y109940D01*
X114242Y110485D01*
X114787Y111086D01*
X115270Y111737D01*
X115686Y112432D01*
X116033Y113165D01*
X116306Y113929D01*
X116503Y114715D01*
X116622Y115517D01*
X116662Y116327D01*
X116622Y117137D01*
X116503Y117939D01*
X116306Y118725D01*
X116033Y119489D01*
X115686Y120222D01*
X115270Y120917D01*
X114787Y121568D01*
X114242Y122169D01*
X113641Y122714D01*
X112990Y123197D01*
X112295Y123613D01*
X111562Y123960D01*
X110798Y124233D01*
X110012Y124430D01*
X109210Y124549D01*
X108400Y124589D01*
D02*
G37*
G36*
X117826Y112090D02*
X117499Y112047D01*
X117195Y111921D01*
X116933Y111720D01*
X116733Y111458D01*
X116607Y111154D01*
X116563Y110827D01*
X116607Y110500D01*
X116733Y110196D01*
X116933Y109934D01*
X117195Y109733D01*
X117499Y109607D01*
X117826Y109564D01*
X118153Y109607D01*
X118458Y109733D01*
X118719Y109934D01*
X118920Y110196D01*
X119046Y110500D01*
X119089Y110827D01*
X119046Y111154D01*
X118920Y111458D01*
X118719Y111720D01*
X118458Y111921D01*
X118153Y112047D01*
X117826Y112090D01*
D02*
G37*
G36*
X114204Y100073D02*
X113500D01*
X112796D01*
Y99271D01*
X113243D01*
Y98517D01*
X113263Y98419D01*
X113318Y98336D01*
X113818Y97836D01*
Y97379D01*
X113296D01*
Y96427D01*
X114075D01*
X114854D01*
Y97379D01*
X114332D01*
Y97942D01*
X114312Y98041D01*
X114257Y98124D01*
X113757Y98624D01*
Y99271D01*
X114204D01*
Y100073D01*
D02*
G37*
G36*
X119151Y91307D02*
Y90554D01*
X119904D01*
X119891Y90659D01*
X119801Y90875D01*
X119658Y91061D01*
X119473Y91204D01*
X119256Y91293D01*
X119151Y91307D01*
D02*
G37*
G36*
X119904Y90300D02*
X119151D01*
Y89547D01*
X119256Y89561D01*
X119473Y89650D01*
X119658Y89793D01*
X119801Y89979D01*
X119891Y90195D01*
X119904Y90300D01*
D02*
G37*
G36*
X112375Y101000D02*
X111225D01*
Y100457D01*
X78939D01*
X78896Y100561D01*
X78774Y100720D01*
X78615Y100841D01*
X78430Y100918D01*
X78232Y100944D01*
X78034Y100918D01*
X77849Y100841D01*
X77690Y100720D01*
X77568Y100561D01*
X77492Y100376D01*
X77465Y100178D01*
X77492Y99979D01*
X77568Y99794D01*
X77690Y99636D01*
X77849Y99514D01*
X78034Y99437D01*
X78232Y99411D01*
X78430Y99437D01*
X78615Y99514D01*
X78774Y99636D01*
X78896Y99794D01*
X78957Y99943D01*
X111225D01*
Y99400D01*
X111543D01*
Y98476D01*
X111343Y98276D01*
X111288Y98193D01*
X111268Y98095D01*
Y97250D01*
X110875D01*
Y95350D01*
X111268D01*
Y94828D01*
X111226Y94764D01*
X111206Y94666D01*
Y93486D01*
X111113D01*
X110976Y93459D01*
X110861Y93381D01*
X110783Y93266D01*
X110756Y93129D01*
X110783Y92992D01*
X110861Y92877D01*
X110804Y92776D01*
X110660Y92774D01*
X110007Y93427D01*
Y93677D01*
X110250D01*
Y94777D01*
X109250D01*
Y94777D01*
X109129Y94792D01*
Y94906D01*
X108627D01*
Y94227D01*
Y93548D01*
X109129D01*
Y93662D01*
X109250Y93677D01*
Y93677D01*
X109493D01*
Y93321D01*
X109513Y93222D01*
X109568Y93139D01*
X110410Y92297D01*
X110410Y92297D01*
X110493Y92242D01*
X110592Y92222D01*
X110592Y92222D01*
X110718D01*
X110761Y92153D01*
X110718Y92086D01*
X107950D01*
Y92602D01*
X107950D01*
Y92652D01*
X107950D01*
Y93402D01*
X107740D01*
X107698Y93430D01*
X107600Y93450D01*
X107371D01*
X107318Y93576D01*
X107197Y93735D01*
X107055Y93843D01*
X107061Y93908D01*
X107090Y93970D01*
X107871D01*
Y93548D01*
X108373D01*
Y94227D01*
Y94906D01*
X107871D01*
Y94484D01*
X106218D01*
X106119Y94464D01*
X106036Y94409D01*
X105586Y93958D01*
X105530Y93875D01*
X105511Y93777D01*
Y91440D01*
X105530Y91342D01*
X105586Y91258D01*
X105808Y91036D01*
X105786Y91005D01*
X105785Y91000D01*
X105782Y90996D01*
X105773Y90951D01*
X105763Y90907D01*
X105764Y90902D01*
X105763Y90898D01*
Y89408D01*
X105782Y89310D01*
X105838Y89226D01*
X107006Y88058D01*
X107090Y88002D01*
X107188Y87983D01*
X112979D01*
X113078Y88002D01*
X113161Y88058D01*
X114282Y89179D01*
X114337Y89262D01*
X114354Y89348D01*
X114604D01*
Y89700D01*
X114100D01*
Y89954D01*
X114604D01*
Y90306D01*
X114604Y90306D01*
X114604D01*
X114655Y90412D01*
X115053Y90810D01*
X115176Y90728D01*
X115363Y90691D01*
X115443D01*
X115460Y90605D01*
X115515Y90522D01*
X115599Y90466D01*
X115697Y90446D01*
X117521D01*
Y89923D01*
X117873D01*
Y90427D01*
X118127D01*
Y89923D01*
X118291D01*
X118390Y89793D01*
X118576Y89650D01*
X118792Y89561D01*
X118897Y89547D01*
Y90427D01*
Y91307D01*
X118792Y91293D01*
X118576Y91204D01*
X118477Y91128D01*
X118350Y91190D01*
Y91602D01*
X117650D01*
Y91484D01*
X117244D01*
X116717Y92011D01*
X116634Y92066D01*
X116535Y92086D01*
X116458D01*
X116415Y92155D01*
X116458Y92222D01*
X116637D01*
X116735Y92242D01*
X116818Y92297D01*
X116881Y92360D01*
X117315D01*
Y92222D01*
X118085D01*
Y93012D01*
X118085D01*
Y93042D01*
X118085D01*
Y93832D01*
X117315D01*
Y93694D01*
X116843D01*
X116843Y93694D01*
X116745Y93674D01*
X116662Y93619D01*
X116662Y93619D01*
X116429Y93386D01*
X116309D01*
X116200Y93459D01*
X116063Y93486D01*
X115970D01*
Y95039D01*
X115998Y95043D01*
X116183Y95120D01*
X116342Y95241D01*
X116464Y95400D01*
X116540Y95585D01*
X116567Y95783D01*
X116540Y95982D01*
X116464Y96167D01*
X116342Y96325D01*
X116183Y96447D01*
X115998Y96524D01*
X115800Y96550D01*
X115602Y96524D01*
X115417Y96447D01*
X115258Y96325D01*
X115136Y96167D01*
X115060Y95982D01*
X115033Y95783D01*
X115060Y95585D01*
X115136Y95400D01*
X115258Y95241D01*
X115417Y95120D01*
X115456Y95103D01*
Y93486D01*
X115363D01*
X115226Y93459D01*
X115111Y93381D01*
X115033Y93266D01*
X115006Y93129D01*
X115033Y92992D01*
X115111Y92877D01*
X115124Y92868D01*
Y92741D01*
X115111Y92731D01*
X115033Y92616D01*
X115006Y92479D01*
X115033Y92342D01*
X115111Y92227D01*
X115124Y92217D01*
Y92090D01*
X115111Y92081D01*
X115033Y91966D01*
X115006Y91829D01*
X115033Y91692D01*
X115106Y91583D01*
X115018Y91524D01*
X114934Y91399D01*
X114877Y91361D01*
X114474Y90958D01*
X114357Y91007D01*
Y93040D01*
X114337Y93139D01*
X114332Y93147D01*
Y95221D01*
X114854D01*
Y96173D01*
X114075D01*
X113296D01*
Y95594D01*
X113169Y95531D01*
X113134Y95558D01*
X112949Y95635D01*
X112751Y95661D01*
X112552Y95635D01*
X112367Y95558D01*
X112302Y95508D01*
X112175Y95571D01*
Y97250D01*
X111782D01*
Y97988D01*
X111982Y98188D01*
X111982Y98188D01*
X112037Y98271D01*
X112057Y98370D01*
Y99400D01*
X112375D01*
Y101000D01*
D02*
G37*
G36*
X114204Y101129D02*
X113627D01*
Y100327D01*
X114204D01*
Y101129D01*
D02*
G37*
G36*
X113373D02*
X112796D01*
Y100327D01*
X113373D01*
Y101129D01*
D02*
G37*
G36*
X70433Y128673D02*
X69544D01*
Y127784D01*
X70433D01*
Y128673D01*
D02*
G37*
G36*
X108300Y128590D02*
X107973Y128547D01*
X107669Y128421D01*
X107407Y128220D01*
X107206Y127958D01*
X107080Y127654D01*
X107037Y127327D01*
X107080Y127000D01*
X107206Y126696D01*
X107407Y126434D01*
X107669Y126233D01*
X107973Y126107D01*
X108300Y126064D01*
X108627Y126107D01*
X108931Y126233D01*
X109193Y126434D01*
X109394Y126696D01*
X109520Y127000D01*
X109563Y127327D01*
X109520Y127654D01*
X109394Y127958D01*
X109193Y128220D01*
X108931Y128421D01*
X108627Y128547D01*
X108300Y128590D01*
D02*
G37*
G36*
X116076Y131983D02*
X115877Y131957D01*
X115693Y131880D01*
X115534Y131758D01*
X115412Y131600D01*
X115360Y131473D01*
X105516D01*
X105464Y131600D01*
X105342Y131758D01*
X105183Y131880D01*
X104998Y131957D01*
X104800Y131983D01*
X104602Y131957D01*
X104417Y131880D01*
X104258Y131758D01*
X104136Y131600D01*
X104060Y131415D01*
X104033Y131216D01*
X104060Y131018D01*
X104136Y130833D01*
X104258Y130674D01*
X104417Y130553D01*
X104602Y130476D01*
X104800Y130450D01*
X104998Y130476D01*
X105183Y130553D01*
X105342Y130674D01*
X105464Y130833D01*
X105516Y130959D01*
X115360D01*
X115412Y130833D01*
X115534Y130674D01*
X115693Y130553D01*
X115877Y130476D01*
X116076Y130450D01*
X116274Y130476D01*
X116459Y130553D01*
X116618Y130674D01*
X116740Y130833D01*
X116816Y131018D01*
X116842Y131216D01*
X116816Y131415D01*
X116740Y131600D01*
X116618Y131758D01*
X116459Y131880D01*
X116274Y131957D01*
X116076Y131983D01*
D02*
G37*
G36*
X86408Y143823D02*
X85527D01*
Y142942D01*
X85665Y142960D01*
X85912Y143063D01*
X86125Y143225D01*
X86287Y143438D01*
X86390Y143685D01*
X86408Y143823D01*
D02*
G37*
G36*
X102113Y144454D02*
X98663D01*
Y143154D01*
X101908D01*
X101992Y143059D01*
X101991Y143053D01*
X102017Y142854D01*
X102094Y142670D01*
X102216Y142511D01*
X102374Y142389D01*
X102559Y142312D01*
X102758Y142286D01*
X102956Y142312D01*
X103141Y142389D01*
X103300Y142511D01*
X103421Y142670D01*
X103498Y142854D01*
X103524Y143053D01*
X103498Y143251D01*
X103421Y143436D01*
X103300Y143595D01*
X103141Y143717D01*
X102956Y143793D01*
X102758Y143819D01*
X102559Y143793D01*
X102433Y143741D01*
X102188Y143986D01*
X102113Y144036D01*
Y144454D01*
D02*
G37*
G36*
X81688Y121393D02*
X81465D01*
Y120981D01*
X82202D01*
X82186Y121060D01*
X82069Y121235D01*
X81894Y121352D01*
X81688Y121393D01*
D02*
G37*
G36*
X85527Y144958D02*
Y144077D01*
X86408D01*
X86390Y144215D01*
X86287Y144462D01*
X86125Y144675D01*
X85912Y144838D01*
X85665Y144940D01*
X85527Y144958D01*
D02*
G37*
G36*
X91600Y122875D02*
X91368Y122844D01*
X91153Y122755D01*
X90967Y122613D01*
X90825Y122427D01*
X90736Y122212D01*
X90705Y121980D01*
X90736Y121748D01*
X90825Y121533D01*
X90967Y121347D01*
X91153Y121205D01*
X91368Y121116D01*
X91600Y121085D01*
X91832Y121116D01*
X92047Y121205D01*
X92233Y121347D01*
X92375Y121533D01*
X92464Y121748D01*
X92495Y121980D01*
X92464Y122212D01*
X92375Y122427D01*
X92233Y122613D01*
X92047Y122755D01*
X91832Y122844D01*
X91600Y122875D01*
D02*
G37*
%LPD*%
G36*
X107506Y91591D02*
X107600Y91572D01*
X110718D01*
X110765Y91495D01*
X110727Y91428D01*
X110667Y91416D01*
X110584Y91361D01*
X110307Y91084D01*
X110115D01*
Y91212D01*
X109325D01*
Y91212D01*
X109295D01*
Y91212D01*
X108505D01*
Y90616D01*
X108467Y90581D01*
X108382Y90540D01*
X108225Y90606D01*
X108026Y90632D01*
X107828Y90606D01*
X107643Y90529D01*
X107484Y90407D01*
X107400Y90298D01*
X107271Y90324D01*
X107250Y90402D01*
X107265Y90523D01*
X107379D01*
Y91025D01*
X106700D01*
Y91279D01*
X107379D01*
Y91521D01*
X107501Y91591D01*
X107506Y91591D01*
D02*
G37*
D12*
X82688Y116854D02*
D03*
Y116054D02*
D03*
X118000Y91227D02*
D03*
Y90427D02*
D03*
X107600Y93027D02*
D03*
Y92227D02*
D03*
D13*
X114100Y89827D02*
D03*
X113300D02*
D03*
X109800Y88927D02*
D03*
X109000D02*
D03*
D16*
X109720Y90827D02*
D03*
X108900D02*
D03*
D17*
X106700Y89902D02*
D03*
Y91152D02*
D03*
X71200Y121102D02*
D03*
Y122352D02*
D03*
D18*
X113500Y100200D02*
D03*
X111800D02*
D03*
D21*
X118988Y149354D02*
D03*
X117738D02*
D03*
X111713Y149554D02*
D03*
X110463D02*
D03*
X105413Y149554D02*
D03*
X104163D02*
D03*
X81288Y112454D02*
D03*
X80038D02*
D03*
X76688D02*
D03*
X75438D02*
D03*
X79013D02*
D03*
X77763D02*
D03*
X108500Y94227D02*
D03*
X109750D02*
D03*
D22*
X100388Y143804D02*
D03*
Y149504D02*
D03*
X109488Y148154D02*
D03*
Y142454D02*
D03*
X115288Y149654D02*
D03*
Y143954D02*
D03*
X119100Y142477D02*
D03*
Y136777D02*
D03*
D23*
X127350Y141127D02*
D03*
X121650D02*
D03*
D27*
X80038Y112454D02*
Y113157D01*
X80013Y113182D02*
X80038Y113157D01*
X80013Y113182D02*
Y113929D01*
X76688Y112454D02*
Y113106D01*
X76813Y113231D01*
Y113929D01*
X71200Y122352D02*
X72695D01*
X72868Y122179D01*
X74413D01*
X111463Y94666D02*
X111525Y94728D01*
Y96300D01*
Y98095D01*
X111800Y98370D01*
Y100200D01*
X81338Y116054D02*
X82688D01*
X81338Y119254D02*
X86360D01*
X86546Y119440D01*
X91600D01*
X115713Y93129D02*
X116535D01*
X116843Y93437D01*
X117700D01*
X115713Y92479D02*
X116637D01*
X116775Y92617D01*
X117700D01*
X115713Y91829D02*
X116535D01*
X117137Y91227D01*
X118000D01*
X109800Y88927D02*
Y89814D01*
X109720Y89894D02*
X109800Y89814D01*
X109720Y89894D02*
Y90827D01*
X110414D01*
X110766Y91179D01*
X111463D01*
X105413Y149554D02*
Y150546D01*
X105728Y150861D01*
Y151854D01*
X119100Y136777D02*
X120548D01*
X120998Y137227D01*
X122460D01*
X109488Y148154D02*
Y149758D01*
X109108Y150138D02*
X109488Y149758D01*
X109108Y150138D02*
Y151754D01*
X100388Y149504D02*
Y150546D01*
X100648Y150806D01*
Y151854D01*
X77763Y112454D02*
Y113106D01*
X77613Y113256D02*
X77763Y113106D01*
X77613Y113256D02*
Y113929D01*
X78030Y106600D02*
Y109372D01*
X77763Y109639D02*
X78030Y109372D01*
X77763Y109639D02*
Y112454D01*
X81338Y120054D02*
Y120854D01*
X75213Y113929D02*
X76013D01*
X75438Y112454D02*
Y113055D01*
X75213Y113280D02*
X75438Y113055D01*
X75213Y113280D02*
Y113929D01*
X78413D02*
X79213D01*
X79013Y112454D02*
Y113081D01*
X79213Y113281D01*
Y113929D01*
X81288Y112454D02*
X86106D01*
X86740Y111820D01*
X91600D01*
X81288Y112454D02*
Y113817D01*
X81338Y113867D01*
Y115254D01*
Y116854D02*
X82688D01*
X114075Y96300D02*
Y97942D01*
X113500Y98517D02*
X114075Y97942D01*
X113500Y98517D02*
Y100200D01*
X114075Y93065D02*
X114100Y93040D01*
X114075Y93065D02*
Y96300D01*
X80442Y116637D02*
X80659Y116854D01*
X80442Y115483D02*
Y116637D01*
Y115483D02*
X80670Y115254D01*
X81338D01*
X80670Y120054D02*
X81338D01*
X80442Y119825D02*
X80670Y120054D01*
X80442Y117083D02*
Y119825D01*
Y117083D02*
X80670Y116854D01*
X81338D01*
X125000Y137227D02*
X127531Y134696D01*
X130835D01*
X131239Y135100D01*
X138700D01*
X115697Y91179D02*
X115713D01*
X118000Y90427D02*
Y90703D01*
X82688Y116054D02*
X86233D01*
X89206Y113081D01*
X92329D01*
X92634Y112776D01*
Y110770D02*
Y112776D01*
X85100Y110770D02*
X92634D01*
X122860Y148227D02*
X127350Y143737D01*
Y141127D02*
Y143737D01*
X122328Y150067D02*
Y151654D01*
X121615Y149354D02*
X122328Y150067D01*
X118988Y149354D02*
X121615D01*
X136133Y142100D02*
X138700D01*
X130000Y135967D02*
X136133Y142100D01*
X111463Y91179D02*
X112342D01*
X113300Y90221D01*
Y89827D02*
Y90221D01*
X111988Y149554D02*
X114188Y151754D01*
X111713Y149554D02*
X111988D01*
X115288Y149654D02*
X116815D01*
Y151654D02*
X117248D01*
X81288Y112005D02*
Y112454D01*
X80874Y111590D02*
X81288Y112005D01*
X79248Y111590D02*
X80874D01*
X79013Y111825D02*
X79248Y111590D01*
X79013Y111825D02*
Y112454D01*
X107417Y151816D02*
X107848Y152248D01*
Y153010D01*
X110363D01*
Y150190D02*
Y153010D01*
Y150190D02*
X110463Y150090D01*
Y149554D02*
Y150090D01*
X110756Y152646D02*
X111648Y151754D01*
X110756Y152646D02*
Y153402D01*
X108511Y155647D02*
X110756Y153402D01*
X106981Y155647D02*
X108511D01*
X103188Y151854D02*
X106981Y155647D01*
X113614Y143954D02*
X115288D01*
X84229Y108230D02*
X85100D01*
X81585Y105586D02*
X84229Y108230D01*
X77013Y105586D02*
X81585D01*
X76688Y105911D02*
X77013Y105586D01*
X76688Y105911D02*
Y112454D01*
X75640Y128800D02*
X80013Y124427D01*
Y122179D02*
Y124427D01*
Y113929D02*
Y114830D01*
X78842Y116002D02*
X80013Y114830D01*
X78029Y116002D02*
X78842D01*
X76813Y114786D02*
X78029Y116002D01*
X76813Y113929D02*
Y114786D01*
X76013Y117336D02*
X78413Y119736D01*
X67400Y117940D02*
Y119113D01*
X69389Y121102D01*
X71200D01*
X108128Y149454D02*
X108534D01*
X107417Y148742D02*
X108128Y149454D01*
X107188Y144354D02*
X107417D01*
X114188Y151754D02*
X115342Y152908D01*
X118516D01*
Y150952D02*
Y152908D01*
Y150952D02*
X119075Y150393D01*
X120701D01*
X121056Y150749D01*
Y152451D01*
X121514Y152908D01*
X124486D01*
X125400Y151994D01*
Y148227D02*
Y151994D01*
X118896Y152546D02*
X119788Y151654D01*
X118896Y152546D02*
Y153302D01*
X117741Y154457D02*
X118896Y153302D01*
X114351Y154457D02*
X117741D01*
X111648Y151754D02*
X114351Y154457D01*
X72186Y116054D02*
X73088D01*
X71956Y115824D02*
X72186Y116054D01*
X71956Y115362D02*
Y115824D01*
X71526Y114932D02*
X71956Y115362D01*
X70655Y114932D02*
X71526D01*
X70170Y115418D02*
X70655Y114932D01*
X70170Y115418D02*
Y116040D01*
X68353Y117856D02*
X70170Y116040D01*
X68353Y117856D02*
Y119075D01*
X70132Y120854D01*
X67400Y115400D02*
X68247Y114553D01*
X72323D01*
X72579Y114809D01*
Y115254D02*
X73088D01*
X67400Y112860D02*
X73971D01*
X74413Y113302D01*
Y113929D01*
X103073Y146533D02*
Y147523D01*
X103304Y147754D01*
X103813D01*
X103188Y148895D02*
Y151854D01*
X101743Y147450D02*
X103188Y148895D01*
X85400Y147450D02*
X101743D01*
X113993Y145974D02*
X116595D01*
X117738Y147117D02*
Y149354D01*
X106847Y142454D02*
X109488D01*
X106756Y142545D02*
X106847Y142454D01*
X123485Y135712D02*
X125000Y137227D01*
X113487Y135712D02*
X123485D01*
X109804Y139395D02*
X113487Y135712D01*
X109804Y139395D02*
Y141021D01*
X110460Y141677D01*
X111340D01*
Y143440D01*
X106979D02*
X111340D01*
X106553Y143866D02*
X106979Y143440D01*
X106553Y143866D02*
Y145339D01*
X106655Y145440D01*
Y148970D01*
X106070Y149554D02*
X106655Y148970D01*
X105413Y149554D02*
X106070D01*
X114100Y90221D02*
X115058Y91179D01*
X114100Y89827D02*
Y90221D01*
Y89360D02*
Y89827D01*
X112979Y88240D02*
X114100Y89360D01*
X107188Y88240D02*
X112979D01*
X106020Y89408D02*
X107188Y88240D01*
X106020Y89408D02*
Y90898D01*
X106274Y91152D02*
X106700D01*
X118000Y90427D02*
X119024D01*
X125400Y148227D02*
X127160Y149987D01*
X132563D01*
X139725Y142824D01*
Y139625D02*
Y142824D01*
X138700Y138600D02*
X139725Y139625D01*
X121650Y141127D02*
Y142808D01*
X122301Y143459D01*
Y145415D01*
X77613Y122179D02*
Y123130D01*
X78308Y123825D01*
X107600Y91829D02*
Y92227D01*
Y91829D02*
X111463D01*
X110592Y92479D02*
X111463D01*
X109750Y93321D02*
X110592Y92479D01*
X109750Y93321D02*
Y94227D01*
X115713Y95696D02*
X115800Y95783D01*
X115713Y93129D02*
Y95696D01*
X76013Y122179D02*
Y122793D01*
X72085Y126721D02*
X76013Y122793D01*
X72085Y126721D02*
Y131750D01*
X78359Y138024D01*
X101803D01*
X67462Y122352D02*
X71200D01*
X66370Y121260D02*
X67462Y122352D01*
X66370Y117043D02*
Y121260D01*
Y117043D02*
X66573Y116840D01*
X68047D01*
X69190Y115696D01*
X108044Y89883D02*
X108900Y90526D01*
Y90827D01*
X108026Y89865D02*
X108044Y89883D01*
X105038Y144354D02*
X105963Y145279D01*
Y147754D01*
X105038Y144354D02*
X105490D01*
Y141287D02*
X106023Y140754D01*
X104851D02*
X105810Y138170D01*
X102235Y134518D02*
X104038Y136322D01*
X84760Y134518D02*
X102235D01*
X104038Y136550D02*
X104191D01*
X78232Y100178D02*
X78254Y100200D01*
X111800D01*
X107600Y93027D02*
Y93193D01*
X111463Y93607D02*
X112751Y94894D01*
X111463Y93129D02*
Y93607D01*
X73088Y116854D02*
X73773D01*
X73990Y116637D01*
Y114630D02*
Y116637D01*
X73534Y114174D02*
X73990Y114630D01*
X67184Y114174D02*
X73534D01*
X65989Y112979D02*
X67184Y114174D01*
X65989Y106172D02*
Y112979D01*
Y106172D02*
X66954Y105207D01*
X82118D01*
X82296Y105385D01*
X134187D01*
X90046Y118454D02*
X91600Y116900D01*
X81338Y118454D02*
X90046D01*
X88306Y117654D02*
X91600Y114360D01*
X81338Y117654D02*
X88306D01*
X104800Y131216D02*
X116076D01*
X127540Y137227D02*
X128820Y138507D01*
X130000D01*
X119100Y142477D02*
X120727Y142774D01*
X121412Y143459D01*
Y143916D01*
X116595Y145974D02*
X117738Y147117D01*
X115011D02*
X116595Y145974D01*
X111938Y141338D02*
Y144043D01*
X111354Y140754D02*
X111938Y141338D01*
X110663Y140754D02*
X111354D01*
X102006Y143804D02*
X102758Y143053D01*
X100388Y143804D02*
X102006D01*
X103813Y147754D02*
X104163Y148104D01*
Y149554D01*
X73100Y128800D02*
X74205D01*
X78139Y124866D01*
X78689D01*
X79213Y124343D01*
Y122179D02*
Y124343D01*
X71069Y115824D02*
Y116561D01*
X72163Y117654D01*
X73088D01*
X106705Y137668D02*
X108915D01*
X102997Y133960D02*
X106705Y137668D01*
X89967Y133960D02*
X102997D01*
X86157Y130150D02*
X89967Y133960D01*
X74879Y116383D02*
Y117577D01*
X74002Y118454D02*
X74879Y117577D01*
X73088Y118454D02*
X74002D01*
X75213Y122179D02*
Y122780D01*
X71704Y126289D02*
X75213Y122780D01*
X71704Y126289D02*
Y132893D01*
X77800Y138989D01*
X102845D01*
X103022Y138811D01*
X102845Y138633D02*
X103022Y138811D01*
X102845Y137031D02*
Y138633D01*
X72112Y119254D02*
X73088D01*
X70663Y117805D02*
X72112Y119254D01*
X70600Y120054D02*
X73088D01*
X69240Y118694D02*
X70600Y120054D01*
X76813Y122179D02*
Y124101D01*
X73711Y127203D02*
X76813Y124101D01*
X73711Y131267D02*
X83265D01*
X85270Y129263D01*
X100129D01*
X107645Y136779D01*
X74041Y120854D02*
X74423Y120523D01*
X76013Y118933D01*
X80570Y106600D02*
Y109144D01*
X81288Y109862D01*
X71200Y121102D02*
X72257Y120854D01*
X73088D01*
X80069Y143950D02*
X85400D01*
X70560Y134441D02*
X80069Y143950D01*
X70560Y128800D02*
Y134441D01*
X80366Y120854D02*
X81338D01*
X80035Y120523D02*
X80366Y120854D01*
X79703D02*
X80035Y120523D01*
X106020Y90898D02*
X106700Y91152D01*
X105768Y91440D02*
X106165Y91043D01*
X105768Y91440D02*
Y93777D01*
X106218Y94227D01*
X108500D01*
X106700Y89902D02*
X108026Y89883D01*
X108044Y89883D01*
X109000Y88927D01*
X104038Y136550D02*
X104121Y136626D01*
X105810Y138170D01*
X104038Y136322D02*
X104226Y136517D01*
X105810Y138170D01*
X105490Y141287D02*
Y144354D01*
X104851Y140754D02*
X106023D01*
X108513D01*
X111463Y93607D02*
Y94666D01*
X113614Y142697D02*
Y143954D01*
X111938Y144043D02*
X115011Y147117D01*
X107417Y144354D02*
Y148742D01*
Y151816D01*
X116815Y149654D02*
Y151654D01*
X72579Y114809D02*
Y115254D01*
X76013Y113929D02*
Y117336D01*
Y118933D01*
X81288Y109862D02*
Y112005D01*
X80659Y116854D02*
X80670D01*
X78413Y119736D02*
Y120854D01*
Y122179D01*
X73088Y120854D02*
X74041D01*
X78413D01*
X79703D01*
X106020Y90898D02*
X106165Y91043D01*
X106274Y91152D01*
X115058Y91179D02*
X115697D01*
X114100Y90221D02*
Y93040D01*
X106655Y93193D02*
X107600D01*
X70132Y120854D02*
X72257D01*
X115697Y90703D02*
Y91179D01*
Y90703D02*
X118000D01*
D28*
X77562Y120250D02*
G03*
X77562Y120250I-500J0D01*
G01*
X104438Y136754D02*
G03*
X104438Y136754I-500J0D01*
G01*
X80313Y115454D02*
G03*
X80313Y115454I-500J0D01*
G01*
X114738Y92804D02*
G03*
X114738Y92804I-500J0D01*
G01*
X76162Y118250D02*
X79062D01*
X76162Y121150D02*
X79062D01*
Y118250D02*
Y121150D01*
X76162Y118250D02*
Y121150D01*
X74325Y119777D02*
X74875D01*
X74325Y120877D02*
X74875D01*
Y119777D02*
Y120877D01*
X74325Y119777D02*
Y120877D01*
X72625Y118577D02*
X73175D01*
X72625Y119677D02*
X73175D01*
Y118577D02*
Y119677D01*
X72625Y118577D02*
Y119677D01*
X74325Y118777D02*
X74875D01*
X74325Y117677D02*
X74875D01*
X74325D02*
Y118777D01*
X74875Y117677D02*
Y118777D01*
X80325Y118677D02*
X80875D01*
Y119777D01*
X80325Y118677D02*
Y119777D01*
X80875D01*
X78150Y116352D02*
Y116902D01*
X77050D02*
X78150D01*
X77050Y116352D02*
X78150D01*
X77050D02*
Y116902D01*
X84650Y116152D02*
Y117102D01*
X82950D02*
X84650D01*
X82950Y116152D02*
X84650D01*
X82950D02*
Y117102D01*
X71750Y120527D02*
X73450D01*
X71750Y123727D02*
X73450D01*
X71750Y120527D02*
Y123727D01*
X73450Y120527D02*
Y123727D01*
X78150Y121852D02*
Y122402D01*
X77050Y121852D02*
Y122402D01*
Y121852D02*
X78150D01*
X77050Y122402D02*
X78150D01*
X81495Y118977D02*
X82305D01*
X81495Y117277D02*
X82305D01*
Y118977D01*
X81495Y117277D02*
Y118977D01*
X82500Y120627D02*
Y122027D01*
X80300Y120627D02*
X82500D01*
X80300D02*
Y122027D01*
X82500D01*
X84095Y119777D02*
X84905D01*
X84095Y121477D02*
X84905D01*
X84095Y119777D02*
Y121477D01*
X84905Y119777D02*
Y121477D01*
X133050Y109727D02*
X135250D01*
X133050Y111127D02*
X135250D01*
Y109727D02*
Y111127D01*
X133050Y109727D02*
Y111127D01*
X115813Y150204D02*
X119538D01*
Y145704D02*
Y150204D01*
X115813Y145704D02*
X119538D01*
X115038Y149429D02*
X115813Y150204D01*
X115038Y146479D02*
Y149429D01*
Y146479D02*
X115813Y145704D01*
X108888Y146479D02*
Y149429D01*
Y146479D02*
X109663Y145704D01*
X113388D01*
Y150204D01*
X109663D02*
X113388D01*
X108888Y149429D02*
X109663Y150204D01*
X103513D02*
X107238D01*
Y145704D02*
Y150204D01*
X103513Y145704D02*
X107238D01*
X102738Y149429D02*
X103513Y150204D01*
X102738Y146479D02*
Y149429D01*
Y146479D02*
X103513Y145704D01*
X90625Y129350D02*
X91400Y130125D01*
Y133075D01*
X86900Y129350D02*
X90625D01*
Y133850D02*
X91400Y133075D01*
X86900Y133850D02*
X90625D01*
X86900Y129350D02*
Y133850D01*
X108950Y132522D02*
Y133332D01*
X107250Y132522D02*
Y133332D01*
Y132522D02*
X108950D01*
X107250Y133332D02*
X108950D01*
X116150Y87702D02*
X116925Y88477D01*
X116150Y84752D02*
Y87702D01*
X116925Y88477D02*
X120650D01*
Y83977D02*
Y88477D01*
X116150Y84752D02*
X116925Y83977D01*
X120650D01*
X136338Y112079D02*
Y112629D01*
X135238D02*
X136338D01*
X135238Y112079D02*
X136338D01*
X135238D02*
Y112629D01*
X133938Y117879D02*
Y118429D01*
X132838D02*
X133938D01*
X132838Y117879D02*
X133938D01*
X132838D02*
Y118429D01*
X133838Y112079D02*
Y112629D01*
X132738D02*
X133838D01*
X132738Y112079D02*
X133838D01*
X132738D02*
Y112629D01*
X127850Y111147D02*
X131150D01*
Y117507D01*
X127850Y111147D02*
Y117507D01*
X131150D01*
X121770Y132477D02*
Y135777D01*
X128130Y132477D02*
Y135777D01*
X121770D02*
X128130D01*
X121770Y132477D02*
X128130D01*
X103850Y132452D02*
Y133002D01*
X104950Y132452D02*
Y133002D01*
X103850D02*
X104950D01*
X103850Y132452D02*
X104950D01*
X133838Y113904D02*
X135588D01*
Y116904D01*
X133838D02*
X135588D01*
X133838Y113904D02*
Y116904D01*
X121138Y135854D02*
Y143454D01*
X103038D02*
X121138D01*
X103038Y135854D02*
X121138D01*
X103038D02*
Y143454D01*
X127680Y139477D02*
Y142777D01*
X121320D02*
X127680D01*
X121320Y139477D02*
Y142777D01*
Y139477D02*
X127680D01*
X119213Y148949D02*
Y149759D01*
X117513Y148949D02*
X119213D01*
X117513Y149759D02*
X119213D01*
X117513Y148949D02*
Y149759D01*
X111938Y149149D02*
Y149959D01*
X110238Y149149D02*
X111938D01*
X110238Y149959D02*
X111938D01*
X110238Y149149D02*
Y149959D01*
X105638Y149149D02*
Y149959D01*
X103938Y149149D02*
X105638D01*
X103938Y149959D02*
X105638D01*
X103938Y149149D02*
Y149959D01*
X106295Y89677D02*
Y91377D01*
Y89677D02*
X107105D01*
X106295Y91377D02*
X107105D01*
Y89677D02*
Y91377D01*
X109860Y90552D02*
Y91102D01*
X108760Y90552D02*
Y91102D01*
X109860D01*
X108760Y90552D02*
X109860D01*
X70795Y120877D02*
Y122577D01*
Y120877D02*
X71605D01*
X70795Y122577D02*
X71605D01*
Y120877D02*
Y122577D01*
X81513Y112049D02*
Y112859D01*
X79813Y112049D02*
X81513D01*
X79813Y112859D02*
X81513D01*
X79813Y112049D02*
Y112859D01*
X117975Y92477D02*
Y93577D01*
X117425D02*
X117975D01*
X117425Y92477D02*
X117975D01*
X117425D02*
Y93577D01*
X76913Y112049D02*
Y112859D01*
X75213Y112049D02*
X76913D01*
X75213Y112859D02*
X76913D01*
X75213Y112049D02*
Y112859D01*
X79238Y112049D02*
Y112859D01*
X77538Y112049D02*
X79238D01*
X77538Y112859D02*
X79238D01*
X77538Y112049D02*
Y112859D01*
X108275Y93822D02*
Y94632D01*
X109975Y93822D02*
Y94632D01*
X108275D02*
X109975D01*
X108275Y93822D02*
X109975D01*
X113750Y99500D02*
Y100900D01*
X111550D02*
X113750D01*
X111550Y99500D02*
Y100900D01*
Y99500D02*
X113750D01*
X114400Y95450D02*
Y97150D01*
X111200D02*
X114400D01*
X111200Y95450D02*
Y97150D01*
Y95450D02*
X114400D01*
X103988Y148429D02*
X105788D01*
X103988Y147079D02*
X105788D01*
Y148429D01*
X103988Y147079D02*
Y148429D01*
X105213Y145029D02*
X107013D01*
Y143679D02*
Y145029D01*
X105213Y143679D02*
Y145029D01*
Y143679D02*
X107013D01*
X108688Y141429D02*
X110488D01*
Y140079D02*
Y141429D01*
X108688Y140079D02*
Y141429D01*
Y140079D02*
X110488D01*
X98738Y143474D02*
X102038D01*
X98738Y149834D02*
X102038D01*
Y143474D02*
Y149834D01*
X98738Y143474D02*
Y149834D01*
X107838Y148484D02*
X111138D01*
Y142124D02*
Y148484D01*
X107838Y142124D02*
Y148484D01*
Y142124D02*
X111138D01*
X113638Y149984D02*
X116938D01*
Y143624D02*
Y149984D01*
X113638Y143624D02*
Y149984D01*
Y143624D02*
X116938D01*
X117450Y136447D02*
X120750D01*
Y142807D01*
X117450Y136447D02*
Y142807D01*
X120750D01*
X82413Y117004D02*
X82963D01*
X82413Y115904D02*
X82963D01*
Y117004D01*
X82413Y115904D02*
Y117004D01*
X114250Y89552D02*
Y90102D01*
X113150Y89552D02*
X114250D01*
X113150Y90102D02*
X114250D01*
X113150Y89552D02*
Y90102D01*
X109950Y88652D02*
Y89202D01*
X108850Y88652D02*
X109950D01*
X108850Y89202D02*
X109950D01*
X108850Y88652D02*
Y89202D01*
X118275Y90277D02*
Y91377D01*
X117725D02*
X118275D01*
X117725Y90277D02*
X118275D01*
X117725D02*
Y91377D01*
X107875Y92077D02*
Y93177D01*
X107325D02*
X107875D01*
X107325Y92077D02*
X107875D01*
X107325D02*
Y93177D01*
X80713Y114554D02*
Y121554D01*
X73713D02*
X80713D01*
X73713Y114554D02*
X80713D01*
X73713D02*
Y121554D01*
X115138Y90604D02*
Y93704D01*
X112038D02*
X115138D01*
X112038Y90604D02*
X115138D01*
X112038D02*
Y93704D01*
X77612Y119200D02*
Y120200D01*
X77112Y119700D02*
X78112D01*
X74325Y120327D02*
X74875D01*
X74600Y120052D02*
Y120602D01*
X72625Y119127D02*
X73175D01*
X72900Y118852D02*
Y119402D01*
X74325Y118227D02*
X74875D01*
X74600Y117952D02*
Y118502D01*
X80325Y119227D02*
X80875D01*
X80600Y118952D02*
Y119502D01*
X77600Y116352D02*
Y116902D01*
X77325Y116627D02*
X77875D01*
X83800Y116152D02*
Y117102D01*
X83325Y116627D02*
X84275D01*
X72600Y121627D02*
Y122627D01*
X72100Y122127D02*
X73100D01*
X77600Y121852D02*
Y122402D01*
X77325Y122127D02*
X77875D01*
X81900Y117722D02*
Y118532D01*
X81495Y118127D02*
X82305D01*
X80900Y121327D02*
X81900D01*
X81400Y120827D02*
Y121827D01*
X84500Y120222D02*
Y121032D01*
X84095Y120627D02*
X84905D01*
X134150Y109927D02*
Y110927D01*
X133650Y110427D02*
X134650D01*
X117288Y147454D02*
Y148454D01*
X116788Y147954D02*
X117788D01*
X111138Y147454D02*
Y148454D01*
X110638Y147954D02*
X111638D01*
X104988Y147454D02*
Y148454D01*
X104488Y147954D02*
X105488D01*
X89150Y131100D02*
Y132100D01*
X88650Y131600D02*
X89650D01*
X107695Y132927D02*
X108505D01*
X108100Y132522D02*
Y133332D01*
X118400Y85727D02*
Y86727D01*
X117900Y86227D02*
X118900D01*
X135513Y112354D02*
X136063D01*
X135788Y112079D02*
Y112629D01*
X133113Y118154D02*
X133663D01*
X133388Y117879D02*
Y118429D01*
X133013Y112354D02*
X133563D01*
X133288Y112079D02*
Y112629D01*
X129000Y114327D02*
X130000D01*
X129500Y113827D02*
Y114827D01*
X124450Y134127D02*
X125450D01*
X124950Y133627D02*
Y134627D01*
X104400Y132452D02*
Y133002D01*
X104125Y132727D02*
X104675D01*
X134713Y114904D02*
Y115904D01*
X134213Y115404D02*
X135213D01*
X111588Y139654D02*
X112588D01*
X112088Y139154D02*
Y140154D01*
X124500Y140627D02*
Y141627D01*
X124000Y141127D02*
X125000D01*
X118363Y148949D02*
Y149759D01*
X117958Y149354D02*
X118768D01*
X111088Y149149D02*
Y149959D01*
X110683Y149554D02*
X111493D01*
X104788Y149149D02*
Y149959D01*
X104383Y149554D02*
X105193D01*
X106700Y90122D02*
Y90932D01*
X106295Y90527D02*
X107105D01*
X109310Y90552D02*
Y91102D01*
X109035Y90827D02*
X109585D01*
X71200Y121322D02*
Y122132D01*
X70795Y121727D02*
X71605D01*
X80663Y112049D02*
Y112859D01*
X80258Y112454D02*
X81068D01*
X117700Y92752D02*
Y93302D01*
X117425Y93027D02*
X117975D01*
X76063Y112049D02*
Y112859D01*
X75658Y112454D02*
X76468D01*
X78388Y112049D02*
Y112859D01*
X77983Y112454D02*
X78793D01*
X109125Y93822D02*
Y94632D01*
X108720Y94227D02*
X109530D01*
X112150Y100200D02*
X113150D01*
X112650Y99700D02*
Y100700D01*
X112300Y96300D02*
X113300D01*
X112800Y95800D02*
Y96800D01*
X104388Y147754D02*
X105388D01*
X104888Y147254D02*
Y148254D01*
X106113Y143854D02*
Y144854D01*
X105613Y144354D02*
X106613D01*
X109588Y140254D02*
Y141254D01*
X109088Y140754D02*
X110088D01*
X100388Y146154D02*
Y147154D01*
X99888Y146654D02*
X100888D01*
X109488Y144804D02*
Y145804D01*
X108988Y145304D02*
X109988D01*
X115288Y146304D02*
Y147304D01*
X114788Y146804D02*
X115788D01*
X118600Y139627D02*
X119600D01*
X119100Y139127D02*
Y140127D01*
X82413Y116454D02*
X82963D01*
X82688Y116179D02*
Y116729D01*
X113700Y89552D02*
Y90102D01*
X113425Y89827D02*
X113975D01*
X109400Y88652D02*
Y89202D01*
X109125Y88927D02*
X109675D01*
X118000Y90552D02*
Y91102D01*
X117725Y90827D02*
X118275D01*
X107600Y92352D02*
Y92902D01*
X107325Y92627D02*
X107875D01*
X77213Y117554D02*
Y118554D01*
X76713Y118054D02*
X77713D01*
X113088Y92154D02*
X114088D01*
X113588Y91654D02*
Y92654D01*
D29*
X75657Y118150D02*
X79567D01*
X75657Y121250D02*
X79567D01*
Y118150D02*
Y121250D01*
X75657Y118150D02*
Y121250D01*
X75000Y119577D02*
Y121077D01*
X74200Y119577D02*
X75000D01*
X74200Y121077D02*
X75000D01*
X74200Y119577D02*
Y121077D01*
X73300Y118377D02*
Y119877D01*
X72500Y118377D02*
X73300D01*
X72500Y119877D02*
X73300D01*
X72500Y118377D02*
Y119877D01*
X74200Y117477D02*
Y118977D01*
X75000D01*
X74200Y117477D02*
X75000D01*
Y118977D01*
X80200Y118477D02*
X81000D01*
X80200D02*
Y119977D01*
X81000Y118477D02*
Y119977D01*
X80200D02*
X81000D01*
X78350Y116227D02*
Y117027D01*
X76850Y116227D02*
X78350D01*
X76850Y117027D02*
X78350D01*
X76850Y116227D02*
Y117027D01*
X84850Y116027D02*
Y117227D01*
X82750Y116027D02*
X84850D01*
X82750Y117227D02*
X84850D01*
X82750Y116027D02*
Y117227D01*
X71650Y120227D02*
X73550D01*
X71650Y124027D02*
X73550D01*
X71650Y120227D02*
Y124027D01*
X73550Y120227D02*
Y124027D01*
X78400Y121727D02*
Y122527D01*
X76800Y121727D02*
X78400D01*
X76800Y122527D02*
X78400D01*
X76800Y121727D02*
Y122527D01*
X81350Y119227D02*
X82450D01*
X81350Y117027D02*
X82450D01*
Y119227D01*
X81350Y117027D02*
Y119227D01*
X82800Y120527D02*
Y122127D01*
X80000Y120527D02*
X82800D01*
X80000Y122127D02*
X82800D01*
X80000Y120527D02*
Y122127D01*
X83950Y119527D02*
X85050D01*
X83950Y121727D02*
X85050D01*
X83950Y119527D02*
Y121727D01*
X85050Y119527D02*
Y121727D01*
X132750Y109627D02*
X135550D01*
X132750Y111227D02*
X135550D01*
Y109627D02*
Y111227D01*
X132750Y109627D02*
Y111227D01*
X120238Y145454D02*
Y150454D01*
X114338D02*
X120238D01*
X114338Y145454D02*
X120238D01*
X114338D02*
Y150454D01*
X108188Y145454D02*
X114088D01*
X108188Y150454D02*
X114088D01*
Y145454D02*
Y150454D01*
X108188Y145454D02*
Y150454D01*
X107938Y145454D02*
Y150454D01*
X102038D02*
X107938D01*
X102038Y145454D02*
X107938D01*
X102038D02*
Y150454D01*
X86200Y129100D02*
X92100D01*
Y134100D01*
X86200Y129100D02*
Y134100D01*
X92100D01*
X109200Y132377D02*
Y133477D01*
X107000Y132377D02*
Y133477D01*
Y132377D02*
X109200D01*
X107000Y133477D02*
X109200D01*
X115450Y88727D02*
X121350D01*
X115450Y83727D02*
Y88727D01*
X121350Y83727D02*
Y88727D01*
X115450Y83727D02*
X121350D01*
X136538Y111954D02*
Y112754D01*
X135038D02*
X136538D01*
X135038Y111954D02*
X136538D01*
X135038D02*
Y112754D01*
X134138Y117754D02*
Y118554D01*
X132638D02*
X134138D01*
X132638Y117754D02*
X134138D01*
X132638D02*
Y118554D01*
X134038Y111954D02*
Y112754D01*
X132538D02*
X134038D01*
X132538Y111954D02*
X134038D01*
X132538D02*
Y112754D01*
X131250Y110877D02*
Y117777D01*
X127750D02*
X131250D01*
X127750Y110877D02*
X131250D01*
X127750D02*
Y117777D01*
X121500Y132377D02*
Y135877D01*
X128400Y132377D02*
Y135877D01*
X121500D02*
X128400D01*
X121500Y132377D02*
X128400D01*
X103650Y133127D02*
X105150D01*
X103650Y132327D02*
Y133127D01*
X105150Y132327D02*
Y133127D01*
X103650Y132327D02*
X105150D01*
X136463Y113804D02*
Y117004D01*
X132963D02*
X136463D01*
X132963Y113804D02*
X136463D01*
X132963D02*
Y117004D01*
X121238Y134079D02*
Y145229D01*
X102938D02*
X121238D01*
X102938Y134079D02*
X121238D01*
X102938D02*
Y145229D01*
X127950Y139377D02*
Y142877D01*
X121050D02*
X127950D01*
X121050Y139377D02*
X127950D01*
X121050D02*
Y142877D01*
X119463Y148804D02*
Y149904D01*
X117263D02*
X119463D01*
X117263Y148804D02*
X119463D01*
X117263D02*
Y149904D01*
X112188Y149004D02*
Y150104D01*
X109988D02*
X112188D01*
X109988Y149004D02*
X112188D01*
X109988D02*
Y150104D01*
X105888Y149004D02*
Y150104D01*
X103688D02*
X105888D01*
X103688Y149004D02*
X105888D01*
X103688D02*
Y150104D01*
X106150Y89427D02*
Y91627D01*
Y89427D02*
X107250D01*
X106150Y91627D02*
X107250D01*
Y89427D02*
Y91627D01*
X110110Y90427D02*
Y91227D01*
X108510D02*
X110110D01*
X108510Y90427D02*
X110110D01*
X108510D02*
Y91227D01*
X70650Y120627D02*
Y122827D01*
Y120627D02*
X71750D01*
X70650Y122827D02*
X71750D01*
Y120627D02*
Y122827D01*
X81763Y111904D02*
Y113004D01*
X79563D02*
X81763D01*
X79563Y111904D02*
X81763D01*
X79563D02*
Y113004D01*
X118100Y92227D02*
Y93827D01*
X117300D02*
X118100D01*
X117300Y92227D02*
X118100D01*
X117300D02*
Y93827D01*
X77163Y111904D02*
Y113004D01*
X74963D02*
X77163D01*
X74963Y111904D02*
X77163D01*
X74963D02*
Y113004D01*
X79488Y111904D02*
Y113004D01*
X77288D02*
X79488D01*
X77288Y111904D02*
X79488D01*
X77288D02*
Y113004D01*
X108025Y94777D02*
X110225D01*
X108025Y93677D02*
Y94777D01*
X110225Y93677D02*
Y94777D01*
X108025Y93677D02*
X110225D01*
X114050Y99400D02*
Y101000D01*
X111250D02*
X114050D01*
X111250Y99400D02*
X114050D01*
X111250D02*
Y101000D01*
X114700Y95350D02*
Y97250D01*
X110900D02*
X114700D01*
X110900Y95350D02*
X114700D01*
X110900D02*
Y97250D01*
X106438Y146954D02*
Y148554D01*
X103338D02*
X106438D01*
X103338Y146954D02*
X106438D01*
X103338D02*
Y148554D01*
X107663Y143554D02*
Y145154D01*
X104563D02*
X107663D01*
X104563Y143554D02*
X107663D01*
X104563D02*
Y145154D01*
X111138Y139954D02*
Y141554D01*
X108038D02*
X111138D01*
X108038Y139954D02*
X111138D01*
X108038D02*
Y141554D01*
X98638Y143204D02*
X102138D01*
X98638Y150104D02*
X102138D01*
Y143204D02*
Y150104D01*
X98638Y143204D02*
Y150104D01*
X111238Y141854D02*
Y148754D01*
X107738D02*
X111238D01*
X107738Y141854D02*
X111238D01*
X107738D02*
Y148754D01*
X117038Y143354D02*
Y150254D01*
X113538D02*
X117038D01*
X113538Y143354D02*
X117038D01*
X113538D02*
Y150254D01*
X120850Y136177D02*
Y143077D01*
X117350D02*
X120850D01*
X117350Y136177D02*
X120850D01*
X117350D02*
Y143077D01*
X83088Y115704D02*
Y117204D01*
X82288D02*
X83088D01*
X82288Y115704D02*
X83088D01*
X82288D02*
Y117204D01*
X114450Y89427D02*
Y90227D01*
X112950D02*
X114450D01*
X112950Y89427D02*
X114450D01*
X112950D02*
Y90227D01*
X110150Y88527D02*
Y89327D01*
X108650D02*
X110150D01*
X108650Y88527D02*
X110150D01*
X108650D02*
Y89327D01*
X118400Y90077D02*
Y91577D01*
X117600D02*
X118400D01*
X117600Y90077D02*
X118400D01*
X117600D02*
Y91577D01*
X108000Y91877D02*
Y93377D01*
X107200D02*
X108000D01*
X107200Y91877D02*
X108000D01*
X107200D02*
Y93377D01*
X82063Y113204D02*
Y122904D01*
X72363D02*
X82063D01*
X72363Y113204D02*
X82063D01*
X72363D02*
Y122904D01*
X116388Y90504D02*
Y93804D01*
X110788D02*
X116388D01*
X110788Y90504D02*
X116388D01*
X110788D02*
Y93804D01*
D30*
X138700Y138600D02*
D03*
Y142100D02*
D03*
Y135100D02*
D03*
X85400Y143950D02*
D03*
Y147450D02*
D03*
X78030Y106600D02*
D03*
X85100Y110770D02*
D03*
X91600Y119440D02*
D03*
Y114360D02*
D03*
Y121980D02*
D03*
Y116900D02*
D03*
X67400Y115400D02*
D03*
Y112860D02*
D03*
X73100Y128800D02*
D03*
X75640D02*
D03*
D31*
X80570Y106600D02*
D03*
X70560Y128800D02*
D03*
D32*
X85100Y108230D02*
D03*
X91600Y111820D02*
D03*
X67400Y117940D02*
D03*
D33*
X130000Y138507D02*
D03*
Y135967D02*
D03*
X119788Y151654D02*
D03*
X122328D02*
D03*
X125400Y148227D02*
D03*
X127940D02*
D03*
X111648Y151754D02*
D03*
X114188D02*
D03*
X125000Y137227D02*
D03*
X127540D02*
D03*
X103188Y151854D02*
D03*
X105728D02*
D03*
D34*
X130000Y133427D02*
D03*
D35*
X117248Y151654D02*
D03*
X122860Y148227D02*
D03*
X109108Y151754D02*
D03*
X122460Y137227D02*
D03*
X100648Y151854D02*
D03*
D36*
X113614Y142697D02*
D03*
X108534Y149454D02*
D03*
X103073Y146533D02*
D03*
X113993Y145974D02*
D03*
X106756Y142545D02*
D03*
X119024Y90427D02*
D03*
X122301Y145415D02*
D03*
X78308Y123825D02*
D03*
X115800Y95783D02*
D03*
X101803Y138024D02*
D03*
X69190Y115696D02*
D03*
X108026Y89865D02*
D03*
X84760Y134518D02*
D03*
X104191Y136550D02*
D03*
X78232Y100178D02*
D03*
X106655Y93193D02*
D03*
X112751Y94894D02*
D03*
X134187Y105385D02*
D03*
X116076Y131216D02*
D03*
X104800D02*
D03*
X121412Y143916D02*
D03*
X102758Y143053D02*
D03*
X71069Y115824D02*
D03*
X108915Y137668D02*
D03*
X86157Y130150D02*
D03*
X74879Y116383D02*
D03*
X102845Y137031D02*
D03*
X70663Y117805D02*
D03*
X69240Y118694D02*
D03*
X73711Y127203D02*
D03*
Y131267D02*
D03*
X107645Y136779D02*
D03*
D37*
X117700Y93437D02*
D03*
Y92617D02*
D03*
D38*
X114075Y96300D02*
D03*
X111525D02*
D03*
D39*
X105963Y147754D02*
D03*
X103813D02*
D03*
X107188Y144354D02*
D03*
X105038D02*
D03*
X110663Y140754D02*
D03*
X108513D02*
D03*
D40*
X81338Y119254D02*
D03*
Y118454D02*
D03*
Y120854D02*
D03*
Y120054D02*
D03*
Y116854D02*
D03*
Y116054D02*
D03*
Y117654D02*
D03*
Y115254D02*
D03*
X73088Y120054D02*
D03*
Y119254D02*
D03*
Y120854D02*
D03*
Y117654D02*
D03*
Y116854D02*
D03*
Y118454D02*
D03*
Y115254D02*
D03*
Y116054D02*
D03*
D41*
X79213Y122179D02*
D03*
X80013D02*
D03*
X78413D02*
D03*
X77613D02*
D03*
X80013Y113929D02*
D03*
X79213D02*
D03*
X77613D02*
D03*
X78413D02*
D03*
X76813D02*
D03*
X76013Y122179D02*
D03*
X76813D02*
D03*
X74413D02*
D03*
X75213D02*
D03*
Y113929D02*
D03*
X76013D02*
D03*
X74413D02*
D03*
D42*
X115713Y92479D02*
D03*
Y93129D02*
D03*
Y91829D02*
D03*
Y91179D02*
D03*
X111463Y93129D02*
D03*
Y91829D02*
D03*
Y92479D02*
D03*
Y91179D02*
D03*
M02*
