G04 Layer_Color=16711935*
%FSLAX43Y43*%
%MOMM*%
G71*
G01*
G75*
%ADD28C,0.100*%
%ADD29C,0.050*%
%ADD48R,0.653X0.703*%
%ADD49R,0.703X0.653*%
%ADD52R,0.743X0.723*%
%ADD53R,1.053X0.953*%
%ADD54R,1.103X1.553*%
%ADD57R,0.953X1.053*%
%ADD58R,3.403X1.253*%
%ADD59R,1.253X3.403*%
%ADD63C,1.727*%
%ADD64R,1.727X1.727*%
%ADD65R,1.727X1.727*%
%ADD66C,2.203*%
%ADD67R,2.203X2.203*%
%ADD68R,2.203X2.203*%
%ADD69C,1.473*%
%ADD70R,0.723X0.743*%
%ADD71R,1.253X1.853*%
%ADD72R,0.953X0.553*%
%ADD73O,1.453X0.753*%
%ADD74O,0.753X1.453*%
%ADD75O,1.353X0.653*%
D28*
X77562Y120250D02*
G03*
X77562Y120250I-500J0D01*
G01*
X104438Y136754D02*
G03*
X104438Y136754I-500J0D01*
G01*
X80313Y115454D02*
G03*
X80313Y115454I-500J0D01*
G01*
X114738Y92804D02*
G03*
X114738Y92804I-500J0D01*
G01*
X76162Y118250D02*
X79062D01*
X76162Y121150D02*
X79062D01*
Y118250D02*
Y121150D01*
X76162Y118250D02*
Y121150D01*
X74325Y119777D02*
X74875D01*
X74325Y120877D02*
X74875D01*
Y119777D02*
Y120877D01*
X74325Y119777D02*
Y120877D01*
X72625Y118577D02*
X73175D01*
X72625Y119677D02*
X73175D01*
Y118577D02*
Y119677D01*
X72625Y118577D02*
Y119677D01*
X74325Y118777D02*
X74875D01*
X74325Y117677D02*
X74875D01*
X74325D02*
Y118777D01*
X74875Y117677D02*
Y118777D01*
X80325Y118677D02*
X80875D01*
Y119777D01*
X80325Y118677D02*
Y119777D01*
X80875D01*
X78150Y116352D02*
Y116902D01*
X77050D02*
X78150D01*
X77050Y116352D02*
X78150D01*
X77050D02*
Y116902D01*
X84650Y116152D02*
Y117102D01*
X82950D02*
X84650D01*
X82950Y116152D02*
X84650D01*
X82950D02*
Y117102D01*
X71750Y120527D02*
X73450D01*
X71750Y123727D02*
X73450D01*
X71750Y120527D02*
Y123727D01*
X73450Y120527D02*
Y123727D01*
X78150Y121852D02*
Y122402D01*
X77050Y121852D02*
Y122402D01*
Y121852D02*
X78150D01*
X77050Y122402D02*
X78150D01*
X81495Y118977D02*
X82305D01*
X81495Y117277D02*
X82305D01*
Y118977D01*
X81495Y117277D02*
Y118977D01*
X82500Y120627D02*
Y122027D01*
X80300Y120627D02*
X82500D01*
X80300D02*
Y122027D01*
X82500D01*
X84095Y119777D02*
X84905D01*
X84095Y121477D02*
X84905D01*
X84095Y119777D02*
Y121477D01*
X84905Y119777D02*
Y121477D01*
X133050Y109727D02*
X135250D01*
X133050Y111127D02*
X135250D01*
Y109727D02*
Y111127D01*
X133050Y109727D02*
Y111127D01*
X115813Y150204D02*
X119538D01*
Y145704D02*
Y150204D01*
X115813Y145704D02*
X119538D01*
X115038Y149429D02*
X115813Y150204D01*
X115038Y146479D02*
Y149429D01*
Y146479D02*
X115813Y145704D01*
X108888Y146479D02*
Y149429D01*
Y146479D02*
X109663Y145704D01*
X113388D01*
Y150204D01*
X109663D02*
X113388D01*
X108888Y149429D02*
X109663Y150204D01*
X103513D02*
X107238D01*
Y145704D02*
Y150204D01*
X103513Y145704D02*
X107238D01*
X102738Y149429D02*
X103513Y150204D01*
X102738Y146479D02*
Y149429D01*
Y146479D02*
X103513Y145704D01*
X90625Y129350D02*
X91400Y130125D01*
Y133075D01*
X86900Y129350D02*
X90625D01*
Y133850D02*
X91400Y133075D01*
X86900Y133850D02*
X90625D01*
X86900Y129350D02*
Y133850D01*
X108950Y132522D02*
Y133332D01*
X107250Y132522D02*
Y133332D01*
Y132522D02*
X108950D01*
X107250Y133332D02*
X108950D01*
X116150Y87702D02*
X116925Y88477D01*
X116150Y84752D02*
Y87702D01*
X116925Y88477D02*
X120650D01*
Y83977D02*
Y88477D01*
X116150Y84752D02*
X116925Y83977D01*
X120650D01*
X136338Y112079D02*
Y112629D01*
X135238D02*
X136338D01*
X135238Y112079D02*
X136338D01*
X135238D02*
Y112629D01*
X133938Y117879D02*
Y118429D01*
X132838D02*
X133938D01*
X132838Y117879D02*
X133938D01*
X132838D02*
Y118429D01*
X133838Y112079D02*
Y112629D01*
X132738D02*
X133838D01*
X132738Y112079D02*
X133838D01*
X132738D02*
Y112629D01*
X127850Y111147D02*
X131150D01*
Y117507D01*
X127850Y111147D02*
Y117507D01*
X131150D01*
X121770Y132477D02*
Y135777D01*
X128130Y132477D02*
Y135777D01*
X121770D02*
X128130D01*
X121770Y132477D02*
X128130D01*
X103850Y132452D02*
Y133002D01*
X104950Y132452D02*
Y133002D01*
X103850D02*
X104950D01*
X103850Y132452D02*
X104950D01*
X133838Y113904D02*
X135588D01*
Y116904D01*
X133838D02*
X135588D01*
X133838Y113904D02*
Y116904D01*
X121138Y135854D02*
Y143454D01*
X103038D02*
X121138D01*
X103038Y135854D02*
X121138D01*
X103038D02*
Y143454D01*
X127680Y139477D02*
Y142777D01*
X121320D02*
X127680D01*
X121320Y139477D02*
Y142777D01*
Y139477D02*
X127680D01*
X119213Y148949D02*
Y149759D01*
X117513Y148949D02*
X119213D01*
X117513Y149759D02*
X119213D01*
X117513Y148949D02*
Y149759D01*
X111938Y149149D02*
Y149959D01*
X110238Y149149D02*
X111938D01*
X110238Y149959D02*
X111938D01*
X110238Y149149D02*
Y149959D01*
X105638Y149149D02*
Y149959D01*
X103938Y149149D02*
X105638D01*
X103938Y149959D02*
X105638D01*
X103938Y149149D02*
Y149959D01*
X106295Y89677D02*
Y91377D01*
Y89677D02*
X107105D01*
X106295Y91377D02*
X107105D01*
Y89677D02*
Y91377D01*
X109860Y90552D02*
Y91102D01*
X108760Y90552D02*
Y91102D01*
X109860D01*
X108760Y90552D02*
X109860D01*
X70795Y120877D02*
Y122577D01*
Y120877D02*
X71605D01*
X70795Y122577D02*
X71605D01*
Y120877D02*
Y122577D01*
X81513Y112049D02*
Y112859D01*
X79813Y112049D02*
X81513D01*
X79813Y112859D02*
X81513D01*
X79813Y112049D02*
Y112859D01*
X117975Y92477D02*
Y93577D01*
X117425D02*
X117975D01*
X117425Y92477D02*
X117975D01*
X117425D02*
Y93577D01*
X76913Y112049D02*
Y112859D01*
X75213Y112049D02*
X76913D01*
X75213Y112859D02*
X76913D01*
X75213Y112049D02*
Y112859D01*
X79238Y112049D02*
Y112859D01*
X77538Y112049D02*
X79238D01*
X77538Y112859D02*
X79238D01*
X77538Y112049D02*
Y112859D01*
X108275Y93822D02*
Y94632D01*
X109975Y93822D02*
Y94632D01*
X108275D02*
X109975D01*
X108275Y93822D02*
X109975D01*
X113750Y99500D02*
Y100900D01*
X111550D02*
X113750D01*
X111550Y99500D02*
Y100900D01*
Y99500D02*
X113750D01*
X114400Y95450D02*
Y97150D01*
X111200D02*
X114400D01*
X111200Y95450D02*
Y97150D01*
Y95450D02*
X114400D01*
X103988Y148429D02*
X105788D01*
X103988Y147079D02*
X105788D01*
Y148429D01*
X103988Y147079D02*
Y148429D01*
X105213Y145029D02*
X107013D01*
Y143679D02*
Y145029D01*
X105213Y143679D02*
Y145029D01*
Y143679D02*
X107013D01*
X108688Y141429D02*
X110488D01*
Y140079D02*
Y141429D01*
X108688Y140079D02*
Y141429D01*
Y140079D02*
X110488D01*
X98738Y143474D02*
X102038D01*
X98738Y149834D02*
X102038D01*
Y143474D02*
Y149834D01*
X98738Y143474D02*
Y149834D01*
X107838Y148484D02*
X111138D01*
Y142124D02*
Y148484D01*
X107838Y142124D02*
Y148484D01*
Y142124D02*
X111138D01*
X113638Y149984D02*
X116938D01*
Y143624D02*
Y149984D01*
X113638Y143624D02*
Y149984D01*
Y143624D02*
X116938D01*
X117450Y136447D02*
X120750D01*
Y142807D01*
X117450Y136447D02*
Y142807D01*
X120750D01*
X82413Y117004D02*
X82963D01*
X82413Y115904D02*
X82963D01*
Y117004D01*
X82413Y115904D02*
Y117004D01*
X114250Y89552D02*
Y90102D01*
X113150Y89552D02*
X114250D01*
X113150Y90102D02*
X114250D01*
X113150Y89552D02*
Y90102D01*
X109950Y88652D02*
Y89202D01*
X108850Y88652D02*
X109950D01*
X108850Y89202D02*
X109950D01*
X108850Y88652D02*
Y89202D01*
X118275Y90277D02*
Y91377D01*
X117725D02*
X118275D01*
X117725Y90277D02*
X118275D01*
X117725D02*
Y91377D01*
X107875Y92077D02*
Y93177D01*
X107325D02*
X107875D01*
X107325Y92077D02*
X107875D01*
X107325D02*
Y93177D01*
X80713Y114554D02*
Y121554D01*
X73713D02*
X80713D01*
X73713Y114554D02*
X80713D01*
X73713D02*
Y121554D01*
X115138Y90604D02*
Y93704D01*
X112038D02*
X115138D01*
X112038Y90604D02*
X115138D01*
X112038D02*
Y93704D01*
X77612Y119200D02*
Y120200D01*
X77112Y119700D02*
X78112D01*
X74325Y120327D02*
X74875D01*
X74600Y120052D02*
Y120602D01*
X72625Y119127D02*
X73175D01*
X72900Y118852D02*
Y119402D01*
X74325Y118227D02*
X74875D01*
X74600Y117952D02*
Y118502D01*
X80325Y119227D02*
X80875D01*
X80600Y118952D02*
Y119502D01*
X77600Y116352D02*
Y116902D01*
X77325Y116627D02*
X77875D01*
X83800Y116152D02*
Y117102D01*
X83325Y116627D02*
X84275D01*
X72600Y121627D02*
Y122627D01*
X72100Y122127D02*
X73100D01*
X77600Y121852D02*
Y122402D01*
X77325Y122127D02*
X77875D01*
X81900Y117722D02*
Y118532D01*
X81495Y118127D02*
X82305D01*
X80900Y121327D02*
X81900D01*
X81400Y120827D02*
Y121827D01*
X84500Y120222D02*
Y121032D01*
X84095Y120627D02*
X84905D01*
X134150Y109927D02*
Y110927D01*
X133650Y110427D02*
X134650D01*
X117288Y147454D02*
Y148454D01*
X116788Y147954D02*
X117788D01*
X111138Y147454D02*
Y148454D01*
X110638Y147954D02*
X111638D01*
X104988Y147454D02*
Y148454D01*
X104488Y147954D02*
X105488D01*
X89150Y131100D02*
Y132100D01*
X88650Y131600D02*
X89650D01*
X107695Y132927D02*
X108505D01*
X108100Y132522D02*
Y133332D01*
X118400Y85727D02*
Y86727D01*
X117900Y86227D02*
X118900D01*
X135513Y112354D02*
X136063D01*
X135788Y112079D02*
Y112629D01*
X133113Y118154D02*
X133663D01*
X133388Y117879D02*
Y118429D01*
X133013Y112354D02*
X133563D01*
X133288Y112079D02*
Y112629D01*
X129000Y114327D02*
X130000D01*
X129500Y113827D02*
Y114827D01*
X124450Y134127D02*
X125450D01*
X124950Y133627D02*
Y134627D01*
X104400Y132452D02*
Y133002D01*
X104125Y132727D02*
X104675D01*
X134713Y114904D02*
Y115904D01*
X134213Y115404D02*
X135213D01*
X111588Y139654D02*
X112588D01*
X112088Y139154D02*
Y140154D01*
X124500Y140627D02*
Y141627D01*
X124000Y141127D02*
X125000D01*
X118363Y148949D02*
Y149759D01*
X117958Y149354D02*
X118768D01*
X111088Y149149D02*
Y149959D01*
X110683Y149554D02*
X111493D01*
X104788Y149149D02*
Y149959D01*
X104383Y149554D02*
X105193D01*
X106700Y90122D02*
Y90932D01*
X106295Y90527D02*
X107105D01*
X109310Y90552D02*
Y91102D01*
X109035Y90827D02*
X109585D01*
X71200Y121322D02*
Y122132D01*
X70795Y121727D02*
X71605D01*
X80663Y112049D02*
Y112859D01*
X80258Y112454D02*
X81068D01*
X117700Y92752D02*
Y93302D01*
X117425Y93027D02*
X117975D01*
X76063Y112049D02*
Y112859D01*
X75658Y112454D02*
X76468D01*
X78388Y112049D02*
Y112859D01*
X77983Y112454D02*
X78793D01*
X109125Y93822D02*
Y94632D01*
X108720Y94227D02*
X109530D01*
X112150Y100200D02*
X113150D01*
X112650Y99700D02*
Y100700D01*
X112300Y96300D02*
X113300D01*
X112800Y95800D02*
Y96800D01*
X104388Y147754D02*
X105388D01*
X104888Y147254D02*
Y148254D01*
X106113Y143854D02*
Y144854D01*
X105613Y144354D02*
X106613D01*
X109588Y140254D02*
Y141254D01*
X109088Y140754D02*
X110088D01*
X100388Y146154D02*
Y147154D01*
X99888Y146654D02*
X100888D01*
X109488Y144804D02*
Y145804D01*
X108988Y145304D02*
X109988D01*
X115288Y146304D02*
Y147304D01*
X114788Y146804D02*
X115788D01*
X118600Y139627D02*
X119600D01*
X119100Y139127D02*
Y140127D01*
X82413Y116454D02*
X82963D01*
X82688Y116179D02*
Y116729D01*
X113700Y89552D02*
Y90102D01*
X113425Y89827D02*
X113975D01*
X109400Y88652D02*
Y89202D01*
X109125Y88927D02*
X109675D01*
X118000Y90552D02*
Y91102D01*
X117725Y90827D02*
X118275D01*
X107600Y92352D02*
Y92902D01*
X107325Y92627D02*
X107875D01*
X77213Y117554D02*
Y118554D01*
X76713Y118054D02*
X77713D01*
X113088Y92154D02*
X114088D01*
X113588Y91654D02*
Y92654D01*
D29*
X75657Y118150D02*
X79567D01*
X75657Y121250D02*
X79567D01*
Y118150D02*
Y121250D01*
X75657Y118150D02*
Y121250D01*
X75000Y119577D02*
Y121077D01*
X74200Y119577D02*
X75000D01*
X74200Y121077D02*
X75000D01*
X74200Y119577D02*
Y121077D01*
X73300Y118377D02*
Y119877D01*
X72500Y118377D02*
X73300D01*
X72500Y119877D02*
X73300D01*
X72500Y118377D02*
Y119877D01*
X74200Y117477D02*
Y118977D01*
X75000D01*
X74200Y117477D02*
X75000D01*
Y118977D01*
X80200Y118477D02*
X81000D01*
X80200D02*
Y119977D01*
X81000Y118477D02*
Y119977D01*
X80200D02*
X81000D01*
X78350Y116227D02*
Y117027D01*
X76850Y116227D02*
X78350D01*
X76850Y117027D02*
X78350D01*
X76850Y116227D02*
Y117027D01*
X84850Y116027D02*
Y117227D01*
X82750Y116027D02*
X84850D01*
X82750Y117227D02*
X84850D01*
X82750Y116027D02*
Y117227D01*
X71650Y120227D02*
X73550D01*
X71650Y124027D02*
X73550D01*
X71650Y120227D02*
Y124027D01*
X73550Y120227D02*
Y124027D01*
X78400Y121727D02*
Y122527D01*
X76800Y121727D02*
X78400D01*
X76800Y122527D02*
X78400D01*
X76800Y121727D02*
Y122527D01*
X81350Y119227D02*
X82450D01*
X81350Y117027D02*
X82450D01*
Y119227D01*
X81350Y117027D02*
Y119227D01*
X82800Y120527D02*
Y122127D01*
X80000Y120527D02*
X82800D01*
X80000Y122127D02*
X82800D01*
X80000Y120527D02*
Y122127D01*
X83950Y119527D02*
X85050D01*
X83950Y121727D02*
X85050D01*
X83950Y119527D02*
Y121727D01*
X85050Y119527D02*
Y121727D01*
X132750Y109627D02*
X135550D01*
X132750Y111227D02*
X135550D01*
Y109627D02*
Y111227D01*
X132750Y109627D02*
Y111227D01*
X120238Y145454D02*
Y150454D01*
X114338D02*
X120238D01*
X114338Y145454D02*
X120238D01*
X114338D02*
Y150454D01*
X108188Y145454D02*
X114088D01*
X108188Y150454D02*
X114088D01*
Y145454D02*
Y150454D01*
X108188Y145454D02*
Y150454D01*
X107938Y145454D02*
Y150454D01*
X102038D02*
X107938D01*
X102038Y145454D02*
X107938D01*
X102038D02*
Y150454D01*
X86200Y129100D02*
X92100D01*
Y134100D01*
X86200Y129100D02*
Y134100D01*
X92100D01*
X109200Y132377D02*
Y133477D01*
X107000Y132377D02*
Y133477D01*
Y132377D02*
X109200D01*
X107000Y133477D02*
X109200D01*
X115450Y88727D02*
X121350D01*
X115450Y83727D02*
Y88727D01*
X121350Y83727D02*
Y88727D01*
X115450Y83727D02*
X121350D01*
X136538Y111954D02*
Y112754D01*
X135038D02*
X136538D01*
X135038Y111954D02*
X136538D01*
X135038D02*
Y112754D01*
X134138Y117754D02*
Y118554D01*
X132638D02*
X134138D01*
X132638Y117754D02*
X134138D01*
X132638D02*
Y118554D01*
X134038Y111954D02*
Y112754D01*
X132538D02*
X134038D01*
X132538Y111954D02*
X134038D01*
X132538D02*
Y112754D01*
X131250Y110877D02*
Y117777D01*
X127750D02*
X131250D01*
X127750Y110877D02*
X131250D01*
X127750D02*
Y117777D01*
X121500Y132377D02*
Y135877D01*
X128400Y132377D02*
Y135877D01*
X121500D02*
X128400D01*
X121500Y132377D02*
X128400D01*
X103650Y133127D02*
X105150D01*
X103650Y132327D02*
Y133127D01*
X105150Y132327D02*
Y133127D01*
X103650Y132327D02*
X105150D01*
X136463Y113804D02*
Y117004D01*
X132963D02*
X136463D01*
X132963Y113804D02*
X136463D01*
X132963D02*
Y117004D01*
X121238Y134079D02*
Y145229D01*
X102938D02*
X121238D01*
X102938Y134079D02*
X121238D01*
X102938D02*
Y145229D01*
X127950Y139377D02*
Y142877D01*
X121050D02*
X127950D01*
X121050Y139377D02*
X127950D01*
X121050D02*
Y142877D01*
X119463Y148804D02*
Y149904D01*
X117263D02*
X119463D01*
X117263Y148804D02*
X119463D01*
X117263D02*
Y149904D01*
X112188Y149004D02*
Y150104D01*
X109988D02*
X112188D01*
X109988Y149004D02*
X112188D01*
X109988D02*
Y150104D01*
X105888Y149004D02*
Y150104D01*
X103688D02*
X105888D01*
X103688Y149004D02*
X105888D01*
X103688D02*
Y150104D01*
X106150Y89427D02*
Y91627D01*
Y89427D02*
X107250D01*
X106150Y91627D02*
X107250D01*
Y89427D02*
Y91627D01*
X110110Y90427D02*
Y91227D01*
X108510D02*
X110110D01*
X108510Y90427D02*
X110110D01*
X108510D02*
Y91227D01*
X70650Y120627D02*
Y122827D01*
Y120627D02*
X71750D01*
X70650Y122827D02*
X71750D01*
Y120627D02*
Y122827D01*
X81763Y111904D02*
Y113004D01*
X79563D02*
X81763D01*
X79563Y111904D02*
X81763D01*
X79563D02*
Y113004D01*
X118100Y92227D02*
Y93827D01*
X117300D02*
X118100D01*
X117300Y92227D02*
X118100D01*
X117300D02*
Y93827D01*
X77163Y111904D02*
Y113004D01*
X74963D02*
X77163D01*
X74963Y111904D02*
X77163D01*
X74963D02*
Y113004D01*
X79488Y111904D02*
Y113004D01*
X77288D02*
X79488D01*
X77288Y111904D02*
X79488D01*
X77288D02*
Y113004D01*
X108025Y94777D02*
X110225D01*
X108025Y93677D02*
Y94777D01*
X110225Y93677D02*
Y94777D01*
X108025Y93677D02*
X110225D01*
X114050Y99400D02*
Y101000D01*
X111250D02*
X114050D01*
X111250Y99400D02*
X114050D01*
X111250D02*
Y101000D01*
X114700Y95350D02*
Y97250D01*
X110900D02*
X114700D01*
X110900Y95350D02*
X114700D01*
X110900D02*
Y97250D01*
X106438Y146954D02*
Y148554D01*
X103338D02*
X106438D01*
X103338Y146954D02*
X106438D01*
X103338D02*
Y148554D01*
X107663Y143554D02*
Y145154D01*
X104563D02*
X107663D01*
X104563Y143554D02*
X107663D01*
X104563D02*
Y145154D01*
X111138Y139954D02*
Y141554D01*
X108038D02*
X111138D01*
X108038Y139954D02*
X111138D01*
X108038D02*
Y141554D01*
X98638Y143204D02*
X102138D01*
X98638Y150104D02*
X102138D01*
Y143204D02*
Y150104D01*
X98638Y143204D02*
Y150104D01*
X111238Y141854D02*
Y148754D01*
X107738D02*
X111238D01*
X107738Y141854D02*
X111238D01*
X107738D02*
Y148754D01*
X117038Y143354D02*
Y150254D01*
X113538D02*
X117038D01*
X113538Y143354D02*
X117038D01*
X113538D02*
Y150254D01*
X120850Y136177D02*
Y143077D01*
X117350D02*
X120850D01*
X117350Y136177D02*
X120850D01*
X117350D02*
Y143077D01*
X83088Y115704D02*
Y117204D01*
X82288D02*
X83088D01*
X82288Y115704D02*
X83088D01*
X82288D02*
Y117204D01*
X114450Y89427D02*
Y90227D01*
X112950D02*
X114450D01*
X112950Y89427D02*
X114450D01*
X112950D02*
Y90227D01*
X110150Y88527D02*
Y89327D01*
X108650D02*
X110150D01*
X108650Y88527D02*
X110150D01*
X108650D02*
Y89327D01*
X118400Y90077D02*
Y91577D01*
X117600D02*
X118400D01*
X117600Y90077D02*
X118400D01*
X117600D02*
Y91577D01*
X108000Y91877D02*
Y93377D01*
X107200D02*
X108000D01*
X107200Y91877D02*
X108000D01*
X107200D02*
Y93377D01*
X82063Y113204D02*
Y122904D01*
X72363D02*
X82063D01*
X72363Y113204D02*
X82063D01*
X72363D02*
Y122904D01*
X116388Y90504D02*
Y93804D01*
X110788D02*
X116388D01*
X110788Y90504D02*
X116388D01*
X110788D02*
Y93804D01*
D48*
X82688Y116854D02*
D03*
Y116054D02*
D03*
X118000Y91227D02*
D03*
Y90427D02*
D03*
X107600Y93027D02*
D03*
Y92227D02*
D03*
D49*
X114100Y89827D02*
D03*
X113300D02*
D03*
X109800Y88927D02*
D03*
X109000D02*
D03*
D52*
X109720Y90827D02*
D03*
X108900D02*
D03*
D53*
X106700Y89902D02*
D03*
Y91152D02*
D03*
X71200Y121102D02*
D03*
Y122352D02*
D03*
D54*
X113500Y100200D02*
D03*
X111800D02*
D03*
D57*
X118988Y149354D02*
D03*
X117738D02*
D03*
X111713Y149554D02*
D03*
X110463D02*
D03*
X105413Y149554D02*
D03*
X104163D02*
D03*
X81288Y112454D02*
D03*
X80038D02*
D03*
X76688D02*
D03*
X75438D02*
D03*
X79013D02*
D03*
X77763D02*
D03*
X108500Y94227D02*
D03*
X109750D02*
D03*
D58*
X100388Y143804D02*
D03*
Y149504D02*
D03*
X109488Y148154D02*
D03*
Y142454D02*
D03*
X115288Y149654D02*
D03*
Y143954D02*
D03*
X119100Y142477D02*
D03*
Y136777D02*
D03*
D59*
X127350Y141127D02*
D03*
X121650D02*
D03*
D63*
X138700Y138600D02*
D03*
Y142100D02*
D03*
Y135100D02*
D03*
X85400Y143950D02*
D03*
Y147450D02*
D03*
X78030Y106600D02*
D03*
X85100Y110770D02*
D03*
X91600Y119440D02*
D03*
Y114360D02*
D03*
Y121980D02*
D03*
Y116900D02*
D03*
X67400Y115400D02*
D03*
Y112860D02*
D03*
X73100Y128800D02*
D03*
X75640D02*
D03*
D64*
X80570Y106600D02*
D03*
X70560Y128800D02*
D03*
D65*
X85100Y108230D02*
D03*
X91600Y111820D02*
D03*
X67400Y117940D02*
D03*
D66*
X130000Y138507D02*
D03*
Y135967D02*
D03*
X119788Y151654D02*
D03*
X122328D02*
D03*
X125400Y148227D02*
D03*
X127940D02*
D03*
X111648Y151754D02*
D03*
X114188D02*
D03*
X125000Y137227D02*
D03*
X127540D02*
D03*
X103188Y151854D02*
D03*
X105728D02*
D03*
D67*
X130000Y133427D02*
D03*
D68*
X117248Y151654D02*
D03*
X122860Y148227D02*
D03*
X109108Y151754D02*
D03*
X122460Y137227D02*
D03*
X100648Y151854D02*
D03*
D69*
X113614Y142697D02*
D03*
X108534Y149454D02*
D03*
X103073Y146533D02*
D03*
X113993Y145974D02*
D03*
X106756Y142545D02*
D03*
X119024Y90427D02*
D03*
X122301Y145415D02*
D03*
X78308Y123825D02*
D03*
X115800Y95783D02*
D03*
X101803Y138024D02*
D03*
X69190Y115696D02*
D03*
X108026Y89865D02*
D03*
X84760Y134518D02*
D03*
X104191Y136550D02*
D03*
X78232Y100178D02*
D03*
X106655Y93193D02*
D03*
X112751Y94894D02*
D03*
X134187Y105385D02*
D03*
X116076Y131216D02*
D03*
X104800D02*
D03*
X121412Y143916D02*
D03*
X102758Y143053D02*
D03*
X71069Y115824D02*
D03*
X108915Y137668D02*
D03*
X86157Y130150D02*
D03*
X74879Y116383D02*
D03*
X102845Y137031D02*
D03*
X70663Y117805D02*
D03*
X69240Y118694D02*
D03*
X73711Y127203D02*
D03*
Y131267D02*
D03*
X107645Y136779D02*
D03*
D70*
X117700Y93437D02*
D03*
Y92617D02*
D03*
D71*
X114075Y96300D02*
D03*
X111525D02*
D03*
D72*
X105963Y147754D02*
D03*
X103813D02*
D03*
X107188Y144354D02*
D03*
X105038D02*
D03*
X110663Y140754D02*
D03*
X108513D02*
D03*
D73*
X81338Y119254D02*
D03*
Y118454D02*
D03*
Y120854D02*
D03*
Y120054D02*
D03*
Y116854D02*
D03*
Y116054D02*
D03*
Y117654D02*
D03*
Y115254D02*
D03*
X73088Y120054D02*
D03*
Y119254D02*
D03*
Y120854D02*
D03*
Y117654D02*
D03*
Y116854D02*
D03*
Y118454D02*
D03*
Y115254D02*
D03*
Y116054D02*
D03*
D74*
X79213Y122179D02*
D03*
X80013D02*
D03*
X78413D02*
D03*
X77613D02*
D03*
X80013Y113929D02*
D03*
X79213D02*
D03*
X77613D02*
D03*
X78413D02*
D03*
X76813D02*
D03*
X76013Y122179D02*
D03*
X76813D02*
D03*
X74413D02*
D03*
X75213D02*
D03*
Y113929D02*
D03*
X76013D02*
D03*
X74413D02*
D03*
D75*
X115713Y92479D02*
D03*
Y93129D02*
D03*
Y91829D02*
D03*
Y91179D02*
D03*
X111463Y93129D02*
D03*
Y91829D02*
D03*
Y92479D02*
D03*
Y91179D02*
D03*
M02*
