G04 Layer_Physical_Order=1*
G04 Layer_Color=255*
%FSLAX43Y43*%
%MOMM*%
G71*
G01*
G75*
%ADD10R,1.650X2.400*%
%ADD11R,0.800X0.300*%
%ADD12R,0.450X0.500*%
%ADD13R,0.500X0.450*%
%ADD14R,0.700X0.850*%
%ADD15R,1.650X1.050*%
%ADD16R,0.540X0.520*%
%ADD17R,0.850X0.750*%
%ADD18R,0.900X1.350*%
G04:AMPARAMS|DCode=19|XSize=1.7mm|YSize=3.8mm|CornerRadius=0.425mm|HoleSize=0mm|Usage=FLASHONLY|Rotation=180.000|XOffset=0mm|YOffset=0mm|HoleType=Round|Shape=RoundedRectangle|*
%AMROUNDEDRECTD19*
21,1,1.700,2.950,0,0,180.0*
21,1,0.850,3.800,0,0,180.0*
1,1,0.850,-0.425,1.475*
1,1,0.850,0.425,1.475*
1,1,0.850,0.425,-1.475*
1,1,0.850,-0.425,-1.475*
%
%ADD19ROUNDEDRECTD19*%
%ADD20R,2.050X1.400*%
%ADD21R,0.750X0.850*%
%ADD22R,3.200X1.050*%
%ADD23R,1.050X3.200*%
G04:AMPARAMS|DCode=24|XSize=1.4mm|YSize=3mm|CornerRadius=0.35mm|HoleSize=0mm|Usage=FLASHONLY|Rotation=0.000|XOffset=0mm|YOffset=0mm|HoleType=Round|Shape=RoundedRectangle|*
%AMROUNDEDRECTD24*
21,1,1.400,2.300,0,0,0.0*
21,1,0.700,3.000,0,0,0.0*
1,1,0.700,0.350,-1.150*
1,1,0.700,-0.350,-1.150*
1,1,0.700,-0.350,1.150*
1,1,0.700,0.350,1.150*
%
%ADD24ROUNDEDRECTD24*%
%ADD25R,0.800X0.600*%
%ADD26O,0.550X1.700*%
%ADD27C,0.254*%
%ADD28C,0.100*%
%ADD29C,0.050*%
%ADD30C,1.524*%
%ADD31R,1.524X1.524*%
%ADD32R,1.524X1.524*%
%ADD33C,2.000*%
%ADD34R,2.000X2.000*%
%ADD35R,2.000X2.000*%
%ADD36C,1.270*%
G36*
X110483Y164028D02*
X112561Y163892D01*
X114632Y163665D01*
X116691Y163348D01*
X118734Y162942D01*
X120758Y162447D01*
X122758Y161864D01*
X124730Y161194D01*
X126672Y160439D01*
X128579Y159600D01*
X130447Y158679D01*
X132273Y157677D01*
X134054Y156596D01*
X135786Y155439D01*
X137466Y154207D01*
X139091Y152903D01*
X140657Y151530D01*
X142162Y150089D01*
X143603Y148584D01*
X144976Y147018D01*
X146280Y145393D01*
X147512Y143713D01*
X148669Y141981D01*
X149750Y140200D01*
X150752Y138374D01*
X151673Y136506D01*
X152512Y134599D01*
X153267Y132657D01*
X153937Y130685D01*
X154520Y128685D01*
X155015Y126661D01*
X155421Y124618D01*
X155738Y122559D01*
X155965Y120488D01*
X156101Y118410D01*
X156147Y116327D01*
X156101Y114244D01*
X155965Y112166D01*
X155738Y110095D01*
X155421Y108036D01*
X155015Y105993D01*
X154520Y103969D01*
X153937Y101969D01*
X153267Y99997D01*
X152512Y98055D01*
X151673Y96148D01*
X150752Y94280D01*
X149750Y92454D01*
X148669Y90673D01*
X147512Y88941D01*
X146280Y87261D01*
X144976Y85636D01*
X143603Y84070D01*
X142162Y82565D01*
X140657Y81124D01*
X139091Y79751D01*
X137466Y78447D01*
X135786Y77215D01*
X134054Y76058D01*
X132273Y74977D01*
X130447Y73975D01*
X128579Y73054D01*
X126672Y72215D01*
X124730Y71460D01*
X122758Y70790D01*
X120758Y70207D01*
X118734Y69712D01*
X116691Y69306D01*
X114632Y68989D01*
X112561Y68762D01*
X110483Y68626D01*
X108400Y68580D01*
X106317Y68626D01*
X104239Y68762D01*
X102168Y68989D01*
X100109Y69306D01*
X98066Y69712D01*
X96042Y70207D01*
X94042Y70790D01*
X92070Y71460D01*
X90128Y72215D01*
X88221Y73054D01*
X86353Y73975D01*
X84527Y74977D01*
X82746Y76058D01*
X81014Y77215D01*
X79334Y78447D01*
X77709Y79751D01*
X76143Y81124D01*
X74638Y82565D01*
X73197Y84070D01*
X71824Y85636D01*
X70520Y87261D01*
X69288Y88941D01*
X68131Y90673D01*
X67050Y92454D01*
X66048Y94280D01*
X65127Y96148D01*
X64288Y98055D01*
X63533Y99997D01*
X62863Y101969D01*
X62280Y103969D01*
X61785Y105993D01*
X61379Y108036D01*
X61062Y110095D01*
X60835Y112166D01*
X60699Y114244D01*
X60653Y116327D01*
X60699Y118410D01*
X60835Y120488D01*
X61062Y122559D01*
X61379Y124618D01*
X61785Y126661D01*
X62280Y128685D01*
X62863Y130685D01*
X63533Y132657D01*
X64288Y134599D01*
X65127Y136506D01*
X66048Y138374D01*
X67050Y140200D01*
X68131Y141981D01*
X69288Y143713D01*
X70520Y145393D01*
X71824Y147018D01*
X73197Y148584D01*
X74638Y150089D01*
X76143Y151530D01*
X77709Y152903D01*
X79334Y154207D01*
X81014Y155439D01*
X82746Y156596D01*
X84527Y157677D01*
X86353Y158679D01*
X88221Y159600D01*
X90128Y160439D01*
X92070Y161194D01*
X94042Y161864D01*
X96042Y162447D01*
X98066Y162942D01*
X100109Y163348D01*
X102168Y163665D01*
X104239Y163892D01*
X106317Y164028D01*
X108400Y164074D01*
X110483Y164028D01*
D02*
G37*
%LPC*%
G36*
X70433Y129816D02*
X69544D01*
Y128927D01*
X70433D01*
Y129816D01*
D02*
G37*
G36*
X73679Y124181D02*
X72727D01*
Y123529D01*
X73679D01*
Y124181D01*
D02*
G37*
G36*
X71576Y128673D02*
X70560D01*
X69544D01*
Y127784D01*
X70303D01*
Y125442D01*
X70323Y125344D01*
X70378Y125260D01*
X71521Y124118D01*
Y123529D01*
X72473D01*
Y124181D01*
X72184D01*
X70817Y125548D01*
Y127784D01*
X71576D01*
Y128673D01*
D02*
G37*
G36*
Y129816D02*
X70687D01*
Y128927D01*
X71576D01*
Y129816D01*
D02*
G37*
G36*
X138700Y142995D02*
X138468Y142964D01*
X138253Y142875D01*
X138067Y142733D01*
X137925Y142547D01*
X137836Y142332D01*
X137805Y142100D01*
X137836Y141868D01*
X137925Y141653D01*
X138067Y141467D01*
X138253Y141325D01*
X138468Y141236D01*
X138700Y141205D01*
X138932Y141236D01*
X139147Y141325D01*
X139333Y141467D01*
X139475Y141653D01*
X139564Y141868D01*
X139595Y142100D01*
X139564Y142332D01*
X139475Y142547D01*
X139333Y142733D01*
X139147Y142875D01*
X138932Y142964D01*
X138700Y142995D01*
D02*
G37*
G36*
Y139495D02*
X138468Y139464D01*
X138253Y139375D01*
X138067Y139233D01*
X137925Y139047D01*
X137836Y138832D01*
X137805Y138600D01*
X137836Y138368D01*
X137925Y138153D01*
X138067Y137967D01*
X138253Y137825D01*
X138468Y137736D01*
X138700Y137705D01*
X138932Y137736D01*
X139147Y137825D01*
X139333Y137967D01*
X139475Y138153D01*
X139564Y138368D01*
X139595Y138600D01*
X139564Y138832D01*
X139475Y139047D01*
X139333Y139233D01*
X139147Y139375D01*
X138932Y139464D01*
X138700Y139495D01*
D02*
G37*
G36*
Y135995D02*
X138468Y135964D01*
X138253Y135875D01*
X138067Y135733D01*
X137925Y135547D01*
X137836Y135332D01*
X137805Y135100D01*
X137836Y134869D01*
X137925Y134653D01*
X138067Y134467D01*
X138253Y134325D01*
X138468Y134236D01*
X138700Y134205D01*
X138932Y134236D01*
X139147Y134325D01*
X139333Y134467D01*
X139475Y134653D01*
X139564Y134869D01*
X139595Y135100D01*
X139564Y135332D01*
X139475Y135547D01*
X139333Y135733D01*
X139147Y135875D01*
X138932Y135964D01*
X138700Y135995D01*
D02*
G37*
G36*
X91473Y111693D02*
X90584D01*
Y110804D01*
X91473D01*
Y111693D01*
D02*
G37*
G36*
X85100Y111665D02*
X84868Y111634D01*
X84653Y111545D01*
X84467Y111403D01*
X84325Y111217D01*
X84236Y111002D01*
X84205Y110770D01*
X84236Y110539D01*
X84325Y110323D01*
X84467Y110137D01*
X84653Y109995D01*
X84868Y109906D01*
X85100Y109875D01*
X85332Y109906D01*
X85547Y109995D01*
X85733Y110137D01*
X85875Y110323D01*
X85964Y110539D01*
X85995Y110770D01*
X85964Y111002D01*
X85875Y111217D01*
X85733Y111403D01*
X85547Y111545D01*
X85332Y111634D01*
X85100Y111665D01*
D02*
G37*
G36*
X78030Y107495D02*
X77798Y107464D01*
X77583Y107375D01*
X77397Y107233D01*
X77255Y107047D01*
X77166Y106832D01*
X77135Y106600D01*
X77166Y106368D01*
X77255Y106153D01*
X77397Y105967D01*
X77583Y105825D01*
X77798Y105736D01*
X78030Y105705D01*
X78262Y105736D01*
X78477Y105825D01*
X78663Y105967D01*
X78805Y106153D01*
X78894Y106368D01*
X78925Y106600D01*
X78894Y106832D01*
X78805Y107047D01*
X78663Y107233D01*
X78477Y107375D01*
X78262Y107464D01*
X78030Y107495D01*
D02*
G37*
G36*
X91473Y112836D02*
X90584D01*
Y111947D01*
X91473D01*
Y112836D01*
D02*
G37*
G36*
X73679Y123275D02*
X72727D01*
Y122623D01*
X73679D01*
Y123275D01*
D02*
G37*
G36*
X72473D02*
X71521D01*
Y122623D01*
X72473D01*
Y123275D01*
D02*
G37*
G36*
X68416Y117813D02*
X67527D01*
Y116924D01*
X68416D01*
Y117813D01*
D02*
G37*
G36*
X112850Y145393D02*
Y144431D01*
X113262D01*
Y144879D01*
X113221Y145085D01*
X113104Y145260D01*
X112929Y145377D01*
X112850Y145393D01*
D02*
G37*
G36*
X112596D02*
X112517Y145377D01*
X112342Y145260D01*
X112225Y145085D01*
X112184Y144879D01*
Y144431D01*
X112596D01*
Y145393D01*
D02*
G37*
G36*
X118373Y152779D02*
X116123D01*
Y150529D01*
X118373D01*
Y152779D01*
D02*
G37*
G36*
X105728Y152989D02*
X105434Y152950D01*
X105161Y152837D01*
X104926Y152656D01*
X104745Y152421D01*
X104632Y152148D01*
X104593Y151854D01*
X104632Y151560D01*
X104745Y151287D01*
X104926Y151052D01*
X105161Y150871D01*
X105434Y150758D01*
X105471Y150753D01*
Y148864D01*
X105488Y148779D01*
Y147129D01*
X106381D01*
Y146345D01*
X106191Y146155D01*
X106136Y146072D01*
X106116Y145974D01*
Y145188D01*
X106085Y145167D01*
X105996Y145035D01*
X105965Y144879D01*
Y143729D01*
X105996Y143573D01*
X106085Y143441D01*
X106217Y143352D01*
X106332Y143329D01*
X106357Y143255D01*
X106360Y143199D01*
X106214Y143087D01*
X106092Y142928D01*
X106016Y142743D01*
X105990Y142545D01*
X106016Y142346D01*
X106092Y142162D01*
X106184Y142042D01*
X106132Y141915D01*
X90655D01*
X87405Y145165D01*
X87322Y145221D01*
X87224Y145240D01*
X83733D01*
X83680Y145367D01*
X84978Y146665D01*
X85168Y146586D01*
X85400Y146555D01*
X85632Y146586D01*
X85847Y146675D01*
X86033Y146817D01*
X86175Y147003D01*
X86264Y147218D01*
X86295Y147450D01*
X86264Y147682D01*
X86175Y147897D01*
X86033Y148083D01*
X85847Y148225D01*
X85632Y148314D01*
X85400Y148345D01*
X85168Y148314D01*
X84953Y148225D01*
X84767Y148083D01*
X84625Y147897D01*
X84536Y147682D01*
X84505Y147450D01*
X84536Y147218D01*
X84615Y147028D01*
X74418Y136832D01*
X74363Y136748D01*
X74343Y136650D01*
Y131888D01*
X74216Y131837D01*
X74094Y131931D01*
X73909Y132008D01*
X73711Y132034D01*
X73512Y132008D01*
X73328Y131931D01*
X73169Y131809D01*
X73047Y131650D01*
X72970Y131466D01*
X72944Y131267D01*
X72970Y131069D01*
X73047Y130884D01*
X73169Y130725D01*
X73328Y130603D01*
X73512Y130527D01*
X73711Y130501D01*
X73765Y130508D01*
X73860Y130424D01*
Y129464D01*
X73740Y129423D01*
X73733Y129433D01*
X73547Y129575D01*
X73332Y129664D01*
X73100Y129695D01*
X72868Y129664D01*
X72653Y129575D01*
X72467Y129433D01*
X72325Y129247D01*
X72236Y129032D01*
X72205Y128800D01*
X72236Y128568D01*
X72325Y128353D01*
X72467Y128167D01*
X72653Y128025D01*
X72868Y127936D01*
X73100Y127905D01*
X73183Y127916D01*
X73233Y127795D01*
X73169Y127745D01*
X73047Y127586D01*
X72970Y127402D01*
X72944Y127203D01*
X72970Y127005D01*
X73047Y126820D01*
X73169Y126661D01*
X73328Y126539D01*
X73512Y126463D01*
X73711Y126437D01*
X73909Y126463D01*
X74094Y126539D01*
X74216Y126633D01*
X74343Y126583D01*
Y121102D01*
X74250D01*
Y120984D01*
X73764D01*
X73715Y121034D01*
X73631Y121089D01*
X73550Y121106D01*
Y121502D01*
X71650D01*
Y121109D01*
X68172D01*
X68074Y121089D01*
X67991Y121034D01*
X66189Y119231D01*
X66133Y119148D01*
X66113Y119050D01*
Y112039D01*
X66133Y111941D01*
X66189Y111858D01*
X77544Y100502D01*
X77492Y100376D01*
X77465Y100178D01*
X77492Y99979D01*
X77568Y99794D01*
X77690Y99636D01*
X77849Y99514D01*
X78034Y99437D01*
X78232Y99411D01*
X78430Y99437D01*
X78615Y99514D01*
X78774Y99636D01*
X78896Y99794D01*
X78972Y99979D01*
X78999Y100178D01*
X78972Y100376D01*
X78896Y100561D01*
X78774Y100720D01*
X78615Y100841D01*
X78430Y100918D01*
X78232Y100944D01*
X78034Y100918D01*
X77907Y100866D01*
X66677Y112096D01*
X66685Y112135D01*
X66825Y112183D01*
X66953Y112085D01*
X67168Y111996D01*
X67400Y111965D01*
X67632Y111996D01*
X67847Y112085D01*
X68033Y112227D01*
X68175Y112413D01*
X68264Y112628D01*
X68295Y112860D01*
X68264Y113092D01*
X68175Y113307D01*
X68033Y113493D01*
X67847Y113635D01*
X67632Y113724D01*
X67400Y113755D01*
X67168Y113724D01*
X66953Y113635D01*
X66767Y113493D01*
X66747Y113467D01*
X66627Y113507D01*
Y114753D01*
X66747Y114793D01*
X66767Y114767D01*
X66953Y114625D01*
X67168Y114536D01*
X67400Y114505D01*
X67632Y114536D01*
X67847Y114625D01*
X68033Y114767D01*
X68175Y114953D01*
X68264Y115168D01*
X68295Y115400D01*
X68264Y115632D01*
X68175Y115847D01*
X68033Y116033D01*
X67847Y116175D01*
X67632Y116264D01*
X67400Y116295D01*
X67168Y116264D01*
X66953Y116175D01*
X66767Y116033D01*
X66747Y116007D01*
X66627Y116047D01*
Y116924D01*
X67273D01*
Y117940D01*
Y118956D01*
X66806D01*
X66757Y119073D01*
X68279Y120595D01*
X71650D01*
Y120202D01*
X73550D01*
Y120362D01*
X73658Y120470D01*
X73658Y120470D01*
X74228D01*
X74250Y120352D01*
Y120311D01*
X74228Y120184D01*
X73933D01*
X73835Y120164D01*
X73751Y120109D01*
X73427Y119784D01*
X73250D01*
Y119902D01*
X72550D01*
Y119368D01*
X72423Y119316D01*
X71965Y119773D01*
X71882Y119829D01*
X71784Y119848D01*
X68682D01*
X68583Y119829D01*
X68500Y119773D01*
X68072Y119345D01*
X68016Y119262D01*
X67997Y119163D01*
Y118956D01*
X67527D01*
Y118067D01*
X68416D01*
Y118367D01*
X68543Y118392D01*
X68577Y118311D01*
X68698Y118152D01*
X68857Y118030D01*
X69042Y117954D01*
X69240Y117928D01*
X69439Y117954D01*
X69624Y118030D01*
X69782Y118152D01*
X69904Y118311D01*
X69930Y118374D01*
X69981Y118374D01*
X70043Y118246D01*
X69999Y118188D01*
X69922Y118004D01*
X69896Y117805D01*
X69922Y117607D01*
X69999Y117422D01*
X70121Y117263D01*
X70280Y117141D01*
X70464Y117065D01*
X70663Y117039D01*
X70861Y117065D01*
X70988Y117117D01*
X71498Y116606D01*
X71426Y116499D01*
X71268Y116564D01*
X71069Y116591D01*
X70871Y116564D01*
X70686Y116488D01*
X70527Y116366D01*
X70405Y116207D01*
X70329Y116022D01*
X70303Y115824D01*
X70329Y115626D01*
X70405Y115441D01*
X70527Y115282D01*
X70686Y115160D01*
X70871Y115084D01*
X71069Y115057D01*
X71268Y115084D01*
X71394Y115136D01*
X72513Y114017D01*
X72596Y113961D01*
X72695Y113941D01*
X72695Y113941D01*
X89408D01*
X89506Y113961D01*
X89590Y114017D01*
X90631Y115058D01*
X90631Y115058D01*
X90687Y115141D01*
X90706Y115240D01*
X90706Y115240D01*
Y116355D01*
X90730Y116374D01*
X90903Y116352D01*
X90967Y116267D01*
X91153Y116125D01*
X91368Y116036D01*
X91600Y116005D01*
X91832Y116036D01*
X92047Y116125D01*
X92233Y116267D01*
X92250Y116290D01*
X92377Y116247D01*
Y115013D01*
X92250Y114970D01*
X92233Y114993D01*
X92047Y115135D01*
X91832Y115224D01*
X91600Y115255D01*
X91368Y115224D01*
X91153Y115135D01*
X90967Y114993D01*
X90825Y114807D01*
X90736Y114592D01*
X90705Y114360D01*
X90736Y114128D01*
X90825Y113913D01*
X90967Y113727D01*
X91153Y113585D01*
X91368Y113496D01*
X91600Y113465D01*
X91832Y113496D01*
X92047Y113585D01*
X92233Y113727D01*
X92250Y113750D01*
X92377Y113707D01*
Y112836D01*
X91727D01*
Y111820D01*
Y110804D01*
X92377D01*
Y110647D01*
X90217Y108487D01*
X85987D01*
Y109117D01*
X84213D01*
Y108487D01*
X76763D01*
X69878Y115371D01*
X69931Y115498D01*
X69957Y115696D01*
X69931Y115895D01*
X69854Y116080D01*
X69732Y116238D01*
X69574Y116360D01*
X69389Y116437D01*
X69190Y116463D01*
X68992Y116437D01*
X68807Y116360D01*
X68648Y116238D01*
X68526Y116080D01*
X68450Y115895D01*
X68424Y115696D01*
X68450Y115498D01*
X68526Y115313D01*
X68648Y115154D01*
X68807Y115032D01*
X68992Y114956D01*
X69190Y114930D01*
X69389Y114956D01*
X69515Y115008D01*
X76475Y108048D01*
X76558Y107993D01*
X76657Y107973D01*
X79265D01*
X79333Y107846D01*
X79315Y107820D01*
X79296Y107722D01*
Y101524D01*
X79315Y101425D01*
X79371Y101342D01*
X88693Y92020D01*
X88776Y91965D01*
X88875Y91945D01*
X109114D01*
Y90752D01*
X109144Y90605D01*
X109056Y90478D01*
X108497D01*
X108481Y90475D01*
X108409Y90529D01*
X108225Y90606D01*
X108026Y90632D01*
X107828Y90606D01*
X107643Y90529D01*
X107484Y90407D01*
X107362Y90248D01*
X107286Y90064D01*
X107260Y89865D01*
X107286Y89667D01*
X107362Y89482D01*
X107484Y89323D01*
X107643Y89201D01*
X107828Y89125D01*
X108026Y89099D01*
X108225Y89125D01*
X108409Y89201D01*
X108568Y89323D01*
X108690Y89482D01*
X108767Y89667D01*
X108793Y89865D01*
X108792Y89868D01*
X108876Y89964D01*
X109843D01*
Y87481D01*
X109863Y87382D01*
X109918Y87299D01*
X111172Y86045D01*
X111255Y85990D01*
X111354Y85970D01*
X115600D01*
Y85402D01*
X117900D01*
Y85476D01*
X118017Y85524D01*
X118964Y84578D01*
X119047Y84522D01*
X119145Y84503D01*
X122555D01*
X122653Y84522D01*
X122737Y84578D01*
X137265Y99107D01*
X137321Y99190D01*
X137341Y99289D01*
X137341Y99289D01*
Y116637D01*
X137321Y116735D01*
X137265Y116818D01*
X137265Y116818D01*
X136986Y117098D01*
X136903Y117154D01*
X136804Y117173D01*
X135433D01*
X135334Y117154D01*
X135251Y117098D01*
X134090Y115937D01*
X133963Y115989D01*
Y116516D01*
X133970Y116522D01*
X134025Y116606D01*
X134045Y116704D01*
X134045Y116704D01*
Y117804D01*
X134163D01*
Y118504D01*
X133490D01*
X133413Y118504D01*
X133286Y118504D01*
X132613D01*
Y117804D01*
X132613D01*
X132623Y117677D01*
X132380Y117434D01*
X131225D01*
Y117827D01*
X127775D01*
Y117434D01*
X127257D01*
Y132402D01*
X128450D01*
Y133129D01*
X128500Y133170D01*
X128875D01*
Y132302D01*
X131125D01*
Y134552D01*
X128875D01*
Y133684D01*
X128606D01*
X128450Y133840D01*
Y135852D01*
X127874D01*
X127826Y135969D01*
X128096Y136240D01*
X128107Y136244D01*
X128342Y136425D01*
X128523Y136660D01*
X128527Y136671D01*
X129403Y137547D01*
X129433Y137524D01*
X129706Y137411D01*
X130000Y137372D01*
X130294Y137411D01*
X130567Y137524D01*
X130802Y137705D01*
X130883Y137810D01*
X131010Y137767D01*
Y137341D01*
X130597Y136927D01*
X130567Y136950D01*
X130294Y137063D01*
X130000Y137102D01*
X129706Y137063D01*
X129433Y136950D01*
X129198Y136769D01*
X129017Y136534D01*
X128904Y136261D01*
X128865Y135967D01*
X128904Y135673D01*
X129017Y135400D01*
X129198Y135165D01*
X129433Y134984D01*
X129706Y134871D01*
X130000Y134832D01*
X130294Y134871D01*
X130567Y134984D01*
X130802Y135165D01*
X130983Y135400D01*
X131096Y135673D01*
X131135Y135967D01*
X131096Y136261D01*
X130983Y136534D01*
X130960Y136564D01*
X131449Y137053D01*
X131505Y137136D01*
X131524Y137234D01*
Y147447D01*
X131505Y147545D01*
X131449Y147629D01*
X129391Y149686D01*
X129308Y149742D01*
X129210Y149761D01*
X121514D01*
X121415Y149742D01*
X121332Y149686D01*
X120872Y149226D01*
X120755Y149275D01*
Y149717D01*
X121731Y150694D01*
X121761Y150671D01*
X122034Y150558D01*
X122328Y150519D01*
X122622Y150558D01*
X122895Y150671D01*
X123130Y150852D01*
X123311Y151087D01*
X123424Y151360D01*
X123463Y151654D01*
X123424Y151948D01*
X123311Y152221D01*
X123130Y152456D01*
X122895Y152637D01*
X122622Y152750D01*
X122328Y152789D01*
X122034Y152750D01*
X121761Y152637D01*
X121526Y152456D01*
X121345Y152221D01*
X121232Y151948D01*
X121193Y151654D01*
X121232Y151360D01*
X121345Y151087D01*
X121368Y151057D01*
X120316Y150005D01*
X120260Y149922D01*
X120241Y149824D01*
Y148682D01*
X120215Y148665D01*
X120088Y148733D01*
Y148779D01*
X117788D01*
Y148329D01*
X117753Y148211D01*
X117655Y148191D01*
X117572Y148136D01*
X116905Y147469D01*
X116788Y147518D01*
Y148779D01*
X114488D01*
Y147129D01*
X115178D01*
X115226Y147012D01*
X114688Y146473D01*
X114561Y146482D01*
X114535Y146516D01*
X114376Y146638D01*
X114191Y146714D01*
X113993Y146740D01*
X113795Y146714D01*
X113610Y146638D01*
X113451Y146516D01*
X113329Y146357D01*
X113253Y146172D01*
X113226Y145974D01*
X113253Y145775D01*
X113329Y145591D01*
X113451Y145432D01*
X113610Y145310D01*
X113659Y145290D01*
X113674Y145250D01*
X113687Y145141D01*
X113616Y145035D01*
X113585Y144879D01*
Y143729D01*
X113614Y143585D01*
X113607Y143559D01*
X113543Y143454D01*
X113416Y143438D01*
X113280Y143381D01*
X113195Y143484D01*
X113221Y143523D01*
X113262Y143729D01*
Y144177D01*
X112723D01*
X112184D01*
Y143729D01*
X112225Y143523D01*
X112336Y143356D01*
X112060Y143080D01*
X110338D01*
X110290Y143197D01*
X110365Y143272D01*
X110420Y143355D01*
X110432Y143414D01*
X110471Y143441D01*
X110560Y143573D01*
X110591Y143729D01*
Y144879D01*
X110560Y145035D01*
X110471Y145167D01*
X110339Y145256D01*
X110183Y145287D01*
X110027Y145256D01*
X109895Y145167D01*
X109806Y145035D01*
X109775Y144879D01*
Y143729D01*
X109804Y143586D01*
X109799Y143562D01*
X109730Y143459D01*
X109348D01*
X109300Y143550D01*
X109292Y143586D01*
X109321Y143729D01*
Y144879D01*
X109290Y145035D01*
X109201Y145167D01*
X109170Y145188D01*
Y145715D01*
X109670Y146215D01*
X109725Y146298D01*
X109745Y146396D01*
X109745Y146396D01*
Y147129D01*
X110638D01*
Y148779D01*
X109112D01*
X109069Y148906D01*
X109076Y148912D01*
X109198Y149070D01*
X109275Y149255D01*
X109301Y149454D01*
X109275Y149652D01*
X109198Y149837D01*
X109076Y149996D01*
X108917Y150117D01*
X108733Y150194D01*
X108534Y150220D01*
X108336Y150194D01*
X108151Y150117D01*
X107992Y149996D01*
X107870Y149837D01*
X107794Y149652D01*
X107768Y149454D01*
X107794Y149255D01*
X107870Y149070D01*
X107992Y148912D01*
X108151Y148790D01*
X108277Y148737D01*
Y147954D01*
X108297Y147856D01*
X108338Y147794D01*
Y147129D01*
X109231D01*
Y146503D01*
X108731Y146003D01*
X108676Y145920D01*
X108656Y145821D01*
Y145254D01*
X108597Y145204D01*
X108557Y145205D01*
X108450Y145234D01*
X108411Y145292D01*
X108081Y145622D01*
X107998Y145678D01*
X107899Y145697D01*
X107290D01*
X107191Y145678D01*
X107108Y145622D01*
X106757Y145271D01*
X106737Y145272D01*
X106630Y145312D01*
Y145867D01*
X106820Y146057D01*
X106875Y146141D01*
X106895Y146239D01*
Y147129D01*
X107788D01*
Y148779D01*
X106176D01*
X105985Y148971D01*
Y150753D01*
X106022Y150758D01*
X106295Y150871D01*
X106530Y151052D01*
X106711Y151287D01*
X106824Y151560D01*
X106863Y151854D01*
X106824Y152148D01*
X106711Y152421D01*
X106530Y152656D01*
X106295Y152837D01*
X106022Y152950D01*
X105728Y152989D01*
D02*
G37*
G36*
X119788Y152789D02*
X119494Y152750D01*
X119221Y152637D01*
X118986Y152456D01*
X118805Y152221D01*
X118692Y151948D01*
X118653Y151654D01*
X118692Y151360D01*
X118805Y151087D01*
X118986Y150852D01*
X119221Y150671D01*
X119494Y150558D01*
X119788Y150519D01*
X120082Y150558D01*
X120355Y150671D01*
X120590Y150852D01*
X120771Y151087D01*
X120884Y151360D01*
X120923Y151654D01*
X120884Y151948D01*
X120771Y152221D01*
X120590Y152456D01*
X120355Y152637D01*
X120082Y152750D01*
X119788Y152789D01*
D02*
G37*
G36*
X111648Y152889D02*
X111354Y152850D01*
X111081Y152737D01*
X110846Y152556D01*
X110665Y152321D01*
X110552Y152048D01*
X110513Y151754D01*
X110552Y151460D01*
X110665Y151187D01*
X110846Y150952D01*
X111081Y150771D01*
X111354Y150658D01*
X111648Y150619D01*
X111942Y150658D01*
X112215Y150771D01*
X112450Y150952D01*
X112631Y151187D01*
X112744Y151460D01*
X112783Y151754D01*
X112744Y152048D01*
X112631Y152321D01*
X112450Y152556D01*
X112215Y152737D01*
X111942Y152850D01*
X111648Y152889D01*
D02*
G37*
G36*
X103188Y152989D02*
X102894Y152950D01*
X102621Y152837D01*
X102386Y152656D01*
X102205Y152421D01*
X102092Y152148D01*
X102053Y151854D01*
X102092Y151560D01*
X102205Y151287D01*
X102386Y151052D01*
X102621Y150871D01*
X102894Y150758D01*
X103188Y150719D01*
X103482Y150758D01*
X103755Y150871D01*
X103990Y151052D01*
X104171Y151287D01*
X104284Y151560D01*
X104323Y151854D01*
X104284Y152148D01*
X104171Y152421D01*
X103990Y152656D01*
X103755Y152837D01*
X103482Y152950D01*
X103188Y152989D01*
D02*
G37*
G36*
X101773Y152979D02*
X99523D01*
Y150729D01*
X101773D01*
Y152979D01*
D02*
G37*
G36*
X104488Y148779D02*
X102188D01*
Y147129D01*
X102413D01*
X102475Y147002D01*
X102409Y146916D01*
X102333Y146731D01*
X102307Y146533D01*
X102333Y146334D01*
X102409Y146149D01*
X102531Y145991D01*
X102690Y145869D01*
X102875Y145792D01*
X103073Y145766D01*
X103272Y145792D01*
X103456Y145869D01*
X103466Y145876D01*
X103576Y145766D01*
Y145188D01*
X103545Y145167D01*
X103456Y145035D01*
X103425Y144879D01*
Y143729D01*
X103449Y143609D01*
X103330Y143555D01*
X103300Y143595D01*
X103141Y143717D01*
X102956Y143793D01*
X102758Y143819D01*
X102559Y143793D01*
X102374Y143717D01*
X102216Y143595D01*
X102094Y143436D01*
X102017Y143251D01*
X101991Y143053D01*
X102017Y142854D01*
X102094Y142670D01*
X102216Y142511D01*
X102374Y142389D01*
X102559Y142312D01*
X102758Y142286D01*
X102956Y142312D01*
X103141Y142389D01*
X103300Y142511D01*
X103421Y142670D01*
X103474Y142796D01*
X104900D01*
X104998Y142815D01*
X105081Y142871D01*
X105285Y143074D01*
X105340Y143158D01*
X105360Y143256D01*
Y143420D01*
X105391Y143441D01*
X105480Y143573D01*
X105511Y143729D01*
Y144879D01*
X105480Y145035D01*
X105391Y145167D01*
X105259Y145256D01*
X105103Y145287D01*
X104947Y145256D01*
X104815Y145167D01*
X104726Y145035D01*
X104695Y144879D01*
Y143729D01*
X104726Y143573D01*
X104815Y143441D01*
X104794Y143310D01*
X104793Y143310D01*
X104154D01*
X104116Y143437D01*
X104121Y143441D01*
X104210Y143573D01*
X104241Y143729D01*
Y144879D01*
X104210Y145035D01*
X104121Y145167D01*
X104090Y145188D01*
Y145872D01*
X104070Y145971D01*
X104015Y146054D01*
X103790Y146278D01*
X103814Y146334D01*
X103840Y146533D01*
X103814Y146731D01*
X103737Y146916D01*
X103671Y147002D01*
X103734Y147129D01*
X104488D01*
Y148779D01*
D02*
G37*
G36*
X110233Y152879D02*
X107983D01*
Y150629D01*
X110233D01*
Y152879D01*
D02*
G37*
G36*
X114188Y152889D02*
X113894Y152850D01*
X113621Y152737D01*
X113386Y152556D01*
X113205Y152321D01*
X113092Y152048D01*
X113053Y151754D01*
X113092Y151460D01*
X113205Y151187D01*
X113228Y151157D01*
X111271Y149201D01*
X111216Y149117D01*
X111196Y149019D01*
Y147726D01*
Y145188D01*
X111165Y145167D01*
X111076Y145035D01*
X111045Y144879D01*
Y143729D01*
X111076Y143573D01*
X111165Y143441D01*
X111297Y143352D01*
X111453Y143321D01*
X111609Y143352D01*
X111741Y143441D01*
X111830Y143573D01*
X111861Y143729D01*
Y144879D01*
X111830Y145035D01*
X111741Y145167D01*
X111710Y145188D01*
Y147129D01*
X113938D01*
Y148779D01*
X111710D01*
Y148913D01*
X113591Y150794D01*
X113621Y150771D01*
X113894Y150658D01*
X114188Y150619D01*
X114482Y150658D01*
X114755Y150771D01*
X114990Y150952D01*
X115171Y151187D01*
X115284Y151460D01*
X115323Y151754D01*
X115284Y152048D01*
X115171Y152321D01*
X114990Y152556D01*
X114755Y152737D01*
X114482Y152850D01*
X114188Y152889D01*
D02*
G37*
%LPD*%
G36*
X81546Y121454D02*
X82250D01*
Y121200D01*
X81546D01*
Y120398D01*
X81993D01*
Y119731D01*
X82013Y119632D01*
X82068Y119549D01*
X82238Y119379D01*
X82186Y119252D01*
X81350D01*
Y119174D01*
X81223Y119080D01*
X81204Y119084D01*
X80972D01*
X80950Y119202D01*
Y119252D01*
X80950D01*
Y120002D01*
X80857D01*
Y120447D01*
X80923Y120527D01*
X81125D01*
Y122019D01*
X81546D01*
Y121454D01*
D02*
G37*
G36*
X136115Y115800D02*
X136446D01*
Y114879D01*
X135463D01*
Y114029D01*
X135731D01*
Y113484D01*
X135751Y113386D01*
X135806Y113302D01*
X135931Y113178D01*
Y112726D01*
X135813Y112704D01*
X135763D01*
Y112704D01*
X135013D01*
Y112611D01*
X134063D01*
Y112704D01*
X133945D01*
Y113259D01*
X133925Y113357D01*
X133870Y113440D01*
X133695Y113615D01*
Y114029D01*
X133963D01*
Y114879D01*
X133963D01*
Y114979D01*
X133963D01*
Y115155D01*
X134019Y115167D01*
X134102Y115222D01*
X135217Y116337D01*
X135334Y116288D01*
Y115800D01*
X135861D01*
Y116354D01*
X136115D01*
Y115800D01*
D02*
G37*
G36*
X80250Y119252D02*
Y119202D01*
X80250D01*
Y118452D01*
X80950D01*
Y118570D01*
X81097D01*
X81181Y118515D01*
X81279Y118495D01*
X81350D01*
Y118252D01*
X81350D01*
X81335Y118131D01*
X81221D01*
Y117629D01*
X81900D01*
Y117375D01*
X81221D01*
Y116884D01*
X80594D01*
X80594Y116884D01*
X78375D01*
Y116977D01*
X78257D01*
Y117543D01*
X78998Y118284D01*
X79054Y118367D01*
X79070Y118450D01*
X79582D01*
Y119000D01*
X79582Y119000D01*
X79604Y119118D01*
X79680D01*
X79778Y119138D01*
X79861Y119193D01*
X80038Y119370D01*
X80228D01*
X80250Y119252D01*
D02*
G37*
G36*
X84888Y143063D02*
X85135Y142960D01*
X85143Y142959D01*
Y139553D01*
X85163Y139455D01*
X85218Y139371D01*
X87243Y137347D01*
Y132554D01*
X86221D01*
Y131727D01*
X87500D01*
Y131600D01*
X87627D01*
Y130646D01*
X88592D01*
Y116591D01*
X87752Y115751D01*
X85597D01*
X85548Y115868D01*
X86338Y116658D01*
X86394Y116742D01*
X86414Y116840D01*
Y129433D01*
X86540Y129486D01*
X86699Y129608D01*
X86821Y129766D01*
X86897Y129951D01*
X86923Y130150D01*
X86897Y130348D01*
X86826Y130519D01*
X86864Y130621D01*
X86876Y130646D01*
X87373D01*
Y131473D01*
X86221D01*
Y130972D01*
X86157Y130916D01*
X85958Y130890D01*
X85774Y130813D01*
X85615Y130692D01*
X85493Y130533D01*
X85416Y130348D01*
X85390Y130150D01*
X85416Y129951D01*
X85493Y129766D01*
X85615Y129608D01*
X85774Y129486D01*
X85900Y129433D01*
Y116946D01*
X85136Y116183D01*
X84875D01*
Y117177D01*
X84657D01*
Y118156D01*
X84682Y118181D01*
X84682Y118181D01*
X84737Y118264D01*
X84757Y118362D01*
Y119502D01*
X85050D01*
Y120368D01*
X85192D01*
X85290Y120387D01*
X85373Y120443D01*
X85429Y120526D01*
X85449Y120625D01*
Y126797D01*
X85449Y126797D01*
X85429Y126895D01*
X85373Y126978D01*
X85373Y126978D01*
X84154Y128198D01*
X84071Y128253D01*
X83972Y128273D01*
X83357D01*
Y132752D01*
X84435Y133830D01*
X84561Y133778D01*
X84760Y133752D01*
X84958Y133778D01*
X85143Y133855D01*
X85302Y133976D01*
X85424Y134135D01*
X85500Y134320D01*
X85526Y134518D01*
X85500Y134717D01*
X85424Y134902D01*
X85302Y135060D01*
X85143Y135182D01*
X84958Y135259D01*
X84760Y135285D01*
X84561Y135259D01*
X84377Y135182D01*
X84218Y135060D01*
X84096Y134902D01*
X84019Y134717D01*
X83993Y134518D01*
X84019Y134320D01*
X84072Y134194D01*
X82918Y133040D01*
X82863Y132957D01*
X82843Y132859D01*
Y128134D01*
X82750D01*
X82565Y128097D01*
X82528Y128073D01*
X82401Y128141D01*
Y140587D01*
X84881Y143068D01*
X84888Y143063D01*
D02*
G37*
G36*
X111196Y137691D02*
Y135888D01*
X111165Y135867D01*
X111076Y135735D01*
X111045Y135579D01*
Y134429D01*
X111076Y134273D01*
X111165Y134141D01*
X111297Y134052D01*
X111453Y134021D01*
X111609Y134052D01*
X111741Y134141D01*
X111808Y134240D01*
X111935Y134202D01*
Y133872D01*
X111247Y133184D01*
X109354D01*
Y133606D01*
X108852D01*
Y132927D01*
Y132248D01*
X109354D01*
Y132670D01*
X111354D01*
X111452Y132690D01*
X111535Y132745D01*
X112304Y133514D01*
X112432Y133467D01*
X112443Y133383D01*
X109010Y129949D01*
X91719D01*
X91621Y129930D01*
X91538Y129874D01*
X90268Y128604D01*
X90212Y128521D01*
X90192Y128422D01*
Y115346D01*
X89302Y114455D01*
X88696D01*
X88647Y114573D01*
X89691Y115617D01*
X89747Y115700D01*
X89767Y115799D01*
Y130775D01*
X91950D01*
Y131343D01*
X101526D01*
X101625Y131363D01*
X101708Y131418D01*
X102760Y132470D01*
X103625D01*
Y132377D01*
X104298D01*
X104375Y132377D01*
X104453D01*
X104543Y132287D01*
Y131933D01*
X104417Y131880D01*
X104258Y131758D01*
X104136Y131600D01*
X104060Y131415D01*
X104033Y131216D01*
X104060Y131018D01*
X104136Y130833D01*
X104258Y130674D01*
X104417Y130553D01*
X104602Y130476D01*
X104800Y130450D01*
X104998Y130476D01*
X105183Y130553D01*
X105342Y130674D01*
X105464Y130833D01*
X105540Y131018D01*
X105567Y131216D01*
X105540Y131415D01*
X105464Y131600D01*
X105342Y131758D01*
X105183Y131880D01*
X105057Y131933D01*
Y132377D01*
X105175D01*
Y132470D01*
X106020D01*
X106118Y132490D01*
X106201Y132545D01*
X106326Y132670D01*
X106975D01*
Y132377D01*
X107969D01*
X107975Y132377D01*
X108096Y132363D01*
Y132248D01*
X108598D01*
Y132927D01*
Y133606D01*
X108096D01*
Y133492D01*
X107975Y133477D01*
X107969Y133477D01*
X106975D01*
Y133184D01*
X106220D01*
X106121Y133164D01*
X106038Y133109D01*
X105913Y132984D01*
X105175D01*
Y133077D01*
X104502D01*
X104425Y133077D01*
X104347D01*
X104257Y133167D01*
Y133782D01*
X104237Y133880D01*
X104182Y133963D01*
X104136Y134009D01*
X104121Y134141D01*
X104210Y134273D01*
X104241Y134429D01*
Y135579D01*
X104225Y135660D01*
X104304Y135793D01*
X104316Y135800D01*
X104389Y135810D01*
X104574Y135887D01*
X104648Y135943D01*
X104719Y135938D01*
X104794Y135896D01*
X104803Y135849D01*
X104726Y135735D01*
X104695Y135579D01*
Y134429D01*
X104726Y134273D01*
X104815Y134141D01*
X104947Y134052D01*
X105103Y134021D01*
X105259Y134052D01*
X105391Y134141D01*
X105480Y134273D01*
X105511Y134429D01*
Y135579D01*
X105480Y135735D01*
X105391Y135867D01*
X105360Y135888D01*
Y137350D01*
X105487Y137403D01*
X106116Y136774D01*
Y135888D01*
X106085Y135867D01*
X105996Y135735D01*
X105965Y135579D01*
Y134429D01*
X105996Y134273D01*
X106085Y134141D01*
X106217Y134052D01*
X106373Y134021D01*
X106529Y134052D01*
X106661Y134141D01*
X106750Y134273D01*
X106781Y134429D01*
Y135579D01*
X106750Y135735D01*
X106661Y135867D01*
X106630Y135888D01*
Y136880D01*
X106610Y136978D01*
X106555Y137062D01*
X105411Y138205D01*
X105328Y138261D01*
X105229Y138281D01*
X102519D01*
X102467Y138407D01*
X102345Y138566D01*
X102186Y138687D01*
X102094Y138726D01*
X102119Y138853D01*
X108635D01*
X108938Y138550D01*
X108878Y138430D01*
X108717Y138408D01*
X108532Y138332D01*
X108373Y138210D01*
X108251Y138051D01*
X108175Y137866D01*
X108149Y137668D01*
X108172Y137493D01*
X108120Y137447D01*
X108058Y137420D01*
X108028Y137443D01*
X107844Y137519D01*
X107645Y137546D01*
X107447Y137519D01*
X107262Y137443D01*
X107103Y137321D01*
X106981Y137162D01*
X106905Y136977D01*
X106879Y136779D01*
X106905Y136581D01*
X106981Y136396D01*
X107103Y136237D01*
X107262Y136115D01*
X107386Y136064D01*
Y135888D01*
X107355Y135867D01*
X107266Y135735D01*
X107235Y135579D01*
Y134429D01*
X107266Y134273D01*
X107355Y134141D01*
X107487Y134052D01*
X107643Y134021D01*
X107799Y134052D01*
X107931Y134141D01*
X108020Y134273D01*
X108051Y134429D01*
Y135579D01*
X108020Y135735D01*
X107931Y135867D01*
X107900Y135888D01*
Y136062D01*
X108028Y136115D01*
X108187Y136237D01*
X108309Y136396D01*
X108386Y136581D01*
X108412Y136779D01*
X108389Y136954D01*
X108440Y137000D01*
X108503Y137027D01*
X108532Y137004D01*
X108656Y136953D01*
Y135888D01*
X108625Y135867D01*
X108536Y135735D01*
X108505Y135579D01*
Y134429D01*
X108536Y134273D01*
X108625Y134141D01*
X108757Y134052D01*
X108913Y134021D01*
X109069Y134052D01*
X109201Y134141D01*
X109290Y134273D01*
X109321Y134429D01*
Y135579D01*
X109290Y135735D01*
X109201Y135867D01*
X109170Y135888D01*
Y136951D01*
X109298Y137004D01*
X109457Y137126D01*
X109579Y137285D01*
X109656Y137470D01*
X109677Y137631D01*
X109797Y137690D01*
X109926Y137562D01*
Y135888D01*
X109895Y135867D01*
X109806Y135735D01*
X109775Y135579D01*
Y134429D01*
X109806Y134273D01*
X109895Y134141D01*
X110027Y134052D01*
X110183Y134021D01*
X110339Y134052D01*
X110471Y134141D01*
X110560Y134273D01*
X110591Y134429D01*
Y135579D01*
X110560Y135735D01*
X110471Y135867D01*
X110440Y135888D01*
Y137668D01*
X110420Y137766D01*
X110365Y137850D01*
X108923Y139291D01*
X108886Y139316D01*
X108925Y139443D01*
X109444D01*
X111196Y137691D01*
D02*
G37*
G36*
X84935Y126690D02*
Y121881D01*
X84627D01*
Y121252D01*
X84373D01*
Y121881D01*
X83821D01*
Y121509D01*
X82954D01*
Y122256D01*
X82507D01*
Y122276D01*
X82487Y122374D01*
X82432Y122457D01*
X82401Y122478D01*
Y124860D01*
X82528Y124927D01*
X82565Y124903D01*
X82750Y124866D01*
X83450D01*
X83635Y124903D01*
X83792Y125008D01*
X83897Y125165D01*
X83934Y125350D01*
Y127511D01*
X84061Y127564D01*
X84935Y126690D01*
D02*
G37*
G36*
X127256Y149120D02*
X127138Y149029D01*
X126957Y148794D01*
X126844Y148521D01*
X126805Y148227D01*
X126844Y147933D01*
X126957Y147660D01*
X127138Y147425D01*
X127373Y147244D01*
X127646Y147131D01*
X127683Y147126D01*
Y143026D01*
X127358Y142701D01*
X127303Y142618D01*
X127283Y142519D01*
Y138328D01*
X127246Y138323D01*
X126973Y138210D01*
X126943Y138187D01*
X126468Y138662D01*
X126385Y138718D01*
X126286Y138738D01*
X119962D01*
X119864Y138718D01*
X119780Y138662D01*
X118891Y137773D01*
X118836Y137690D01*
X118816Y137592D01*
Y135888D01*
X118785Y135867D01*
X118696Y135735D01*
X118665Y135579D01*
Y134429D01*
X118696Y134273D01*
X118785Y134141D01*
X118917Y134052D01*
X119073Y134021D01*
X119229Y134052D01*
X119361Y134141D01*
X119450Y134273D01*
X119481Y134429D01*
Y135579D01*
X119450Y135735D01*
X119361Y135867D01*
X119330Y135888D01*
Y137485D01*
X120068Y138224D01*
X121335D01*
Y136102D01*
X123585D01*
Y138224D01*
X124242D01*
X124286Y138097D01*
X124198Y138029D01*
X124017Y137794D01*
X123904Y137521D01*
X123865Y137227D01*
X123904Y136933D01*
X124017Y136660D01*
X124198Y136425D01*
X124433Y136244D01*
X124706Y136131D01*
X125000Y136092D01*
X125294Y136131D01*
X125567Y136244D01*
X125802Y136425D01*
X125983Y136660D01*
X126096Y136933D01*
X126135Y137227D01*
X126096Y137521D01*
X125983Y137794D01*
X125802Y138029D01*
X125714Y138097D01*
X125758Y138224D01*
X126180D01*
X126580Y137824D01*
X126557Y137794D01*
X126444Y137521D01*
X126405Y137227D01*
X126444Y136933D01*
X126557Y136660D01*
X126738Y136425D01*
X126850Y136338D01*
X126839Y136187D01*
X126818Y136173D01*
X126763Y136090D01*
X126743Y135992D01*
Y117202D01*
X126763Y117104D01*
X126818Y117021D01*
X126844Y116995D01*
X126927Y116940D01*
X127025Y116920D01*
X127775D01*
Y116527D01*
X131225D01*
Y116920D01*
X132486D01*
X132585Y116940D01*
X132668Y116995D01*
X133170Y117497D01*
X133225Y117580D01*
X133245Y117679D01*
Y117714D01*
X133335Y117804D01*
X133441D01*
X133531Y117714D01*
Y116810D01*
X133500Y116779D01*
X132913D01*
Y115956D01*
X132913Y115929D01*
Y115829D01*
X132913Y115802D01*
Y114979D01*
X132913D01*
Y114879D01*
X132913D01*
Y114029D01*
X133181D01*
Y113509D01*
X133201Y113410D01*
X133256Y113327D01*
X133431Y113152D01*
Y112944D01*
X133392Y112833D01*
X133015D01*
Y112354D01*
X132888D01*
Y112227D01*
X132384D01*
Y111875D01*
X132384D01*
X132390Y111748D01*
X132381Y111734D01*
X131354D01*
Y112256D01*
X129627D01*
Y111477D01*
X129373D01*
Y112256D01*
X128007D01*
X118060Y122203D01*
Y133965D01*
X118184Y134048D01*
X118301Y134223D01*
X118342Y134429D01*
Y134877D01*
X117803D01*
X117264D01*
Y134429D01*
X117305Y134223D01*
X117422Y134048D01*
X117546Y133965D01*
Y122096D01*
X117566Y121998D01*
X117621Y121915D01*
X127646Y111890D01*
Y111734D01*
X126158D01*
X126158Y111734D01*
X126158Y111734D01*
X123850D01*
X123752Y111714D01*
X123669Y111659D01*
X121357Y109347D01*
X121302Y109264D01*
X121282Y109166D01*
Y106964D01*
X121175Y106857D01*
X81586D01*
Y107616D01*
X80697D01*
Y106600D01*
Y105584D01*
X81586D01*
Y106343D01*
X121281D01*
X121282Y106342D01*
Y87181D01*
X120177D01*
Y86227D01*
Y85273D01*
X121329D01*
Y86085D01*
X121721Y86477D01*
X121776Y86560D01*
X121796Y86659D01*
Y106751D01*
X126265Y111220D01*
X127646D01*
Y110698D01*
X129232D01*
Y105435D01*
X129252Y105337D01*
X129308Y105254D01*
X130679Y103882D01*
X130762Y103826D01*
X130861Y103807D01*
X135153D01*
X135252Y103826D01*
X135335Y103882D01*
X136710Y105257D01*
X136827Y105208D01*
Y99395D01*
X122449Y85017D01*
X119252D01*
X119113Y85156D01*
X119161Y85273D01*
X119923D01*
Y86227D01*
Y87181D01*
X119281D01*
Y89571D01*
X119473Y89650D01*
X119658Y89793D01*
X119801Y89979D01*
X119891Y90195D01*
X119904Y90300D01*
X118144D01*
X118158Y90195D01*
X118248Y89979D01*
X118390Y89793D01*
X118576Y89650D01*
X118767Y89571D01*
Y86227D01*
X118771Y86209D01*
Y85663D01*
X118654Y85615D01*
X117900Y86368D01*
Y87052D01*
X115600D01*
Y86484D01*
X111460D01*
X110357Y87587D01*
Y90191D01*
X110525D01*
X110740Y90234D01*
X110922Y90355D01*
X111043Y90537D01*
X111086Y90752D01*
Y93702D01*
X111043Y93917D01*
X110922Y94099D01*
X110740Y94220D01*
X110525Y94263D01*
X109675D01*
X109460Y94220D01*
X109278Y94099D01*
X109157Y93917D01*
X109114Y93702D01*
Y92459D01*
X107156D01*
X107112Y92586D01*
X107197Y92651D01*
X107318Y92809D01*
X107395Y92994D01*
X107421Y93193D01*
X107395Y93391D01*
X107343Y93517D01*
X108463Y94637D01*
X112034D01*
X112087Y94511D01*
X112209Y94352D01*
X112367Y94231D01*
X112552Y94154D01*
X112751Y94128D01*
X112949Y94154D01*
X113134Y94231D01*
X113293Y94352D01*
X113414Y94511D01*
X113491Y94696D01*
X113517Y94894D01*
X113491Y95093D01*
X113414Y95278D01*
X113293Y95436D01*
X113134Y95558D01*
X112949Y95635D01*
X112751Y95661D01*
X112552Y95635D01*
X112367Y95558D01*
X112209Y95436D01*
X112087Y95278D01*
X112034Y95151D01*
X108356D01*
X108258Y95132D01*
X108175Y95076D01*
X106979Y93881D01*
X106853Y93933D01*
X106655Y93959D01*
X106456Y93933D01*
X106271Y93856D01*
X106113Y93735D01*
X105991Y93576D01*
X105914Y93391D01*
X105888Y93193D01*
X105914Y92994D01*
X105991Y92809D01*
X106113Y92651D01*
X106197Y92586D01*
X106154Y92459D01*
X88981D01*
X79810Y101630D01*
Y105584D01*
X80443D01*
Y106600D01*
Y107616D01*
X79976D01*
X79927Y107733D01*
X80167Y107973D01*
X84213D01*
Y107343D01*
X85987D01*
Y107973D01*
X90323D01*
X90421Y107993D01*
X90505Y108048D01*
X92815Y110359D01*
X92871Y110442D01*
X92891Y110541D01*
X92891Y110541D01*
Y120946D01*
X92871Y121045D01*
X92815Y121128D01*
X92385Y121558D01*
X92464Y121748D01*
X92495Y121980D01*
X92464Y122212D01*
X92375Y122427D01*
X92233Y122613D01*
X92047Y122755D01*
X91832Y122844D01*
X91600Y122875D01*
X91368Y122844D01*
X91153Y122755D01*
X90967Y122613D01*
X90903Y122528D01*
X90730Y122506D01*
X90706Y122525D01*
Y128316D01*
X91826Y129435D01*
X109116D01*
X109215Y129455D01*
X109298Y129511D01*
X112905Y133118D01*
X112960Y133201D01*
X112980Y133299D01*
Y134120D01*
X113011Y134141D01*
X113100Y134273D01*
X113131Y134429D01*
Y135579D01*
X113100Y135735D01*
X113090Y135750D01*
X113150Y135862D01*
X113405D01*
X113485Y135735D01*
X113454Y135579D01*
Y135131D01*
X113993D01*
X114532D01*
Y135579D01*
X114491Y135785D01*
X114374Y135960D01*
X114250Y136044D01*
Y136119D01*
X114230Y136217D01*
X114175Y136300D01*
X114091Y136356D01*
X113993Y136376D01*
X112192D01*
X112093Y136356D01*
X112010Y136300D01*
X111954Y136217D01*
X111935Y136119D01*
Y135806D01*
X111808Y135768D01*
X111741Y135867D01*
X111710Y135888D01*
Y137797D01*
X111690Y137896D01*
X111635Y137979D01*
X109732Y139882D01*
X109649Y139937D01*
X109550Y139957D01*
X90221D01*
X90122Y139937D01*
X90039Y139882D01*
X88668Y138510D01*
X88612Y138427D01*
X88592Y138328D01*
Y132554D01*
X87757D01*
Y137453D01*
X87737Y137551D01*
X87682Y137635D01*
X87682Y137635D01*
X85657Y139659D01*
Y142959D01*
X85665Y142960D01*
X85912Y143063D01*
X86125Y143225D01*
X86287Y143438D01*
X86390Y143685D01*
X86408Y143823D01*
X85400D01*
X84392D01*
X84410Y143685D01*
X84513Y143438D01*
X84518Y143431D01*
X81962Y140875D01*
X81906Y140792D01*
X81887Y140694D01*
Y122533D01*
X79783D01*
X79685Y122513D01*
X79602Y122457D01*
X79546Y122374D01*
X79536Y122322D01*
X79410Y122338D01*
X79550Y124786D01*
X79967Y125203D01*
X80091Y125180D01*
X80105Y125162D01*
X80208Y125008D01*
X80365Y124903D01*
X80550Y124866D01*
X81250D01*
X81435Y124903D01*
X81592Y125008D01*
X81697Y125165D01*
X81734Y125350D01*
Y127650D01*
X81697Y127835D01*
X81592Y127992D01*
X81435Y128097D01*
X81250Y128134D01*
X80550D01*
X80365Y128097D01*
X80208Y127992D01*
X80103Y127835D01*
X80066Y127650D01*
Y126029D01*
X79117Y125081D01*
X79093Y125045D01*
X79067Y125011D01*
X79066Y125003D01*
X79061Y124997D01*
X79053Y124955D01*
X79042Y124914D01*
X79011Y124366D01*
X78881Y124326D01*
X78850Y124367D01*
X78691Y124489D01*
X78565Y124541D01*
Y139594D01*
X83698Y144726D01*
X84555D01*
X84618Y144599D01*
X84513Y144462D01*
X84410Y144215D01*
X84392Y144077D01*
X85400D01*
X86408D01*
X86390Y144215D01*
X86287Y144462D01*
X86182Y144599D01*
X86245Y144726D01*
X87117D01*
X90367Y141476D01*
X90451Y141420D01*
X90549Y141401D01*
X90549Y141401D01*
X112005D01*
X115006Y138400D01*
Y135888D01*
X114975Y135867D01*
X114886Y135735D01*
X114855Y135579D01*
Y134429D01*
X114886Y134273D01*
X114975Y134141D01*
X115089Y134064D01*
X115086Y133991D01*
X115068Y133937D01*
X114531D01*
X114393Y134075D01*
X114491Y134223D01*
X114532Y134429D01*
Y134877D01*
X113993D01*
X113454D01*
Y134429D01*
X113495Y134223D01*
X113612Y134048D01*
X113787Y133931D01*
X113817Y133925D01*
X114243Y133499D01*
X114326Y133443D01*
X114425Y133423D01*
X115468D01*
X115567Y133443D01*
X115650Y133499D01*
X116082Y133930D01*
X116138Y134014D01*
X116148Y134064D01*
X116153Y134069D01*
X116276Y134045D01*
Y132085D01*
X116149Y131973D01*
X116076Y131983D01*
X115877Y131957D01*
X115693Y131880D01*
X115534Y131758D01*
X115412Y131600D01*
X115335Y131415D01*
X115309Y131216D01*
X115335Y131018D01*
X115412Y130833D01*
X115534Y130674D01*
X115693Y130553D01*
X115877Y130476D01*
X116076Y130450D01*
X116274Y130476D01*
X116459Y130553D01*
X116618Y130674D01*
X116740Y130833D01*
X116816Y131018D01*
X116842Y131216D01*
X116816Y131415D01*
X116758Y131556D01*
X116770Y131575D01*
X116790Y131674D01*
Y134120D01*
X116821Y134141D01*
X116910Y134273D01*
X116941Y134429D01*
Y135579D01*
X116910Y135735D01*
X116821Y135867D01*
X116689Y135956D01*
X116666Y135960D01*
X116624Y136098D01*
X117055Y136529D01*
X117472Y136112D01*
X117459Y135986D01*
X117422Y135960D01*
X117305Y135785D01*
X117264Y135579D01*
Y135131D01*
X117803D01*
X118342D01*
Y135579D01*
X118301Y135785D01*
X118184Y135960D01*
X118060Y136044D01*
Y136144D01*
X118060Y136144D01*
X118060Y136144D01*
Y143180D01*
Y143264D01*
X118184Y143348D01*
X118301Y143523D01*
X118342Y143729D01*
Y144177D01*
X117803D01*
X117264D01*
Y143729D01*
X117305Y143523D01*
X117422Y143348D01*
X117450Y143329D01*
X117462Y143202D01*
X116327Y142067D01*
X114238D01*
X114186Y142194D01*
X114278Y142314D01*
X114355Y142499D01*
X114381Y142697D01*
X114365Y142818D01*
X114462Y142945D01*
X114726D01*
X114825Y142965D01*
X114908Y143020D01*
X115218Y143330D01*
X115263Y143321D01*
X115419Y143352D01*
X115551Y143441D01*
X115640Y143573D01*
X115671Y143729D01*
Y144879D01*
X115640Y145035D01*
X115551Y145167D01*
X115419Y145256D01*
X115263Y145287D01*
X115107Y145256D01*
X114975Y145167D01*
X114886Y145035D01*
X114855Y144879D01*
Y143729D01*
X114861Y143700D01*
X114620Y143459D01*
X114428D01*
X114380Y143550D01*
X114372Y143586D01*
X114401Y143729D01*
Y144879D01*
X114370Y145035D01*
X114299Y145141D01*
X114312Y145250D01*
X114327Y145290D01*
X114376Y145310D01*
X114535Y145432D01*
X114657Y145591D01*
X114733Y145775D01*
X114736Y145795D01*
X115828Y146887D01*
X115884Y146970D01*
X115903Y147068D01*
Y147129D01*
X116399D01*
X116448Y147012D01*
X116351Y146915D01*
X116296Y146832D01*
X116276Y146734D01*
Y145188D01*
X116245Y145167D01*
X116156Y145035D01*
X116125Y144879D01*
Y143729D01*
X116156Y143573D01*
X116245Y143441D01*
X116377Y143352D01*
X116533Y143321D01*
X116689Y143352D01*
X116821Y143441D01*
X116910Y143573D01*
X116941Y143729D01*
Y144879D01*
X116910Y145035D01*
X116821Y145167D01*
X116790Y145188D01*
Y146627D01*
X117671Y147508D01*
X117788Y147459D01*
Y147129D01*
X120088D01*
Y147734D01*
X120145Y147772D01*
X120679Y148307D01*
X121608Y149235D01*
X121735Y149218D01*
Y147102D01*
X123985D01*
Y149247D01*
X124673D01*
X124716Y149120D01*
X124598Y149029D01*
X124417Y148794D01*
X124304Y148521D01*
X124265Y148227D01*
X124304Y147933D01*
X124417Y147660D01*
X124598Y147425D01*
X124833Y147244D01*
X125106Y147131D01*
X125400Y147092D01*
X125694Y147131D01*
X125967Y147244D01*
X126202Y147425D01*
X126383Y147660D01*
X126496Y147933D01*
X126535Y148227D01*
X126496Y148521D01*
X126383Y148794D01*
X126202Y149029D01*
X126084Y149120D01*
X126127Y149247D01*
X127213D01*
X127256Y149120D01*
D02*
G37*
%LPC*%
G36*
X117676Y145393D02*
X117597Y145377D01*
X117422Y145260D01*
X117305Y145085D01*
X117264Y144879D01*
Y144431D01*
X117676D01*
Y145393D01*
D02*
G37*
G36*
X108400Y124589D02*
X107590Y124549D01*
X106788Y124430D01*
X106002Y124233D01*
X105238Y123960D01*
X104505Y123613D01*
X103810Y123197D01*
X103159Y122714D01*
X102558Y122169D01*
X102013Y121568D01*
X101530Y120917D01*
X101114Y120222D01*
X100767Y119489D01*
X100494Y118725D01*
X100297Y117939D01*
X100178Y117137D01*
X100138Y116327D01*
X100178Y115517D01*
X100297Y114715D01*
X100494Y113929D01*
X100767Y113165D01*
X101114Y112432D01*
X101530Y111737D01*
X102013Y111086D01*
X102558Y110485D01*
X103159Y109940D01*
X103810Y109457D01*
X104505Y109041D01*
X105238Y108694D01*
X106002Y108421D01*
X106788Y108224D01*
X107590Y108105D01*
X108400Y108065D01*
X109210Y108105D01*
X110012Y108224D01*
X110798Y108421D01*
X111562Y108694D01*
X112295Y109041D01*
X112990Y109457D01*
X113641Y109940D01*
X114242Y110485D01*
X114787Y111086D01*
X115270Y111737D01*
X115686Y112432D01*
X116033Y113165D01*
X116306Y113929D01*
X116503Y114715D01*
X116622Y115517D01*
X116662Y116327D01*
X116622Y117137D01*
X116503Y117939D01*
X116306Y118725D01*
X116033Y119489D01*
X115686Y120222D01*
X115270Y120917D01*
X114787Y121568D01*
X114242Y122169D01*
X113641Y122714D01*
X112990Y123197D01*
X112295Y123613D01*
X111562Y123960D01*
X110798Y124233D01*
X110012Y124430D01*
X109210Y124549D01*
X108400Y124589D01*
D02*
G37*
G36*
X119151Y91307D02*
Y90554D01*
X119904D01*
X119891Y90659D01*
X119801Y90875D01*
X119658Y91061D01*
X119473Y91204D01*
X119256Y91293D01*
X119151Y91307D01*
D02*
G37*
G36*
X122301Y146182D02*
X122103Y146155D01*
X121918Y146079D01*
X121759Y145957D01*
X121637Y145798D01*
X121585Y145672D01*
X120343D01*
X120245Y145652D01*
X120161Y145597D01*
X120106Y145513D01*
X120086Y145415D01*
Y145188D01*
X120055Y145167D01*
X119966Y145035D01*
X119935Y144879D01*
Y143729D01*
X119942Y143694D01*
X119825Y143631D01*
X119481Y143976D01*
Y144879D01*
X119450Y145035D01*
X119361Y145167D01*
X119229Y145256D01*
X119073Y145287D01*
X118917Y145256D01*
X118785Y145167D01*
X118696Y145035D01*
X118665Y144879D01*
Y143729D01*
X118696Y143573D01*
X118785Y143441D01*
X118917Y143352D01*
X119073Y143321D01*
X119229Y143352D01*
X119318Y143412D01*
X119859Y142871D01*
X119942Y142815D01*
X120040Y142796D01*
X120548D01*
X120647Y142815D01*
X120730Y142871D01*
X121087Y143228D01*
X121214Y143176D01*
X121412Y143150D01*
X121610Y143176D01*
X121795Y143253D01*
X121954Y143374D01*
X122076Y143533D01*
X122152Y143718D01*
X122179Y143916D01*
X122152Y144115D01*
X122076Y144300D01*
X121954Y144458D01*
X121795Y144580D01*
X121610Y144657D01*
X121412Y144683D01*
X121214Y144657D01*
X121029Y144580D01*
X120878Y144464D01*
X120825Y144474D01*
X120751Y144499D01*
Y144879D01*
X120721Y145031D01*
X120717Y145054D01*
X120787Y145158D01*
X121585D01*
X121637Y145032D01*
X121759Y144873D01*
X121918Y144751D01*
X122103Y144675D01*
X122301Y144648D01*
X122499Y144675D01*
X122684Y144751D01*
X122843Y144873D01*
X122965Y145032D01*
X123041Y145217D01*
X123068Y145415D01*
X123041Y145613D01*
X122965Y145798D01*
X122843Y145957D01*
X122684Y146079D01*
X122499Y146155D01*
X122301Y146182D01*
D02*
G37*
G36*
X115800Y96550D02*
X115602Y96524D01*
X115417Y96447D01*
X115258Y96325D01*
X115136Y96167D01*
X115060Y95982D01*
X115033Y95783D01*
X115060Y95585D01*
X115136Y95400D01*
X115258Y95241D01*
X115417Y95120D01*
X115543Y95067D01*
Y94263D01*
X115375D01*
X115160Y94220D01*
X114978Y94099D01*
X114857Y93917D01*
X114814Y93702D01*
Y90752D01*
X114857Y90537D01*
X114978Y90355D01*
X115160Y90234D01*
X115375Y90191D01*
X116225D01*
X116440Y90234D01*
X116621Y90355D01*
X116743Y90537D01*
X116786Y90752D01*
Y93702D01*
X116743Y93917D01*
X116621Y94099D01*
X116440Y94220D01*
X116225Y94263D01*
X116057D01*
Y95067D01*
X116183Y95120D01*
X116342Y95241D01*
X116464Y95400D01*
X116540Y95585D01*
X116567Y95783D01*
X116540Y95982D01*
X116464Y96167D01*
X116342Y96325D01*
X116183Y96447D01*
X115998Y96524D01*
X115800Y96550D01*
D02*
G37*
G36*
X118897Y91307D02*
X118792Y91293D01*
X118576Y91204D01*
X118390Y91061D01*
X118248Y90875D01*
X118158Y90659D01*
X118144Y90554D01*
X118897D01*
Y91307D01*
D02*
G37*
G36*
X120343Y135987D02*
X120187Y135956D01*
X120055Y135867D01*
X119966Y135735D01*
X119935Y135579D01*
Y134429D01*
X119966Y134273D01*
X120055Y134141D01*
X120187Y134052D01*
X120343Y134021D01*
X120499Y134052D01*
X120631Y134141D01*
X120661Y134184D01*
X120787Y134197D01*
X121038Y133945D01*
X121122Y133890D01*
X121220Y133870D01*
X121220Y133870D01*
X121450D01*
Y132402D01*
X122750D01*
Y135852D01*
X121450D01*
Y134392D01*
X121323Y134387D01*
X120751Y134960D01*
Y135579D01*
X120720Y135735D01*
X120631Y135867D01*
X120499Y135956D01*
X120343Y135987D01*
D02*
G37*
G36*
X132761Y112833D02*
X132384D01*
Y112481D01*
X132761D01*
Y112833D01*
D02*
G37*
G36*
X108300Y128590D02*
X107973Y128547D01*
X107669Y128421D01*
X107407Y128220D01*
X107206Y127958D01*
X107080Y127654D01*
X107037Y127327D01*
X107080Y127000D01*
X107206Y126696D01*
X107407Y126434D01*
X107669Y126233D01*
X107973Y126107D01*
X108300Y126064D01*
X108627Y126107D01*
X108931Y126233D01*
X109193Y126434D01*
X109394Y126696D01*
X109520Y127000D01*
X109563Y127327D01*
X109520Y127654D01*
X109394Y127958D01*
X109193Y128220D01*
X108931Y128421D01*
X108627Y128547D01*
X108300Y128590D01*
D02*
G37*
G36*
X98774Y112090D02*
X98447Y112047D01*
X98142Y111921D01*
X97881Y111720D01*
X97680Y111458D01*
X97554Y111154D01*
X97511Y110827D01*
X97554Y110500D01*
X97680Y110196D01*
X97881Y109934D01*
X98142Y109733D01*
X98447Y109607D01*
X98774Y109564D01*
X99101Y109607D01*
X99405Y109733D01*
X99667Y109934D01*
X99867Y110196D01*
X99993Y110500D01*
X100037Y110827D01*
X99993Y111154D01*
X99867Y111458D01*
X99667Y111720D01*
X99405Y111921D01*
X99101Y112047D01*
X98774Y112090D01*
D02*
G37*
G36*
X117826D02*
X117499Y112047D01*
X117195Y111921D01*
X116933Y111720D01*
X116733Y111458D01*
X116607Y111154D01*
X116563Y110827D01*
X116607Y110500D01*
X116733Y110196D01*
X116933Y109934D01*
X117195Y109733D01*
X117499Y109607D01*
X117826Y109564D01*
X118153Y109607D01*
X118458Y109733D01*
X118719Y109934D01*
X118920Y110196D01*
X119046Y110500D01*
X119089Y110827D01*
X119046Y111154D01*
X118920Y111458D01*
X118719Y111720D01*
X118458Y111921D01*
X118153Y112047D01*
X117826Y112090D01*
D02*
G37*
G36*
X117930Y145393D02*
Y144431D01*
X118342D01*
Y144879D01*
X118301Y145085D01*
X118184Y145260D01*
X118009Y145377D01*
X117930Y145393D01*
D02*
G37*
%LPD*%
D10*
X77612Y119700D02*
D03*
D11*
X79057Y118725D02*
D03*
Y119375D02*
D03*
Y120025D02*
D03*
Y120675D02*
D03*
X76167Y118725D02*
D03*
Y119375D02*
D03*
Y120025D02*
D03*
Y120675D02*
D03*
D12*
X74600Y119927D02*
D03*
Y120727D02*
D03*
X72900Y118727D02*
D03*
Y119527D02*
D03*
X74600Y118627D02*
D03*
Y117827D02*
D03*
X80600Y118827D02*
D03*
Y119627D02*
D03*
D13*
X78000Y116627D02*
D03*
X77200D02*
D03*
X136188Y112354D02*
D03*
X135388D02*
D03*
X133788Y118154D02*
D03*
X132988D02*
D03*
X133688Y112354D02*
D03*
X132888D02*
D03*
X104000Y132727D02*
D03*
X104800D02*
D03*
D14*
X84400Y116627D02*
D03*
X83200D02*
D03*
D15*
X72600Y120852D02*
D03*
Y123402D02*
D03*
D16*
X78010Y122127D02*
D03*
X77190D02*
D03*
D17*
X81900Y118752D02*
D03*
Y117502D02*
D03*
X84500Y120002D02*
D03*
Y121252D02*
D03*
D18*
X82250Y121327D02*
D03*
X80550D02*
D03*
X135000Y110427D02*
D03*
X133300D02*
D03*
D19*
X115800Y92227D02*
D03*
X110100D02*
D03*
D20*
X118938Y147954D02*
D03*
X115638D02*
D03*
X112788Y147954D02*
D03*
X109488D02*
D03*
X106638Y147954D02*
D03*
X103338D02*
D03*
X90800Y131600D02*
D03*
X87500D02*
D03*
X116750Y86227D02*
D03*
X120050D02*
D03*
D21*
X108725Y132927D02*
D03*
X107475D02*
D03*
D22*
X129500Y117177D02*
D03*
Y111477D02*
D03*
D23*
X122100Y134127D02*
D03*
X127800D02*
D03*
D24*
X80900Y126500D02*
D03*
X83100D02*
D03*
D25*
X135988Y114454D02*
D03*
Y116354D02*
D03*
X133438Y115404D02*
D03*
Y116354D02*
D03*
Y114454D02*
D03*
D26*
X116533Y144304D02*
D03*
X117803D02*
D03*
X115263D02*
D03*
X120343D02*
D03*
X119073D02*
D03*
X112723D02*
D03*
X113993D02*
D03*
X110183D02*
D03*
X111453D02*
D03*
X120343Y135004D02*
D03*
X117803D02*
D03*
X119073D02*
D03*
X116533D02*
D03*
X111453D02*
D03*
X112723D02*
D03*
X110183D02*
D03*
X115263D02*
D03*
X113993D02*
D03*
X107643Y144304D02*
D03*
X108913D02*
D03*
X105103D02*
D03*
X106373D02*
D03*
X103833D02*
D03*
X106373Y135004D02*
D03*
X108913D02*
D03*
X107643D02*
D03*
X103833D02*
D03*
X105103D02*
D03*
D27*
X104000Y132727D02*
Y133782D01*
X103833Y133949D02*
X104000Y133782D01*
X103833Y133949D02*
Y135004D01*
X84400Y116627D02*
Y118262D01*
X84500Y118362D01*
Y120002D01*
X72600Y120852D02*
X73533D01*
X73658Y120727D01*
X74600D01*
X136188Y112354D02*
Y113284D01*
X135988Y113484D02*
X136188Y113284D01*
X135988Y113484D02*
Y114454D01*
X72900Y119527D02*
X73533D01*
X73933Y119927D01*
X74600D01*
X78000Y116627D02*
X80594D01*
X80594Y116627D01*
X83200D01*
X80600Y119627D02*
Y120447D01*
X80550Y120497D02*
X80600Y120447D01*
X80550Y120497D02*
Y121327D01*
X79057Y119375D02*
X79680D01*
X79932Y119627D01*
X80600D01*
X104800Y132727D02*
X106020D01*
X106220Y132927D01*
X107475D01*
X127540Y137227D02*
Y142519D01*
X127940Y142919D01*
Y148227D01*
X108913Y144304D02*
Y145821D01*
X109488Y146396D01*
Y147954D01*
X106373Y144304D02*
Y145974D01*
X106638Y146239D01*
Y147954D01*
X103833Y144304D02*
Y145872D01*
X103338Y146367D02*
X103833Y145872D01*
X133688Y112354D02*
X135388D01*
X133300Y110427D02*
Y111176D01*
X133688Y111564D01*
Y112354D01*
Y113259D01*
X133438Y113509D02*
X133688Y113259D01*
X133438Y113509D02*
Y114454D01*
X80600Y118827D02*
X81204D01*
X81279Y118752D01*
X81900D01*
X72900Y118727D02*
X73685D01*
X73785Y118627D01*
X74600D01*
X127025Y117177D02*
X129500D01*
X127000Y117202D02*
X127025Y117177D01*
X127000Y117202D02*
Y135992D01*
X127485D01*
X129500Y111477D02*
X132605D01*
X132888Y111760D01*
Y112354D01*
X132988Y117679D02*
Y118154D01*
X132486Y117177D02*
X132988Y117679D01*
X129500Y117177D02*
X132486D01*
X82250Y121252D02*
Y121327D01*
X111681Y147954D02*
X112788D01*
X111453Y147726D02*
X111681Y147954D01*
X78000Y116627D02*
Y117649D01*
X78816Y118466D01*
Y118725D02*
X79057D01*
X77200Y116627D02*
Y117932D01*
X77612Y118344D01*
Y119700D01*
X136188Y111506D02*
Y112354D01*
X135611Y110929D02*
X136188Y111506D01*
X135611Y110414D02*
Y110929D01*
X135000Y110414D02*
Y110427D01*
X110100Y87481D02*
X111354Y86227D01*
X116750D01*
X115263Y143739D02*
Y144304D01*
X114726Y143202D02*
X115263Y143739D01*
X114119Y143202D02*
X114726D01*
X113614Y142697D02*
X114119Y143202D01*
X112723Y142240D02*
X113153Y141810D01*
X116433D01*
X117803Y143180D01*
X102653Y132727D02*
X104000D01*
X101526Y131600D02*
X102653Y132727D01*
X90800Y131600D02*
X101526D01*
X74600Y117827D02*
X75082D01*
X75980Y118725D01*
X76167D01*
X81900Y117502D02*
X82601D01*
Y119380D01*
X82250Y119731D02*
X82601Y119380D01*
X79783Y120322D02*
Y122276D01*
X79487Y120025D02*
X79783Y120322D01*
X79057Y120025D02*
X79487D01*
X78010Y122127D02*
Y122530D01*
X78213Y122733D01*
X78613D01*
X78816Y122530D01*
Y120675D02*
X79057D01*
X77190Y121717D02*
Y122127D01*
X76429Y120955D02*
X77190Y121717D01*
X76167Y120675D02*
X76429D01*
X87500Y131600D02*
Y137453D01*
X85400Y139553D02*
X87500Y137453D01*
X85400Y139553D02*
Y143950D01*
X74600Y119914D02*
Y119927D01*
Y119914D02*
X75139Y119375D01*
X76167D01*
X108534Y147954D02*
X109488D01*
X113993Y144304D02*
Y145415D01*
X115638Y147954D02*
X115646D01*
X111453Y149019D02*
X114188Y151754D01*
X117753Y147954D02*
X118938D01*
X116533Y146734D02*
X117753Y147954D01*
X116533Y144304D02*
Y146734D01*
X126286Y138481D02*
X127540Y137227D01*
X119962Y138481D02*
X126286D01*
X119073Y137592D02*
X119962Y138481D01*
X119073Y135004D02*
Y137592D01*
X82144Y140694D02*
X85400Y143950D01*
X82144Y122276D02*
Y140694D01*
Y122276D02*
X82250Y122169D01*
Y121327D02*
Y122169D01*
X83972Y128016D02*
X85192Y126797D01*
Y120625D02*
Y126797D01*
X84734Y120625D02*
X85192D01*
X84500Y120390D02*
X84734Y120625D01*
X84500Y120002D02*
Y120390D01*
X103073Y147954D02*
X103338D01*
X106756Y142545D02*
X106934Y142723D01*
Y145085D01*
X107290Y145440D01*
X107899D01*
X108229Y145110D01*
Y143459D02*
Y145110D01*
Y143459D02*
X108487Y143202D01*
X109931D01*
X110183Y143454D01*
Y144304D01*
X107643Y143436D02*
Y144304D01*
Y143436D02*
X108256Y142823D01*
X112166D01*
X112723Y143380D01*
Y144304D01*
X129489Y105435D02*
X130861Y104064D01*
X135153D01*
X136703Y105613D01*
Y116354D01*
X135988D02*
X136703D01*
X121539Y109166D02*
X123850Y111477D01*
X121107Y86227D02*
X121539Y86659D01*
X120050Y86227D02*
X121107D01*
X119024D02*
X120050D01*
X120343Y145415D02*
X122301D01*
X120343Y144304D02*
Y145415D01*
X117803Y122096D02*
X128422Y111477D01*
X117803Y122096D02*
Y135004D01*
X67400Y117940D02*
X68254Y118794D01*
Y119163D01*
X68682Y119591D01*
X71784D01*
X72648Y118727D01*
X72900D01*
X78308Y123825D02*
Y139700D01*
X83591Y144983D01*
X87224D01*
X90549Y141658D01*
X112111D01*
X115263Y138506D01*
Y135004D02*
Y138506D01*
X72900Y118085D02*
Y118727D01*
Y118085D02*
X73715Y117270D01*
X75766D01*
X76409Y116627D01*
X77200D01*
X115800Y92227D02*
Y95783D01*
X101803Y138024D02*
X105229D01*
X106373Y136880D01*
Y135004D02*
Y136880D01*
X116750Y86227D02*
X117678D01*
X119145Y84760D01*
X122555D01*
X137084Y99289D01*
Y116637D01*
X136804Y116916D02*
X137084Y116637D01*
X135433Y116916D02*
X136804D01*
X133921Y115404D02*
X135433Y116916D01*
X133438Y115404D02*
X133921D01*
X80570Y106600D02*
X121281D01*
X108725Y132927D02*
X111354D01*
X112192Y133765D01*
Y136119D01*
X113993D01*
Y135004D02*
Y136119D01*
X117803Y135004D02*
Y136144D01*
X117143Y136804D02*
X117803Y136144D01*
X116967Y136804D02*
X117143D01*
X115900Y135738D02*
X116967Y136804D01*
X115900Y134112D02*
Y135738D01*
X115468Y133680D02*
X115900Y134112D01*
X114425Y133680D02*
X115468D01*
X113993Y134112D02*
X114425Y133680D01*
X113993Y134112D02*
Y135004D01*
X79553Y107722D02*
X80061Y108230D01*
X79553Y101524D02*
Y107722D01*
Y101524D02*
X88875Y92202D01*
X85100Y108230D02*
X90323D01*
X92634Y110541D01*
Y120946D01*
X91600Y121980D02*
X92634Y120946D01*
X69190Y115696D02*
X76657Y108230D01*
X108026Y89865D02*
X108497Y90221D01*
X83100Y132859D02*
X84760Y134518D01*
X103833Y135004D02*
Y136169D01*
X104191Y136527D01*
Y136550D01*
X74600Y120727D02*
X75056D01*
X75758Y120025D01*
X76167D01*
X74600Y136650D02*
X85400Y147450D01*
X74600Y120727D02*
Y136650D01*
X68172Y120852D02*
X72600D01*
X66370Y119050D02*
X68172Y120852D01*
X66370Y112039D02*
Y119050D01*
Y112039D02*
X78232Y100178D01*
X106655Y93193D02*
X108356Y94894D01*
X112751D01*
X134187Y105385D02*
X135000Y106197D01*
X79299Y124899D02*
X80900Y126500D01*
X79057Y120675D02*
X79299Y124899D01*
X116533Y131674D02*
Y135004D01*
X116076Y131216D02*
X116533Y131674D01*
X104800Y131216D02*
Y132727D01*
X120343Y135004D02*
X121220Y134127D01*
X122100D01*
X120548Y143053D02*
X121412Y143916D01*
X120040Y143053D02*
X120548D01*
X119073Y144020D02*
X120040Y143053D01*
X119073Y144020D02*
Y144304D01*
X130000Y135967D02*
X131267Y137234D01*
Y147447D01*
X129210Y149504D02*
X131267Y147447D01*
X121514Y149504D02*
X129210D01*
X120498Y149824D02*
X122328Y151654D01*
X120498Y148488D02*
Y149824D01*
X119963Y147954D02*
X120498Y148488D01*
X118938Y147954D02*
X119963D01*
X105728Y148864D02*
X106638Y147954D01*
X105728Y148864D02*
Y151854D01*
X105103Y143256D02*
Y144304D01*
X104900Y143053D02*
X105103Y143256D01*
X102758Y143053D02*
X104900D01*
X133438Y116354D02*
X133788Y116704D01*
Y118154D01*
X127800Y134127D02*
X128500Y133427D01*
X130000D01*
X112723Y133299D02*
Y135004D01*
X109116Y129692D02*
X112723Y133299D01*
X91719Y129692D02*
X109116D01*
X90449Y128422D02*
X91719Y129692D01*
X90449Y115240D02*
Y128422D01*
X89408Y114198D02*
X90449Y115240D01*
X72695Y114198D02*
X89408D01*
X71069Y115824D02*
X72695Y114198D01*
X108913Y135004D02*
Y137666D01*
X108915Y137668D01*
X86157Y116840D02*
Y130150D01*
X85242Y115926D02*
X86157Y116840D01*
X75336Y115926D02*
X85242D01*
X74879Y116383D02*
X75336Y115926D01*
X102845Y137031D02*
X103266Y137452D01*
X105080D01*
X105103Y137430D01*
Y135004D02*
Y137430D01*
X70663Y117805D02*
X73882Y114586D01*
X88297D01*
X89510Y115799D01*
Y132486D01*
X96133Y139110D01*
X108741D01*
X110183Y137668D01*
Y135004D02*
Y137668D01*
X69240Y118694D02*
X71307D01*
X74507Y115494D01*
X87859D01*
X88849Y116484D01*
Y138328D01*
X90221Y139700D01*
X109550D01*
X111453Y137797D01*
Y135004D02*
Y137797D01*
X73711Y127203D02*
X74117Y127610D01*
Y130861D01*
X73711Y131267D02*
X74117Y130861D01*
X107643Y136777D02*
X107645Y136779D01*
X107643Y135004D02*
Y136777D01*
X77612Y119700D02*
X77937Y120025D01*
X79057D01*
X70560Y125442D02*
X72600Y123402D01*
X70560Y125442D02*
Y128800D01*
X76657Y108230D02*
X80061D01*
X85100D01*
X108497Y90221D02*
X110100D01*
Y87481D02*
Y90221D01*
Y92202D02*
Y92227D01*
X88875Y92202D02*
X110100D01*
Y90221D02*
Y92202D01*
X83100Y126500D02*
Y128016D01*
Y132859D01*
Y128016D02*
X83972D01*
X135000Y106197D02*
Y110414D01*
X135611D01*
X76429Y120675D02*
Y120955D01*
X78816Y118466D02*
Y118725D01*
Y120675D02*
Y122530D01*
X127485Y135992D02*
X130000Y138507D01*
X120498Y148488D02*
X121514Y149504D01*
X113993Y145415D02*
Y145974D01*
Y145415D02*
X115646Y147068D01*
Y147954D01*
X111453Y144304D02*
Y147726D01*
Y149019D01*
X108534Y147954D02*
Y149454D01*
X103073Y146533D02*
Y147954D01*
X103338Y146367D02*
Y147954D01*
X79783Y122276D02*
X82144D01*
X82250D01*
X121539Y86659D02*
Y106858D01*
Y109166D01*
X121281Y106600D02*
X121539Y106858D01*
X126158Y111477D01*
X128422D01*
X123850D02*
X126158D01*
X128422D02*
X129489D01*
X129500D01*
X82250Y119731D02*
Y121252D01*
Y122169D02*
Y122276D01*
X112723Y142240D02*
Y143380D01*
X117803Y136144D02*
Y143180D01*
Y144304D01*
X119024Y86227D02*
Y90427D01*
X129489Y105435D02*
Y111477D01*
X82250Y121252D02*
X84500D01*
D28*
X77562Y120250D02*
G03*
X77562Y120250I-500J0D01*
G01*
X104438Y136754D02*
G03*
X104438Y136754I-500J0D01*
G01*
X80313Y115454D02*
G03*
X80313Y115454I-500J0D01*
G01*
X114738Y92804D02*
G03*
X114738Y92804I-500J0D01*
G01*
X76162Y118250D02*
X79062D01*
X76162Y121150D02*
X79062D01*
Y118250D02*
Y121150D01*
X76162Y118250D02*
Y121150D01*
X74325Y119777D02*
X74875D01*
X74325Y120877D02*
X74875D01*
Y119777D02*
Y120877D01*
X74325Y119777D02*
Y120877D01*
X72625Y118577D02*
X73175D01*
X72625Y119677D02*
X73175D01*
Y118577D02*
Y119677D01*
X72625Y118577D02*
Y119677D01*
X74325Y118777D02*
X74875D01*
X74325Y117677D02*
X74875D01*
X74325D02*
Y118777D01*
X74875Y117677D02*
Y118777D01*
X80325Y118677D02*
X80875D01*
Y119777D01*
X80325Y118677D02*
Y119777D01*
X80875D01*
X78150Y116352D02*
Y116902D01*
X77050D02*
X78150D01*
X77050Y116352D02*
X78150D01*
X77050D02*
Y116902D01*
X84650Y116152D02*
Y117102D01*
X82950D02*
X84650D01*
X82950Y116152D02*
X84650D01*
X82950D02*
Y117102D01*
X71750Y120527D02*
X73450D01*
X71750Y123727D02*
X73450D01*
X71750Y120527D02*
Y123727D01*
X73450Y120527D02*
Y123727D01*
X78150Y121852D02*
Y122402D01*
X77050Y121852D02*
Y122402D01*
Y121852D02*
X78150D01*
X77050Y122402D02*
X78150D01*
X81495Y118977D02*
X82305D01*
X81495Y117277D02*
X82305D01*
Y118977D01*
X81495Y117277D02*
Y118977D01*
X82500Y120627D02*
Y122027D01*
X80300Y120627D02*
X82500D01*
X80300D02*
Y122027D01*
X82500D01*
X84095Y119777D02*
X84905D01*
X84095Y121477D02*
X84905D01*
X84095Y119777D02*
Y121477D01*
X84905Y119777D02*
Y121477D01*
X133050Y109727D02*
X135250D01*
X133050Y111127D02*
X135250D01*
Y109727D02*
Y111127D01*
X133050Y109727D02*
Y111127D01*
X115813Y150204D02*
X119538D01*
Y145704D02*
Y150204D01*
X115813Y145704D02*
X119538D01*
X115038Y149429D02*
X115813Y150204D01*
X115038Y146479D02*
Y149429D01*
Y146479D02*
X115813Y145704D01*
X108888Y146479D02*
Y149429D01*
Y146479D02*
X109663Y145704D01*
X113388D01*
Y150204D01*
X109663D02*
X113388D01*
X108888Y149429D02*
X109663Y150204D01*
X103513D02*
X107238D01*
Y145704D02*
Y150204D01*
X103513Y145704D02*
X107238D01*
X102738Y149429D02*
X103513Y150204D01*
X102738Y146479D02*
Y149429D01*
Y146479D02*
X103513Y145704D01*
X90625Y129350D02*
X91400Y130125D01*
Y133075D01*
X86900Y129350D02*
X90625D01*
Y133850D02*
X91400Y133075D01*
X86900Y133850D02*
X90625D01*
X86900Y129350D02*
Y133850D01*
X108950Y132522D02*
Y133332D01*
X107250Y132522D02*
Y133332D01*
Y132522D02*
X108950D01*
X107250Y133332D02*
X108950D01*
X116150Y87702D02*
X116925Y88477D01*
X116150Y84752D02*
Y87702D01*
X116925Y88477D02*
X120650D01*
Y83977D02*
Y88477D01*
X116150Y84752D02*
X116925Y83977D01*
X120650D01*
X136338Y112079D02*
Y112629D01*
X135238D02*
X136338D01*
X135238Y112079D02*
X136338D01*
X135238D02*
Y112629D01*
X133938Y117879D02*
Y118429D01*
X132838D02*
X133938D01*
X132838Y117879D02*
X133938D01*
X132838D02*
Y118429D01*
X133838Y112079D02*
Y112629D01*
X132738D02*
X133838D01*
X132738Y112079D02*
X133838D01*
X132738D02*
Y112629D01*
X127850Y111147D02*
X131150D01*
Y117507D01*
X127850Y111147D02*
Y117507D01*
X131150D01*
X121770Y132477D02*
Y135777D01*
X128130Y132477D02*
Y135777D01*
X121770D02*
X128130D01*
X121770Y132477D02*
X128130D01*
X103850Y132452D02*
Y133002D01*
X104950Y132452D02*
Y133002D01*
X103850D02*
X104950D01*
X103850Y132452D02*
X104950D01*
X133838Y113904D02*
X135588D01*
Y116904D01*
X133838D02*
X135588D01*
X133838Y113904D02*
Y116904D01*
X121138Y135854D02*
Y143454D01*
X103038D02*
X121138D01*
X103038Y135854D02*
X121138D01*
X103038D02*
Y143454D01*
X127680Y139477D02*
Y142777D01*
X121320D02*
X127680D01*
X121320Y139477D02*
Y142777D01*
Y139477D02*
X127680D01*
X119213Y148949D02*
Y149759D01*
X117513Y148949D02*
X119213D01*
X117513Y149759D02*
X119213D01*
X117513Y148949D02*
Y149759D01*
X111938Y149149D02*
Y149959D01*
X110238Y149149D02*
X111938D01*
X110238Y149959D02*
X111938D01*
X110238Y149149D02*
Y149959D01*
X105638Y149149D02*
Y149959D01*
X103938Y149149D02*
X105638D01*
X103938Y149959D02*
X105638D01*
X103938Y149149D02*
Y149959D01*
X106295Y89677D02*
Y91377D01*
Y89677D02*
X107105D01*
X106295Y91377D02*
X107105D01*
Y89677D02*
Y91377D01*
X109860Y90552D02*
Y91102D01*
X108760Y90552D02*
Y91102D01*
X109860D01*
X108760Y90552D02*
X109860D01*
X70795Y120877D02*
Y122577D01*
Y120877D02*
X71605D01*
X70795Y122577D02*
X71605D01*
Y120877D02*
Y122577D01*
X81513Y112049D02*
Y112859D01*
X79813Y112049D02*
X81513D01*
X79813Y112859D02*
X81513D01*
X79813Y112049D02*
Y112859D01*
X117975Y92477D02*
Y93577D01*
X117425D02*
X117975D01*
X117425Y92477D02*
X117975D01*
X117425D02*
Y93577D01*
X76913Y112049D02*
Y112859D01*
X75213Y112049D02*
X76913D01*
X75213Y112859D02*
X76913D01*
X75213Y112049D02*
Y112859D01*
X79238Y112049D02*
Y112859D01*
X77538Y112049D02*
X79238D01*
X77538Y112859D02*
X79238D01*
X77538Y112049D02*
Y112859D01*
X108275Y93822D02*
Y94632D01*
X109975Y93822D02*
Y94632D01*
X108275D02*
X109975D01*
X108275Y93822D02*
X109975D01*
X113750Y99500D02*
Y100900D01*
X111550D02*
X113750D01*
X111550Y99500D02*
Y100900D01*
Y99500D02*
X113750D01*
X114400Y95450D02*
Y97150D01*
X111200D02*
X114400D01*
X111200Y95450D02*
Y97150D01*
Y95450D02*
X114400D01*
X103988Y148429D02*
X105788D01*
X103988Y147079D02*
X105788D01*
Y148429D01*
X103988Y147079D02*
Y148429D01*
X105213Y145029D02*
X107013D01*
Y143679D02*
Y145029D01*
X105213Y143679D02*
Y145029D01*
Y143679D02*
X107013D01*
X108688Y141429D02*
X110488D01*
Y140079D02*
Y141429D01*
X108688Y140079D02*
Y141429D01*
Y140079D02*
X110488D01*
X98738Y143474D02*
X102038D01*
X98738Y149834D02*
X102038D01*
Y143474D02*
Y149834D01*
X98738Y143474D02*
Y149834D01*
X107838Y148484D02*
X111138D01*
Y142124D02*
Y148484D01*
X107838Y142124D02*
Y148484D01*
Y142124D02*
X111138D01*
X113638Y149984D02*
X116938D01*
Y143624D02*
Y149984D01*
X113638Y143624D02*
Y149984D01*
Y143624D02*
X116938D01*
X117450Y136447D02*
X120750D01*
Y142807D01*
X117450Y136447D02*
Y142807D01*
X120750D01*
X82413Y117004D02*
X82963D01*
X82413Y115904D02*
X82963D01*
Y117004D01*
X82413Y115904D02*
Y117004D01*
X114250Y89552D02*
Y90102D01*
X113150Y89552D02*
X114250D01*
X113150Y90102D02*
X114250D01*
X113150Y89552D02*
Y90102D01*
X109950Y88652D02*
Y89202D01*
X108850Y88652D02*
X109950D01*
X108850Y89202D02*
X109950D01*
X108850Y88652D02*
Y89202D01*
X118275Y90277D02*
Y91377D01*
X117725D02*
X118275D01*
X117725Y90277D02*
X118275D01*
X117725D02*
Y91377D01*
X107875Y92077D02*
Y93177D01*
X107325D02*
X107875D01*
X107325Y92077D02*
X107875D01*
X107325D02*
Y93177D01*
X80713Y114554D02*
Y121554D01*
X73713D02*
X80713D01*
X73713Y114554D02*
X80713D01*
X73713D02*
Y121554D01*
X115138Y90604D02*
Y93704D01*
X112038D02*
X115138D01*
X112038Y90604D02*
X115138D01*
X112038D02*
Y93704D01*
X77612Y119200D02*
Y120200D01*
X77112Y119700D02*
X78112D01*
X74325Y120327D02*
X74875D01*
X74600Y120052D02*
Y120602D01*
X72625Y119127D02*
X73175D01*
X72900Y118852D02*
Y119402D01*
X74325Y118227D02*
X74875D01*
X74600Y117952D02*
Y118502D01*
X80325Y119227D02*
X80875D01*
X80600Y118952D02*
Y119502D01*
X77600Y116352D02*
Y116902D01*
X77325Y116627D02*
X77875D01*
X83800Y116152D02*
Y117102D01*
X83325Y116627D02*
X84275D01*
X72600Y121627D02*
Y122627D01*
X72100Y122127D02*
X73100D01*
X77600Y121852D02*
Y122402D01*
X77325Y122127D02*
X77875D01*
X81900Y117722D02*
Y118532D01*
X81495Y118127D02*
X82305D01*
X80900Y121327D02*
X81900D01*
X81400Y120827D02*
Y121827D01*
X84500Y120222D02*
Y121032D01*
X84095Y120627D02*
X84905D01*
X134150Y109927D02*
Y110927D01*
X133650Y110427D02*
X134650D01*
X117288Y147454D02*
Y148454D01*
X116788Y147954D02*
X117788D01*
X111138Y147454D02*
Y148454D01*
X110638Y147954D02*
X111638D01*
X104988Y147454D02*
Y148454D01*
X104488Y147954D02*
X105488D01*
X89150Y131100D02*
Y132100D01*
X88650Y131600D02*
X89650D01*
X107695Y132927D02*
X108505D01*
X108100Y132522D02*
Y133332D01*
X118400Y85727D02*
Y86727D01*
X117900Y86227D02*
X118900D01*
X135513Y112354D02*
X136063D01*
X135788Y112079D02*
Y112629D01*
X133113Y118154D02*
X133663D01*
X133388Y117879D02*
Y118429D01*
X133013Y112354D02*
X133563D01*
X133288Y112079D02*
Y112629D01*
X129000Y114327D02*
X130000D01*
X129500Y113827D02*
Y114827D01*
X124450Y134127D02*
X125450D01*
X124950Y133627D02*
Y134627D01*
X104400Y132452D02*
Y133002D01*
X104125Y132727D02*
X104675D01*
X134713Y114904D02*
Y115904D01*
X134213Y115404D02*
X135213D01*
X111588Y139654D02*
X112588D01*
X112088Y139154D02*
Y140154D01*
X124500Y140627D02*
Y141627D01*
X124000Y141127D02*
X125000D01*
X118363Y148949D02*
Y149759D01*
X117958Y149354D02*
X118768D01*
X111088Y149149D02*
Y149959D01*
X110683Y149554D02*
X111493D01*
X104788Y149149D02*
Y149959D01*
X104383Y149554D02*
X105193D01*
X106700Y90122D02*
Y90932D01*
X106295Y90527D02*
X107105D01*
X109310Y90552D02*
Y91102D01*
X109035Y90827D02*
X109585D01*
X71200Y121322D02*
Y122132D01*
X70795Y121727D02*
X71605D01*
X80663Y112049D02*
Y112859D01*
X80258Y112454D02*
X81068D01*
X117700Y92752D02*
Y93302D01*
X117425Y93027D02*
X117975D01*
X76063Y112049D02*
Y112859D01*
X75658Y112454D02*
X76468D01*
X78388Y112049D02*
Y112859D01*
X77983Y112454D02*
X78793D01*
X109125Y93822D02*
Y94632D01*
X108720Y94227D02*
X109530D01*
X112150Y100200D02*
X113150D01*
X112650Y99700D02*
Y100700D01*
X112300Y96300D02*
X113300D01*
X112800Y95800D02*
Y96800D01*
X104388Y147754D02*
X105388D01*
X104888Y147254D02*
Y148254D01*
X106113Y143854D02*
Y144854D01*
X105613Y144354D02*
X106613D01*
X109588Y140254D02*
Y141254D01*
X109088Y140754D02*
X110088D01*
X100388Y146154D02*
Y147154D01*
X99888Y146654D02*
X100888D01*
X109488Y144804D02*
Y145804D01*
X108988Y145304D02*
X109988D01*
X115288Y146304D02*
Y147304D01*
X114788Y146804D02*
X115788D01*
X118600Y139627D02*
X119600D01*
X119100Y139127D02*
Y140127D01*
X82413Y116454D02*
X82963D01*
X82688Y116179D02*
Y116729D01*
X113700Y89552D02*
Y90102D01*
X113425Y89827D02*
X113975D01*
X109400Y88652D02*
Y89202D01*
X109125Y88927D02*
X109675D01*
X118000Y90552D02*
Y91102D01*
X117725Y90827D02*
X118275D01*
X107600Y92352D02*
Y92902D01*
X107325Y92627D02*
X107875D01*
X77213Y117554D02*
Y118554D01*
X76713Y118054D02*
X77713D01*
X113088Y92154D02*
X114088D01*
X113588Y91654D02*
Y92654D01*
D29*
X75657Y118150D02*
X79567D01*
X75657Y121250D02*
X79567D01*
Y118150D02*
Y121250D01*
X75657Y118150D02*
Y121250D01*
X75000Y119577D02*
Y121077D01*
X74200Y119577D02*
X75000D01*
X74200Y121077D02*
X75000D01*
X74200Y119577D02*
Y121077D01*
X73300Y118377D02*
Y119877D01*
X72500Y118377D02*
X73300D01*
X72500Y119877D02*
X73300D01*
X72500Y118377D02*
Y119877D01*
X74200Y117477D02*
Y118977D01*
X75000D01*
X74200Y117477D02*
X75000D01*
Y118977D01*
X80200Y118477D02*
X81000D01*
X80200D02*
Y119977D01*
X81000Y118477D02*
Y119977D01*
X80200D02*
X81000D01*
X78350Y116227D02*
Y117027D01*
X76850Y116227D02*
X78350D01*
X76850Y117027D02*
X78350D01*
X76850Y116227D02*
Y117027D01*
X84850Y116027D02*
Y117227D01*
X82750Y116027D02*
X84850D01*
X82750Y117227D02*
X84850D01*
X82750Y116027D02*
Y117227D01*
X71650Y120227D02*
X73550D01*
X71650Y124027D02*
X73550D01*
X71650Y120227D02*
Y124027D01*
X73550Y120227D02*
Y124027D01*
X78400Y121727D02*
Y122527D01*
X76800Y121727D02*
X78400D01*
X76800Y122527D02*
X78400D01*
X76800Y121727D02*
Y122527D01*
X81350Y119227D02*
X82450D01*
X81350Y117027D02*
X82450D01*
Y119227D01*
X81350Y117027D02*
Y119227D01*
X82800Y120527D02*
Y122127D01*
X80000Y120527D02*
X82800D01*
X80000Y122127D02*
X82800D01*
X80000Y120527D02*
Y122127D01*
X83950Y119527D02*
X85050D01*
X83950Y121727D02*
X85050D01*
X83950Y119527D02*
Y121727D01*
X85050Y119527D02*
Y121727D01*
X132750Y109627D02*
X135550D01*
X132750Y111227D02*
X135550D01*
Y109627D02*
Y111227D01*
X132750Y109627D02*
Y111227D01*
X120238Y145454D02*
Y150454D01*
X114338D02*
X120238D01*
X114338Y145454D02*
X120238D01*
X114338D02*
Y150454D01*
X108188Y145454D02*
X114088D01*
X108188Y150454D02*
X114088D01*
Y145454D02*
Y150454D01*
X108188Y145454D02*
Y150454D01*
X107938Y145454D02*
Y150454D01*
X102038D02*
X107938D01*
X102038Y145454D02*
X107938D01*
X102038D02*
Y150454D01*
X86200Y129100D02*
X92100D01*
Y134100D01*
X86200Y129100D02*
Y134100D01*
X92100D01*
X109200Y132377D02*
Y133477D01*
X107000Y132377D02*
Y133477D01*
Y132377D02*
X109200D01*
X107000Y133477D02*
X109200D01*
X115450Y88727D02*
X121350D01*
X115450Y83727D02*
Y88727D01*
X121350Y83727D02*
Y88727D01*
X115450Y83727D02*
X121350D01*
X136538Y111954D02*
Y112754D01*
X135038D02*
X136538D01*
X135038Y111954D02*
X136538D01*
X135038D02*
Y112754D01*
X134138Y117754D02*
Y118554D01*
X132638D02*
X134138D01*
X132638Y117754D02*
X134138D01*
X132638D02*
Y118554D01*
X134038Y111954D02*
Y112754D01*
X132538D02*
X134038D01*
X132538Y111954D02*
X134038D01*
X132538D02*
Y112754D01*
X131250Y110877D02*
Y117777D01*
X127750D02*
X131250D01*
X127750Y110877D02*
X131250D01*
X127750D02*
Y117777D01*
X121500Y132377D02*
Y135877D01*
X128400Y132377D02*
Y135877D01*
X121500D02*
X128400D01*
X121500Y132377D02*
X128400D01*
X103650Y133127D02*
X105150D01*
X103650Y132327D02*
Y133127D01*
X105150Y132327D02*
Y133127D01*
X103650Y132327D02*
X105150D01*
X136463Y113804D02*
Y117004D01*
X132963D02*
X136463D01*
X132963Y113804D02*
X136463D01*
X132963D02*
Y117004D01*
X121238Y134079D02*
Y145229D01*
X102938D02*
X121238D01*
X102938Y134079D02*
X121238D01*
X102938D02*
Y145229D01*
X127950Y139377D02*
Y142877D01*
X121050D02*
X127950D01*
X121050Y139377D02*
X127950D01*
X121050D02*
Y142877D01*
X119463Y148804D02*
Y149904D01*
X117263D02*
X119463D01*
X117263Y148804D02*
X119463D01*
X117263D02*
Y149904D01*
X112188Y149004D02*
Y150104D01*
X109988D02*
X112188D01*
X109988Y149004D02*
X112188D01*
X109988D02*
Y150104D01*
X105888Y149004D02*
Y150104D01*
X103688D02*
X105888D01*
X103688Y149004D02*
X105888D01*
X103688D02*
Y150104D01*
X106150Y89427D02*
Y91627D01*
Y89427D02*
X107250D01*
X106150Y91627D02*
X107250D01*
Y89427D02*
Y91627D01*
X110110Y90427D02*
Y91227D01*
X108510D02*
X110110D01*
X108510Y90427D02*
X110110D01*
X108510D02*
Y91227D01*
X70650Y120627D02*
Y122827D01*
Y120627D02*
X71750D01*
X70650Y122827D02*
X71750D01*
Y120627D02*
Y122827D01*
X81763Y111904D02*
Y113004D01*
X79563D02*
X81763D01*
X79563Y111904D02*
X81763D01*
X79563D02*
Y113004D01*
X118100Y92227D02*
Y93827D01*
X117300D02*
X118100D01*
X117300Y92227D02*
X118100D01*
X117300D02*
Y93827D01*
X77163Y111904D02*
Y113004D01*
X74963D02*
X77163D01*
X74963Y111904D02*
X77163D01*
X74963D02*
Y113004D01*
X79488Y111904D02*
Y113004D01*
X77288D02*
X79488D01*
X77288Y111904D02*
X79488D01*
X77288D02*
Y113004D01*
X108025Y94777D02*
X110225D01*
X108025Y93677D02*
Y94777D01*
X110225Y93677D02*
Y94777D01*
X108025Y93677D02*
X110225D01*
X114050Y99400D02*
Y101000D01*
X111250D02*
X114050D01*
X111250Y99400D02*
X114050D01*
X111250D02*
Y101000D01*
X114700Y95350D02*
Y97250D01*
X110900D02*
X114700D01*
X110900Y95350D02*
X114700D01*
X110900D02*
Y97250D01*
X106438Y146954D02*
Y148554D01*
X103338D02*
X106438D01*
X103338Y146954D02*
X106438D01*
X103338D02*
Y148554D01*
X107663Y143554D02*
Y145154D01*
X104563D02*
X107663D01*
X104563Y143554D02*
X107663D01*
X104563D02*
Y145154D01*
X111138Y139954D02*
Y141554D01*
X108038D02*
X111138D01*
X108038Y139954D02*
X111138D01*
X108038D02*
Y141554D01*
X98638Y143204D02*
X102138D01*
X98638Y150104D02*
X102138D01*
Y143204D02*
Y150104D01*
X98638Y143204D02*
Y150104D01*
X111238Y141854D02*
Y148754D01*
X107738D02*
X111238D01*
X107738Y141854D02*
X111238D01*
X107738D02*
Y148754D01*
X117038Y143354D02*
Y150254D01*
X113538D02*
X117038D01*
X113538Y143354D02*
X117038D01*
X113538D02*
Y150254D01*
X120850Y136177D02*
Y143077D01*
X117350D02*
X120850D01*
X117350Y136177D02*
X120850D01*
X117350D02*
Y143077D01*
X83088Y115704D02*
Y117204D01*
X82288D02*
X83088D01*
X82288Y115704D02*
X83088D01*
X82288D02*
Y117204D01*
X114450Y89427D02*
Y90227D01*
X112950D02*
X114450D01*
X112950Y89427D02*
X114450D01*
X112950D02*
Y90227D01*
X110150Y88527D02*
Y89327D01*
X108650D02*
X110150D01*
X108650Y88527D02*
X110150D01*
X108650D02*
Y89327D01*
X118400Y90077D02*
Y91577D01*
X117600D02*
X118400D01*
X117600Y90077D02*
X118400D01*
X117600D02*
Y91577D01*
X108000Y91877D02*
Y93377D01*
X107200D02*
X108000D01*
X107200Y91877D02*
X108000D01*
X107200D02*
Y93377D01*
X82063Y113204D02*
Y122904D01*
X72363D02*
X82063D01*
X72363Y113204D02*
X82063D01*
X72363D02*
Y122904D01*
X116388Y90504D02*
Y93804D01*
X110788D02*
X116388D01*
X110788Y90504D02*
X116388D01*
X110788D02*
Y93804D01*
D30*
X138700Y138600D02*
D03*
Y142100D02*
D03*
Y135100D02*
D03*
X85400Y143950D02*
D03*
Y147450D02*
D03*
X78030Y106600D02*
D03*
X85100Y110770D02*
D03*
X91600Y119440D02*
D03*
Y114360D02*
D03*
Y121980D02*
D03*
Y116900D02*
D03*
X67400Y115400D02*
D03*
Y112860D02*
D03*
X73100Y128800D02*
D03*
X75640D02*
D03*
D31*
X80570Y106600D02*
D03*
X70560Y128800D02*
D03*
D32*
X85100Y108230D02*
D03*
X91600Y111820D02*
D03*
X67400Y117940D02*
D03*
D33*
X130000Y138507D02*
D03*
Y135967D02*
D03*
X119788Y151654D02*
D03*
X122328D02*
D03*
X125400Y148227D02*
D03*
X127940D02*
D03*
X111648Y151754D02*
D03*
X114188D02*
D03*
X125000Y137227D02*
D03*
X127540D02*
D03*
X103188Y151854D02*
D03*
X105728D02*
D03*
D34*
X130000Y133427D02*
D03*
D35*
X117248Y151654D02*
D03*
X122860Y148227D02*
D03*
X109108Y151754D02*
D03*
X122460Y137227D02*
D03*
X100648Y151854D02*
D03*
D36*
X113614Y142697D02*
D03*
X108534Y149454D02*
D03*
X103073Y146533D02*
D03*
X113993Y145974D02*
D03*
X106756Y142545D02*
D03*
X119024Y90427D02*
D03*
X122301Y145415D02*
D03*
X78308Y123825D02*
D03*
X115800Y95783D02*
D03*
X101803Y138024D02*
D03*
X69190Y115696D02*
D03*
X108026Y89865D02*
D03*
X84760Y134518D02*
D03*
X104191Y136550D02*
D03*
X78232Y100178D02*
D03*
X106655Y93193D02*
D03*
X112751Y94894D02*
D03*
X134187Y105385D02*
D03*
X116076Y131216D02*
D03*
X104800D02*
D03*
X121412Y143916D02*
D03*
X102758Y143053D02*
D03*
X71069Y115824D02*
D03*
X108915Y137668D02*
D03*
X86157Y130150D02*
D03*
X74879Y116383D02*
D03*
X102845Y137031D02*
D03*
X70663Y117805D02*
D03*
X69240Y118694D02*
D03*
X73711Y127203D02*
D03*
Y131267D02*
D03*
X107645Y136779D02*
D03*
M02*
